<svg width="360" height="360" viewBox="0 0 360 360" fill="none" xmlns="http://www.w3.org/2000/svg">
<circle r="180" transform="matrix(-1 0 0 1 180 180)" fill="#FAFAFA"/>
<g filter="url(#filter0_d)">
<path d="M270.715 66.5879H89.2855C86.3664 66.5879 84 68.5686 84 71.0119V285.164C84 287.607 86.3664 289.588 89.2855 289.588H270.715C273.634 289.588 276 287.607 276 285.164V71.0119C276 68.5686 273.634 66.5879 270.715 66.5879Z" fill="white"/>
</g>
<path d="M141.344 190.744V199.244C141.344 199.994 141.938 200.588 142.688 200.588H149.969C150.844 200.588 151.375 199.994 151.375 199.244V190.744H156.562C157.438 190.744 157.969 190.15 157.969 189.4V184.025C157.969 183.244 157.406 182.682 156.562 182.682H151.375V157.119C151.375 156.369 150.812 155.775 149.969 155.775H142.438C141.75 155.775 141.156 156.088 140.688 156.682L122.188 181.963C121.844 182.432 121.688 182.963 121.688 183.619V189.4C121.688 190.307 122.125 190.744 123.031 190.744H141.344ZM141.344 169.807V182.682H131.219L141.344 169.807Z" fill="#4272EF"/>
<path d="M180.5 201.213C191.75 201.213 197.469 195.088 197.469 181.963V174.4C197.469 161.369 191.844 155.15 180.5 155.15C169.188 155.15 163.531 161.557 163.531 174.4V181.963C163.531 194.807 169.188 201.213 180.5 201.213ZM180.5 165.057C183.281 165.057 185.125 165.682 186.094 166.9C187.062 168.15 187.531 170.65 187.531 174.4V181.963C187.531 185.588 187.062 188.057 186.125 189.338C185.188 190.65 183.312 191.307 180.5 191.307C177.844 191.307 176.031 190.619 175.031 189.275C174.031 187.932 173.531 185.494 173.531 181.963V174.4C173.531 170.744 174.031 168.244 175 166.963C175.969 165.682 177.812 165.057 180.5 165.057Z" fill="#FF5E5E"/>
<path d="M222.344 190.744V199.244C222.344 199.994 222.938 200.588 223.688 200.588H230.969C231.844 200.588 232.375 199.994 232.375 199.244V190.744H237.562C238.438 190.744 238.969 190.15 238.969 189.4V184.025C238.969 183.244 238.406 182.682 237.562 182.682H232.375V157.119C232.375 156.369 231.812 155.775 230.969 155.775H223.438C222.75 155.775 222.156 156.088 221.688 156.682L203.188 181.963C202.844 182.432 202.688 182.963 202.688 183.619V189.4C202.688 190.307 203.125 190.744 204.031 190.744H222.344ZM222.344 169.807V182.682H212.219L222.344 169.807Z" fill="#FFCF60"/>
<path d="M226.697 59.543H133.59V81.5871H226.697V59.543Z" fill="#F2BD3F"/>
<path d="M180.142 38C177.568 38 175.051 38.764 172.911 40.1953C170.771 41.6266 169.103 43.661 168.118 46.0412C167.133 48.4214 166.875 51.0405 167.377 53.5674C167.879 56.0942 169.119 58.4152 170.939 60.2369C172.759 62.0587 175.078 63.2993 177.603 63.8019C180.127 64.3045 182.744 64.0465 185.123 63.0606C187.501 62.0747 189.533 60.4051 190.963 58.263C192.394 56.1209 193.157 53.6024 193.157 51.0261C193.157 47.5714 191.786 44.2581 189.345 41.8153C186.904 39.3724 183.594 38 180.142 38ZM180.142 58.5411C178.657 58.5411 177.205 58.1004 175.97 57.2746C174.736 56.4489 173.773 55.2752 173.205 53.902C172.637 52.5288 172.488 51.0178 172.778 49.56C173.067 48.1022 173.782 46.7631 174.833 45.7121C175.883 44.6611 177.221 43.9454 178.677 43.6554C180.134 43.3655 181.643 43.5143 183.015 44.0831C184.387 44.6519 185.56 45.6151 186.385 46.8509C187.21 48.0868 187.651 49.5398 187.651 51.0261C187.651 53.0192 186.859 54.9307 185.451 56.34C184.043 57.7494 182.133 58.5411 180.142 58.5411Z" fill="#F2BD3F"/>
<defs>
<filter id="filter0_d" x="64" y="51.5879" width="232" height="263" filterUnits="userSpaceOnUse" color-interpolation-filters="sRGB">
<feFlood flood-opacity="0" result="BackgroundImageFix"/>
<feColorMatrix in="SourceAlpha" type="matrix" values="0 0 0 0 0 0 0 0 0 0 0 0 0 0 0 0 0 0 127 0" result="hardAlpha"/>
<feOffset dy="5"/>
<feGaussianBlur stdDeviation="10"/>
<feColorMatrix type="matrix" values="0 0 0 0 0 0 0 0 0 0 0 0 0 0 0 0 0 0 0.15 0"/>
<feBlend mode="normal" in2="BackgroundImageFix" result="effect1_dropShadow"/>
<feBlend mode="normal" in="SourceGraphic" in2="effect1_dropShadow" result="shape"/>
</filter>
</defs>
</svg>
