<svg width="635" height="290" viewBox="0 0 635 290" fill="none" xmlns="http://www.w3.org/2000/svg">
<path d="M207.5 8.00001C207.5 3.58173 211.082 0 215.5 0H282.944V62.6667H215.5C211.082 62.6667 207.5 59.0849 207.5 54.6667V8.00001Z" fill="#6FCA37"/>
<path d="M234.5 26.8983L244.896 39L259.5 22" stroke="white" stroke-width="6" stroke-linecap="round" stroke-linejoin="round"/>
<path d="M282.5 0H419.5C423.918 0 427.5 3.58172 427.5 8V54.6667C427.5 59.0849 423.918 62.6667 419.5 62.6667H282.5V0Z" fill="#F6F6F6"/>
<rect opacity="0.4" width="103.556" height="8" rx="4" transform="matrix(-1 0 0 1 402.056 19.3333)" fill="#CCCCCC"/>
<rect opacity="0.4" x="298.5" y="35.3333" width="71.8333" height="8" rx="4" fill="#CCCCCC"/>
<path d="M207.5 86.6667C207.5 82.2484 211.082 78.6667 215.5 78.6667H282.944V141.333H215.5C211.082 141.333 207.5 137.752 207.5 133.333V86.6667Z" fill="#6FCA37"/>
<path d="M234.5 105.565L244.896 117.667L259.5 100.667" stroke="white" stroke-width="6" stroke-linecap="round" stroke-linejoin="round"/>
<path d="M282.5 78.6667H419.5C423.918 78.6667 427.5 82.2484 427.5 86.6667V133.333C427.5 137.752 423.918 141.333 419.5 141.333H282.5V78.6667Z" fill="#F6F6F6"/>
<rect opacity="0.4" width="103.556" height="8" rx="4" transform="matrix(-1 0 0 1 402.056 98)" fill="#CCCCCC"/>
<rect opacity="0.4" x="298.5" y="114" width="71.8333" height="8" rx="4" fill="#CCCCCC"/>
<path d="M207.5 165.333C207.5 160.915 211.082 157.333 215.5 157.333H282.944V220H215.5C211.082 220 207.5 216.418 207.5 212V165.333Z" fill="#6FCA37"/>
<path d="M234.5 184.232L244.896 196.333L259.5 179.333" stroke="white" stroke-width="6" stroke-linecap="round" stroke-linejoin="round"/>
<path d="M282.5 157.333H419.5C423.918 157.333 427.5 160.915 427.5 165.333V212C427.5 216.418 423.918 220 419.5 220H282.5V157.333Z" fill="#F6F6F6"/>
<rect opacity="0.4" width="103.556" height="8" rx="4" transform="matrix(-1 0 0 1 402.056 176.667)" fill="#CCCCCC"/>
<rect opacity="0.4" x="298.5" y="192.667" width="71.8333" height="8" rx="4" fill="#CCCCCC"/>
<path d="M270.344 259.203C270.234 258.797 269.984 258.594 269.578 258.594H265.094C264.703 258.594 264.453 258.781 264.328 259.141L257.766 280.203C257.594 280.734 257.797 281 258.344 281H262.156C262.547 281 262.781 280.844 262.859 280.516L264.094 276.547H270.594L271.812 280.453C271.922 280.812 272.172 281 272.578 281H276.359C276.891 281 277.078 280.719 276.938 280.172L270.344 259.203ZM267.328 266.094L269.406 272.75H265.281L267.328 266.094ZM285.891 277.984C285.891 277.531 285.656 277.312 285.188 277.312H284.875C284.016 277.328 283.594 276.734 283.594 275.531V259.266C283.594 258.938 283.25 258.594 282.922 258.594H279.469C279.109 258.594 278.797 258.938 278.797 259.266V275.531C278.797 277.547 279.266 279.016 280.188 279.938C281.109 280.859 282.672 281.312 284.875 281.312H285.188C285.578 281.312 285.891 280.969 285.891 280.641V277.984ZM295.266 277.984C295.266 277.531 295.031 277.312 294.562 277.312H294.25C293.391 277.328 292.969 276.734 292.969 275.531V259.266C292.969 258.938 292.625 258.594 292.297 258.594H288.844C288.484 258.594 288.172 258.938 288.172 259.266V275.531C288.172 277.547 288.641 279.016 289.562 279.938C290.484 280.859 292.047 281.312 294.25 281.312H294.562C294.953 281.312 295.266 280.969 295.266 280.641V277.984ZM319.828 259.266C319.828 258.938 319.5 258.594 319.125 258.594H315.656C315.328 258.594 314.984 258.938 314.984 259.266V266.438C314.062 265.453 312.812 264.969 311.25 264.969C309.375 264.969 307.828 265.703 306.625 267.172C305.422 268.656 304.812 270.641 304.812 273.156C304.812 275.672 305.422 277.672 306.625 279.125C307.828 280.578 309.375 281.312 311.25 281.312C313 281.312 314.328 280.844 315.25 279.906L315.828 280.719C315.953 280.906 316.203 281 316.562 281H319.125C319.5 281 319.828 280.656 319.828 280.328V259.266ZM314.984 273.828C314.984 275.172 314.75 276.109 314.266 276.625C313.781 277.156 313.125 277.422 312.266 277.422C311.406 277.422 310.781 277.016 310.391 276.219C309.984 275.422 309.781 274.391 309.781 273.156C309.781 271.922 309.984 270.891 310.391 270.078C310.781 269.281 311.406 268.875 312.266 268.875C314.078 268.875 314.984 270.047 314.984 272.391V273.828ZM331.422 281.312C334.031 281.312 336.047 280.594 337.484 279.141C338.922 277.688 339.641 275.703 339.641 273.156C339.641 270.625 338.922 268.625 337.484 267.156C336.047 265.703 334.031 264.969 331.422 264.969C328.797 264.969 326.75 265.703 325.297 267.156C323.828 268.625 323.094 270.625 323.094 273.156C323.094 275.703 323.828 277.688 325.297 279.141C326.75 280.594 328.797 281.312 331.422 281.312ZM331.422 268.781C333.594 268.781 334.672 270.469 334.672 273.156C334.672 275.844 333.547 277.516 331.422 277.516C329.188 277.516 328.062 276.062 328.062 273.156C328.062 271.828 328.359 270.766 328.953 269.969C329.531 269.172 330.359 268.781 331.422 268.781ZM347.078 281C347.406 281 347.75 280.656 347.75 280.328V271.531C347.75 269.953 348.609 268.75 350.312 268.75C352.016 268.75 352.875 269.953 352.875 271.531V280.328C352.875 280.656 353.203 281 353.578 281H357.031C357.359 281 357.703 280.656 357.703 280.328V271.531C357.703 269.641 357.172 268.062 356.125 266.828C355.062 265.594 353.641 264.969 351.875 264.969C350.047 264.969 348.578 265.438 347.5 266.375L346.953 265.578C346.781 265.375 346.531 265.281 346.188 265.281H343.625C343.266 265.281 342.953 265.625 342.953 265.953V280.328C342.953 280.656 343.297 281 343.625 281H347.078ZM372.812 276.391C372.078 276.812 371.453 277.094 370.938 277.219C370.422 277.359 369.734 277.422 368.906 277.422C367.766 277.422 366.922 277.141 366.406 276.578C365.891 276.031 365.625 275.438 365.625 274.797V274.594H375.797C376.266 274.594 376.5 274.375 376.5 273.922V271.906C376.5 269.672 375.781 267.953 374.359 266.75C372.922 265.562 371 264.969 368.594 264.969C366.094 264.969 364.156 265.641 362.766 266.984C361.375 268.328 360.688 270.172 360.688 272.516V272.969C360.688 278.719 363.453 281.312 368.906 281.312C370.609 281.312 372 281.188 373.047 280.938C374.094 280.688 375.031 280.203 375.891 279.5C376.25 279.219 376.25 278.891 375.891 278.531L373.844 276.516C373.562 276.219 373.219 276.188 372.812 276.391ZM365.625 271.531C365.625 269.703 366.609 268.781 368.594 268.781C370.547 268.781 371.531 269.703 371.531 271.531H365.625Z" fill="#CCCCCC"/>
</svg>
