<svg width="138" height="48" viewBox="0 0 138 48" fill="none" xmlns="http://www.w3.org/2000/svg">
<g clip-path="url(#clip0)">
<ellipse cx="25.9374" cy="24" rx="25.9374" ry="24" fill="white"/>
<path fill-rule="evenodd" clip-rule="evenodd" d="M44.5148 20.3589C47.6609 25.1232 46.2802 35.5253 41.1675 40.8947C38.3595 43.0644 35.0018 44.6462 31.3159 45.435H31.3146C31.6277 45.368 31.9384 45.2952 32.2466 45.2169C23.7421 46.0582 20.4211 39.4649 22.8303 34.5452C23.5307 33.1148 24.5051 32.1919 25.5837 31.4858L25.6321 31.4543L25.7238 31.3956L25.7698 31.3666L25.8622 31.3094L25.9318 31.2671L26.0016 31.2253L26.1055 31.1642L26.2098 31.1041L26.2621 31.0744L26.367 31.0157L26.4723 30.9579L26.5779 30.901L26.6309 30.8728L26.737 30.8169L26.7901 30.7892L26.8966 30.7344L27.0033 30.6801L27.1637 30.5997L27.2708 30.5467L27.4317 30.468L27.5949 30.389L27.8621 30.2608L28.262 30.0696L28.477 29.9661L28.6199 29.8967L28.7622 29.8268L28.9039 29.7563L28.9681 29.724L29.0962 29.6589L29.16 29.6261L29.2871 29.5598L29.3388 29.5325L29.4418 29.4774L29.5442 29.4217C29.5612 29.4123 29.5782 29.4029 29.5952 29.3935L29.6968 29.3366L29.7978 29.279C29.8145 29.2693 29.8313 29.2596 29.848 29.2498L29.948 29.1908C31.3932 28.3284 32.6228 27.1676 33.2099 24.9769C35.7369 26.5317 43.5006 25.0093 44.5148 20.3589Z" fill="#FFCF60"/>
<path fill-rule="evenodd" clip-rule="evenodd" d="M49.7134 24C49.7134 30.7887 46.3904 36.8591 41.1673 40.8947C46.28 35.5253 47.6607 25.1232 44.5146 20.3589C43.4256 25.3524 34.5544 26.7393 32.7404 24.5826C32.0672 23.7104 31.0635 23.0038 29.9764 22.3897L29.8429 22.315C29.7759 22.2778 29.7087 22.241 29.6413 22.2045L29.5061 22.132L29.3705 22.0602L29.2344 21.9893L29.0981 21.9191L28.9617 21.8497L28.8251 21.7809L28.6886 21.7128L28.5522 21.6454L28.3537 21.5481L28.156 21.452L27.8616 21.31L27.3794 21.0779L27.1903 20.9865L26.9457 20.8672L26.7728 20.7818L26.603 20.6969L26.4916 20.6404L26.3817 20.5841L26.2735 20.5279L26.1669 20.4717L26.0621 20.4156L25.9592 20.3595C25.9253 20.3408 25.8916 20.3221 25.8583 20.3034L25.7593 20.2473C25.694 20.2099 25.6302 20.1724 25.5678 20.1349L25.4753 20.0786C25.0494 19.8154 24.6996 19.5485 24.462 19.2672L22.7238 17.1408C23.9377 16.2983 23.9805 15.3724 23.6267 14.453L23.5998 14.3849C23.5952 14.3735 23.5906 14.3622 23.5858 14.3508L23.5569 14.2828C23.547 14.2601 23.5369 14.2375 23.5266 14.2148L23.4952 14.1469L23.4626 14.079L23.429 14.0112L23.3943 13.9434L23.3588 13.8758L23.3223 13.8082L23.2648 13.7046L23.2058 13.6012L23.1575 13.5187L23.1331 13.4776L23.0838 13.3954L23.0339 13.3135L22.9585 13.191L22.7018 12.781L22.6069 12.6284L22.5374 12.5148L22.4921 12.4395L22.4477 12.3647L22.4043 12.2902L22.3621 12.2161L22.3212 12.1424L22.2817 12.0691L22.2507 12.0101L22.2208 11.9514L22.1921 11.893L22.1644 11.8349L22.1381 11.7771C22.1338 11.7675 22.1295 11.7579 22.1253 11.7483L22.1009 11.6911C21.7566 10.8627 21.8479 10.1403 23.2112 9.62087C24.2184 9.23713 25.3942 9.10175 26.642 9.08318L26.7234 9.08214L26.8772 9.08104L27.0315 9.08103L27.109 9.08141L27.1865 9.08205L27.3421 9.08406L27.4982 9.08699L27.6549 9.09079L27.8119 9.09541L27.8906 9.09801L28.0484 9.10376L28.2064 9.1102L28.3648 9.11726L28.4441 9.12101L28.6824 9.13307L28.9212 9.14617L29.1603 9.16015L29.5592 9.1849L30.3561 9.23678L30.6736 9.25723L31.0658 9.2814L31.2924 9.29454L31.5181 9.30681L31.7428 9.31806L31.892 9.32491L32.0406 9.33119L32.1886 9.33684L32.336 9.34183L32.5194 9.34704L32.7016 9.35105L32.8104 9.35283L32.9188 9.35412L33.0625 9.35505L33.1912 9.35506L33.3192 9.35427C33.3405 9.35407 33.3618 9.35383 33.383 9.35356L33.5099 9.35149L33.636 9.34852L33.7614 9.34463C33.7822 9.3439 33.803 9.34313 33.8238 9.34232L33.9479 9.33696C35.3087 9.27251 36.5153 9.02347 37.4146 8.38171C39.3912 6.97125 38.743 5.72518 37.6523 4.8515L37.6541 4.85243C44.8551 8.63326 49.7134 15.7917 49.7134 24Z" fill="#4272EF"/>
<path fill-rule="evenodd" clip-rule="evenodd" d="M33.4564 23.7327C32.9932 27.1379 31.2732 28.5146 29.2873 29.5598L29.1602 29.6261C29.139 29.6371 29.1177 29.648 29.0964 29.659L28.9683 29.7241C28.9469 29.7349 28.9255 29.7456 28.9041 29.7564L28.7624 29.8269L28.6201 29.8967L28.4772 29.9662L28.2622 30.0697L27.8623 30.2608L27.5951 30.389L27.4319 30.468L27.271 30.5468L27.1639 30.5998L27.0035 30.6801L26.8968 30.7344L26.7903 30.7892L26.7372 30.8169L26.6311 30.8728L26.5781 30.901L26.4725 30.958L26.3672 31.0158L26.2623 31.0744L26.21 31.1041L26.1057 31.1642L26.0018 31.2253C25.9552 31.253 25.9087 31.2811 25.8624 31.3094L25.77 31.3667C25.7547 31.3763 25.7393 31.3859 25.724 31.3956L25.6323 31.4543C24.5345 32.1645 23.5414 33.0935 22.8305 34.5452C20.4213 39.4649 23.7423 46.0582 32.2468 45.2169C30.2381 45.7275 28.1224 46.0001 25.9378 46.0001C15.1041 46.0001 5.96277 39.2954 3.0957 30.1257C4.84147 32.7193 9.76308 35.4239 13.2839 30.9757C15.2566 28.4833 14.7167 26.1351 13.837 24.039L13.7804 23.9055L13.723 23.7728C13.7134 23.7507 13.7038 23.7287 13.6941 23.7067L13.665 23.6407L13.5835 23.4585L13.5012 23.2776L13.4352 23.1339L13.369 22.9911L13.1026 22.4191L13.0117 22.2221L12.9449 22.0756L12.8795 21.9302L12.8367 21.8339L12.7948 21.7381L12.7537 21.6428L12.7136 21.548L12.6744 21.4537L12.6552 21.4068L12.6083 21.29L12.5633 21.174L12.5458 21.1278L12.5118 21.0358L12.4791 20.9444L12.4477 20.8535C12.4335 20.8113 12.4197 20.7693 12.4065 20.7275L12.3806 20.6441C12.3596 20.5747 12.34 20.5059 12.322 20.4376L12.3012 20.3558C12.1005 19.5404 12.1331 18.7964 12.6266 18.135C13.3187 17.2075 14.1487 16.9963 15.0793 17.0795L15.146 17.0859L15.213 17.0933C15.2241 17.0946 15.2354 17.096 15.2466 17.0974L15.3141 17.1062C15.3253 17.1077 15.3366 17.1093 15.3479 17.1109L15.4159 17.121L15.4842 17.1319L15.5185 17.1377L15.61 17.154L15.656 17.1626L15.7483 17.1808L15.7947 17.1903L15.8878 17.2102L15.9815 17.2312L16.0757 17.2531L16.1705 17.2759L16.2658 17.2996L16.3616 17.324L16.5062 17.3618L16.7008 17.414L17.1081 17.5256L17.3168 17.5827L17.4651 17.6226L17.6143 17.662L17.7143 17.6879L17.865 17.7259L17.9659 17.7505L18.0672 17.7746L18.1689 17.798L18.2709 17.8206L18.3221 17.8316L18.4247 17.853L18.5083 17.8696L18.5921 17.8856L18.6761 17.9009L18.7604 17.9154L18.8449 17.9292L18.9296 17.9421L19.0145 17.9542C19.0286 17.9561 19.0428 17.958 19.057 17.9598L19.1422 17.9705L19.2276 17.9802C19.2419 17.9818 19.2561 17.9833 19.2704 17.9847L19.3561 17.9929C19.3704 17.9942 19.3847 17.9954 19.399 17.9966L19.485 18.0032C20.5035 18.0743 21.5607 17.9084 22.6302 17.2044C23.9778 16.3174 23.992 15.3344 23.5909 14.362L23.5615 14.2926C23.5415 14.2463 23.5206 14.2 23.4989 14.1538L23.4657 14.0845L23.4315 14.0153C23.4257 14.0038 23.4198 13.9923 23.4139 13.9808L23.3782 13.9117L23.3414 13.8427L23.3074 13.7803C28.6932 14.7393 34.2649 17.7895 33.4564 23.7327Z" fill="#FF5E5E"/>
<path fill-rule="evenodd" clip-rule="evenodd" d="M25.9376 2C30.197 2 34.1947 3.03638 37.6525 4.85147C38.7432 5.72515 39.3913 6.97122 37.4148 8.38168C36.3246 9.15957 34.7832 9.36047 33.0627 9.35502L32.9189 9.35409C32.8468 9.3534 32.7744 9.35237 32.7018 9.35102L32.5561 9.34792C32.5317 9.34733 32.5073 9.34671 32.4829 9.34606L32.3362 9.3418L32.1888 9.33681L32.0408 9.33116L31.8922 9.32488L31.743 9.31803L31.5183 9.30678L31.2926 9.29451L31.0659 9.28138C31.0407 9.27987 31.0155 9.27836 30.9902 9.27683L30.6738 9.2572L30.3562 9.23675L29.5593 9.18487L29.1605 9.16013L28.9214 9.14615L28.6826 9.13304L28.4443 9.12099C28.4178 9.11971 28.3914 9.11846 28.365 9.11723L28.2066 9.11017L28.0485 9.10373L27.8908 9.09798C27.8645 9.09709 27.8383 9.09622 27.8121 9.09538L27.655 9.09076C27.5504 9.08795 27.4462 9.08568 27.3423 9.08403L27.1867 9.08202C27.1349 9.08151 27.0833 9.08117 27.0317 9.081L26.8773 9.08101L26.7236 9.08211C25.4455 9.09595 24.2404 9.22876 23.2114 9.62084C21.6443 10.2179 21.7578 11.0831 22.2818 12.0691L22.3214 12.1424L22.3623 12.216L22.4045 12.2901L22.4479 12.3646L22.4923 12.4395L22.5376 12.5148L22.6071 12.6283L22.7019 12.7809L22.9586 13.191L23.0341 13.3134L23.0839 13.3954L23.1333 13.4775C23.1414 13.4913 23.1496 13.505 23.1577 13.5187L23.2059 13.6012L23.2533 13.6838C23.2611 13.6976 23.2689 13.7114 23.2766 13.7252L23.3225 13.8082C23.9489 14.9564 24.2342 16.1484 22.63 17.2043C21.1839 18.1562 19.7602 18.1244 18.4244 17.8529L18.3218 17.8316C18.3048 17.8279 18.2877 17.8243 18.2707 17.8206L18.1686 17.7979L18.0669 17.7745L17.9656 17.7505L17.8647 17.7258L17.714 17.6878L17.6141 17.662L17.4649 17.6226L17.3166 17.5826L17.1079 17.5256L16.7005 17.4139L16.506 17.3617L16.3613 17.3239L16.2655 17.2995L16.1702 17.2759L16.0755 17.253L15.9813 17.2311L15.8876 17.2101L15.7944 17.1902C15.7789 17.187 15.7635 17.1838 15.748 17.1807L15.6557 17.1625C15.6404 17.1596 15.625 17.1567 15.6097 17.1539L15.5183 17.1376C14.4086 16.948 13.4256 17.0639 12.6264 18.1349C12.0342 18.9286 12.1057 19.8413 12.4475 20.8534L12.4788 20.9443L12.5115 21.0358L12.5456 21.1277C12.5513 21.1431 12.5572 21.1585 12.563 21.1739L12.5989 21.2666C12.605 21.2821 12.6111 21.2977 12.6173 21.3132L12.6549 21.4067C12.6613 21.4224 12.6677 21.438 12.6741 21.4537L12.7133 21.548L12.7535 21.6428L12.7946 21.7381L12.8365 21.8339L12.8792 21.9302L12.9446 22.0756L13.0114 22.222L13.1023 22.4191L13.3688 22.991L13.4349 23.1338L13.501 23.2775L13.5668 23.4221C13.5778 23.4463 13.5887 23.4705 13.5996 23.4948L13.6647 23.6407C14.6372 25.8359 15.3823 28.3241 13.2836 30.9756C9.76236 35.4245 4.83992 32.7185 3.09547 30.1244C2.48735 28.1804 2.16162 26.1254 2.16162 24C2.16162 11.8497 12.8065 2 25.9376 2Z" fill="#222222"/>
</g>
<path d="M84.3135 13.2656C84.3135 12.9375 83.942 12.5938 83.5874 12.5938H69.8926C69.538 12.5938 69.1665 12.9375 69.1665 13.2656V34.3281C69.1665 34.6562 69.538 35 69.8926 35H83.5537C83.942 35 84.3135 34.5938 84.3135 34.2656V31.6406C84.3135 31.3125 83.942 30.9688 83.5874 30.9688H74.5701V25.6875H81.7975C82.1521 25.6875 82.5574 25.3594 82.5574 24.9844V22.5469C82.5574 22.2188 82.1521 21.875 81.7975 21.875H74.5701V16.625H83.5874C83.9758 16.625 84.3135 16.2812 84.3135 15.9531V13.2656Z" fill="black"/>
<path d="M101.369 19.2812C100.947 19.2812 100.66 19.4688 100.474 19.8281L96.0495 31.3125L91.6084 19.8281C91.4733 19.4688 91.2032 19.2812 90.781 19.2812H86.8127C86.2555 19.2812 86.0022 19.5781 86.2217 20.0625L91.7604 34.4531C91.9462 34.8125 92.2163 35 92.5878 35H94.6311L94.2765 35.9219C94.1414 36.3281 93.9894 36.6562 93.8374 36.8906C93.4997 37.3594 92.6554 37.875 91.372 37.875H90.9668C90.5784 37.875 90.19 38.25 90.19 38.5781V41.0469C90.19 41.375 90.6121 41.7188 90.9668 41.7188H91.372C93.8205 41.7188 95.5598 41.4375 96.6068 40.8594C97.6368 40.2812 98.4474 39.2656 99.0215 37.8125L105.928 20.0625C106.131 19.625 105.877 19.2812 105.354 19.2812H101.369Z" fill="black"/>
<path d="M113.105 35C113.459 35 113.831 34.6562 113.831 34.3281V25.375C113.831 23.9531 114.574 23.0938 115.671 23.0938C116.178 23.0938 116.735 23.3125 117.36 23.7344C117.63 23.9531 117.917 23.9219 118.221 23.6406L120.687 21.375C120.957 21.1094 120.923 20.625 120.602 20.375C119.302 19.4375 118.069 18.9688 116.87 18.9688C116.11 18.9688 115.435 19.1094 114.844 19.4062C114.253 19.7031 113.814 20.0312 113.561 20.375L112.97 19.5781C112.784 19.375 112.514 19.2812 112.142 19.2812H109.373C108.984 19.2812 108.647 19.625 108.647 19.9531V34.3281C108.647 34.6562 109.018 35 109.373 35H113.105Z" fill="black"/>
<path d="M128.15 35.3125C130.565 35.3125 132.152 34.8438 132.895 33.9062L133.52 34.7188C133.655 34.9062 133.926 35 134.314 35H137.083C137.489 35 137.843 34.6562 137.843 34.3281V25.9062C137.843 23.7344 137.252 22.0312 136.087 20.7969C134.905 19.5781 132.879 18.9688 129.991 18.9688C127.205 18.9688 125.01 19.4688 123.422 20.4688C122.966 20.75 122.933 21.0781 123.355 21.4375L125.466 23.3594C125.736 23.6094 126.09 23.6562 126.529 23.4844C127.644 22.9688 128.792 22.7188 129.991 22.7188C131.747 22.7188 132.625 23.6406 132.625 25.4688V26.2344C131.747 25.5 130.278 25.1406 128.235 25.1406C126.462 25.1406 124.976 25.5781 123.777 26.4375C122.578 27.2969 121.97 28.5312 121.97 30.1406C121.97 31.75 122.561 33.0156 123.76 33.9375C124.959 34.8594 126.411 35.3125 128.15 35.3125ZM129.603 31.7344C127.897 31.7344 127.323 31.2812 127.323 30.2656C127.323 29.2031 127.914 28.7656 129.89 28.7656C131.038 28.7656 131.781 28.8594 132.119 29.0625C132.456 29.2656 132.625 29.6562 132.625 30.2031C132.608 31.2188 131.612 31.7344 129.603 31.7344Z" fill="black"/>
<defs>
<clipPath id="clip0">
<rect width="51.8748" height="48" fill="white"/>
</clipPath>
</defs>
</svg>
