<?xml version="1.0" encoding="UTF-8"?>
<svg width="16px" height="18px" viewBox="0 0 16 18" version="1.1" xmlns="http://www.w3.org/2000/svg" xmlns:xlink="http://www.w3.org/1999/xlink">
    <title>Shape</title>
    <g id="logo" stroke="none" stroke-width="1" fill="none" fill-rule="evenodd">
        <g id="apple" fill="#FFFFFF">
            <path d="M10.6489,2.91031 C11.2335,2.15559 11.6767,1.08886 11.5164,0 C10.5609,0.0664069 9.44395,0.677772 8.79224,1.47465 C8.19816,2.1967 7.7099,3.2708 7.90059,4.31329 C8.94521,4.34596 10.0234,3.71984 10.6489,2.91031 Z M15.8125,13.1528 C15.3944,14.0846 15.1933,14.5009 14.6547,15.3263 C13.9035,16.4784 12.8442,17.913 11.5303,17.9235 C10.3641,17.9362 10.0634,17.1593 8.48022,17.1688 C6.89704,17.1772 6.567,17.9383 5.39874,17.9268313 C4.08588,17.9151 3.08212,16.6207 2.33087,15.4686 C0.229051,12.2494 0.00797221,8.47056 1.30406,6.46044 C2.2261,5.03322 3.6804,4.19839 5.04669,4.19839 C6.43707,4.19839 7.31196,4.96576 8.46346,4.96576 C9.58038,4.96576 10.2604,4.19628 11.8687,4.19628 C13.0862,4.19628 14.376,4.86351 15.2939,6.01456 C12.2847,7.67368 12.7719,11.9965 15.8125,13.1528 Z" id="Shape"></path>
        </g>
    </g>
</svg>
