<?xml version="1.0" encoding="UTF-8"?>
<svg width="48px" height="48px" viewBox="0 0 48 48" version="1.1" xmlns="http://www.w3.org/2000/svg" xmlns:xlink="http://www.w3.org/1999/xlink">
    <title>eyra-logo</title>
    <g id="eyra-logo" stroke="none" stroke-width="1" fill="none" fill-rule="evenodd">
        <g id="logo">
            <path d="M41.2520971,20.3456684 C44.1737212,25.1272395 42.8915736,35.5672168 38.1435601,40.9561249 C35.5358603,43.1337304 32.417597,44.721187 28.9946074,45.512871 L28.9934076,45.512871 C29.2841829,45.4456209 29.5727469,45.3726234 29.8589715,45.2940041 C21.9610396,46.1383793 18.8769461,39.5210507 21.1143062,34.5834915 C21.7648002,33.1479369 22.6696746,32.2216723 23.6713272,31.5129574 L23.7162414,31.4813683 L23.8014213,31.4224728 L23.8441735,31.393394 L23.9299891,31.33595 L23.9946127,31.293472 L23.9946127,31.293472 L24.0594509,31.2514942 L24.1558827,31.190189 L24.2527368,31.1298914 L24.3013131,31.1001037 L24.398746,31.0412168 L24.4965285,30.9832031 L24.5946315,30.9260088 L24.6437941,30.897702 L24.7423234,30.8416358 L24.7916828,30.8138629 L24.8905729,30.7588039 L24.9896672,30.704349 L25.1386281,30.6236817 L25.2381058,30.5705018 L25.3875056,30.4914948 L25.5390728,30.4121815 L25.7872042,30.2835286 L26.158592,30.091677 L26.3582751,29.9877837 L26.4909045,29.9181199 L26.6230574,29.8479825 L26.7546634,29.777241 L26.8143439,29.7448181 L26.9332948,29.6794669 L26.9925519,29.6465139 L27.1105961,29.5799916 L27.158577,29.5525915 L27.158577,29.5525915 L27.2541893,29.4973132 L27.2541893,29.4973132 L27.3493114,29.4413525 C27.3651226,29.4319659 27.3809122,29.4225487 27.3966795,29.4130996 L27.491012,29.3560153 L27.491012,29.3560153 L27.5847819,29.2981149 C27.6003618,29.2883939 27.615917,29.2786366 27.6314469,29.268842 L27.7243189,29.2096173 C29.0664307,28.3441023 30.2083515,27.1790495 30.7535497,24.9804324 C33.1003084,26.5409049 40.3102146,25.0129667 41.2520971,20.3456684 Z" id="Path" fill="#FFCF60"></path>
            <path d="M34.8809222,4.78276971 C41.5682768,8.57734906 46.08,15.7617898 46.08,24 C46.08,30.8133089 42.9940217,36.9058489 38.1435601,40.9561249 C42.8915736,35.5672168 44.1737212,25.1272395 41.2520971,20.3456684 C40.3101978,25.0130499 33.1000513,26.5409594 30.7531589,24.9804077 L30.776549,24.8855702 C30.8611158,24.5287223 30.9302337,24.1450987 30.9822743,23.7316846 C31.7331306,17.7668226 26.5588248,14.7055348 21.5572313,13.7430457 L21.5572313,13.7430457 L21.5685113,13.7658393 L21.5180709,13.6670975 L21.4631982,13.5633607 L21.418387,13.4805846 L21.3957185,13.4392729 L21.3499313,13.3568117 L21.3036443,13.2745793 L21.2335408,13.151693 L20.9951474,12.7401464 L20.9070866,12.5869838 L20.8425571,12.4730061 L20.8004593,12.3974719 L20.759223,12.3223141 L20.7189551,12.247546 L20.6797618,12.173181 L20.6417498,12.0992324 L20.6050257,12.0257136 L20.5762963,11.9664877 L20.5485383,11.9075596 L20.5218085,11.8489365 L20.4961633,11.7906255 L20.4716593,11.7326337 C20.4676736,11.7229954 20.4637378,11.7133707 20.4598531,11.7037597 L20.4371673,11.64626 C20.1173867,10.8149397 20.2021806,10.089884 21.4682572,9.56855003 C22.4035721,9.18341428 23.4954921,9.04753747 24.6542945,9.0289076 L24.7299625,9.02785748 L24.8727123,9.0267548 L25.0160761,9.02674432 L25.0879768,9.02713176 L25.1600172,9.02777198 L25.3044988,9.02978371 L25.4494841,9.03272543 L25.5949364,9.03654307 L25.740819,9.04118257 L25.8139101,9.04379362 L25.9603692,9.04956451 L26.2542656,9.06311226 L26.3279167,9.06687767 L26.5492215,9.07897413 L26.7709568,9.09212897 L26.9929988,9.1061597 L27.363413,9.13099502 L28.1034658,9.18306456 L28.3983826,9.20358939 L28.7625581,9.22785053 L28.9730371,9.24103209 L29.1826617,9.25334801 L29.3913222,9.26463684 L29.5298393,9.27151239 L29.6678466,9.27781185 L29.8053116,9.2834874 L29.9422018,9.28849119 L30.1124566,9.29372839 L30.2816989,9.29774778 L30.3827319,9.299536 L30.4833639,9.30083199 L30.6168922,9.3017594 L30.8552811,9.30098045 C30.8750376,9.30077836 30.8947662,9.30054099 30.9144663,9.30026763 L31.0323216,9.29818978 L31.1494704,9.29521325 L31.2658889,9.29130316 L31.3238168,9.28898714 L31.4390954,9.28361133 C32.7028607,9.21892729 33.823323,8.96897887 34.6585162,8.32488619 C36.4941081,6.90929594 35.8921607,5.65869418 34.8792823,4.78183928 L34.8809222,4.78276971 Z" id="Combined-Shape" fill="#4272EF"></path>
            <path d="M30.9822743,23.7316846 C30.5520726,27.1492407 28.9548387,28.5309859 27.1105961,29.5799916 L26.9925519,29.6465139 C26.9728249,29.6575311 26.9530721,29.6685148 26.9332948,29.6794669 L26.8143439,29.7448181 C26.7944724,29.7556525 26.7745786,29.7664594 26.7546634,29.777241 L26.6230574,29.8479825 L26.4909045,29.9181199 L26.3582751,29.9877837 L26.158592,30.091677 L25.7872042,30.2835286 L25.5390728,30.4121815 L25.3875056,30.4914948 L25.2381058,30.5705018 L25.1386281,30.6236817 L24.9896672,30.704349 L24.8905729,30.7588039 L24.7916828,30.8138629 L24.7423234,30.8416358 L24.6437941,30.897702 L24.5946315,30.9260088 L24.5946315,30.9260088 L24.4965285,30.9832031 L24.398746,31.0412168 L24.3013131,31.1001037 L24.2527368,31.1298914 L24.1558827,31.190189 L24.0594509,31.2514942 C24.0161559,31.2793164 23.972998,31.3074609 23.9299891,31.33595 L23.8441735,31.393394 C23.8299052,31.4030467 23.8156543,31.4127394 23.8014213,31.4224728 L23.7162414,31.4813683 C22.6967424,32.1941361 21.774509,33.1265108 21.1143062,34.5834915 C18.8769461,39.5210507 21.9610396,46.1383793 29.8589715,45.2940041 C27.9935273,45.8063982 26.0287152,46.08 24,46.08 C13.9390638,46.08 5.44978053,39.3509539 2.78721834,30.1479297 C4.40845527,32.7509154 8.97900659,35.4654199 12.248669,31.0009756 C14.0806895,28.4995084 13.5792391,26.1427901 12.7623476,24.0390678 L12.7097966,23.9051322 L12.7097966,23.9051322 L12.6565055,23.7718902 C12.6475684,23.7497413 12.6386054,23.7276216 12.6296188,23.7055311 L12.6025908,23.6393478 L12.5268934,23.4564336 L12.5268934,23.4564336 L12.4505307,23.2748979 L12.3891713,23.1306732 L12.3277461,22.9873501 L12.0803197,22.4133073 L11.9958782,22.2155719 L11.9338259,22.0685512 L11.8730885,21.92264 L11.8334244,21.8259875 L11.7944905,21.729836 L11.756345,21.6341885 L11.7190462,21.5390482 L11.6826525,21.4444183 L11.6648132,21.3972957 L11.6213164,21.2800534 L11.6213164,21.2800534 L11.5794843,21.1636218 L11.563243,21.1172776 L11.5316433,21.0249829 L11.5012692,20.9332157 L11.4721791,20.8419792 C11.4589519,20.7996528 11.4461606,20.7574998 11.4338315,20.7155215 L11.4097976,20.6317983 C11.390296,20.5622238 11.3721276,20.4931374 11.3554145,20.4245456 L11.3360653,20.3424733 C11.1497159,19.5241326 11.1799949,18.7773937 11.6383061,18.1135962 C12.2810106,17.1827317 13.0517713,16.9707331 13.9160411,17.0542386 L13.9779332,17.0607001 L13.9779332,17.0607001 L14.0401406,17.0681325 C14.0505346,17.0694502 14.0609416,17.0708069 14.0713616,17.072202 L14.1340367,17.0810263 C14.1445083,17.0825717 14.1549927,17.084154 14.1654899,17.0857725 L14.2286263,17.0959116 L14.2286263,17.0959116 L14.2920668,17.1068845 L14.2920668,17.1068845 L14.3239001,17.1126728 L14.4088618,17.1289944 L14.4515391,17.137648 L14.5372827,17.1558905 L14.5803473,17.1654594 L14.666858,17.1854419 L14.7538719,17.2064838 L14.8413824,17.2285047 L14.929383,17.2514241 L15.0178671,17.2751617 L15.1068282,17.2996369 L15.2411497,17.3375569 L15.4218532,17.3899479 L15.8001473,17.5020308 L15.9939522,17.5592762 L16.1316489,17.5993545 L16.2702021,17.6389111 L16.3630365,17.6648665 L16.5029709,17.7029873 L16.5967068,17.7277494 L16.6907926,17.7519022 L16.785222,17.77537 L16.8799889,17.7980773 L16.927497,17.8091222 L17.0227587,17.8305472 L17.1003962,17.8472596 L17.1003962,17.8472596 L17.1782431,17.8633048 L17.1782431,17.8633048 L17.256296,17.8786423 L17.256296,17.8786423 L17.3345517,17.8932317 L17.3345517,17.8932317 L17.4130068,17.9070324 L17.4130068,17.9070324 L17.491658,17.9200039 L17.491658,17.9200039 L17.570502,17.9321057 C17.5836585,17.934048 17.596823,17.9359523 17.6099952,17.9378179 L17.6891223,17.9485392 L17.6891223,17.9485392 L17.7684338,17.9582897 C17.7816676,17.9598316 17.794909,17.9613313 17.8081578,17.9627881 L17.88774,17.9710062 C17.9010185,17.9722876 17.9143043,17.9735244 17.9275974,17.9747157 L18.0074428,17.9813103 C18.9533,18.0527226 19.9351431,17.8861663 20.9283266,17.1796216 C22.1797474,16.2893683 22.1930091,15.302805 21.8204501,14.3268786 L21.7931941,14.2571891 C21.7746013,14.2107434 21.7551797,14.1643276 21.7350212,14.1179533 L21.7042424,14.0484243 L21.7042424,14.0484243 L21.6724274,13.9789661 C21.6670424,13.9673961 21.6616171,13.9558295 21.6561529,13.9442663 L21.622913,13.8749306 L21.622913,13.8749306 L21.5888095,13.8056874 L21.5888095,13.8056874 L21.5572313,13.7430457 C26.5588248,14.7055348 31.7331306,17.7668226 30.9822743,23.7316846 Z" id="Path" fill="#FF5E5E"></path>
            <path d="M24,1.92 C27.9555637,1.92 31.6681888,2.96014404 34.8792823,4.78183928 C35.8921607,5.65869418 36.4941081,6.90929594 34.6585162,8.32488619 C33.6461608,9.10560459 32.2146773,9.30723134 30.6168922,9.3017594 L30.4833639,9.30083199 C30.4164127,9.30013655 30.3491849,9.29909951 30.2816989,9.29774778 L30.1463881,9.29463268 C30.1237807,9.29404622 30.101146,9.29342679 30.0784846,9.29277538 L29.9422018,9.28849119 L29.9422018,9.28849119 L29.8053116,9.2834874 L29.8053116,9.2834874 L29.6678466,9.27781185 L29.6678466,9.27781185 L29.5298393,9.27151239 L29.5298393,9.27151239 L29.3913222,9.26463684 L29.3913222,9.26463684 L29.1826617,9.25334801 L29.1826617,9.25334801 L28.9730371,9.24103209 L28.9730371,9.24103209 L28.7625581,9.22785053 C28.7391281,9.22634381 28.7156844,9.22482404 28.6922275,9.22329222 L28.3983826,9.20358939 L28.1034658,9.18306456 L27.363413,9.13099502 L26.9929988,9.1061597 L26.9929988,9.1061597 L26.7709568,9.09212897 L26.7709568,9.09212897 L26.5492215,9.07897413 L26.5492215,9.07897413 L26.3279167,9.06687767 C26.3033558,9.06559918 26.2788052,9.06434367 26.2542656,9.06311226 L26.1071666,9.05602208 L26.1071666,9.05602208 L25.9603692,9.04956451 L25.9603692,9.04956451 L25.8139101,9.04379362 C25.7895305,9.04289203 25.7651666,9.04202131 25.740819,9.04118257 L25.5949364,9.03654307 C25.4978207,9.03371802 25.4009918,9.03144087 25.3044988,9.02978371 L25.1600172,9.02777198 C25.1119447,9.02726241 25.0639623,9.02691686 25.0160761,9.02674432 L24.8727123,9.0267548 L24.8727123,9.0267548 L24.7299625,9.02785748 C23.5430409,9.04174758 22.4239051,9.17504176 21.4682572,9.56855003 C20.0129967,10.1677844 20.1184216,11.0361717 20.6050257,12.0257136 L20.6417498,12.0992324 L20.6417498,12.0992324 L20.6797618,12.173181 L20.6797618,12.173181 L20.7189551,12.247546 L20.7189551,12.247546 L20.759223,12.3223141 L20.759223,12.3223141 L20.8004593,12.3974719 L20.8004593,12.3974719 L20.8425571,12.4730061 L20.8425571,12.4730061 L20.9070866,12.5869838 L20.9070866,12.5869838 L20.9951474,12.7401464 L20.9951474,12.7401464 L21.2335408,13.151693 L21.2335408,13.151693 L21.3036443,13.2745793 L21.3036443,13.2745793 L21.3499313,13.3568117 L21.3499313,13.3568117 L21.3957185,13.4392729 C21.4033013,13.4530347 21.4108583,13.4668053 21.418387,13.4805846 L21.4631982,13.5633607 L21.4631982,13.5633607 L21.5072079,13.6463277 C21.5144693,13.6601706 21.5216923,13.6740208 21.5288744,13.6878781 L21.5714554,13.7711032 C22.1531393,14.9234772 22.4181133,16.1197962 20.9283266,17.1796216 C19.5854306,18.1349497 18.2632672,18.1030662 17.0227587,17.8305472 L16.927497,17.8091222 C16.9116473,17.8054764 16.8958112,17.8017943 16.8799889,17.7980773 L16.785222,17.77537 L16.785222,17.77537 L16.6907926,17.7519022 L16.6907926,17.7519022 L16.5967068,17.7277494 L16.5967068,17.7277494 L16.5029709,17.7029873 L16.5029709,17.7029873 L16.3630365,17.6648665 L16.3630365,17.6648665 L16.2702021,17.6389111 L16.2702021,17.6389111 L16.1316489,17.5993545 L16.1316489,17.5993545 L15.9939522,17.5592762 L15.9939522,17.5592762 L15.8001473,17.5020308 L15.4218532,17.3899479 L15.4218532,17.3899479 L15.2411497,17.3375569 L15.2411497,17.3375569 L15.1068282,17.2996369 L15.1068282,17.2996369 L15.0178671,17.2751617 L15.0178671,17.2751617 L14.929383,17.2514241 L14.929383,17.2514241 L14.8413824,17.2285047 L14.8413824,17.2285047 L14.7538719,17.2064838 L14.7538719,17.2064838 L14.666858,17.1854419 L14.666858,17.1854419 L14.5803473,17.1654594 C14.5659712,17.1622217 14.5516162,17.1590315 14.5372827,17.1558905 L14.4515391,17.137648 C14.4372917,17.1347104 14.4230658,17.1318253 14.4088618,17.1289944 L14.3239001,17.1126728 C13.2934072,16.9223322 12.3804767,17.0386693 11.6383061,18.1135962 C11.0883326,18.9101532 11.1547257,19.8261459 11.4721791,20.8419792 L11.5012692,20.9332157 L11.5012692,20.9332157 L11.5316433,21.0249829 L11.5316433,21.0249829 L11.563243,21.1172776 C11.5686085,21.1327039 11.5740227,21.148152 11.5794843,21.1636218 L11.6128132,21.256702 C11.6184596,21.2722587 11.6241511,21.2878372 11.6298863,21.3034372 L11.6648132,21.3972957 C11.6707187,21.4129818 11.6766655,21.4286894 11.6826525,21.4444183 L11.7190462,21.5390482 L11.7190462,21.5390482 L11.756345,21.6341885 L11.756345,21.6341885 L11.7944905,21.729836 L11.7944905,21.729836 L11.8334244,21.8259875 L11.8334244,21.8259875 L11.8730885,21.92264 L11.8730885,21.92264 L11.9338259,22.0685512 L11.9338259,22.0685512 L11.9958782,22.2155719 L11.9958782,22.2155719 L12.0803197,22.4133073 L12.0803197,22.4133073 L12.3277461,22.9873501 L12.3277461,22.9873501 L12.3891713,23.1306732 L12.3891713,23.1306732 L12.4505307,23.2748979 L12.4505307,23.2748979 L12.5116641,23.4200156 C12.5218253,23.4442759 12.5319704,23.4685729 12.5420961,23.4929067 L12.6025908,23.6393478 C13.505717,25.8425221 14.197627,28.3398403 12.248669,31.0009756 C8.97857762,35.4660056 4.40725595,32.750203 2.7872395,30.1466396 C2.22249238,28.1956242 1.92,26.1331375 1.92,24 C1.92,11.8055527 11.8055527,1.92 24,1.92 Z" id="Path" fill="#222222"></path>
            <circle id="Oval" stroke="#FFFFFF" stroke-width="1.92" cx="24" cy="24" r="23.04"></circle>
        </g>
    </g>
</svg>
