<svg width="80" height="80" viewBox="0 0 80 80" fill="none" xmlns="http://www.w3.org/2000/svg">
<g clip-path="url(#clip0)">
<path d="M80 40C80.0071 45.4148 78.9111 50.7742 76.7787 55.7515L76.6462 56.0568C73.0391 64.2626 66.7846 71.0219 58.8829 75.2537C50.9811 79.4855 41.8885 80.9455 33.0592 79.4C32.8189 79.3574 32.5791 79.3132 32.3396 79.2675C29.8655 78.7878 27.4427 78.0733 25.1041 77.1337C24.7243 76.9811 24.3471 76.8229 23.9728 76.6592C23.7172 76.5479 23.4615 76.4331 23.2083 76.3148C16.2804 73.1039 10.4148 67.9794 6.30288 61.5454C2.19095 55.1113 0.00406705 47.6358 0 40C0 17.9089 17.9089 0 40 0C62.0911 0 80 17.9089 80 40Z" fill="#FFCF60"/>
<path d="M40.1723 51.7241C49.2183 51.7241 56.5516 44.3909 56.5516 35.3448C56.5516 26.2988 49.2183 18.9655 40.1723 18.9655C31.1262 18.9655 23.793 26.2988 23.793 35.3448C23.793 44.3909 31.1262 51.7241 40.1723 51.7241Z" fill="#DA9D00"/>
<path d="M34.197 49.6551C34.197 49.6551 34.197 53.1034 33.1031 54.8275C32.8343 55.534 37.5589 63.8741 37.5589 63.8741L43.6258 64.9692L48.6203 55.6896C48.6203 55.6896 46.8962 53.9654 46.7238 49.8275L34.197 49.6551Z" fill="#DA9D00"/>
<path d="M69.4061 70.345L73.2762 67.8302C65.6899 58.6209 51.0347 60.5174 47.7589 54.3105L33.4485 54.1381C30.3451 60.345 13.6016 59.792 7.58646 67.8302C7.78117 68.0305 10.4921 70.6652 10.69 70.8622C30.8392 90.9263 52.759 84.1381 69.4061 70.345Z" fill="#DA9D00"/>
</g>
<defs>
<clipPath id="clip0">
<path d="M0 40C0 17.9086 17.9086 0 40 0V0C62.0914 0 80 17.9086 80 40V40C80 62.0914 62.0914 80 40 80V80C17.9086 80 0 62.0914 0 40V40Z" fill="white"/>
</clipPath>
</defs>
</svg>
