<svg width="80" height="80" viewBox="0 0 80 80" fill="none" xmlns="http://www.w3.org/2000/svg">
<g clip-path="url(#clip0)">
<path d="M80 40C80.0071 45.4148 78.9111 50.7742 76.7787 55.7515L76.6462 56.0568C73.0391 64.2626 66.7846 71.0219 58.8829 75.2537C50.9811 79.4855 41.8885 80.9455 33.0592 79.4C32.8189 79.3574 32.5791 79.3132 32.3396 79.2675C29.8655 78.7878 27.4427 78.0733 25.1041 77.1337C24.7243 76.9811 24.3471 76.8229 23.9728 76.6592C23.7172 76.5479 23.4615 76.4331 23.2083 76.3148C16.2804 73.1039 10.4148 67.9794 6.30288 61.5454C2.19095 55.1113 0.00406705 47.6358 0 40C0 17.9089 17.9089 0 40 0C62.0911 0 80 17.9089 80 40Z" fill="#FFCF60"/>
<path opacity="0.2" d="M33.0593 79.4C32.8191 79.3574 32.5792 79.3132 32.3398 79.2674C32.1836 74.7337 31.6475 65.4284 29.8191 55.6828C28.8191 50.3491 27.4309 44.8816 25.5054 39.9941C24.8458 38.3029 24.0924 36.6498 23.2486 35.0426C21.3031 31.368 18.9433 28.2745 16.0818 26.1787L16.5031 25.6035C18.883 27.3479 21.0218 29.7968 22.9197 32.9503C23.4889 33.8946 24.0356 34.9021 24.5599 35.9727C25.122 37.1183 25.6581 38.3345 26.1682 39.6213C26.4936 40.4402 26.808 41.2875 27.1114 42.1633C28.4321 45.9656 29.5548 50.3041 30.4794 55.1787C30.6842 56.2556 30.879 57.3589 31.064 58.4887C32.4972 67.2426 32.9291 75.3361 33.0593 79.4Z" fill="black"/>
<path opacity="0.2" d="M23.9725 76.659C23.7169 76.5478 23.4613 76.433 23.2081 76.3147C22.9607 73.6283 22.5063 70.2957 21.6755 67.1324C21.3117 65.7117 20.8445 64.3194 20.2779 62.9667C19.3299 60.7478 18.1027 58.8614 16.5157 57.6981L16.937 57.1241C18.5986 58.3407 19.8802 60.2638 20.8708 62.5135C21.9867 65.0484 22.7311 67.9987 23.227 70.8176C23.595 72.9111 23.827 74.9336 23.9725 76.659Z" fill="black"/>
<path opacity="0.2" d="M12.1019 26.1622C14.0685 26.1622 15.6627 24.568 15.6627 22.6014C15.6627 20.6349 14.0685 19.0406 12.1019 19.0406C10.1354 19.0406 8.54114 20.6349 8.54114 22.6014C8.54114 24.568 10.1354 26.1622 12.1019 26.1622Z" fill="black"/>
<path opacity="0.2" d="M13.2488 56.8142C15.2153 56.8142 16.8095 55.22 16.8095 53.2534C16.8095 51.2868 15.2153 49.6926 13.2488 49.6926C11.2822 49.6926 9.68799 51.2868 9.68799 53.2534C9.68799 55.22 11.2822 56.8142 13.2488 56.8142Z" fill="black"/>
<path opacity="0.2" d="M26.2383 28.5824C25.4832 32.8424 27.1501 36.6998 27.1501 36.6998C27.1501 36.6998 30.0412 33.6503 30.7962 29.3903C31.5513 25.1302 29.8845 21.2728 29.8845 21.2728C29.8845 21.2728 26.9934 24.3223 26.2383 28.5824Z" fill="black"/>
<path opacity="0.2" d="M14.4042 38.6949C18.4675 40.1807 22.5506 39.2272 22.5506 39.2272C22.5506 39.2272 20.0457 35.8648 15.9824 34.3789C11.9191 32.8931 7.83606 33.8466 7.83606 33.8466C7.83606 33.8466 10.3409 37.2091 14.4042 38.6949Z" fill="black"/>
<path opacity="0.2" d="M13.7154 65.8382C16.5635 66.8796 19.4294 66.2002 19.4294 66.2002C19.4294 66.2002 17.6778 63.8324 14.8297 62.791C11.9817 61.7495 9.11572 62.4289 9.11572 62.4289C9.11572 62.4289 10.8674 64.7968 13.7154 65.8382Z" fill="black"/>
<path d="M37.8489 52.1174C46.3711 53.3602 54.2872 47.4591 55.53 38.9369C56.7728 30.4146 50.8717 22.4985 42.3495 21.2557C33.8272 20.0129 25.9111 25.914 24.6683 34.4363C23.4255 42.9585 29.3266 50.8746 37.8489 52.1174Z" fill="#DA9D00"/>
<path d="M32.3479 47.6217C32.3479 47.6217 32.9407 57.0651 32.8 58.0295C32.6594 58.9939 41.1886 64.67 41.1886 64.67L49.5972 64.4188L53.7563 56.1609C53.7563 56.1609 49.989 48.2244 50.4109 45.3311L32.3479 47.6217Z" fill="#DA9D00"/>
<path d="M73.3287 64.258L73.1535 64.541C68.4 72.1405 61.2356 77.9264 52.8059 80.9737C44.3762 84.021 35.1681 84.1535 26.6542 81.3501C26.4226 81.2733 26.1916 81.195 25.9613 81.1151C23.5822 80.2835 21.2879 79.2269 19.1094 77.9596C18.7555 77.7537 18.4052 77.5428 18.0584 77.3268C17.8215 77.1798 17.5851 77.0293 17.3516 76.8757C15.2335 75.4921 13.2517 73.9104 11.4328 72.152L10.3774 66.5792L11.52 65.9446L13.8704 64.6381L16.3782 63.2446L17.0303 62.8817L26.8703 57.4136L27.5965 57.0101L32.711 54.1681L32.7124 54.1671C32.7124 54.1671 36.5067 63.0023 44.0919 61.646C51.6771 60.2897 52.5272 53.3528 52.5272 53.3528L73.3287 64.258Z" fill="#2F2E41"/>
<path d="M28.53 22.303C28.53 22.303 34.9772 12.4024 44.0102 16.2214C53.0432 20.0404 57.8149 24.4889 57.6873 28.2228C57.5597 31.9568 56.1435 37.3792 56.1435 37.3792C56.1435 37.3792 56.2243 29.6773 49.4538 30.3578C42.6834 31.0382 32.6552 28.325 32.6552 28.325L28.8787 42.7846C28.8787 42.7846 27.4285 39.8629 25.149 41.1983C22.8695 42.5337 21.5213 24.6165 28.53 22.303Z" fill="#2F2E41"/>
<path d="M25.1044 77.1336C24.7246 76.981 24.3474 76.8228 23.9731 76.6591C23.7175 76.5478 23.4618 76.433 23.2086 76.3147C19.412 74.5542 15.9145 72.2102 12.8429 69.3679C13.9305 67.8863 14.8216 67.1324 14.8216 67.1324H22.1317L23.2275 70.8176L25.1044 77.1336Z" fill="#2F2E41"/>
</g>
<defs>
<clipPath id="clip0">
<path d="M0 40C0 17.9086 17.9086 0 40 0V0C62.0914 0 80 17.9086 80 40V40C80 62.0914 62.0914 80 40 80V80C17.9086 80 0 62.0914 0 40V40Z" fill="white"/>
</clipPath>
</defs>
</svg>
