<svg width="25" height="24" viewBox="0 0 25 24" fill="none" xmlns="http://www.w3.org/2000/svg">
<path d="M22.676 13.2462C23.684 13.2462 24.5 14.0538 24.5 15.0462V16.2C24.5 17.1923 23.684 18 22.676 18H19.916C18.908 18 18.092 17.1923 18.092 16.2V15.4846C18.092 14.2385 17.06 13.2462 15.812 13.2462H2.78C1.508 13.2462 0.5 12.2538 0.5 11.0077V8.23846C0.5 6.99231 1.532 6 2.78 6H15.812C17.084 6 18.092 6.99231 18.092 8.23846V11.0077C18.092 12.2538 19.124 13.2462 20.372 13.2462H22.676Z" fill="white"/>
<path d="M14.6349 10.5753C14.8687 10.5753 14.9856 10.4384 14.9856 10.1644C14.9856 9.89041 14.8687 9.72603 14.6349 9.72603H13.7464V8.90411H15.1493C15.3831 8.90411 15.5 8.76712 15.5 8.46575C15.5 8.19178 15.3831 8.05479 15.1493 8.05479H13.3723C13.1385 8.05479 12.9982 8.19178 12.9982 8.49315V11.5068C12.9982 11.8082 13.1151 11.9452 13.3723 11.9452C13.6061 11.9452 13.7464 11.8082 13.7464 11.5068V10.5479C13.7464 10.5753 14.6349 10.5753 14.6349 10.5753ZM11.7122 10.4932C12.0396 10.3014 12.2266 9.91781 12.2266 9.42466C12.2266 8.63014 11.7356 8.05479 11.0342 8.05479H9.98201C9.7482 8.05479 9.60791 8.19178 9.60791 8.49315V11.5068C9.60791 11.8082 9.72482 11.9452 9.98201 11.9452C10.2158 11.9452 10.3561 11.8082 10.3561 11.5068V10.7123H10.9874L11.3615 11.6438C11.4317 11.8356 11.5252 11.9178 11.6655 11.9178C11.8525 11.9178 12.0863 11.7534 12.0863 11.5068C12.0863 11.4247 12.0629 11.3425 12.0396 11.2603L11.7122 10.4932ZM10.9406 9.94521H10.3094V8.90411H10.9406C11.2212 8.90411 11.455 9.06849 11.455 9.42466C11.455 9.78082 11.2212 9.94521 10.9406 9.94521ZM7.97122 10.1644C7.97122 10.7671 7.66727 11.1233 7.2464 11.1233C6.82554 11.1233 6.52158 10.7671 6.52158 10.1644V8.46575C6.52158 8.16438 6.40468 8.0274 6.14748 8.0274C5.91367 8.0274 5.77338 8.16438 5.77338 8.46575V10.1644C5.77338 11.2877 6.40468 12 7.2464 12C8.08813 12 8.71942 11.2877 8.71942 10.1644V8.46575C8.71942 8.16438 8.60252 8.0274 8.34532 8.0274C8.11151 8.0274 7.97122 8.16438 7.97122 8.46575V10.1644ZM3.78597 11.1781C3.5054 11.1781 3.29496 11.0959 3.15468 11.0411C3.03777 10.9863 2.94424 10.9589 2.82734 10.9589C2.61691 10.9589 2.5 11.1233 2.5 11.3699C2.5 11.7808 3.20144 12 3.80935 12C4.53417 12 5.09532 11.5342 5.09532 10.8219C5.09532 10.1644 4.72122 9.86301 4.32374 9.69863L3.71583 9.47945C3.45863 9.39726 3.34173 9.31507 3.34173 9.12329C3.34173 8.93151 3.59892 8.82192 3.80935 8.82192C4.06655 8.82192 4.2536 8.90411 4.39388 8.9589C4.48741 8.9863 4.58094 9.0411 4.69784 9.0411C4.88489 9.0411 5.0018 8.87671 5.0018 8.63014C5.0018 8.21918 4.3705 8 3.80935 8C3.10791 8 2.59353 8.46575 2.59353 9.15069C2.59353 9.72603 2.94424 10.0548 3.31835 10.1918L3.85612 10.3836C4.13669 10.4932 4.34712 10.5753 4.34712 10.7671C4.30036 11.0411 4.01978 11.1781 3.78597 11.1781Z" fill="#222222"/>
</svg>
