<?xml version="1.0" encoding="UTF-8"?>
<svg width="13px" height="17px" viewBox="0 0 13 17" version="1.1" xmlns="http://www.w3.org/2000/svg" xmlns:xlink="http://www.w3.org/1999/xlink">
    <title>surfconext</title>
    <g id="surfconext" stroke="none" stroke-width="1" fill="none" fill-rule="evenodd">
        <g id="logo-2" fill="#FFFFFF" fill-rule="nonzero">
            <path d="M6.44144144,13.5068493 C5.03603604,13.5068493 3.98198198,13.1575342 3.27927928,12.9246575 C2.69369369,12.6917808 2.22522523,12.5753425 1.63963964,12.5753425 C0.585585586,12.5753425 0,13.2739726 0,14.3219178 C0,16.0684932 3.51351351,17 6.55855856,17 C10.1891892,17 13,15.0205479 13,11.9931507 C13,9.19863014 11.1261261,7.91780822 9.13513514,7.21917808 L6.09009009,6.28767123 C4.8018018,5.93835616 4.21621622,5.5890411 4.21621622,4.7739726 C4.21621622,3.95890411 5.5045045,3.49315068 6.55855856,3.49315068 C7.84684685,3.49315068 8.78378378,3.84246575 9.48648649,4.07534247 C9.95495495,4.19178082 10.4234234,4.42465753 11.009009,4.42465753 C11.9459459,4.42465753 12.5315315,3.7260274 12.5315315,2.67808219 C12.5315315,0.931506849 9.36936937,0 6.55855856,0 C3.04504505,0 0.468468468,1.97945205 0.468468468,4.89041096 C0.468468468,7.33561644 2.22522523,8.73287671 4.0990991,9.31506849 L6.79279279,10.130137 C8.1981982,10.5958904 9.25225225,10.9452055 9.25225225,11.760274 C9.01801802,12.9246575 7.61261261,13.5068493 6.44144144,13.5068493 L6.44144144,13.5068493 Z" id="Shape"></path>
        </g>
    </g>
</svg>