<?xml version="1.0" encoding="UTF-8"?>
<svg width="500px" height="500px" viewBox="0 0 500 500" version="1.1" xmlns="http://www.w3.org/2000/svg" xmlns:xlink="http://www.w3.org/1999/xlink">
    <title>vu</title>
    <g id="vu" stroke="none" stroke-width="1" fill="none" fill-rule="evenodd">
        <rect fill="#FFFFFF" x="0" y="0" width="500" height="500"></rect>
        <g id="vrije-universiteit-amsterdam-logo-vector" transform="translate(38.000000, 145.000000)" fill-rule="nonzero">
            <path d="M48.8729447,172.596962 L0,40 L29.4210264,40 L67.595416,142.455764 L104.554061,40 L124.005979,40 L76.7135027,172.596962 L48.8729447,172.596962 L48.8729447,172.596962 Z M140.175386,40 L167.651221,40 L167.651221,121.429848 C167.651221,136.135836 170.082711,145.615728 175.188839,150.841823 C180.294968,155.581769 186.738416,158.012511 194.640757,158.012511 C202.543099,158.012511 208.500249,155.581769 213.363229,150.841823 C218.104634,146.101877 220.1714,136.986595 220.1714,123.495979 L220.1714,40.1215371 L244,40.1215371 L244,121.551385 C244,136.986595 242.054808,147.803396 238.04285,154.487936 C234.030892,161.294013 228.56004,166.39857 221.387145,170.409294 C214.21425,174.420018 204.73144,176 193.546587,176 C182.483308,176 173.243647,174.420018 165.341305,170.895442 C157.438964,167.370867 150.995516,162.144772 146.618834,154.974084 C141.877429,147.803396 139.810663,136.743521 139.810663,121.672922 L139.810663,40.2430742 L140.175386,40.2430742 L140.175386,40 Z" id="Shape" fill="#000000"></path>
            <path d="M299.827535,101.321629 C299.827535,100.957163 300.19171,100.106742 301.041451,100.106742 C301.405625,100.106742 302.255366,100.471208 302.255366,101.321629 C302.255366,101.686096 301.891192,102.536517 301.041451,102.536517 C300.19171,102.536517 299.827535,102.050562 299.827535,101.321629 M365.257587,133.394663 C363.679497,129.021067 359.3094,126.226826 353.725389,126.591292 C350.569208,120.638343 345.349371,123.432584 343.771281,125.011938 C345.349371,126.591292 346.563286,126.955758 348.505551,127.441713 L348.505551,128.656601 C344.985196,128.656601 343.771281,127.077247 341.343449,124.283006 C340.129534,133.030197 350.447816,136.188904 353.603997,129.021067 C358.338268,129.021067 361.494449,130.964888 362.344189,134.123596 C363.558105,137.282303 362.344189,140.441011 360.766099,142.020365 C357.974093,145.543539 353.239822,145.543539 348.869726,143.235253 C346.07772,142.020365 343.285714,139.226124 340.979275,136.431882 C337.458919,132.422753 335.395263,130.478933 332.603257,129.264045 C331.025167,128.413624 329.447076,128.049157 328.233161,128.049157 C327.38342,128.049157 326.65507,127.684691 325.441155,127.684691 C324.591414,127.684691 323.863064,127.684691 323.013323,128.049157 C316.700962,128.899579 310.267209,131.572331 302.740933,132.422753 L299.099186,132.422753 C296.671355,134.852528 294.364915,136.796348 292.301258,138.375702 L287.566987,142.384831 L287.566987,142.384831 C285.624722,144.328652 284.410807,145.179073 284.410807,145.179073 C284.774981,149.552669 285.260548,151.982444 285.260548,155.870084 C285.260548,159.393258 285.260548,160.972612 285.260548,162.1875 C285.260548,163.766854 284.896373,164.981742 284.410807,166.196629 C283.925241,167.411517 283.196891,168.140449 281.618801,168.140449 C280.404885,168.504916 277.248705,166.196629 276.034789,167.775983 C275.185048,168.990871 276.034789,171.785112 277.248705,172.514045 L285.988897,172.514045 C287.202813,170.570225 287.566987,168.990871 287.931162,167.775983 C288.780903,166.561096 289.145078,164.981742 289.873427,164.252809 C290.723168,163.037921 291.087343,161.823034 291.451517,160.729635 C291.451517,159.514747 291.815692,158.785815 292.301258,157.935393 C293.150999,156.356039 293.879349,154.776685 294.243523,153.926264 C294.243523,153.561798 294.607698,153.561798 294.607698,153.075843 C294.971873,153.440309 295.457439,154.29073 295.457439,154.655197 C297.399704,157.813904 299.46336,160.24368 302.255366,161.458567 C303.469282,161.823034 304.197631,162.673455 304.683198,163.037921 C305.047372,163.402388 305.047372,164.617275 305.047372,165.832163 C305.047372,167.047051 304.683198,168.261938 303.469282,168.626404 C301.527017,169.476826 298.735011,166.682584 297.521095,168.261938 C296.30718,169.476826 297.521095,171.420646 298.735011,173 L306.625463,173 C308.567728,169.841292 309.417469,165.832163 309.417469,162.308989 C309.417469,158.785815 309.417469,157.935393 306.989637,156.720506 C306.139896,156.356039 305.411547,154.29073 305.047372,152.711376 C305.047372,152.34691 305.047372,152.34691 305.047372,151.496489 C308.567728,150.281601 312.937824,147.973315 317.30792,144.693118 C317.30792,145.543539 317.30792,145.908006 317.30792,146.636938 C318.157661,151.739466 318.521836,156.113062 322.406366,159.757725 C323.620281,160.972612 324.348631,161.701545 324.348631,162.551966 C324.348631,162.916433 323.984456,164.495787 323.134715,165.346208 C322.284974,167.290028 320.342709,168.869382 318.764619,168.869382 C316.822354,169.233848 314.758697,166.439607 313.180607,168.018961 C311.966691,169.233848 313.544782,172.02809 314.394523,172.757022 L322.284974,172.757022 C325.07698,168.018961 328.597335,164.009831 329.811251,161.21559 C330.660992,159.27177 330.660992,158.421348 328.96151,158.056882 C326.169504,156.477528 326.533679,153.31882 327.38342,149.674157 C327.38342,148.823736 327.747594,148.45927 328.233161,147.730337 C330.175426,153.31882 332.967432,158.421348 338.915618,160.000702 C340.129534,160.000702 341.343449,160.851124 341.707624,161.21559 C341.707624,161.580056 341.707624,162.794944 341.707624,163.645365 C341.343449,165.224719 340.493708,167.654494 338.915618,168.383427 C337.337528,169.598315 333.817172,165.589185 332.603257,168.018961 C331.753516,169.598315 333.452998,172.02809 333.817172,172.757022 L341.707624,172.757022 C343.649889,168.018961 345.713546,163.645365 346.441895,160.486657 C346.80607,156.963483 346.80607,155.384129 344.014064,154.898174 C342.435973,154.898174 341.222058,154.047753 340.857883,152.103933 C339.643967,148.580758 340.008142,142.141854 337.337528,138.254213 C340.493708,141.777388 343.649889,144.571629 346.80607,146.150983 C353.603997,149.674157 360.644708,148.580758 363.800888,143.721208 C366.107328,140.198034 366.107328,136.188904 365.257587,133.394663 M432.265729,40.9417135 C426.317543,40.0912921 412.843079,41.7921348 400.946706,44.1004213 C408.108808,40.5772472 410.415248,39.7268258 412.843079,38.1474719 C413.69282,37.7830056 414.056995,36.568118 414.056995,34.988764 C414.056995,33.4094101 412.478905,33.0449438 410.53664,33.4094101 C408.594375,33.4094101 404.588453,34.988764 399.490007,36.568118 C389.535899,40.5772472 375.333087,47.2591292 358.216876,58.8005618 C343.164323,69.1271067 333.210215,77.8742978 322.527757,88.565309 C319.735751,91.3595506 316.579571,94.8827247 313.059215,98.8918539 C312.695041,98.0414326 312.209474,97.6769663 311.11695,98.0414326 C315.122872,89.2942416 315.487047,88.9297753 317.429312,84.1917135 C318.279053,81.7619382 317.793486,80.1825843 317.065137,79.0891854 C315.851221,77.1453652 314.273131,78.238764 313.059215,79.0891854 C311.481125,81.0330056 311.11695,81.5189607 307.475204,85.8925562 C311.8453,71.1924157 314.273131,69.9775281 318.157661,61.7162921 C318.521836,60.5014045 318.521836,58.9220506 318.157661,57.7071629 C317.793486,56.4922753 316.943745,56.127809 316.215396,56.4922753 C314.637306,57.3426966 314.273131,58.0716292 311.11695,61.5948034 C315.487047,53.2120787 321.435233,43.3714888 322.163583,41.7921348 C323.013323,40.2127809 323.741673,39.8483146 322.163583,37.054073 C320.585492,34.6242978 319.371577,36.6896067 318.157661,37.4185393 C317.30792,37.7830056 315.365655,39.8483146 312.573649,43.3714888 C318.88601,31.4655899 324.834197,25.8771067 326.048113,23.9332865 C327.626203,21.5035112 327.626203,21.1390449 326.412287,18.3448034 C325.198372,15.9150281 323.256107,17.1299157 322.406366,18.3448034 C318.036269,22.7183989 318.036269,21.5035112 310.509993,30.6151685 C314.515914,20.2886236 321.19245,12.3918539 323.620281,8.38272472 C324.834197,6.80337079 324.834197,5.95294944 323.620281,2.42977528 C323.256107,0.850421348 321.678016,0 320.099926,0 C318.157661,0.850421348 316.094004,1.94382022 312.209474,5.58848315 C303.833457,13.1207865 292.786825,23.8117978 283.682457,43.25 C274.942265,61.4733146 273,78.6032303 273,90.5091292 C273,108.732444 277.734271,124.647472 282.104367,134.974017 C282.104367,134.609551 282.104367,134.123596 282.104367,133.759129 C281.740192,129.021067 282.468542,123.068118 283.682457,120.273876 C285.624722,113.106039 288.052554,109.218399 289.994819,105.938202 L286.474463,101.20014 L291.208734,102.779494 L288.416728,96.4620787 C288.416728,96.4620787 291.937084,96.8265449 294.72909,100.471208 C296.30718,98.8918539 299.827535,97.6769663 303.105107,100.106742 C305.532939,100.106742 306.625463,100.471208 307.839378,100.957163 C310.267209,102.536517 309.781643,104.966292 309.781643,105.695225 C308.567728,104.480337 304.683198,102.172051 301.041451,105.330758 L308.203553,107.760534 L299.099186,108.610955 L299.099186,118.087079 L288.052554,128.049157 L288.052554,131.572331 L295.57883,124.768961 L295.57883,128.292135 L282.468542,140.198034 L282.468542,143.721208 L299.099186,128.656601 L299.099186,128.656601 L303.469282,125.133427 L303.469282,125.133427 C305.897113,123.189607 306.989637,121.974719 308.567728,121.124298 C310.145818,119.90941 310.509993,121.124298 310.995559,123.068118 C311.359734,124.647472 313.42339,126.226826 317.30792,122.703652 C328.840118,112.01264 341.100666,106.424157 354.210955,100.106742 C347.048853,104.844803 334.42413,112.01264 330.054034,116.750702 C328.111769,119.180478 330.054034,124.283006 333.210215,121.85323 C338.794226,118.330056 345.956329,117.479635 349.840859,117.844101 C351.418949,117.844101 353.361214,116.629213 354.57513,115.04986 C355.789045,113.834972 355.789045,112.255618 353.361214,112.255618 C365.257587,108.732444 368.413768,107.517556 378.367876,106.667135 C381.159882,106.667135 382.737972,105.087781 383.102147,102.658006 C383.466321,100.714185 382.737972,99.863764 379.945966,99.863764 C377.15396,99.4992978 372.055514,100.22823 366.835677,101.078652 C378.367876,96.3405899 392.206514,93.5463483 403.253146,90.3876404 C406.773501,89.1727528 407.259067,88.4438202 407.259067,86.3785112 C407.623242,83.948736 406.045152,83.948736 402.160622,83.948736 C394.27017,84.3132022 382.373797,85.1636236 364.043671,90.2661517 C381.03849,81.5189607 390.992598,77.5098315 406.409326,73.622191 C410.779423,72.4073034 411.143597,71.1924157 411.507772,69.2485955 C412.357513,66.8188202 410.293856,66.8188202 408.715766,66.8188202 C406.287935,66.8188202 401.189489,66.8188202 390.507032,69.9775281 C400.825315,65.6039326 412.357513,60.0154494 420.247964,57.7071629 C421.826055,56.8567416 423.03997,56.127809 423.03997,54.1839888 C423.03997,52.6046348 422.675796,52.6046348 421.097705,52.6046348 C417.57735,52.6046348 411.993338,53.8195225 405.195411,55.7633427 C419.034049,49.8103933 423.404145,47.866573 432.994078,46.2872191 C436.150259,45.4367978 436.514434,44.7078652 437,42.7640449 C435.907476,40.9417135 434.207994,40.9417135 432.265729,40.9417135 M293.150999,88.565309 C293.150999,87.3504213 292.301258,86.6214888 291.572909,86.1355337 C293.515174,81.0330056 295.57883,77.3883427 299.46336,71.7998596 C295.943005,79.0891854 294.243523,85.4066011 293.150999,88.565309 M280.404885,84.1917135 C283.196891,54.4269663 296.671355,32.5589888 305.775722,22.2324438 C292.665433,42.1566011 285.139156,69.6130618 280.404885,84.1917135 M329.932642,92.9389045 C347.413027,76.2949438 371.205774,58.8005618 401.310881,51.6327247 C375.940044,60.3799157 341.100666,84.1917135 329.932642,92.9389045" id="Shape" fill="#0089CF"></path>
        </g>
    </g>
</svg>