<svg width="50" height="48" viewBox="0 0 50 48" fill="none" xmlns="http://www.w3.org/2000/svg">
<path fill-rule="evenodd" clip-rule="evenodd" d="M16.489 41.7298C15.8534 41.372 15.4622 40.7129 15.4622 40V27.4464L4.11563 33.7365C3.47757 34.0902 2.69367 34.0877 2.05806 33.7298C1.42245 33.372 1.03125 32.7129 1.03125 32V16C1.03125 15.2871 1.42245 14.628 2.05806 14.2702C2.69367 13.9123 3.47757 13.9098 4.11563 14.2635L15.4622 20.5536V8C15.4622 7.28706 15.8534 6.62802 16.489 6.27018C17.1246 5.91234 17.9085 5.9098 18.5465 6.26351L47.4083 22.2635C48.0507 22.6196 48.4471 23.2823 48.4471 24C48.4471 24.7177 48.0507 25.3804 47.4083 25.7365L18.5465 41.7365C17.9085 42.0902 17.1246 42.0877 16.489 41.7298ZM17.5237 24L3.09281 16V32L17.5237 24L17.5237 40L46.3855 24L17.5237 8L17.5237 24Z" fill="white"/>
<path d="M46.3857 24L31.9548 32L31.9548 16L46.3857 24Z" fill="#FFCF60"/>
<path d="M31.9551 16L17.5242 24L17.5242 8L31.9551 16Z" fill="#4272EF"/>
<path d="M31.9551 32L17.5242 40L17.5242 24L31.9551 32Z" fill="#FF5E5E"/>
<path d="M17.5234 24L31.9543 32L31.9543 16L17.5234 24Z" fill="white"/>
<path d="M17.5234 24L3.09254 32L3.09254 16L17.5234 24Z" fill="#222222"/>
</svg>
