<svg width="24" height="24" viewBox="0 0 24 24" fill="none" xmlns="http://www.w3.org/2000/svg">
<path d="M8.4375 17C8.24479 17 8.14844 16.9036 8.14844 16.7109V6.08594C8.14844 5.89323 8.24479 5.79688 8.4375 5.79688H11.6406C12.9219 5.79688 13.9167 6.0625 14.625 6.59375C15.3333 7.11979 15.6875 7.90104 15.6875 8.9375C15.6875 9.85417 15.2708 10.5781 14.4375 11.1094C14.9479 11.2917 15.3698 11.6146 15.7031 12.0781C16.0365 12.5417 16.2031 13.138 16.2031 13.8672C16.2031 14.9036 15.8464 15.6849 15.1328 16.2109C14.4245 16.737 13.4531 17 12.2188 17H8.4375ZM10.1875 10.6016H11.9922C13.0391 10.6016 13.5625 10.0677 13.5625 9C13.5625 8.53125 13.3984 8.15365 13.0703 7.86719C12.7474 7.57552 12.2708 7.42969 11.6406 7.42969H10.1875V10.6016ZM10.1875 15.3672H12.2188C12.849 15.3672 13.3177 15.2266 13.625 14.9453C13.9323 14.6641 14.0859 14.2812 14.0859 13.7969C14.0859 12.7292 13.5755 12.1979 12.5547 12.2031H10.1875V15.3672Z" fill="#4272EF"/>
</svg>
