<svg width="24" height="24" viewBox="0 0 24 24" fill="none" xmlns="http://www.w3.org/2000/svg">
<g clip-path="url(#clip0_133_4925)">
<path d="M10.5059 10.1973C10.5788 10.1973 10.6426 10.2246 10.6973 10.2793C10.7565 10.3294 10.7861 10.3864 10.7861 10.4502V11.373C10.7861 11.4368 10.7565 11.4961 10.6973 11.5508C10.6426 11.6009 10.5788 11.626 10.5059 11.626H7.94238V19.7471C7.94238 19.9157 7.85807 20 7.68945 20H6.43164C6.26302 20 6.17871 19.9157 6.17871 19.7471V11.626H3.61523C3.54232 11.626 3.47624 11.6009 3.41699 11.5508C3.3623 11.5007 3.33496 11.4414 3.33496 11.373V10.4502C3.33496 10.3864 3.3623 10.3294 3.41699 10.2793C3.47624 10.2246 3.54232 10.1973 3.61523 10.1973H10.5059Z" fill="#4272EF"/>
<path d="M20.7949 4.5957C20.9095 4.5957 21.0098 4.63867 21.0957 4.72461C21.1888 4.80339 21.2354 4.8929 21.2354 4.99316V6.44336C21.2354 6.54362 21.1888 6.63672 21.0957 6.72266C21.0098 6.80143 20.9095 6.84082 20.7949 6.84082H16.7666V19.6025C16.7666 19.8675 16.6341 20 16.3691 20H14.3926C14.1276 20 13.9951 19.8675 13.9951 19.6025V6.84082H9.9668C9.85221 6.84082 9.74837 6.80143 9.65527 6.72266C9.56934 6.64388 9.52637 6.55078 9.52637 6.44336V4.99316C9.52637 4.8929 9.56934 4.80339 9.65527 4.72461C9.74837 4.63867 9.85221 4.5957 9.9668 4.5957H20.7949Z" fill="#4272EF"/>
</g>
<defs>
<clipPath id="clip0_133_4925">
<rect width="24" height="24" fill="white"/>
</clipPath>
</defs>
</svg>
