<svg width="24" height="24" viewBox="0 0 24 24" fill="none" xmlns="http://www.w3.org/2000/svg">
<path d="M13.5001 7.99999L14.9636 6.53088C15.8052 5.68594 17.1734 5.68443 18.0169 6.52749V6.52749C18.8592 7.36924 18.8598 8.73337 18.0176 9.57511C17.1035 10.4887 15.9337 11.6578 14.9619 12.629C13.0535 14.5363 10.9998 12.629 10.9998 12.629" stroke="#4272EF" stroke-width="2" stroke-linecap="square"/>
<path d="M9.99964 15.0004L8.56396 16.4903C7.73368 17.352 6.35748 17.365 5.5111 16.5191V16.5191C4.67587 15.6844 4.67519 14.3317 5.51042 13.4969C6.42637 12.5815 7.60253 11.406 8.57888 10.4302C10.4873 8.52299 12.5005 10.5 12.5005 10.5" stroke="#4272EF" stroke-width="2" stroke-linecap="square"/>
</svg>
