<svg width="24" height="24" viewBox="0 0 24 24" fill="none" xmlns="http://www.w3.org/2000/svg">
<path d="M10 6.5H19" stroke="#4272EF"/>
<path d="M10 12.5H19" stroke="#4272EF"/>
<path d="M10 18.5H19" stroke="#4272EF"/>
<path d="M4.1394 5.60986C4.09546 5.56592 4.09546 5.52279 4.1394 5.48047L5.07446 4.54541C5.1119 4.51611 5.14852 4.50065 5.18433 4.49902H5.65552C5.71574 4.49902 5.74585 4.52913 5.74585 4.58936V7.90967C5.74585 7.96989 5.71574 8 5.65552 8H5.21118C5.15096 8 5.12085 7.96989 5.12085 7.90967V5.21924L4.50073 5.83447C4.45679 5.88167 4.41528 5.88493 4.37622 5.84424L4.1394 5.60986Z" fill="#4272EF"/>
<path d="M4.35358 14C4.29336 14 4.26406 13.9699 4.26569 13.9097V13.5703C4.26569 13.5264 4.27871 13.4897 4.30475 13.4604L5.63532 11.9639C5.74925 11.8337 5.8054 11.6823 5.80378 11.5098C5.80378 11.3161 5.76309 11.1753 5.6817 11.0874C5.60032 10.9995 5.45954 10.9556 5.25934 10.9556C5.1861 10.9556 5.1153 10.9629 5.04694 10.9775C4.97858 10.9922 4.92894 11.0068 4.89801 11.0215C4.86872 11.0345 4.82721 11.0565 4.7735 11.0874C4.72142 11.1183 4.69375 11.1338 4.69049 11.1338C4.64004 11.1631 4.59772 11.1615 4.56354 11.1289L4.30475 10.8701C4.26081 10.8262 4.26081 10.7863 4.30475 10.7505C4.5375 10.5503 4.86546 10.4502 5.28864 10.4502C6.04873 10.4502 6.42878 10.8034 6.42878 11.5098C6.42878 11.8597 6.31728 12.1551 6.0943 12.396L5.11042 13.5044H6.37018C6.42715 13.5044 6.45563 13.5345 6.45563 13.5947V13.9097C6.45563 13.9699 6.42715 14 6.37018 14H4.35358Z" fill="#4272EF"/>
<path d="M5.20561 20.0488C4.80847 20.0488 4.48784 19.9577 4.2437 19.7754C4.1965 19.738 4.19487 19.6965 4.23881 19.6509L4.50004 19.3896C4.52934 19.3571 4.56922 19.3538 4.61967 19.3799C4.78894 19.4906 4.97693 19.5459 5.18364 19.5459C5.3643 19.5459 5.49614 19.5036 5.57915 19.4189C5.66215 19.3327 5.70366 19.1927 5.70366 18.999C5.70366 18.6296 5.53927 18.4448 5.21049 18.4448H4.8687C4.84591 18.4448 4.82475 18.4367 4.80522 18.4204C4.78732 18.4041 4.77836 18.3838 4.77836 18.3594V18.0591C4.77836 17.9989 4.80847 17.9696 4.8687 17.9712H5.21049C5.37 17.9712 5.49207 17.924 5.5767 17.8296C5.66134 17.7336 5.70366 17.6107 5.70366 17.4609C5.70366 17.2803 5.66622 17.1509 5.59135 17.0728C5.51648 16.9946 5.38221 16.9556 5.18852 16.9556C5.13155 16.9556 5.07866 16.9588 5.02983 16.9653C4.98263 16.9718 4.93787 16.9824 4.89555 16.9971C4.85486 17.0117 4.82231 17.0247 4.7979 17.0361C4.77511 17.0459 4.74581 17.0605 4.71 17.0801C4.67582 17.0996 4.65385 17.111 4.64409 17.1143C4.59363 17.1403 4.55375 17.1387 4.52446 17.1094L4.26567 16.8555C4.22172 16.8083 4.22172 16.7668 4.26567 16.731C4.47237 16.5438 4.78569 16.4502 5.20561 16.4502C5.59624 16.4502 5.88595 16.5365 6.07475 16.709C6.26518 16.8799 6.3604 17.1216 6.3604 17.4341C6.3604 17.631 6.29855 17.8003 6.17485 17.9419C6.05115 18.0835 5.91606 18.1714 5.76957 18.2056C6.16346 18.3162 6.3604 18.5913 6.3604 19.0308C6.3604 19.3547 6.2603 19.6053 6.0601 19.7827C5.85991 19.9601 5.57508 20.0488 5.20561 20.0488Z" fill="#4272EF"/>
</svg>
