<svg width="24" height="24" viewBox="0 0 24 24" fill="none" xmlns="http://www.w3.org/2000/svg">
<path d="M8.59406 8C9.39934 8 10.0264 8.26168 10.4752 8.78505C10.9241 9.30841 11.1485 10.0187 11.1485 10.9159C11.1485 12.1371 10.8713 13.3707 10.3168 14.6168C9.76238 15.8505 9.20132 16.8349 8.63366 17.5701C8.44884 17.8567 8.15182 18 7.74257 18H7.38614C7.12211 18 6.93069 17.9315 6.81188 17.7944C6.70627 17.6449 6.73267 17.4455 6.89109 17.1963C8.0264 15.3022 8.59406 13.8567 8.59406 12.8598C7.89439 12.8598 7.28713 12.6231 6.77228 12.1495C6.25743 11.676 6 11.109 6 10.4486C6 9.78816 6.25743 9.21495 6.77228 8.72897C7.28713 8.24299 7.89439 8 8.59406 8ZM15.4059 8C16.2112 8 16.8449 8.25545 17.3069 8.76636C17.769 9.27726 18 9.99377 18 10.9159C18 12.1371 17.7228 13.3707 17.1683 14.6168C16.6139 15.8505 16.0396 16.8349 15.4455 17.5701C15.2607 17.8567 14.9769 18 14.5941 18H14.198C13.5776 18 13.4125 17.7321 13.703 17.1963C14.8383 15.4143 15.4059 13.9688 15.4059 12.8598C14.7327 12.8598 14.1386 12.6168 13.6238 12.1308C13.1089 11.6449 12.8515 11.0841 12.8515 10.4486C12.8515 9.78816 13.1023 9.21495 13.604 8.72897C14.1056 8.24299 14.7063 8 15.4059 8Z" fill="#4272EF"/>
</svg>
