<svg width="24" height="24" viewBox="0 0 24 24" fill="none" xmlns="http://www.w3.org/2000/svg">
<circle cx="12" cy="12" r="9" stroke="#CCCCCC" stroke-width="2"/>
<path d="M12 3C14.4529 5.21827 16 8.4638 16 12.0796C16 15.6098 14.5252 18.7871 12.1725 21" stroke="#CCCCCC" stroke-width="2"/>
<path d="M21 12L3 12" stroke="#CCCCCC" stroke-width="2"/>
<path d="M12 3C9.54708 5.21827 8 8.4638 8 12.0796C8 15.6098 9.47476 18.7871 11.8275 21" stroke="#CCCCCC" stroke-width="2"/>
<path fill-rule="evenodd" clip-rule="evenodd" d="M12 20C16.4183 20 20 16.4183 20 12C20 7.58172 16.4183 4 12 4C7.58172 4 4 7.58172 4 12C4 16.4183 7.58172 20 12 20ZM12 22C17.5228 22 22 17.5228 22 12C22 6.47715 17.5228 2 12 2C6.47715 2 2 6.47715 2 12C2 17.5228 6.47715 22 12 22Z" fill="#CCCCCC"/>
<path fill-rule="evenodd" clip-rule="evenodd" d="M14.9998 12.0796C14.9998 8.75386 13.5779 5.7754 11.3291 3.74168L12.6706 2.2583C15.3276 4.66113 16.9998 8.17372 16.9998 12.0796C16.9998 15.8929 15.4058 19.3316 12.8575 21.7284L11.4872 20.2716C13.6444 18.2426 14.9998 15.3266 14.9998 12.0796Z" fill="#CCCCCC"/>
<path fill-rule="evenodd" clip-rule="evenodd" d="M3 11L21 11L21 13L3 13L3 11Z" fill="#CCCCCC"/>
<path fill-rule="evenodd" clip-rule="evenodd" d="M9.00016 12.0796C9.00016 8.75386 10.4221 5.7754 12.6709 3.74168L11.3294 2.2583C8.67242 4.66113 7.00016 8.17372 7.00016 12.0796C7.00016 15.8929 8.59424 19.3316 11.1425 21.7284L12.5128 20.2716C10.3556 18.2426 9.00016 15.3266 9.00016 12.0796Z" fill="#CCCCCC"/>
</svg>
