<svg width="48" height="48" viewBox="0 0 48 48" fill="none" xmlns="http://www.w3.org/2000/svg">
<rect x="0.5" y="0.5" width="47" height="47" rx="9.5" fill="black" stroke="white"/>
<path d="M36.6392 31.7459C36.1669 32.8445 35.6005 33.8483 34.957 34.7757C34.073 36.037 33.3433 36.9124 32.7854 37.4018C31.9186 38.2001 30.9918 38.6032 29.996 38.6289C29.2839 38.6289 28.4257 38.4227 27.4213 38.011C26.4168 37.5994 25.4901 37.4018 24.649 37.4018C23.765 37.4018 22.8126 37.6079 21.7996 38.011C20.778 38.4227 19.9632 38.6374 19.3362 38.6546C18.3838 38.6974 17.4307 38.2771 16.4869 37.3932C15.8776 36.861 15.1221 35.96 14.2211 34.6815C13.2515 33.3082 12.4447 31.7294 11.8183 29.9181C11.1491 27.9612 10.8145 26.0735 10.8145 24.2365C10.8145 22.134 11.2696 20.3227 12.1792 18.8124C12.8912 17.5939 13.8443 16.6323 15.0285 15.9288C16.2214 15.2253 17.5005 14.8644 18.8817 14.8387C19.6372 14.8387 20.6325 15.0706 21.8681 15.5336C23.0952 15.9973 23.8849 16.2285 24.2367 16.2285C24.4942 16.2285 25.3696 15.9539 26.8628 15.4046C28.2703 14.8981 29.4546 14.6925 30.4327 14.7696C33.0674 14.9843 35.0499 16.0224 36.3633 17.8936C34.0033 19.3183 32.8447 21.318 32.8618 23.8841C32.879 25.8838 33.6087 27.5489 35.0334 28.8702C35.6769 29.4795 36.3982 29.9603 37.205 30.2949C37.0166 30.802 36.8368 31.2822 36.6392 31.7459ZM30.5973 7.96429C30.5973 9.53456 30.0223 10.9941 28.8808 12.3497C27.5075 13.9634 25.8424 14.8901 24.0317 14.7439C24.0061 14.5549 23.9975 14.3579 23.9975 14.1518C23.9975 12.65 24.6496 11.0363 25.8167 9.72357C26.4003 9.05436 27.1386 8.50504 28.0311 8.05849C28.9236 7.6205 29.7733 7.38071 30.563 7.33728C30.5801 7.54343 30.5973 7.75814 30.5973 7.96429Z" fill="white"/>
</svg>
