<svg width="24" height="24" viewBox="0 0 24 24" fill="none" xmlns="http://www.w3.org/2000/svg">
<path fill-rule="evenodd" clip-rule="evenodd" d="M4.42043 20.9142C3.57691 20.6588 3 19.8813 3 19V5C3 3.34315 4.34315 2 6 2H18C19.6569 2 21 3.34314 21 5V15C21 16.6569 19.6569 18 18 18H8.07037L6.6641 20.1094C6.17522 20.8427 5.26395 21.1696 4.42043 20.9142ZM5 19L7 16H18C18.5523 16 19 15.5523 19 15V5C19 4.44772 18.5523 4 18 4H6C5.44772 4 5 4.44772 5 5V19Z" fill="#4272EF"/>
<rect x="7" y="7" width="10" height="2" rx="1" fill="#4272EF"/>
<rect x="7" y="11" width="7" height="2" rx="1" fill="#4272EF"/>
</svg>
