<svg width="48" height="48" viewBox="0 0 48 48" fill="none" xmlns="http://www.w3.org/2000/svg">
<path d="M24.0002 23.9994L32.6604 28.9991L24.0002 43.9988C35.0456 43.9988 43.9996 35.0448 43.9996 23.9994C43.9996 20.3555 43.0203 16.9422 41.3175 13.9995H24L24.0002 23.9994Z" fill="#FBBF12"/>
<path d="M24.0003 4C16.5979 4 10.1398 8.02451 6.68164 14.0022L15.3401 28.9995L24.0003 23.9997V13.9999H41.3178C37.859 8.02362 31.4018 4 24.0003 4Z" fill="url(#paint0_linear_7238_2401)"/>
<path d="M4.00012 23.9994C4.00012 35.0448 12.9538 43.9989 23.9995 43.9989L32.6597 28.9992L23.9995 23.9994L15.3393 28.9992L6.68086 14.002C4.97902 16.9438 4 20.3558 4 23.9991" fill="url(#paint1_linear_7238_2401)"/>
<path d="M33.9997 23.9994C33.9997 29.5221 29.5226 33.9992 23.9999 33.9992C18.4772 33.9992 14 29.5221 14 23.9994C14 18.4767 18.4772 13.9995 23.9999 13.9995C29.5226 13.9995 33.9997 18.4767 33.9997 23.9994Z" fill="white"/>
<path d="M32.1248 23.9994C32.1248 28.4866 28.4871 32.1243 23.9999 32.1243C19.5127 32.1243 15.875 28.4866 15.875 23.9994C15.875 19.5122 19.5127 15.8745 23.9999 15.8745C28.4871 15.8745 32.1248 19.5122 32.1248 23.9994Z" fill="#1A73E8"/>
<defs>
<linearGradient id="paint0_linear_7238_2401" x1="12.6815" y1="16.4996" x2="30.7773" y2="16.4996" gradientUnits="userSpaceOnUse">
<stop stop-color="#DB3328"/>
<stop offset="1" stop-color="#E53D30"/>
</linearGradient>
<linearGradient id="paint1_linear_7238_2401" x1="11.6216" y1="17.5632" x2="19.0381" y2="30.4091" gradientUnits="userSpaceOnUse">
<stop stop-color="#32A651"/>
<stop offset="1" stop-color="#279847"/>
</linearGradient>
</defs>
</svg>
