<svg width="24" height="24" viewBox="0 0 24 24" fill="none" xmlns="http://www.w3.org/2000/svg">
<path fill-rule="evenodd" clip-rule="evenodd" d="M12 20C14.362 20 17 17.4104 17 13.2175C17 11.6676 16.6112 10.2652 15.984 9.14709C15.9672 9.15337 15.95 9.1598 15.9324 9.16635C15.195 9.44179 13.8396 9.94807 12 9.94807C10.1604 9.94807 8.80496 9.44179 8.06756 9.16635C8.05001 9.1598 8.03281 9.15337 8.01596 9.14709C7.38876 10.2652 7 11.6676 7 13.2175C7 17.4104 9.63798 20 12 20ZM8.25718 8.76924C8.2572 8.76934 8.25558 8.77119 8.2523 8.77449C8.25553 8.77079 8.25717 8.76914 8.25718 8.76924ZM7.55423 8.99424C7.55065 8.99371 7.54878 8.99334 7.54873 8.99329C7.54869 8.99324 7.55048 8.99351 7.55423 8.99424ZM16.4513 8.99329C16.4512 8.99334 16.4493 8.99371 16.4458 8.99424C16.4495 8.99351 16.4513 8.99324 16.4513 8.99329ZM15.7477 8.77449C15.7444 8.77119 15.7428 8.76934 15.7428 8.76924C15.7428 8.76914 15.7445 8.77079 15.7477 8.77449ZM12 22C15.866 22 19 18.068 19 13.2175C19 11.2404 18.4793 9.4159 17.6005 7.94807C16.8507 6.69564 16.2573 6.91387 15.1867 7.30758C14.4339 7.58444 13.4451 7.94807 12 7.94807C10.5549 7.94807 9.56614 7.58444 8.81329 7.30758C7.74272 6.91387 7.1493 6.69564 6.39949 7.94807C5.52072 9.4159 5 11.2404 5 13.2175C5 18.068 8.13401 22 12 22Z" fill="#CCCCCC"/>
<path fill-rule="evenodd" clip-rule="evenodd" d="M13.8598 4.86105C13.8492 4.78606 13.8378 4.71317 13.8252 4.64099C13.7775 4.36697 13.7316 4.23907 13.7097 4.18889C13.5912 4.12805 13.2076 4 12.2073 4C11.3554 4 10.8548 4.08329 10.5701 4.17316C10.4368 4.21525 10.3702 4.2529 10.3436 4.27016C10.322 4.28419 10.317 4.29082 10.3159 4.2923C10.3159 4.29239 10.3158 4.29246 10.3158 4.29252C10.3112 4.29826 10.2425 4.38475 10.171 4.71782C10.159 4.77395 10.1477 4.83233 10.1371 4.89351C10.5576 4.955 11.1259 5 11.8568 5C12.6903 5 13.362 4.94159 13.8598 4.86105ZM8 6C8 6.5 9.28574 7 11.8568 7C14.4278 7 16 6.5 16 6C15.9803 5.82498 15.9626 5.65515 15.9453 5.49063C15.7114 3.25535 15.58 2 12.2073 2C8.38133 2 8.22811 3.44693 8 6ZM13.7543 4.22019C13.7525 4.22123 13.7403 4.21434 13.7236 4.19639C13.7478 4.21017 13.7562 4.21915 13.7543 4.22019Z" fill="#CCCCCC"/>
<path fill-rule="evenodd" clip-rule="evenodd" d="M12 9C12.5523 9 13 9.44772 13 10V19.5C13 20.0523 12.5523 20.5 12 20.5C11.4477 20.5 11 20.0523 11 19.5V10C11 9.44772 11.4477 9 12 9Z" fill="#CCCCCC"/>
<path fill-rule="evenodd" clip-rule="evenodd" d="M23 13C23 13.5523 22.5523 14 22 14L19 14C18.4477 14 18 13.5523 18 13C18 12.4477 18.4477 12 19 12L22 12C22.5523 12 23 12.4477 23 13Z" fill="#CCCCCC"/>
<path fill-rule="evenodd" clip-rule="evenodd" d="M6 13C6 13.5523 5.55229 14 5 14L2 14C1.44772 14 1 13.5523 1 13C1 12.4477 1.44771 12 2 12L5 12C5.55228 12 6 12.4477 6 13Z" fill="#CCCCCC"/>
<path fill-rule="evenodd" clip-rule="evenodd" d="M6.89421 17.5528C7.1412 18.0468 6.94097 18.6474 6.44699 18.8944L4.99978 19.618L4.99978 22C4.99978 22.5523 4.55207 23 3.99978 23C3.4475 23 2.99978 22.5523 2.99978 22L2.99978 19C2.99978 18.6212 3.21378 18.275 3.55257 18.1056L5.55257 17.1056C6.04655 16.8586 6.64722 17.0588 6.89421 17.5528Z" fill="#CCCCCC"/>
<path fill-rule="evenodd" clip-rule="evenodd" d="M5.84786 10.53C6.14057 10.0617 5.9982 9.4447 5.52986 9.15199L3.99987 8.19574L3.99987 4.99999C3.99987 4.4477 3.55215 3.99999 2.99987 3.99999C2.44758 3.99999 1.99987 4.4477 1.99987 4.99999L1.99987 8.74999C1.99987 9.09478 2.17749 9.41525 2.46987 9.59799L4.46987 10.848C4.9382 11.1407 5.55515 10.9983 5.84786 10.53Z" fill="#CCCCCC"/>
<path fill-rule="evenodd" clip-rule="evenodd" d="M17.1058 17.5528C16.8588 18.0468 17.059 18.6474 17.553 18.8944L19.0002 19.618L19.0002 22C19.0002 22.5523 19.4479 23 20.0002 23C20.5525 23 21.0002 22.5523 21.0002 22L21.0002 19C21.0002 18.6212 20.7862 18.275 20.4474 18.1056L18.4474 17.1056C17.9535 16.8586 17.3528 17.0588 17.1058 17.5528Z" fill="#CCCCCC"/>
<path fill-rule="evenodd" clip-rule="evenodd" d="M18.1521 10.53C17.8594 10.0617 18.0018 9.4447 18.4701 9.15199L20.0001 8.19574L20.0001 4.99999C20.0001 4.4477 20.4479 3.99999 21.0001 3.99999C21.5524 3.99999 22.0001 4.4477 22.0001 4.99999L22.0001 8.74999C22.0001 9.09478 21.8225 9.41525 21.5301 9.59799L19.5301 10.848C19.0618 11.1407 18.4448 10.9983 18.1521 10.53Z" fill="#CCCCCC"/>
</svg>
