<svg width="24" height="24" viewBox="0 0 24 24" fill="none" xmlns="http://www.w3.org/2000/svg">
<path d="M14.3037 7.96115L16.106 4.96085C16.6748 4.01399 17.9035 3.70749 18.8503 4.27627V4.27627C19.7972 4.84505 20.1041 6.07306 19.5353 7.01993C18.9189 8.04617 18.1303 9.35885 17.4752 10.4495C16.1878 12.5926 14.2591 11.434 14.2591 11.434" stroke="#FFCF60" stroke-width="2" stroke-linecap="square"/>
<path d="M8.08541 8.04127L5.97937 5.46094" stroke="#FFCF60" stroke-width="2" stroke-linecap="square"/>
<path d="M16.1722 15L18.2782 17.5803" stroke="#FFCF60" stroke-width="2" stroke-linecap="square"/>
<path d="M10.961 6.04756L10.0858 3" stroke="#FFCF60" stroke-width="2" stroke-linecap="square"/>
<path d="M13.2966 16.9937L14.1718 20.0413" stroke="#FFCF60" stroke-width="2" stroke-linecap="square"/>
<path d="M10.4241 14.7474L8.42464 17.62C7.79363 18.5266 6.54716 18.75 5.64057 18.119V18.119C4.73399 17.488 4.51015 16.2421 5.14117 15.3356C5.82507 14.353 6.69988 13.0961 7.42672 12.0519C8.85491 9.99999 10.7016 11.2854 10.7016 11.2854" stroke="#FFCF60" stroke-width="2" stroke-linecap="square"/>
</svg>
