<svg width="48" height="49" viewBox="0 0 48 49" fill="none" xmlns="http://www.w3.org/2000/svg">
<circle cx="24" cy="24.9038" r="24" fill="white"/>
<path fill-rule="evenodd" clip-rule="evenodd" d="M41.1896 21.2627C44.1006 26.0269 42.8231 36.4291 38.0923 41.7985C35.4941 43.9682 32.3871 45.5499 28.9765 46.3387H28.9753C29.265 46.2717 29.5525 46.199 29.8377 46.1206C21.9684 46.962 18.8955 40.3686 21.1248 35.4489C21.7729 34.0186 22.6745 33.0957 23.6725 32.3895L23.7173 32.3581L23.8021 32.2994L23.8447 32.2704L23.9302 32.2132L23.9946 32.1708L24.0592 32.129L24.1553 32.0679L24.2518 32.0078L24.3002 31.9782L24.3973 31.9195L24.4947 31.8617L24.5925 31.8047L24.6415 31.7765L24.7396 31.7206L24.7888 31.693L24.8873 31.6381L24.9861 31.5838L25.1345 31.5035L25.2336 31.4505L25.3825 31.3718L25.5335 31.2927L25.7807 31.1645L26.1508 30.9734L26.3497 30.8699L26.4819 30.8005L26.6135 30.7306L26.7447 30.6601L26.8041 30.6278L26.9227 30.5627L26.9817 30.5298L27.0993 30.4636L27.1471 30.4363L27.2424 30.3812L27.3372 30.3254C27.3529 30.3161 27.3687 30.3067 27.3844 30.2973L27.4784 30.2404L27.5718 30.1827C27.5873 30.173 27.6028 30.1633 27.6183 30.1535L27.7108 30.0945C29.0481 29.2322 30.1859 28.0713 30.7291 25.8807C33.0673 27.4355 40.2511 25.9131 41.1896 21.2627Z" fill="#FFCF60"/>
<path fill-rule="evenodd" clip-rule="evenodd" d="M46.0001 24.9039C46.0001 31.6925 42.9253 37.763 38.0924 41.7986C42.8232 36.4292 44.1007 26.0271 41.1896 21.2628C40.1819 26.2563 31.9734 27.6432 30.2949 25.4865C29.672 24.6143 28.7432 23.9077 27.7373 23.2936L27.6138 23.2189C27.5518 23.1817 27.4896 23.1449 27.4272 23.1084L27.3022 23.0359L27.1767 22.9641L27.0508 22.8932L26.9247 22.823L26.7984 22.7535L26.6721 22.6848L26.5457 22.6167L26.4195 22.5492L26.2359 22.452L26.0529 22.3559L25.7805 22.2138L25.3343 21.9818L25.1594 21.8904L24.933 21.771L24.7731 21.6857L24.6159 21.6008L24.5128 21.5443L24.4112 21.488L24.311 21.4317L24.2124 21.3756L24.1155 21.3195L24.0203 21.2634C23.9888 21.2447 23.9577 21.226 23.9268 21.2073L23.8353 21.1512C23.7749 21.1137 23.7157 21.0763 23.658 21.0388L23.5725 20.9824C23.1784 20.7193 22.8547 20.4524 22.6349 20.171L21.0265 18.0447C22.1497 17.2022 22.1893 16.2763 21.862 15.3568L21.8371 15.2888C21.8328 15.2774 21.8285 15.2661 21.8241 15.2547L21.7973 15.1867C21.7882 15.164 21.7789 15.1413 21.7694 15.1187L21.7403 15.0507L21.7101 14.9828L21.679 14.915L21.6469 14.8473L21.614 14.7796L21.5803 14.7121L21.5271 14.6084L21.4724 14.5051L21.4278 14.4226L21.4052 14.3814L21.3596 14.2993L21.3135 14.2173L21.2436 14.0949L21.0061 13.6848L20.9183 13.5322L20.8541 13.4187L20.8121 13.3434L20.771 13.2685L20.7309 13.194L20.6918 13.1199L20.654 13.0463L20.6174 12.973L20.5888 12.914L20.5611 12.8553L20.5345 12.7969L20.5089 12.7388L20.4845 12.681C20.4805 12.6714 20.4766 12.6618 20.4727 12.6522L20.4501 12.5949C20.1315 11.7666 20.216 11.0442 21.4775 10.5247C22.4094 10.141 23.4974 10.0056 24.652 9.98705L24.7274 9.98601L24.8696 9.98491L25.0124 9.9849L25.0841 9.98528L25.1559 9.98592L25.2998 9.98793L25.4443 9.99086L25.5892 9.99466L25.7346 9.99928L25.8074 10.0019L25.9533 10.0076L26.0996 10.0141L26.2462 10.0211L26.3195 10.0249L26.54 10.0369L26.761 10.05L26.9822 10.064L27.3513 10.0888L28.0887 10.1407L28.3825 10.1611L28.7454 10.1853L28.9551 10.1984L29.1639 10.2107L29.3718 10.2219L29.5099 10.2288L29.6474 10.2351L29.7843 10.2407L29.9207 10.2457L30.0904 10.2509L30.259 10.2549L30.3597 10.2567L30.4599 10.258L30.593 10.2589L30.7121 10.2589L30.8305 10.2581C30.8502 10.2579 30.8698 10.2577 30.8895 10.2574L31.0069 10.2554L31.1236 10.2524L31.2396 10.2485C31.2589 10.2478 31.2781 10.247 31.2973 10.2462L31.4122 10.2408C32.6714 10.1764 33.7878 9.92734 34.62 9.28558C36.4489 7.87512 35.8491 6.62905 34.8399 5.75537L34.8416 5.7563C41.5047 9.53713 46.0001 16.6955 46.0001 24.9039Z" fill="#4272EF"/>
<path fill-rule="evenodd" clip-rule="evenodd" d="M30.9572 24.6365C30.5286 28.0417 28.9371 29.4184 27.0995 30.4636L26.9819 30.5299C26.9623 30.5409 26.9426 30.5519 26.9229 30.5628L26.8044 30.6279C26.7846 30.6387 26.7647 30.6494 26.7449 30.6602L26.6138 30.7307L26.4821 30.8006L26.35 30.87L26.151 30.9735L25.781 31.1646L25.5337 31.2928L25.3827 31.3718L25.2338 31.4506L25.1347 31.5036L24.9863 31.5839L24.8876 31.6382L24.789 31.6931L24.7399 31.7207L24.6417 31.7766L24.5927 31.8048L24.495 31.8618L24.3975 31.9196L24.3004 31.9783L24.252 32.0079L24.1555 32.068L24.0595 32.1291C24.0163 32.1568 23.9733 32.1849 23.9305 32.2132L23.845 32.2705C23.8307 32.2801 23.8165 32.2898 23.8024 32.2995L23.7175 32.3581C22.7017 33.0683 21.7828 33.9973 21.125 35.449C18.8957 40.3687 21.9687 46.962 29.838 46.1207C27.9793 46.6313 26.0216 46.9039 24.0002 46.9039C13.9757 46.9039 5.51721 40.1992 2.8643 31.0295C4.47966 33.6231 9.03365 36.3278 12.2915 31.8795C14.1169 29.3871 13.6172 27.0389 12.8033 24.9428L12.7509 24.8094L12.6978 24.6766C12.6889 24.6545 12.68 24.6325 12.671 24.6105L12.6441 24.5445L12.5687 24.3623L12.4926 24.1814L12.4315 24.0377L12.3703 23.8949L12.1237 23.3229L12.0396 23.1259L11.9778 22.9794L11.9172 22.834L11.8777 22.7377L11.8389 22.6419L11.8009 22.5466L11.7638 22.4518L11.7275 22.3576L11.7097 22.3106L11.6664 22.1938L11.6247 22.0778L11.6085 22.0316L11.577 21.9396L11.5468 21.8482L11.5178 21.7573C11.5046 21.7151 11.4919 21.6731 11.4796 21.6313L11.4556 21.5479C11.4362 21.4786 11.4181 21.4097 11.4015 21.3414L11.3822 21.2596C11.1965 20.4442 11.2267 19.7002 11.6833 19.0388C12.3237 18.1113 13.0917 17.9001 13.9528 17.9833L14.0145 17.9897L14.0764 17.9971C14.0868 17.9984 14.0972 17.9998 14.1076 18.0012L14.17 18.01C14.1804 18.0115 14.1909 18.0131 14.2013 18.0147L14.2643 18.0248L14.3275 18.0357L14.3592 18.0415L14.4438 18.0578L14.4864 18.0664L14.5718 18.0846L14.6147 18.0941L14.7009 18.114L14.7876 18.135L14.8748 18.1569L14.9625 18.1797L15.0506 18.2034L15.1393 18.2278L15.2731 18.2656L15.4532 18.3178L15.8301 18.4294L16.0232 18.4865L16.1604 18.5264L16.2984 18.5658L16.3909 18.5917L16.5304 18.6297L16.6238 18.6543L16.7175 18.6784L16.8116 18.7018L16.906 18.7244L16.9533 18.7354L17.0483 18.7568L17.1256 18.7734L17.2032 18.7894L17.281 18.8047L17.3589 18.8192L17.4371 18.833L17.5155 18.8459L17.594 18.858C17.6071 18.8599 17.6202 18.8618 17.6334 18.8637L17.7122 18.8743L17.7912 18.8841C17.8044 18.8856 17.8176 18.8871 17.8308 18.8885L17.9101 18.8967C17.9233 18.898 17.9366 18.8992 17.9498 18.9004L18.0294 18.907C18.9718 18.9781 19.9501 18.8122 20.9397 18.1082C22.1866 17.2212 22.1998 16.2382 21.8286 15.2658L21.8014 15.1964C21.7829 15.1501 21.7635 15.1038 21.7435 15.0576L21.7128 14.9884L21.6811 14.9191C21.6757 14.9076 21.6703 14.8961 21.6649 14.8846L21.6318 14.8155L21.5978 14.7465L21.5663 14.6841C26.5498 15.6431 31.7053 18.6933 30.9572 24.6365Z" fill="#FF5E5E"/>
<path fill-rule="evenodd" clip-rule="evenodd" d="M24 2.90381C27.9412 2.90381 31.6404 3.94018 34.8399 5.75528C35.8491 6.62896 36.4488 7.87503 34.6199 9.28549C33.6112 10.0634 32.1849 10.2643 30.5929 10.2588L30.4599 10.2579C30.3932 10.2572 30.3262 10.2562 30.2589 10.2548L30.1241 10.2517C30.1016 10.2511 30.079 10.2505 30.0565 10.2499L29.9207 10.2456L29.7843 10.2406L29.6473 10.235L29.5098 10.2287L29.3718 10.2218L29.1639 10.2106L28.955 10.1983L28.7453 10.1852C28.722 10.1837 28.6986 10.1822 28.6752 10.1806L28.3824 10.161L28.0886 10.1406L27.3512 10.0887L26.9822 10.0639L26.7609 10.05L26.54 10.0368L26.3195 10.0248C26.295 10.0235 26.2705 10.0223 26.2461 10.021L26.0995 10.014L25.9533 10.0075L25.8073 10.0018C25.783 10.0009 25.7588 10 25.7345 9.99919L25.5892 9.99457C25.4924 9.99175 25.3959 9.98948 25.2998 9.98783L25.1558 9.98583C25.1079 9.98532 25.0601 9.98498 25.0124 9.98481L24.8696 9.98482L24.7273 9.98591C23.5447 9.99975 22.4296 10.1326 21.4774 10.5246C20.0274 11.1217 20.1325 11.987 20.6173 12.9729L20.6539 13.0462L20.6918 13.1198L20.7308 13.1939L20.771 13.2684L20.8121 13.3433L20.854 13.4186L20.9183 13.5321L21.006 13.6848L21.2436 14.0948L21.3134 14.2173L21.3595 14.2992L21.4052 14.3813C21.4127 14.3951 21.4202 14.4088 21.4277 14.4225L21.4724 14.505L21.5162 14.5877C21.5235 14.6014 21.5307 14.6152 21.5378 14.6291L21.5803 14.712C22.1598 15.8602 22.4238 17.0522 20.9395 18.1081C19.6014 19.06 18.2841 19.0282 17.048 18.7567L16.9531 18.7354C16.9373 18.7317 16.9216 18.7281 16.9058 18.7244L16.8114 18.7017L16.7173 18.6784L16.6235 18.6543L16.5301 18.6296L16.3907 18.5916L16.2982 18.5658L16.1602 18.5264L16.023 18.4864L15.8299 18.4294L15.4529 18.3177L15.2729 18.2655L15.139 18.2277L15.0504 18.2033L14.9622 18.1797L14.8746 18.1569L14.7874 18.1349L14.7007 18.1139L14.6145 18.094C14.6002 18.0908 14.5858 18.0876 14.5716 18.0845L14.4861 18.0663C14.4719 18.0634 14.4578 18.0605 14.4436 18.0577L14.359 18.0414C13.3322 17.8518 12.4226 17.9677 11.6831 19.0387C11.1351 19.8324 11.2013 20.7451 11.5176 21.7572L11.5466 21.8481L11.5768 21.9396L11.6083 22.0315C11.6136 22.0469 11.619 22.0623 11.6245 22.0777L11.6577 22.1705C11.6633 22.186 11.669 22.2015 11.6747 22.217L11.7095 22.3105C11.7154 22.3262 11.7213 22.3418 11.7273 22.3575L11.7635 22.4518L11.8007 22.5466L11.8387 22.6419L11.8775 22.7377L11.917 22.834L11.9775 22.9794L12.0394 23.1258L12.1235 23.3229L12.37 23.8948L12.4312 24.0376L12.4924 24.1813L12.5533 24.3259C12.5634 24.3501 12.5735 24.3743 12.5836 24.3986L12.6439 24.5445C13.5437 26.7397 14.2331 29.2279 12.2912 31.8794C9.033 36.3283 4.47824 33.6223 2.8641 31.0282C2.3014 29.0842 2 27.0292 2 24.9038C2 12.7535 11.8497 2.90381 24 2.90381Z" fill="#222222"/>
</svg>
