<svg width="97" height="96" viewBox="0 0 97 96" fill="none" xmlns="http://www.w3.org/2000/svg">
<path d="M48.5008 13.0908C39.0203 13.0908 37.8306 13.1323 34.107 13.3017C30.3908 13.4719 27.8541 14.0603 25.6346 14.9235C23.3386 15.8152 21.3911 17.0079 19.4508 18.949C17.509 20.8894 16.3163 22.837 15.4218 25.1323C14.5564 27.3526 13.9673 29.8901 13.8 33.605C13.6335 37.3286 13.5898 38.5192 13.5898 47.9999C13.5898 57.4806 13.632 58.6668 13.8007 62.3905C13.9717 66.1068 14.56 68.6435 15.4225 70.8632C16.3149 73.1592 17.5075 75.1068 19.4486 77.0472C21.3882 78.989 23.3357 80.1846 25.6302 81.0763C27.8512 81.9395 30.3886 82.5279 34.1041 82.6981C37.8277 82.8675 39.0167 82.909 48.4964 82.909C57.9776 82.909 59.1637 82.8675 62.8873 82.6981C66.6035 82.5279 69.1431 81.9395 71.3641 81.0763C73.6593 80.1846 75.604 78.989 77.5435 77.0472C79.4853 75.1068 80.678 73.1592 81.5725 70.8639C82.4307 68.6435 83.0197 66.1061 83.1943 62.3912C83.3615 58.6675 83.4052 57.4806 83.4052 47.9999C83.4052 38.5192 83.3615 37.3294 83.1943 33.6057C83.0197 29.8894 82.4307 27.3526 81.5725 25.133C80.678 22.837 79.4853 20.8894 77.5435 18.949C75.6018 17.0072 73.66 15.8145 71.3619 14.9235C69.1365 14.0603 66.5984 13.4719 62.8822 13.3017C59.1586 13.1323 57.9732 13.0908 48.4899 13.0908H48.5008ZM45.3692 19.3817C46.2987 19.3803 47.3357 19.3817 48.5008 19.3817C57.8212 19.3817 58.9259 19.4152 62.6065 19.5825C66.0101 19.7381 67.8573 20.3068 69.0878 20.7846C70.7168 21.4174 71.8783 22.1737 73.0993 23.3955C74.3211 24.6174 75.0774 25.781 75.7116 27.4101C76.1894 28.6392 76.7588 30.4865 76.9137 33.8901C77.081 37.5701 77.1174 38.6755 77.1174 47.9919C77.1174 57.3083 77.081 58.4137 76.9137 62.0937C76.7581 65.4974 76.1894 67.3446 75.7116 68.5737C75.0789 70.2028 74.3211 71.3628 73.0993 72.5839C71.8775 73.8057 70.7176 74.5621 69.0878 75.1948C67.8587 75.6748 66.0101 76.2421 62.6065 76.3977C58.9267 76.565 57.8212 76.6014 48.5008 76.6014C39.1796 76.6014 38.0749 76.565 34.395 76.3977C30.9915 76.2406 29.1443 75.6719 27.913 75.1941C26.284 74.5614 25.1204 73.805 23.8986 72.5832C22.6768 71.3614 21.9205 70.2006 21.2863 68.5708C20.8085 67.3417 20.2391 65.4945 20.0842 62.0908C19.9169 58.4108 19.8835 57.3054 19.8835 47.9832C19.8835 38.661 19.9169 37.5614 20.0842 33.8814C20.2398 30.4777 20.8085 28.6305 21.2863 27.3999C21.919 25.7708 22.6768 24.6072 23.8986 23.3854C25.1204 22.1635 26.284 21.4072 27.913 20.773C29.1436 20.293 30.9915 19.7257 34.395 19.5694C37.6153 19.4239 38.8633 19.3803 45.3692 19.373V19.3817ZM67.1344 25.1781C64.8217 25.1781 62.9454 27.0523 62.9454 29.3657C62.9454 31.6785 64.8217 33.5548 67.1344 33.5548C69.4471 33.5548 71.3234 31.6785 71.3234 29.3657C71.3234 27.053 69.4471 25.1766 67.1344 25.1766V25.1781ZM48.5008 30.0726C38.6007 30.0726 30.5741 38.0995 30.5741 47.9999C30.5741 57.9003 38.6007 65.9235 48.5008 65.9235C58.4008 65.9235 66.4246 57.9003 66.4246 47.9999C66.4246 38.0995 58.4001 30.0726 48.5001 30.0726H48.5008ZM48.5008 36.3635C54.9268 36.3635 60.1368 41.573 60.1368 47.9999C60.1368 54.4261 54.9268 59.6363 48.5008 59.6363C42.0741 59.6363 36.8648 54.4261 36.8648 47.9999C36.8648 41.573 42.0741 36.3635 48.5008 36.3635V36.3635Z" fill="url(#paint0_radial_1_2710)"/>
<path d="M48.5008 13.0908C39.0203 13.0908 37.8306 13.1323 34.107 13.3017C30.3908 13.4719 27.8541 14.0603 25.6346 14.9235C23.3386 15.8152 21.3911 17.0079 19.4508 18.949C17.509 20.8894 16.3163 22.837 15.4218 25.1323C14.5564 27.3526 13.9673 29.8901 13.8 33.605C13.6335 37.3286 13.5898 38.5192 13.5898 47.9999C13.5898 57.4806 13.632 58.6668 13.8007 62.3905C13.9717 66.1068 14.56 68.6435 15.4225 70.8632C16.3149 73.1592 17.5075 75.1068 19.4486 77.0472C21.3882 78.989 23.3357 80.1846 25.6302 81.0763C27.8512 81.9395 30.3886 82.5279 34.1041 82.6981C37.8277 82.8675 39.0167 82.909 48.4964 82.909C57.9776 82.909 59.1637 82.8675 62.8873 82.6981C66.6035 82.5279 69.1431 81.9395 71.3641 81.0763C73.6593 80.1846 75.604 78.989 77.5435 77.0472C79.4853 75.1068 80.678 73.1592 81.5725 70.8639C82.4307 68.6435 83.0197 66.1061 83.1943 62.3912C83.3615 58.6675 83.4052 57.4806 83.4052 47.9999C83.4052 38.5192 83.3615 37.3294 83.1943 33.6057C83.0197 29.8894 82.4307 27.3526 81.5725 25.133C80.678 22.837 79.4853 20.8894 77.5435 18.949C75.6018 17.0072 73.66 15.8145 71.3619 14.9235C69.1365 14.0603 66.5984 13.4719 62.8822 13.3017C59.1586 13.1323 57.9732 13.0908 48.4899 13.0908H48.5008ZM45.3692 19.3817C46.2987 19.3803 47.3357 19.3817 48.5008 19.3817C57.8212 19.3817 58.9259 19.4152 62.6065 19.5825C66.0101 19.7381 67.8573 20.3068 69.0878 20.7846C70.7168 21.4174 71.8783 22.1737 73.0993 23.3955C74.3211 24.6174 75.0774 25.781 75.7116 27.4101C76.1894 28.6392 76.7588 30.4865 76.9137 33.8901C77.081 37.5701 77.1174 38.6755 77.1174 47.9919C77.1174 57.3083 77.081 58.4137 76.9137 62.0937C76.7581 65.4974 76.1894 67.3446 75.7116 68.5737C75.0789 70.2028 74.3211 71.3628 73.0993 72.5839C71.8775 73.8057 70.7176 74.5621 69.0878 75.1948C67.8587 75.6748 66.0101 76.2421 62.6065 76.3977C58.9267 76.565 57.8212 76.6014 48.5008 76.6014C39.1796 76.6014 38.0749 76.565 34.395 76.3977C30.9915 76.2406 29.1443 75.6719 27.913 75.1941C26.284 74.5614 25.1204 73.805 23.8986 72.5832C22.6768 71.3614 21.9205 70.2006 21.2863 68.5708C20.8085 67.3417 20.2391 65.4945 20.0842 62.0908C19.9169 58.4108 19.8835 57.3054 19.8835 47.9832C19.8835 38.661 19.9169 37.5614 20.0842 33.8814C20.2398 30.4777 20.8085 28.6305 21.2863 27.3999C21.919 25.7708 22.6768 24.6072 23.8986 23.3854C25.1204 22.1635 26.284 21.4072 27.913 20.773C29.1436 20.293 30.9915 19.7257 34.395 19.5694C37.6153 19.4239 38.8633 19.3803 45.3692 19.373V19.3817ZM67.1344 25.1781C64.8217 25.1781 62.9454 27.0523 62.9454 29.3657C62.9454 31.6785 64.8217 33.5548 67.1344 33.5548C69.4471 33.5548 71.3234 31.6785 71.3234 29.3657C71.3234 27.053 69.4471 25.1766 67.1344 25.1766V25.1781ZM48.5008 30.0726C38.6007 30.0726 30.5741 38.0995 30.5741 47.9999C30.5741 57.9003 38.6007 65.9235 48.5008 65.9235C58.4008 65.9235 66.4246 57.9003 66.4246 47.9999C66.4246 38.0995 58.4001 30.0726 48.5001 30.0726H48.5008ZM48.5008 36.3635C54.9268 36.3635 60.1368 41.573 60.1368 47.9999C60.1368 54.4261 54.9268 59.6363 48.5008 59.6363C42.0741 59.6363 36.8648 54.4261 36.8648 47.9999C36.8648 41.573 42.0741 36.3635 48.5008 36.3635V36.3635Z" fill="url(#paint1_radial_1_2710)"/>
<defs>
<radialGradient id="paint0_radial_1_2710" cx="0" cy="0" r="1" gradientUnits="userSpaceOnUse" gradientTransform="translate(32.1346 88.2865) rotate(-90) scale(69.195 64.3541)">
<stop stop-color="#FFDD55"/>
<stop offset="0.1" stop-color="#FFDD55"/>
<stop offset="0.5" stop-color="#FF543E"/>
<stop offset="1" stop-color="#C837AB"/>
</radialGradient>
<radialGradient id="paint1_radial_1_2710" cx="0" cy="0" r="1" gradientUnits="userSpaceOnUse" gradientTransform="translate(1.89541 18.1204) rotate(78.6811) scale(30.9304 127.492)">
<stop stop-color="#3771C8"/>
<stop offset="0.128" stop-color="#3771C8"/>
<stop offset="1" stop-color="#6600FF" stop-opacity="0"/>
</radialGradient>
</defs>
</svg>
