<svg width="133" height="48" viewBox="0 0 133 48" fill="none" xmlns="http://www.w3.org/2000/svg">
<path fill-rule="evenodd" clip-rule="evenodd" d="M32.1258 15.8742C32.8821 15.513 33.6968 15.2542 34.5519 15.1159C35.0233 15.0396 35.507 15 36 15C40.9706 15 45 19.0294 45 24C45 28.9706 40.9706 33 36 33C35.507 33 35.0233 32.9604 34.5519 32.8841C33.6968 32.7458 32.8821 32.487 32.1258 32.1258C32.487 32.8821 32.7458 33.6968 32.8841 34.5519C32.9604 35.0233 33 35.507 33 36C33 40.9706 28.9706 45 24 45C19.0294 45 15 40.9706 15 36C15 35.507 15.0396 35.0233 15.1159 34.5519C15.2542 33.6968 15.513 32.8821 15.8742 32.1258C15.1179 32.487 14.3032 32.7458 13.4481 32.8841C12.9767 32.9604 12.493 33 12 33C7.02944 33 3 28.9706 3 24C3 19.0294 7.02944 15 12 15C12.493 15 12.9767 15.0396 13.4481 15.1159C14.3032 15.2542 15.1179 15.513 15.8742 15.8742C15.513 15.1179 15.2542 14.3032 15.1159 13.4481C15.0396 12.9767 15 12.493 15 12C15 7.02944 19.0294 3 24 3C28.9706 3 33 7.02944 33 12C33 12.493 32.9604 12.9767 32.8841 13.4481C32.7458 14.3032 32.487 15.1179 32.1258 15.8742ZM34.9504 13.0496C35.2961 13.0168 35.6462 13 36 13C42.0751 13 47 17.9249 47 24C47 30.0751 42.0751 35 36 35C35.6462 35 35.2961 34.9832 34.9504 34.9504C34.9832 35.2961 35 35.6462 35 36C35 42.0751 30.0751 47 24 47C17.9249 47 13 42.0751 13 36C13 35.6462 13.0168 35.2961 13.0496 34.9504C12.7039 34.9832 12.3538 35 12 35C5.92487 35 1 30.0751 1 24C1 17.9249 5.92487 13 12 13C12.3538 13 12.7039 13.0168 13.0496 13.0496C13.0168 12.7039 13 12.3538 13 12C13 5.92487 17.9249 1 24 1C30.0751 1 35 5.92487 35 12C35 12.3538 34.9832 12.7039 34.9504 13.0496ZM22.9504 22.9504C22.9832 23.2961 23 23.6462 23 24C23 24.3538 22.9832 24.7039 22.9504 25.0496C23.2961 25.0168 23.6462 25 24 25C24.3538 25 24.7039 25.0168 25.0496 25.0496C25.0168 24.7039 25 24.3538 25 24C25 23.6462 25.0168 23.2961 25.0496 22.9504C24.7039 22.9832 24.3538 23 24 23C23.6462 23 23.2961 22.9832 22.9504 22.9504ZM20.8841 22.5519C20.9604 23.0233 21 23.507 21 24C21 24.493 20.9604 24.9767 20.8841 25.4481C20.7458 26.3032 20.487 27.1179 20.1258 27.8742C20.8821 27.513 21.6968 27.2542 22.5519 27.1159C23.0233 27.0396 23.507 27 24 27C24.493 27 24.9767 27.0396 25.4481 27.1159C26.3032 27.2542 27.1179 27.513 27.8742 27.8742C27.513 27.1179 27.2542 26.3032 27.1159 25.4481C27.0396 24.9767 27 24.493 27 24C27 23.507 27.0396 23.0233 27.1159 22.5519C27.2542 21.6968 27.513 20.8821 27.8742 20.1258C27.1179 20.487 26.3032 20.7458 25.4481 20.8841C24.9767 20.9604 24.493 21 24 21C23.507 21 23.0233 20.9604 22.5519 20.8841C21.6968 20.7458 20.8821 20.487 20.1258 20.1258C20.487 20.8821 20.7458 21.6968 20.8841 22.5519Z" fill="white"/>
<circle cx="24" cy="36" r="9" fill="#FF5E5E"/>
<circle cx="36" cy="24" r="9" fill="#FFCF60"/>
<circle cx="24" cy="12" r="9" fill="#4272EF"/>
<circle cx="12" cy="24" r="9" fill="black"/>
<path d="M24.5347 45C19.2688 45 15 40.9706 15 36C15 31.0294 19.2688 27 24.5347 27C24.5347 27 36.8316 45 24.5347 45Z" fill="#FF5E5E"/>
<circle cx="24" cy="24" r="7.5" fill="white"/>
<path d="M76.4531 19.5625C76.4531 17.3281 75.6875 15.6094 74.1719 14.4219C72.6406 13.2344 70.5781 12.6406 68 12.6406H60.6719C60.2188 12.6406 60 12.8594 60 13.3125V34.375C60 34.8281 60.2188 35.0469 60.6719 35.0469H64.3281C64.7812 35.0469 65 34.8281 65 34.375V26.625H68C70.5469 26.625 72.5938 26 74.1406 24.75C75.6875 23.5156 76.4531 21.7812 76.4531 19.5625ZM65 22.5938V16.6719H67.9375C70.0938 16.6875 71.1719 17.6719 71.1719 19.6562C71.1719 21.7812 70.0469 22.5938 68 22.5938H65Z" fill="black"/>
<path d="M83.6406 35.3594C85.875 35.3594 87.3438 34.8906 88.0312 33.9531L88.6094 34.7656C88.7344 34.9531 88.9844 35.0469 89.3438 35.0469H91.9062C92.2812 35.0469 92.6094 34.7031 92.6094 34.375V25.9531C92.6094 23.7812 92.0625 22.0781 90.9844 20.8438C89.8906 19.625 88.0156 19.0156 85.3438 19.0156C82.7656 19.0156 80.7344 19.5156 79.2656 20.5156C78.8438 20.7969 78.8125 21.125 79.2031 21.4844L81.1562 23.4062C81.4062 23.6562 81.7344 23.7031 82.1406 23.5312C83.1719 23.0156 84.2344 22.7656 85.3438 22.7656C86.9688 22.7656 87.7812 23.6875 87.7812 25.5156V26.2812C86.9688 25.5469 85.6094 25.1875 83.7188 25.1875C82.0781 25.1875 80.7031 25.625 79.5938 26.4844C78.4844 27.3438 77.9219 28.5781 77.9219 30.1875C77.9219 31.7969 78.4688 33.0625 79.5781 33.9844C80.6875 34.9062 82.0312 35.3594 83.6406 35.3594ZM84.9844 31.7812C83.4062 31.7812 82.875 31.3281 82.875 30.3125C82.875 29.25 83.4219 28.8125 85.25 28.8125C86.3125 28.8125 87 28.9062 87.3125 29.1094C87.625 29.3125 87.7812 29.7031 87.7812 30.25C87.7656 31.2656 86.8438 31.7812 84.9844 31.7812Z" fill="black"/>
<path d="M100.828 35.0469C101.281 35.0469 101.5 34.8281 101.5 34.375V21.8906L109.312 34.5938C109.484 34.8906 109.75 35.0469 110.141 35.0469H113.938C114.375 35.0469 114.656 34.75 114.656 34.375V13.3125C114.656 12.9375 114.359 12.6406 113.938 12.6406H110.297C109.922 12.6406 109.625 12.9375 109.625 13.3125V25.7031L101.844 13.0938C101.672 12.7969 101.406 12.6406 101.016 12.6406H97.1719C96.7188 12.6406 96.5 12.8594 96.5 13.3125V34.375C96.5 34.8281 96.7188 35.0469 97.1719 35.0469H100.828Z" fill="black"/>
<path d="M124.031 13.3125C124.031 12.9844 123.688 12.6406 123.359 12.6406H119.703C119.375 12.6406 119.031 12.9844 119.031 13.3125V34.375C119.031 34.8281 119.25 35.0469 119.703 35.0469H132.031C132.406 35.0469 132.703 34.75 132.703 34.375V31.6875C132.703 31.3594 132.359 31.0156 132.031 31.0156H124.031V13.3125Z" fill="black"/>
</svg>
