<svg width="122" height="48" viewBox="0 0 122 48" fill="none" xmlns="http://www.w3.org/2000/svg">
<path fill-rule="evenodd" clip-rule="evenodd" d="M32.1258 15.8742C32.8821 15.513 33.6968 15.2542 34.5519 15.1159C35.0233 15.0396 35.507 15 36 15C40.9706 15 45 19.0294 45 24C45 28.9706 40.9706 33 36 33C35.507 33 35.0233 32.9604 34.5519 32.8841C33.6968 32.7458 32.8821 32.487 32.1258 32.1258C32.487 32.8821 32.7458 33.6968 32.8841 34.5519C32.9604 35.0233 33 35.507 33 36C33 40.9706 28.9706 45 24 45C19.0294 45 15 40.9706 15 36C15 35.507 15.0396 35.0233 15.1159 34.5519C15.2542 33.6968 15.513 32.8821 15.8742 32.1258C15.1179 32.487 14.3032 32.7458 13.4481 32.8841C12.9767 32.9604 12.493 33 12 33C7.02944 33 3 28.9706 3 24C3 19.0294 7.02944 15 12 15C12.493 15 12.9767 15.0396 13.4481 15.1159C14.3032 15.2542 15.1179 15.513 15.8742 15.8742C15.513 15.1179 15.2542 14.3032 15.1159 13.4481C15.0396 12.9767 15 12.493 15 12C15 7.02944 19.0294 3 24 3C28.9706 3 33 7.02944 33 12C33 12.493 32.9604 12.9767 32.8841 13.4481C32.7458 14.3032 32.487 15.1179 32.1258 15.8742ZM34.9504 13.0496C35.2961 13.0168 35.6462 13 36 13C42.0751 13 47 17.9249 47 24C47 30.0751 42.0751 35 36 35C35.6462 35 35.2961 34.9832 34.9504 34.9504C34.9832 35.2961 35 35.6462 35 36C35 42.0751 30.0751 47 24 47C17.9249 47 13 42.0751 13 36C13 35.6462 13.0168 35.2961 13.0496 34.9504C12.7039 34.9832 12.3538 35 12 35C5.92487 35 1 30.0751 1 24C1 17.9249 5.92487 13 12 13C12.3538 13 12.7039 13.0168 13.0496 13.0496C13.0168 12.7039 13 12.3538 13 12C13 5.92487 17.9249 1 24 1C30.0751 1 35 5.92487 35 12C35 12.3538 34.9832 12.7039 34.9504 13.0496ZM22.9504 22.9504C22.9832 23.2961 23 23.6462 23 24C23 24.3538 22.9832 24.7039 22.9504 25.0496C23.2961 25.0168 23.6462 25 24 25C24.3538 25 24.7039 25.0168 25.0496 25.0496C25.0168 24.7039 25 24.3538 25 24C25 23.6462 25.0168 23.2961 25.0496 22.9504C24.7039 22.9832 24.3538 23 24 23C23.6462 23 23.2961 22.9832 22.9504 22.9504ZM20.8841 22.5519C20.9604 23.0233 21 23.507 21 24C21 24.493 20.9604 24.9767 20.8841 25.4481C20.7458 26.3032 20.487 27.1179 20.1258 27.8742C20.8821 27.513 21.6968 27.2542 22.5519 27.1159C23.0233 27.0396 23.507 27 24 27C24.493 27 24.9767 27.0396 25.4481 27.1159C26.3032 27.2542 27.1179 27.513 27.8742 27.8742C27.513 27.1179 27.2542 26.3032 27.1159 25.4481C27.0396 24.9767 27 24.493 27 24C27 23.507 27.0396 23.0233 27.1159 22.5519C27.2542 21.6968 27.513 20.8821 27.8742 20.1258C27.1179 20.487 26.3032 20.7458 25.4481 20.8841C24.9767 20.9604 24.493 21 24 21C23.507 21 23.0233 20.9604 22.5519 20.8841C21.6968 20.7458 20.8821 20.487 20.1258 20.1258C20.487 20.8821 20.7458 21.6968 20.8841 22.5519Z" fill="white"/>
<circle cx="24" cy="36" r="9" fill="#FF5E5E"/>
<circle cx="36" cy="24" r="9" fill="#FFCF60"/>
<circle cx="24" cy="12" r="9" fill="#4272EF"/>
<circle cx="12" cy="24" r="9" fill="black"/>
<path d="M24.5347 45C19.2688 45 15 40.9706 15 36C15 31.0294 19.2688 27 24.5347 27C24.5347 27 36.8316 45 24.5347 45Z" fill="#FF5E5E"/>
<circle cx="24" cy="24" r="7.5" fill="white"/>
<path d="M60.2568 37.0156C60.2568 37.3438 60.6006 37.6875 60.9287 37.6875H64.3818C64.71 37.6875 65.0537 37.3438 65.0537 37.0156V29.8438C66.0225 30.8281 67.2412 31.3125 68.71 31.3125C70.6475 31.3125 72.2256 30.5781 73.4443 29.1094C74.6475 27.6406 75.2568 25.6406 75.2568 23.125C75.2568 20.6094 74.6475 18.625 73.4443 17.1562C72.2256 15.7031 70.6475 14.9688 68.71 14.9688C67.0381 14.9688 65.7412 15.4375 64.8037 16.375L64.2568 15.5781C64.085 15.375 63.835 15.2812 63.4912 15.2812H60.9287C60.5693 15.2812 60.2568 15.625 60.2568 15.9531V37.0156ZM65.0537 22.4531C65.0537 21.1094 65.3037 20.1719 65.7881 19.6562C66.2725 19.1406 66.9443 18.875 67.8037 18.875C68.6318 18.875 69.2568 19.2656 69.6787 20.0625C70.1006 20.8594 70.3037 21.8906 70.3037 23.125C70.3037 24.3594 70.1006 25.3906 69.6787 26.2031C69.2568 27.0156 68.6318 27.4219 67.8037 27.4219C65.9756 27.4062 65.0537 26.2344 65.0537 23.8906V22.4531Z" fill="black"/>
<path d="M83.3975 31.3125C85.6318 31.3125 87.1006 30.8438 87.7881 29.9062L88.3662 30.7188C88.4912 30.9062 88.7412 31 89.1006 31H91.6631C92.0381 31 92.3662 30.6562 92.3662 30.3281V21.9062C92.3662 19.7344 91.8193 18.0312 90.7412 16.7969C89.6475 15.5781 87.7725 14.9688 85.1006 14.9688C82.5225 14.9688 80.4912 15.4688 79.0225 16.4688C78.6006 16.75 78.5693 17.0781 78.96 17.4375L80.9131 19.3594C81.1631 19.6094 81.4912 19.6562 81.8975 19.4844C82.9287 18.9688 83.9912 18.7188 85.1006 18.7188C86.7256 18.7188 87.5381 19.6406 87.5381 21.4688V22.2344C86.7256 21.5 85.3662 21.1406 83.4756 21.1406C81.835 21.1406 80.46 21.5781 79.3506 22.4375C78.2412 23.2969 77.6787 24.5312 77.6787 26.1406C77.6787 27.75 78.2256 29.0156 79.335 29.9375C80.4443 30.8594 81.7881 31.3125 83.3975 31.3125ZM84.7412 27.7344C83.1631 27.7344 82.6318 27.2812 82.6318 26.2656C82.6318 25.2031 83.1787 24.7656 85.0068 24.7656C86.0693 24.7656 86.7568 24.8594 87.0693 25.0625C87.3818 25.2656 87.5381 25.6562 87.5381 26.2031C87.5225 27.2188 86.6006 27.7344 84.7412 27.7344Z" fill="black"/>
<path d="M100.069 31C100.397 31 100.741 30.6562 100.741 30.3281V21.5312C100.741 19.9531 101.601 18.75 103.304 18.75C105.007 18.75 105.866 19.9531 105.866 21.5312V30.3281C105.866 30.6562 106.194 31 106.569 31H110.022C110.351 31 110.694 30.6562 110.694 30.3281V21.5312C110.694 19.6406 110.163 18.0625 109.116 16.8281C108.054 15.5938 106.632 14.9688 104.866 14.9688C103.038 14.9688 101.569 15.4375 100.491 16.375L99.9443 15.5781C99.7725 15.375 99.5225 15.2812 99.1787 15.2812H96.6162C96.2568 15.2812 95.9443 15.625 95.9443 15.9531V30.3281C95.9443 30.6562 96.2881 31 96.6162 31H100.069Z" fill="black"/>
<path d="M121.413 27.9844C121.413 27.5312 121.179 27.3125 120.71 27.3125H120.397C119.538 27.3281 119.116 26.7344 119.116 25.5312V9.26562C119.116 8.9375 118.772 8.59375 118.444 8.59375H114.991C114.632 8.59375 114.319 8.9375 114.319 9.26562V25.5312C114.319 27.5469 114.788 29.0156 115.71 29.9375C116.632 30.8594 118.194 31.3125 120.397 31.3125H120.71C121.101 31.3125 121.413 30.9688 121.413 30.6406V27.9844Z" fill="black"/>
</svg>
