<svg width="24" height="24" viewBox="0 0 24 24" fill="none" xmlns="http://www.w3.org/2000/svg">
<path d="M12 2C6.48 2 2 6.48 2 12C2 17.52 6.48 22 12 22C17.52 22 22 17.52 22 12C22 6.48 17.52 2 12 2ZM12 20C7.59 20 4 16.41 4 12C4 7.59 7.59 4 12 4C16.41 4 20 7.59 20 12C20 16.41 16.41 20 12 20Z" fill="#4272EF"/>
<path d="M13.3542 7.99854C11.9138 7.99854 11.1936 8.84326 11.1936 10.5327V10.6865H12.9807C13.1516 10.6865 13.237 10.7769 13.237 10.9575V11.4922C13.237 11.6729 13.1516 11.7632 12.9807 11.7632H11.1936V12.6055H12.9807C13.1516 12.6055 13.237 12.6909 13.237 12.8618V13.3965C13.237 13.5771 13.1516 13.6675 12.9807 13.6675H11.2522C11.4426 14.8784 12.1433 15.4839 13.3542 15.4839H13.6691C13.84 15.4839 13.9255 15.5693 13.9255 15.7402V16.729C13.9255 16.9097 13.84 17 13.6691 17H13.3542C12.1726 17 11.2277 16.7021 10.5197 16.1064C9.81173 15.5107 9.38692 14.6978 9.24532 13.6675H8.76192C8.59102 13.6675 8.50802 13.5771 8.5129 13.3965V12.8618C8.5129 12.6909 8.59591 12.6055 8.76192 12.6055H9.20138V11.7632H8.76192C8.59102 11.7632 8.50802 11.6729 8.5129 11.4922V10.9575C8.5129 10.7769 8.59591 10.6865 8.76192 10.6865H9.20138V10.5327C9.20138 9.30225 9.56514 8.3208 10.2927 7.58838C11.0251 6.85107 12.0456 6.48242 13.3542 6.48242H13.6838C13.8645 6.48242 13.9548 6.56787 13.9548 6.73877V7.72754C13.9548 7.9082 13.8645 7.99854 13.6838 7.99854H13.3542Z" fill="#4272EF"/>
</svg>
