<svg width="24" height="24" viewBox="0 0 24 24" fill="none" xmlns="http://www.w3.org/2000/svg">
<path fill-rule="evenodd" clip-rule="evenodd" d="M22 19H2V15.876C2 14.3784 3.1052 13.1002 4.6047 12.9027C5.60202 12.7714 7.29656 12.5494 8.78951 12.3602C9.53529 12.2657 10.2355 12.1788 10.7748 12.1152C11.2212 12.0626 11.7552 12 12 12C12.2448 12 12.7788 12.0626 13.2252 12.1152C13.7645 12.1788 14.4647 12.2657 15.2105 12.3602C16.7034 12.5494 18.398 12.7714 19.3953 12.9027C20.8948 13.1002 22 14.3784 22 15.876V19ZM20 15.876C20 15.5018 19.7946 15.171 19.4838 15C19.3781 14.9419 19.2603 14.9022 19.1341 14.8856C17.1412 14.6231 12.3715 14 12 14C11.6285 14 6.85878 14.6231 4.86587 14.8856C4.73974 14.9022 4.62187 14.9419 4.51619 15C4.20537 15.171 4 15.5018 4 15.876V17H20V15.876Z" fill="#CCCCCC"/>
<rect x="2" y="20" width="20" height="2" fill="#CCCCCC"/>
<path fill-rule="evenodd" clip-rule="evenodd" d="M11.1175 1H12.883C14.671 1 16.0621 2.5542 15.8647 4.33129L15.0869 11.3313C14.9181 12.8506 13.6339 14 12.1052 14H11.8953C10.3667 14 9.08248 12.8506 8.91367 11.3313L8.13589 4.33129C7.93844 2.5542 9.32951 1 11.1175 1ZM11.1175 3C10.5215 3 10.0578 3.51807 10.1237 4.11043L10.9014 11.1104C10.9577 11.6169 11.3858 12 11.8953 12H12.1052C12.6148 12 13.0428 11.6169 13.0991 11.1104L13.8769 4.11043C13.9427 3.51807 13.479 3 12.883 3H11.1175Z" fill="#CCCCCC"/>
</svg>
