<svg width="24" height="24" viewBox="0 0 24 24" fill="none" xmlns="http://www.w3.org/2000/svg">
<path fill-rule="evenodd" clip-rule="evenodd" d="M4.0934 12C4.15354 12.1237 4.23142 12.2751 4.32825 12.4472C4.6148 12.9567 5.06163 13.6373 5.69793 14.3161C6.95957 15.6618 8.95993 17 11.9996 17C15.0394 17 17.0397 15.6618 18.3014 14.3161C18.9376 13.6373 19.3845 12.9567 19.671 12.4472C19.7679 12.2751 19.8457 12.1237 19.9059 12C19.8457 11.8763 19.7679 11.7249 19.671 11.5528C19.3845 11.0433 18.9376 10.3627 18.3014 9.68394C17.0397 8.33819 15.0394 7 11.9996 7C8.95993 7 6.95957 8.33819 5.69793 9.68394C5.06163 10.3627 4.6148 11.0433 4.32825 11.5528C4.23142 11.7249 4.15354 11.8763 4.0934 12ZM20.9996 12C21.936 11.6489 21.9358 11.6484 21.9356 11.6479L21.9342 11.6442L21.9315 11.6372L21.9236 11.6169C21.9172 11.6005 21.9084 11.5785 21.8972 11.5513C21.8747 11.4968 21.8425 11.4213 21.7999 11.3278C21.7147 11.1408 21.5878 10.8809 21.4142 10.5722C21.0679 9.95666 20.5304 9.13734 19.7604 8.31606C18.2096 6.66181 15.7099 5 11.9996 5C8.28935 5 5.78971 6.66181 4.23885 8.31606C3.4689 9.13734 2.93136 9.95666 2.5851 10.5722C2.41149 10.8809 2.28454 11.1408 2.19942 11.3278C2.15682 11.4213 2.12458 11.4968 2.10212 11.5513C2.09088 11.5785 2.08208 11.6005 2.07564 11.6169L2.06774 11.6372L2.06509 11.6442L2.0641 11.6468L2.06368 11.6479C2.06349 11.6484 2.06331 11.6489 2.99964 12L2.06331 11.6489L1.93164 12L2.06331 12.3511L2.99964 12C2.06331 12.3511 2.06349 12.3516 2.06368 12.3521L2.0641 12.3532L2.06509 12.3558L2.06774 12.3628L2.07564 12.3831C2.08208 12.3995 2.09088 12.4215 2.10212 12.4487C2.12458 12.5032 2.15682 12.5787 2.19942 12.6722C2.28454 12.8592 2.41149 13.1191 2.5851 13.4278C2.93136 14.0433 3.4689 14.8627 4.23885 15.6839C5.78971 17.3382 8.28935 19 11.9996 19C15.7099 19 18.2096 17.3382 19.7604 15.6839C20.5304 14.8627 21.0679 14.0433 21.4142 13.4278C21.5878 13.1191 21.7147 12.8592 21.7999 12.6722C21.8425 12.5787 21.8747 12.5032 21.8972 12.4487C21.9084 12.4215 21.9172 12.3995 21.9236 12.3831L21.9315 12.3628L21.9342 12.3558L21.9356 12.3521C21.9358 12.3516 21.936 12.3511 20.9996 12ZM20.9996 12L21.936 12.3511L22.0676 12L21.936 11.6489L20.9996 12Z" fill="#4272EF"/>
<path fill-rule="evenodd" clip-rule="evenodd" d="M12 13C12.5523 13 13 12.5523 13 12C13 11.4477 12.5523 11 12 11C11.4477 11 11 11.4477 11 12C11 12.5523 11.4477 13 12 13ZM12 15C13.6569 15 15 13.6569 15 12C15 10.3431 13.6569 9 12 9C10.3431 9 9 10.3431 9 12C9 13.6569 10.3431 15 12 15Z" fill="#4272EF"/>
</svg>
