<svg width="24" height="25" viewBox="0 0 24 25" fill="none" xmlns="http://www.w3.org/2000/svg">
<path d="M12 2.90381C6.48 2.90381 2 7.38381 2 12.9038C2 18.4238 6.48 22.9038 12 22.9038C17.52 22.9038 22 18.4238 22 12.9038C22 7.38381 17.52 2.90381 12 2.90381ZM7.07 19.1838C7.5 18.2838 10.12 17.4038 12 17.4038C13.88 17.4038 16.51 18.2838 16.93 19.1838C15.57 20.2638 13.86 20.9038 12 20.9038C10.14 20.9038 8.43 20.2638 7.07 19.1838ZM18.36 17.7338C16.93 15.9938 13.46 15.4038 12 15.4038C10.54 15.4038 7.07 15.9938 5.64 17.7338C4.62 16.3938 4 14.7238 4 12.9038C4 8.49381 7.59 4.90381 12 4.90381C16.41 4.90381 20 8.49381 20 12.9038C20 14.7238 19.38 16.3938 18.36 17.7338ZM12 6.90381C10.06 6.90381 8.5 8.46381 8.5 10.4038C8.5 12.3438 10.06 13.9038 12 13.9038C13.94 13.9038 15.5 12.3438 15.5 10.4038C15.5 8.46381 13.94 6.90381 12 6.90381ZM12 11.9038C11.17 11.9038 10.5 11.2338 10.5 10.4038C10.5 9.57381 11.17 8.90381 12 8.90381C12.83 8.90381 13.5 9.57381 13.5 10.4038C13.5 11.2338 12.83 11.9038 12 11.9038Z" fill="#CCCCCC"/>
</svg>
