<svg width="48" height="48" viewBox="0 0 48 48" fill="none" xmlns="http://www.w3.org/2000/svg">
<path fill-rule="evenodd" clip-rule="evenodd" d="M3 36C1.89543 36 1 35.1046 1 34V22C1 17.0294 5.02944 13 10 13C11.8501 13 13.5699 13.5583 15 14.5155V10C15 5.02944 19.0294 1 24 1C28.9706 1 33 5.02944 33 10V14.5155C34.4301 13.5583 36.1499 13 38 13C42.9706 13 47 17.0294 47 22V34C47 35.1046 46.1046 36 45 36C43.8954 36 43 35.1046 43 34C43 31.2386 40.7614 29 38 29C35.2386 29 33 31.2386 33 34V46C33 47.1046 32.1046 48 31 48C29.8954 48 29 47.1046 29 46C29 43.2386 26.7614 41 24 41C21.2386 41 19 43.2386 19 46C19 47.1046 18.1046 48 17 48C15.8954 48 15 47.1046 15 46V34C15 31.2386 12.7614 29 10 29C7.23858 29 5 31.2386 5 34C5 35.1046 4.10457 36 3 36ZM5 29.101C6.27052 27.8045 8.04131 27 10 27C13.866 27 17 30.134 17 34V46C17 44.0927 17.7628 42.3636 19 41.101C20.2705 39.8045 22.0413 39 24 39C25.9587 39 27.7295 39.8045 29 41.101C30.2372 42.3636 31 44.0927 31 46V34C31 30.134 34.134 27 38 27C39.9587 27 41.7295 27.8045 43 29.101C44.2372 30.3636 45 32.0927 45 34V22C45 18.134 41.866 15 38 15C36.0413 15 34.2705 15.8045 33 17.101C31.7628 18.3636 31 20.0927 31 22V10C31 6.13401 27.866 3 24 3C20.134 3 17 6.13401 17 10V22C17 20.0927 16.2372 18.3636 15 17.101C13.7295 15.8045 11.9587 15 10 15C6.13401 15 3 18.134 3 22V34C3 32.0927 3.76281 30.3636 5 29.101Z" fill="white"/>
<path fill-rule="evenodd" clip-rule="evenodd" d="M24 3C20.134 3 17 6.13401 17 10V22C17 18.134 20.134 15 24 15C27.866 15 31 18.134 31 22V10C31 6.13401 27.866 3 24 3Z" fill="#4272EF"/>
<path fill-rule="evenodd" clip-rule="evenodd" d="M24 27C20.134 27 17 30.134 17 34V46C17 42.134 20.134 39 24 39C27.866 39 31 42.134 31 46V34C31 30.134 27.866 27 24 27Z" fill="#FF5E5E"/>
<path fill-rule="evenodd" clip-rule="evenodd" d="M38 15C34.134 15 31 18.134 31 22V34C31 30.134 34.134 27 38 27C41.866 27 45 30.134 45 34V22C45 18.134 41.866 15 38 15Z" fill="#FFCF60"/>
<path fill-rule="evenodd" clip-rule="evenodd" d="M24 15C20.134 15 17 18.134 17 22V34C17 30.134 20.134 27 24 27C27.866 27 31 30.134 31 34V22C31 18.134 27.866 15 24 15Z" fill="white"/>
<path fill-rule="evenodd" clip-rule="evenodd" d="M10 15C6.13401 15 3 18.134 3 22V34C3 30.134 6.13401 27 10 27C13.866 27 17 30.134 17 34V22C17 18.134 13.866 15 10 15Z" fill="#222222"/>
</svg>
