<svg width="122" height="48" viewBox="0 0 122 48" fill="none" xmlns="http://www.w3.org/2000/svg">
<path fill-rule="evenodd" clip-rule="evenodd" d="M3 36C1.89543 36 1 35.1046 1 34V22C1 17.0294 5.02944 13 10 13C11.8501 13 13.5699 13.5583 15 14.5155V10C15 5.02944 19.0294 1 24 1C28.9706 1 33 5.02944 33 10V14.5155C34.4301 13.5583 36.1499 13 38 13C42.9706 13 47 17.0294 47 22V34C47 35.1046 46.1046 36 45 36C43.8954 36 43 35.1046 43 34C43 31.2386 40.7614 29 38 29C35.2386 29 33 31.2386 33 34V46C33 47.1046 32.1046 48 31 48C29.8954 48 29 47.1046 29 46C29 43.2386 26.7614 41 24 41C21.2386 41 19 43.2386 19 46C19 47.1046 18.1046 48 17 48C15.8954 48 15 47.1046 15 46V34C15 31.2386 12.7614 29 10 29C7.23858 29 5 31.2386 5 34C5 35.1046 4.10457 36 3 36ZM5 29.101C6.27052 27.8045 8.04131 27 10 27C13.866 27 17 30.134 17 34V46C17 44.0927 17.7628 42.3636 19 41.101C20.2705 39.8045 22.0413 39 24 39C25.9587 39 27.7295 39.8045 29 41.101C30.2372 42.3636 31 44.0927 31 46V34C31 30.134 34.134 27 38 27C39.9587 27 41.7295 27.8045 43 29.101C44.2372 30.3636 45 32.0927 45 34V22C45 18.134 41.866 15 38 15C36.0413 15 34.2705 15.8045 33 17.101C31.7628 18.3636 31 20.0927 31 22V10C31 6.13401 27.866 3 24 3C20.134 3 17 6.13401 17 10V22C17 20.0927 16.2372 18.3636 15 17.101C13.7295 15.8045 11.9587 15 10 15C6.13401 15 3 18.134 3 22V34C3 32.0927 3.76281 30.3636 5 29.101Z" fill="white"/>
<path fill-rule="evenodd" clip-rule="evenodd" d="M24 3C20.134 3 17 6.13401 17 10V22C17 18.134 20.134 15 24 15C27.866 15 31 18.134 31 22V10C31 6.13401 27.866 3 24 3Z" fill="#4272EF"/>
<path fill-rule="evenodd" clip-rule="evenodd" d="M24 27C20.134 27 17 30.134 17 34V46C17 42.134 20.134 39 24 39C27.866 39 31 42.134 31 46V34C31 30.134 27.866 27 24 27Z" fill="#FF5E5E"/>
<path fill-rule="evenodd" clip-rule="evenodd" d="M38 15C34.134 15 31 18.134 31 22V34C31 30.134 34.134 27 38 27C41.866 27 45 30.134 45 34V22C45 18.134 41.866 15 38 15Z" fill="#FFCF60"/>
<path fill-rule="evenodd" clip-rule="evenodd" d="M24 15C20.134 15 17 18.134 17 22V34C17 30.134 20.134 27 24 27C27.866 27 31 30.134 31 34V22C31 18.134 27.866 15 24 15Z" fill="white"/>
<path fill-rule="evenodd" clip-rule="evenodd" d="M10 15C6.13401 15 3 18.134 3 22V34C3 30.134 6.13401 27 10 27C13.866 27 17 30.134 17 34V22C17 18.134 13.866 15 10 15Z" fill="#222222"/>
<path d="M62.2969 17.3906C62.2969 15.4948 63.0052 14.0052 64.4219 12.9219C65.849 11.8281 67.8958 11.2812 70.5625 11.2812C73.7188 11.2812 76.2552 11.974 78.1719 13.3594C78.599 13.6406 78.6094 13.9583 78.2031 14.3125L76.4219 16.1406C76.1406 16.4219 75.8073 16.4635 75.4219 16.2656C74.0365 15.4948 72.4167 15.1146 70.5625 15.125C69.5 15.125 68.6875 15.3073 68.125 15.6719C67.5729 16.026 67.2969 16.5156 67.2969 17.1406C67.2969 17.7135 67.5781 18.1823 68.1406 18.5469C68.7031 18.9115 69.8073 19.3698 71.4531 19.9219C74.5885 20.9427 76.724 21.9948 77.8594 23.0781C79.0052 24.151 79.5781 25.724 79.5781 27.7969C79.5781 29.776 78.8229 31.3542 77.3125 32.5312C75.8021 33.6979 73.4115 34.2812 70.1406 34.2812C66.8177 34.2812 64.1198 33.5365 62.0469 32.0469C61.6406 31.7656 61.6198 31.4479 61.9844 31.0938L63.875 29.2031C64.1562 28.8802 64.474 28.8385 64.8281 29.0781C66.474 30.0156 68.2448 30.4844 70.1406 30.4844C71.6094 30.4844 72.724 30.2552 73.4844 29.7969C74.2448 29.3385 74.625 28.724 74.625 27.9531C74.625 27.1823 74.3333 26.5677 73.75 26.1094C73.1771 25.651 72.0156 25.1562 70.2656 24.625C67.1302 23.7083 65.0156 22.7344 63.9219 21.7031C62.8385 20.6615 62.2969 19.224 62.2969 17.3906ZM94.3438 29.3906C94.75 29.1823 95.0938 29.224 95.375 29.5156L97.4219 31.5312C97.7865 31.8958 97.7865 32.2188 97.4219 32.5C96.5677 33.2083 95.6146 33.6875 94.5625 33.9375C93.5208 34.1875 92.1458 34.3125 90.4375 34.3125C87.7083 34.3125 85.6562 33.6406 84.2812 32.2969C82.9062 30.9531 82.2188 28.8438 82.2188 25.9688V25.5156C82.2188 23.1719 82.9115 21.3281 84.2969 19.9844C85.6823 18.6406 87.625 17.9688 90.125 17.9688C92.5312 17.9688 94.4479 18.5677 95.875 19.7656C97.3125 20.9531 98.0312 22.6667 98.0312 24.9062V26.9219C98.0312 27.3698 97.7969 27.5938 97.3281 27.5938H87.1562V27.7969C87.1562 28.4323 87.4167 29.0312 87.9375 29.5938C88.4583 30.1458 89.2917 30.4219 90.4375 30.4219C91.2708 30.4219 91.9479 30.3594 92.4688 30.2344C92.9896 30.099 93.6146 29.8177 94.3438 29.3906ZM87.1562 24.5312H93.0625C93.0625 22.6979 92.0833 21.7812 90.125 21.7812C88.1458 21.7812 87.1562 22.6979 87.1562 24.5312ZM108.391 33.6406C108.391 33.8073 108.323 33.9583 108.188 34.0938C108.052 34.2396 107.885 34.3125 107.688 34.3125H107.375C105.177 34.3125 103.615 33.8542 102.688 32.9375C101.76 32.0208 101.297 30.5521 101.297 28.5312V12.2656C101.297 12.099 101.365 11.9479 101.5 11.8125C101.635 11.6667 101.792 11.5938 101.969 11.5938H105.422C105.589 11.5938 105.74 11.6667 105.875 11.8125C106.021 11.9479 106.094 12.099 106.094 12.2656V28.5312C106.094 29.7292 106.521 30.3229 107.375 30.3125H107.688C108.156 30.3125 108.391 30.5365 108.391 30.9844V33.6406ZM121.453 12.7188C121.755 13.0208 121.745 13.3281 121.422 13.6406L119.469 15.6562C119.208 15.9167 118.911 15.9323 118.578 15.7031C118.255 15.4948 117.911 15.3854 117.547 15.375C116.734 15.375 116.328 16.3333 116.328 18.25V18.2812H118.281C118.49 18.2812 118.656 18.349 118.781 18.4844C118.917 18.6094 118.984 18.7656 118.984 18.9531V21.6406C118.984 21.8281 118.922 21.9896 118.797 22.125C118.672 22.25 118.5 22.3125 118.281 22.3125H116.297L116.234 33.3281C116.234 33.776 116.01 34 115.562 34H112.016C111.547 34 111.312 33.776 111.312 33.3281V22.3125H110.031C109.844 22.3125 109.682 22.25 109.547 22.125C109.422 22 109.359 21.8385 109.359 21.6406V18.9531C109.359 18.7656 109.422 18.6094 109.547 18.4844C109.672 18.349 109.833 18.2812 110.031 18.2812H111.312V18.25C111.312 15.8646 111.885 14.1094 113.031 12.9844C114.188 11.849 115.63 11.2812 117.359 11.2812C119.13 11.2812 120.495 11.7604 121.453 12.7188Z" fill="black"/>
</svg>
