<svg width="24" height="24" viewBox="0 0 24 24" fill="none" xmlns="http://www.w3.org/2000/svg">
<g clip-path="url(#clip0)">
<path fill-rule="evenodd" clip-rule="evenodd" d="M12 4.39457L4.57746 8L12 11.6054L19.4225 8L12 4.39457ZM12 2.17111L-6.00782e-07 8L12 13.8289L24 8L12 2.17111Z" fill="#CCCCCC"/>
<path fill-rule="evenodd" clip-rule="evenodd" d="M12 11.5L5 8.5V17.1101C5 18.0054 5.39917 18.8596 6.17083 19.3136C7.4028 20.0383 9.50721 21 12 21C14.4928 21 16.5972 20.0383 17.8292 19.3136C18.6008 18.8596 19 18.0053 19 17.1101V8.5L12 11.5ZM17 11.5331L12 13.6759L7 11.5331V17.1101C7 17.2652 7.03517 17.3858 7.07523 17.4638C7.11218 17.5358 7.15087 17.5697 7.18492 17.5897C8.25737 18.2206 10.0032 19 12 19C13.9968 19 15.7426 18.2206 16.8151 17.5897C16.8491 17.5697 16.8878 17.5358 16.9248 17.4638C16.9648 17.3858 17 17.2652 17 17.1101V11.5331Z" fill="#CCCCCC"/>
<path fill-rule="evenodd" clip-rule="evenodd" d="M1 13V8H3V13H1Z" fill="#CCCCCC"/>
<path d="M4 14C4 15.1046 3.10457 16 2 16C0.89543 16 0 15.1046 0 14C0 12.8954 0.89543 12 2 12C3.10457 12 4 12.8954 4 14Z" fill="#CCCCCC"/>
</g>
<defs>
<clipPath id="clip0">
<rect width="24" height="24" fill="white"/>
</clipPath>
</defs>
</svg>
