<svg width="24" height="25" viewBox="0 0 24 25" fill="none" xmlns="http://www.w3.org/2000/svg">
<circle cx="12" cy="12.5" r="9" stroke="#6FCA37" stroke-width="2"/>
<path d="M12 3.5C14.4529 5.71827 16 8.9638 16 12.5796C16 16.1098 14.5252 19.2871 12.1725 21.5" stroke="#6FCA37" stroke-width="2"/>
<path d="M21 12.5L3 12.5" stroke="#6FCA37" stroke-width="2"/>
<path d="M12 3.5C9.54708 5.71827 8 8.9638 8 12.5796C8 16.1098 9.47476 19.2871 11.8275 21.5" stroke="#6FCA37" stroke-width="2"/>
<path fill-rule="evenodd" clip-rule="evenodd" d="M12 20.5C16.4183 20.5 20 16.9183 20 12.5C20 8.08172 16.4183 4.5 12 4.5C7.58172 4.5 4 8.08172 4 12.5C4 16.9183 7.58172 20.5 12 20.5ZM12 22.5C17.5228 22.5 22 18.0228 22 12.5C22 6.97715 17.5228 2.5 12 2.5C6.47715 2.5 2 6.97715 2 12.5C2 18.0228 6.47715 22.5 12 22.5Z" fill="#6FCA37"/>
<path fill-rule="evenodd" clip-rule="evenodd" d="M14.9998 12.5796C14.9998 9.25386 13.5779 6.2754 11.3291 4.24168L12.6706 2.7583C15.3276 5.16113 16.9998 8.67372 16.9998 12.5796C16.9998 16.3929 15.4058 19.8316 12.8575 22.2284L11.4872 20.7716C13.6444 18.7426 14.9998 15.8266 14.9998 12.5796Z" fill="#6FCA37"/>
<path fill-rule="evenodd" clip-rule="evenodd" d="M3 11.5L21 11.5L21 13.5L3 13.5L3 11.5Z" fill="#6FCA37"/>
<path fill-rule="evenodd" clip-rule="evenodd" d="M9.00016 12.5796C9.00016 9.25386 10.4221 6.2754 12.6709 4.24168L11.3294 2.7583C8.67242 5.16113 7.00016 8.67372 7.00016 12.5796C7.00016 16.3929 8.59424 19.8316 11.1425 22.2284L12.5128 20.7716C10.3556 18.7426 9.00016 15.8266 9.00016 12.5796Z" fill="#6FCA37"/>
</svg>
