<svg width="48" height="48" viewBox="0 0 48 48" fill="none" xmlns="http://www.w3.org/2000/svg">
<g clip-path="url(#clip0_7238_2461)">
<path d="M14.0873 20.6461C15.5193 16.4063 19.592 13.3617 24.4275 13.3617C27.0252 13.3617 29.3638 14.2617 31.2131 15.7312L36.5595 10.5C33.2998 7.71563 29.1119 6 24.4203 6C17.1599 6 10.9068 10.05 7.90625 15.9773L14.0873 20.6461Z" fill="#E43C30"/>
<path d="M30.6244 33.021C28.9478 34.0757 26.825 34.6382 24.4217 34.6382C19.6078 34.6382 15.5494 31.6148 14.1031 27.4031L7.90039 32.0015C10.901 37.9429 17.154 42 24.4217 42C28.9262 42 33.2292 40.439 36.4457 37.5L30.6244 33.021Z" fill="#289948"/>
<path d="M36.4459 37.5C39.8134 34.4273 42.0009 29.857 42.0009 24C42.0009 22.9383 41.8354 21.7922 41.5836 20.7305H24.4219V27.6844H34.3015C33.8122 30.0258 32.5026 31.8328 30.6246 33.0211L36.4459 37.5Z" fill="#1A73E8"/>
<path d="M14.1023 27.4031C13.7354 26.3343 13.5339 25.1953 13.5339 24C13.5339 22.8257 13.7282 21.7007 14.0808 20.646L7.89966 15.9773C6.6692 18.389 6 21.1101 6 24C6 26.8757 6.68359 29.5968 7.89966 32.0015L14.1023 27.4031Z" fill="#FBBF12"/>
</g>
<defs>
<clipPath id="clip0_7238_2461">
<rect width="36" height="36" fill="white" transform="translate(6 6)"/>
</clipPath>
</defs>
</svg>
