<svg width="202" height="72" viewBox="0 0 202 72" fill="none" xmlns="http://www.w3.org/2000/svg">
<g clip-path="url(#clip0_5629_7794)">
<rect x="9" y="18" width="54" height="42" rx="9" fill="#4272EF"/>
<rect x="15" y="27" width="42" height="21" rx="4.5" fill="#222222"/>
<circle cx="29.25" cy="37.5" r="3.75" fill="#FFCF60"/>
<circle cx="42.75" cy="37.5" r="3.75" fill="#FF5E5E"/>
<rect x="27" y="54" width="18" height="3" rx="1.5" fill="#222222"/>
<rect x="3" y="33" width="6" height="12" rx="3" fill="#222222"/>
<rect x="63" y="33" width="6" height="12" rx="3" fill="#222222"/>
<rect x="34.5" y="9" width="3" height="9" rx="1.5" fill="#222222"/>
<circle cx="36" cy="7.5" r="3" fill="#FFCF60"/>
<path d="M90.36 53.304C89.272 53.304 88.44 53 87.864 52.392C87.288 51.784 87 50.936 87 49.848V22.056C87 20.968 87.304 20.12 87.912 19.512C88.552 18.904 89.416 18.6 90.504 18.6C91.464 18.6 92.216 18.792 92.76 19.176C93.336 19.528 93.864 20.152 94.344 21.048L105.432 41.304H103.8L114.888 21.048C115.368 20.152 115.88 19.528 116.424 19.176C117 18.792 117.752 18.6 118.68 18.6C119.768 18.6 120.6 18.904 121.176 19.512C121.784 20.12 122.088 20.968 122.088 22.056V49.848C122.088 50.936 121.8 51.784 121.224 52.392C120.648 53 119.816 53.304 118.728 53.304C117.64 53.304 116.792 53 116.184 52.392C115.608 51.784 115.32 50.936 115.32 49.848V30.408H116.376L107.448 46.392C107.064 47 106.648 47.464 106.2 47.784C105.784 48.072 105.224 48.216 104.52 48.216C103.816 48.216 103.24 48.056 102.792 47.736C102.344 47.416 101.944 46.968 101.592 46.392L92.568 30.36H93.72V49.848C93.72 50.936 93.432 51.784 92.856 52.392C92.312 53 91.48 53.304 90.36 53.304Z" fill="#222222"/>
<path d="M139.655 53.4C137.127 53.4 134.919 52.904 133.031 51.912C131.175 50.92 129.735 49.496 128.711 47.64C127.687 45.784 127.175 43.592 127.175 41.064C127.175 39.176 127.463 37.48 128.039 35.976C128.615 34.472 129.447 33.192 130.535 32.136C131.655 31.048 132.983 30.232 134.519 29.688C136.055 29.112 137.767 28.824 139.655 28.824C142.183 28.824 144.375 29.32 146.231 30.312C148.119 31.304 149.575 32.712 150.599 34.536C151.655 36.36 152.183 38.536 152.183 41.064C152.183 42.984 151.879 44.696 151.271 46.2C150.695 47.704 149.863 49 148.775 50.088C147.687 51.176 146.359 52.008 144.791 52.584C143.255 53.128 141.543 53.4 139.655 53.4ZM139.655 47.976C140.711 47.976 141.623 47.72 142.391 47.208C143.159 46.696 143.767 45.944 144.215 44.952C144.663 43.928 144.887 42.632 144.887 41.064C144.887 38.728 144.407 37.016 143.447 35.928C142.487 34.808 141.223 34.248 139.655 34.248C138.631 34.248 137.719 34.488 136.919 34.968C136.151 35.448 135.543 36.2 135.095 37.224C134.679 38.216 134.471 39.496 134.471 41.064C134.471 43.4 134.951 45.144 135.911 46.296C136.871 47.416 138.119 47.976 139.655 47.976Z" fill="#222222"/>
<path d="M168.064 53.4C165.505 53.4 163.264 52.904 161.344 51.912C159.456 50.888 158.001 49.448 156.977 47.592C155.952 45.736 155.44 43.544 155.44 41.016C155.44 39.128 155.729 37.432 156.304 35.928C156.88 34.424 157.713 33.144 158.8 32.088C159.921 31.032 161.264 30.232 162.832 29.688C164.4 29.112 166.145 28.824 168.064 28.824C169.056 28.824 170.112 28.952 171.232 29.208C172.353 29.432 173.457 29.832 174.545 30.408C175.185 30.696 175.617 31.112 175.84 31.656C176.096 32.168 176.193 32.712 176.129 33.288C176.064 33.832 175.856 34.328 175.505 34.776C175.185 35.192 174.769 35.48 174.257 35.64C173.744 35.768 173.169 35.672 172.529 35.352C171.921 35 171.28 34.744 170.608 34.584C169.968 34.424 169.361 34.344 168.785 34.344C167.825 34.344 166.977 34.504 166.241 34.824C165.505 35.112 164.881 35.544 164.368 36.12C163.888 36.664 163.505 37.352 163.216 38.184C162.961 39.016 162.832 39.976 162.832 41.064C162.832 43.176 163.344 44.84 164.368 46.056C165.424 47.24 166.896 47.832 168.785 47.832C169.361 47.832 169.968 47.768 170.608 47.64C171.248 47.48 171.889 47.224 172.529 46.872C173.169 46.552 173.744 46.472 174.257 46.632C174.769 46.792 175.169 47.096 175.457 47.544C175.777 47.96 175.952 48.456 175.984 49.032C176.049 49.576 175.952 50.12 175.697 50.664C175.473 51.176 175.057 51.576 174.449 51.864C173.361 52.408 172.272 52.792 171.185 53.016C170.097 53.272 169.056 53.4 168.064 53.4Z" fill="#222222"/>
<path d="M183.162 53.304C181.978 53.304 181.066 52.984 180.426 52.344C179.818 51.704 179.514 50.792 179.514 49.608V22.296C179.514 21.08 179.818 20.168 180.426 19.56C181.066 18.92 181.978 18.6 183.162 18.6C184.314 18.6 185.194 18.92 185.802 19.56C186.442 20.168 186.762 21.08 186.762 22.296V39.048H186.858L193.818 31.32C194.522 30.52 195.162 29.928 195.738 29.544C196.346 29.128 197.146 28.92 198.138 28.92C199.13 28.92 199.882 29.176 200.394 29.688C200.938 30.2 201.21 30.824 201.21 31.56C201.242 32.264 200.938 32.984 200.298 33.72L192.954 41.928V39.192L201.114 48.6C201.722 49.336 201.978 50.072 201.882 50.808C201.818 51.544 201.498 52.152 200.922 52.632C200.346 53.08 199.61 53.304 198.714 53.304C197.626 53.304 196.746 53.096 196.074 52.68C195.434 52.264 194.778 51.624 194.106 50.76L186.858 42.696H186.762V49.608C186.762 52.072 185.562 53.304 183.162 53.304Z" fill="#222222"/>
</g>
<defs>
<clipPath id="clip0_5629_7794">
<rect width="201.902" height="72" fill="white"/>
</clipPath>
</defs>
</svg>
