<svg width="48" height="48" viewBox="0 0 48 48" fill="none" xmlns="http://www.w3.org/2000/svg">
<path d="M24 44C35.0457 44 44 35.0457 44 24C44 12.9543 35.0457 4 24 4C12.9543 4 4 12.9543 4 24C4 35.0457 12.9543 44 24 44Z" fill="black" stroke="white" stroke-miterlimit="10"/>
<path fill-rule="evenodd" clip-rule="evenodd" d="M26.0384 11.129L26.0283 16.8254L26.0183 22.5218L25.5496 21.1994C25.5495 21.199 25.5489 21.1973 25.5487 21.1968L24.9431 33.8785C25.5385 35.56 25.8576 36.4577 25.8611 36.4612C25.8658 36.4659 26.2052 36.4864 26.6152 36.5067C27.8576 36.5684 29.3971 36.7005 30.565 36.8456C30.8354 36.8792 31.0681 36.8964 31.0821 36.8839C31.0961 36.8713 31.1037 31.0713 31.099 23.995L31.0905 11.129H26.0384ZM16.9004 11.1121V23.9911C16.9004 31.0746 16.9073 36.8771 16.9158 36.8856C16.9243 36.8941 17.363 36.8527 17.8906 36.7936C18.4183 36.7345 19.1476 36.661 19.5112 36.6303C20.069 36.5832 21.7342 36.4761 21.927 36.475C21.9831 36.4746 21.9867 36.1852 21.9948 31.0199L22.0034 25.5653L22.4063 26.7053C22.4686 26.8814 22.4881 26.9365 22.5488 27.1081L23.1542 14.4296C23.026 14.0669 23.0932 14.2573 22.9462 13.8416C22.4515 12.4429 22.0317 11.2566 22.0133 11.2053L21.9798 11.1121H16.9004Z" fill="#B1060F" stroke="black" stroke-width="0.310123"/>
<path fill-rule="evenodd" clip-rule="evenodd" d="M16.9004 11.1121V18.3414L21.9931 31.8507C21.9937 31.5411 21.9943 31.3738 21.9948 31.0199L22.0034 25.5653L22.4063 26.7053C24.6491 33.0515 25.8541 36.4541 25.8611 36.4612C25.8658 36.4659 26.2052 36.4864 26.6152 36.5067C27.8576 36.5684 29.3971 36.7005 30.565 36.8456C30.8354 36.8792 31.0681 36.8964 31.0821 36.8839C31.0917 36.8752 31.098 34.0314 31.0997 30.0195L26.0308 15.4463L26.0283 16.8254L26.0183 22.5218L25.5496 21.1994C25.0917 19.9073 24.7859 19.0432 22.9462 13.8416C22.4515 12.4429 22.0317 11.2566 22.0133 11.2053L21.9798 11.1121H16.9004Z" fill="url(#paint0_radial_7430_4519)"/>
<path fill-rule="evenodd" clip-rule="evenodd" d="M16.9004 11.1121L22.0033 25.5719V25.5653L22.4062 26.7053C24.649 33.0515 25.8539 36.4541 25.861 36.4612C25.8657 36.4659 26.2051 36.4864 26.6151 36.5067C27.8575 36.5684 29.397 36.7005 30.5649 36.8456C30.8339 36.879 31.0654 36.8962 31.0816 36.884L26.0182 22.5192V22.5218L25.5495 21.1994C25.0916 19.9073 24.7858 19.0432 22.9461 13.8416C22.4514 12.4429 22.0316 11.2566 22.0132 11.2053L21.9797 11.1121L16.9004 11.1121Z" fill="#E50914"/>
<path fill-rule="evenodd" clip-rule="evenodd" d="M26.0384 11.129L26.0283 16.8254L26.0183 22.5218L25.5496 21.1994C25.5495 21.199 25.5489 21.1973 25.5487 21.1968L24.9431 33.8785C25.5385 35.56 25.8576 36.4577 25.8611 36.4612C25.8658 36.4659 26.2052 36.4864 26.6152 36.5067C27.8576 36.5684 29.3971 36.7005 30.565 36.8456C30.8354 36.8792 31.0681 36.8964 31.0821 36.8839C31.0961 36.8713 31.1037 31.0713 31.099 23.995L31.0905 11.129H26.0384ZM16.9004 11.1121V23.9911C16.9004 31.0746 16.9073 36.8771 16.9158 36.8856C16.9243 36.8941 17.363 36.8527 17.8906 36.7936C18.4183 36.7345 19.1476 36.661 19.5112 36.6303C20.069 36.5832 21.7342 36.4761 21.927 36.475C21.9831 36.4746 21.9867 36.1852 21.9948 31.0199L22.0034 25.5653L22.4063 26.7053C22.4686 26.8814 22.4881 26.9365 22.5488 27.1081L23.1542 14.4296C23.026 14.0669 23.0932 14.2573 22.9462 13.8416C22.4515 12.4429 22.0317 11.2566 22.0133 11.2053L21.9798 11.1121H16.9004Z" fill="#B1060F" stroke="black" stroke-width="0.310123"/>
<path fill-rule="evenodd" clip-rule="evenodd" d="M16.9004 11.1121V18.3414L21.9931 31.8507C21.9937 31.5411 21.9943 31.3738 21.9948 31.0199L22.0034 25.5653L22.4063 26.7053C24.6491 33.0515 25.8541 36.4541 25.8611 36.4612C25.8658 36.4659 26.2052 36.4864 26.6152 36.5067C27.8576 36.5684 29.3971 36.7005 30.565 36.8456C30.8354 36.8792 31.0681 36.8964 31.0821 36.8839C31.0917 36.8752 31.098 34.0314 31.0997 30.0195L26.0308 15.4463L26.0283 16.8254L26.0183 22.5218L25.5496 21.1994C25.0917 19.9073 24.7859 19.0432 22.9462 13.8416C22.4515 12.4429 22.0317 11.2566 22.0133 11.2053L21.9798 11.1121H16.9004Z" fill="url(#paint1_radial_7430_4519)"/>
<path fill-rule="evenodd" clip-rule="evenodd" d="M16.9004 11.1121L22.0033 25.5719V25.5653L22.4062 26.7053C24.649 33.0515 25.8539 36.4541 25.861 36.4612C25.8657 36.4659 26.2051 36.4864 26.6151 36.5067C27.8575 36.5684 29.397 36.7005 30.5649 36.8456C30.8339 36.879 31.0654 36.8962 31.0816 36.884L26.0182 22.5192V22.5218L25.5495 21.1994C25.0916 19.9073 24.7858 19.0432 22.9461 13.8416C22.4514 12.4429 22.0316 11.2566 22.0132 11.2053L21.9797 11.1121L16.9004 11.1121Z" fill="#E50914"/>
<defs>
<radialGradient id="paint0_radial_7430_4519" cx="0" cy="0" r="1" gradientUnits="userSpaceOnUse" gradientTransform="translate(23.7642 23.8501) rotate(-19.0977) scale(3.21835 117.885)">
<stop/>
<stop offset="1" stop-opacity="0"/>
</radialGradient>
<radialGradient id="paint1_radial_7430_4519" cx="0" cy="0" r="1" gradientUnits="userSpaceOnUse" gradientTransform="translate(23.7642 23.8501) rotate(-19.0977) scale(3.21835 117.885)">
<stop/>
<stop offset="1" stop-opacity="0"/>
</radialGradient>
</defs>
</svg>
