<svg width="48" height="48" viewBox="0 0 48 48" fill="none" xmlns="http://www.w3.org/2000/svg">
<path d="M10.2859 20.6672H7.37875L6.22656 27.1679H8.00969L8.73625 22.1072H8.91531L9.65594 27.1679H11.4381L10.2859 20.6672Z" fill="black"/>
<path d="M18.7065 27.1679L18.6249 22.2722H18.4599L17.6237 27.1679H15.8818L15.0455 22.2722H14.8805L14.798 27.1679H13.1387L13.3993 20.6672H16.1837L16.6768 24.2607H16.8277L17.3077 20.6672H20.0921L20.3659 27.1679H18.7065Z" fill="black"/>
<path d="M28.9242 25.7419L28.9102 20.6672H30.7345V25.6454V25.6735V25.7007L30.7477 25.7279V25.755V25.7832V25.8104L30.7617 25.8244L30.7758 25.8516V25.8788L30.7889 25.906L30.803 25.9201L30.8161 25.9472L30.8302 25.9613L30.8442 25.9885L30.8573 26.0025L30.8714 26.0157L30.8855 26.0438L30.9127 26.0569L30.9258 26.071L30.9539 26.085L30.967 26.0982L30.9952 26.1122L31.0083 26.1254L31.0355 26.1394L31.0636 26.1535H31.0767L31.1048 26.1666H31.132H31.1592L31.1864 26.1807H31.2145H31.2417H31.2689H31.283L31.3102 26.1666H31.3373H31.3655L31.3927 26.1535H31.4198L31.4339 26.1394L31.4611 26.1254L31.4883 26.1122L31.5023 26.0982L31.5295 26.085L31.5436 26.071L31.5567 26.0569L31.5848 26.0438L31.598 26.0157L31.612 26.0025L31.6252 25.9885L31.6392 25.9613L31.6533 25.9472L31.6664 25.9201L31.6805 25.906L31.6945 25.8788L31.7077 25.8516V25.8244L31.7217 25.8104V25.7832V25.755L31.7358 25.7279V25.7007V25.6735V25.6454V20.6672H33.5592V25.7691V25.8788L33.5452 25.9754L33.532 26.085L33.5048 26.1807L33.4767 26.2763L33.4495 26.3729L33.4083 26.4554L33.3539 26.5369L33.3127 26.6194L33.2573 26.7019L33.1889 26.7704L33.1345 26.8388L33.0652 26.9072L32.9836 26.9757L32.9152 27.031L32.8327 27.0854L32.7502 27.1407L32.6677 27.195L32.572 27.2363L32.4755 27.2916L32.3798 27.3188L32.2842 27.36L32.1877 27.3872L32.092 27.4285L31.9823 27.4425L31.8858 27.4697L31.6664 27.511L31.447 27.525H31.2417H31.0223L30.803 27.4969L30.5967 27.4697L30.487 27.4425L30.3773 27.4154L30.2817 27.3872L30.1852 27.36L30.0895 27.3188L29.9939 27.2775L29.8973 27.2363L29.8158 27.1819L29.7192 27.1407L29.6367 27.0854L29.5552 27.0169L29.4858 26.9625L29.4173 26.8941L29.3489 26.8247L29.2805 26.7563L29.2252 26.6747L29.1708 26.6054L29.1155 26.5238L29.0752 26.4272L29.0339 26.3447L28.9927 26.2491L28.9655 26.1535L28.9514 26.0569L28.9242 25.9472V25.8516V25.7419Z" fill="black"/>
<path d="M41.3071 20.6672H39.7302V24.7407H39.689L37.8515 20.6672H35.9043V27.1679H37.4812V23.3691H37.5224L39.2502 27.1679H41.3071V20.6672Z" fill="black"/>
<path d="M22.2988 25.8929V25.0285H24.1232L24.1091 25.4129V25.5085V25.591V25.6322L24.1232 25.6735V25.7147L24.1363 25.7551L24.1504 25.7832V25.7963L24.1645 25.8244L24.1776 25.8376V25.8516L24.1916 25.8647V25.8788L24.2048 25.8929L24.2188 25.906L24.2329 25.9201L24.246 25.9341L24.2601 25.9472L24.2741 25.9613L24.2873 25.9754L24.3013 25.9885L24.3145 26.0026H24.3285L24.3426 26.0157L24.3698 26.0297H24.3838L24.397 26.0438L24.4241 26.0569H24.4523L24.4935 26.071L24.5479 26.0851H24.6032H24.6576H24.6716H24.6848H24.6988H24.7129H24.726H24.7401H24.7541H24.7673L24.7813 26.071L24.8085 26.0569L24.8357 26.0438L24.8638 26.0297L24.891 26.0157L24.9182 26.0026L24.9454 25.9754L24.9735 25.9613L24.9866 25.9341L25.0148 25.906L25.0279 25.8788L25.0551 25.8516L25.0691 25.8244L25.0832 25.7832L25.0963 25.7551L25.1104 25.7147L25.1245 25.6866V25.6454V25.6051V25.5638V25.5226V25.4813V25.426L25.1104 25.3847L25.0963 25.3444L25.0832 25.2891L25.0551 25.2347L25.0279 25.1935L25.0148 25.1654L25.0007 25.1382L24.9866 25.111L24.9735 25.0969L24.9595 25.0697L24.9454 25.0557L24.9041 25.0154L24.8638 24.9741L24.8226 24.9329L24.7673 24.9047L24.726 24.8644L24.6163 24.8091L24.5066 24.7407L24.246 24.6169L23.9582 24.4801L23.6432 24.3151L23.4641 24.2194L23.3001 24.1097L23.1351 23.986L22.957 23.8351L22.9298 23.8219L22.9026 23.8079L22.8885 23.7807L22.8613 23.7535L22.8341 23.7394L22.8201 23.7122L22.7648 23.6569L22.7376 23.6157L22.6963 23.5472L22.6551 23.4929L22.6279 23.4376L22.6007 23.3691L22.5735 23.3007L22.5454 23.2322L22.5323 23.1638L22.491 23.0129L22.4638 22.8619L22.4357 22.6969L22.4226 22.546L22.4085 22.3951V22.2451V22.0941L22.4226 21.9563L22.4357 21.8194L22.4498 21.7097L22.477 21.6141L22.491 21.5316L22.5182 21.4491L22.5595 21.3666L22.6007 21.2982L22.642 21.2157L22.6832 21.1472L22.7376 21.0788L22.7929 21.0244L22.8473 20.9691L22.9157 20.9007L22.9841 20.8594L23.0535 20.8051L23.122 20.7638L23.1904 20.7085L23.2729 20.6672L23.3545 20.6401L23.437 20.5988L23.5195 20.5716L23.6151 20.5444L23.7941 20.4891L23.9723 20.4479L24.1645 20.4207L24.3557 20.4066H24.562H24.7541L24.9454 20.4207L25.1376 20.4479L25.3298 20.4891L25.522 20.5304L25.686 20.5847L25.8641 20.6401L26.0151 20.7085L26.0976 20.7497L26.166 20.791L26.2345 20.8322L26.3038 20.8866L26.3723 20.9279L26.4266 20.9832L26.482 21.0244L26.5363 21.0788L26.5916 21.1341L26.6329 21.1885L26.6741 21.2569L26.6873 21.2851L26.7013 21.3122L26.7285 21.3394L26.7426 21.3807L26.7557 21.4079V21.4351L26.7698 21.4763L26.7838 21.5044V21.5316L26.797 21.5729V21.6001L26.811 21.6413V21.6826V21.7097V22.6154H25.1516L25.1648 22.231V22.1485L25.1516 22.066V22.0247V21.9976L25.1376 21.9563L25.1245 21.9291V21.9151V21.9019L25.1104 21.8879V21.8607L25.0963 21.8466L25.0832 21.8335V21.8194H25.0691L25.0551 21.8054V21.7922L25.042 21.7782L25.0279 21.7651L25.0148 21.751H25.0007L24.9866 21.7369L24.9735 21.7238H24.9454L24.9323 21.7097L24.9182 21.6957H24.9041L24.877 21.6826H24.8638L24.8085 21.6685L24.7673 21.6554H24.7129H24.6576H24.6032H24.5751H24.5479H24.5348L24.5066 21.6685H24.4795L24.4523 21.6826L24.4241 21.6957L24.411 21.7097H24.3838L24.3557 21.7369L24.3285 21.751L24.3145 21.7651L24.2873 21.7782L24.2741 21.8054L24.246 21.8335L24.2329 21.8466L24.2188 21.8607L24.2048 21.8747V21.8879L24.1916 21.9019V21.9151L24.1776 21.9291V21.9432L24.1645 21.9563V21.9844V21.9976L24.1504 22.0116V22.0247V22.0388V22.066V22.0801L24.1363 22.0941V22.1213V22.1354L24.1504 22.1626V22.1757V22.2169L24.1645 22.2582L24.1776 22.3135L24.1916 22.3547L24.2048 22.3951L24.2329 22.4504L24.2741 22.5047L24.3285 22.5601L24.3838 22.6154L24.4241 22.6697L24.5348 22.7654L24.6445 22.8479L24.7541 22.9304L24.877 22.9988L25.0007 23.0672L25.1104 23.1226L25.5904 23.3419L25.837 23.4516L25.9466 23.506L26.0563 23.5754L26.166 23.6297L26.2626 23.6982L26.317 23.7394L26.3723 23.7807L26.4135 23.8219L26.4548 23.8632L26.4951 23.9044L26.5504 23.9588L26.5776 24.0141L26.6188 24.0554L26.6601 24.1097L26.7013 24.1782L26.7285 24.2335L26.7557 24.3019L26.7838 24.3704L26.811 24.4388L26.8382 24.5072L26.8654 24.5897L26.8795 24.6722L26.8935 24.7547L26.9207 24.8363V24.9329L26.9479 25.1251V25.3444L26.9348 25.5769L26.9207 25.8376L26.9066 25.9341L26.8935 26.0157L26.8654 26.1122L26.8382 26.1947L26.797 26.2763L26.7557 26.3588L26.7145 26.4413L26.6601 26.5097L26.6048 26.5782L26.5504 26.6466L26.482 26.7151L26.4135 26.7844L26.3441 26.8388L26.2757 26.8941L26.1941 26.9485L26.1116 26.9897L26.0291 27.031L25.9466 27.0854L25.851 27.1135L25.7685 27.1547L25.6729 27.1951L25.5763 27.2232L25.371 27.2776L25.1648 27.3047L24.9595 27.3329L24.7541 27.3601H24.5479L24.3285 27.346L24.1232 27.3329L23.917 27.3047L23.7248 27.2644L23.5335 27.2091L23.3413 27.1407L23.2588 27.0994L23.1632 27.0582L23.0807 27.0169L23.0123 26.9757L22.9298 26.9354L22.8613 26.8801L22.7929 26.8247L22.7245 26.7704L22.6551 26.7151L22.6007 26.6466L22.5454 26.5922L22.5041 26.5238L22.4498 26.4554L22.4357 26.4141L22.4085 26.3729L22.3945 26.3447L22.3813 26.3044L22.3673 26.2632L22.3541 26.2219L22.3401 26.1807L22.326 26.1394V26.0982L22.3129 26.0569V26.0157L22.2988 25.9754V25.9341V25.8929Z" fill="black"/>
<path d="M2.235 20.3934L1.96125 20.4206L1.70062 20.4478L1.57687 20.475L1.46719 20.5031L1.3575 20.5303L1.24781 20.5575L1.15219 20.5987L1.05562 20.64L0.96 20.6812L0.8775 20.7225L0.795 20.7637L0.726562 20.8181L0.658125 20.8734L0.589687 20.9278L0.535313 20.9831L0.465937 21.0375L0.424688 21.1059L0.370313 21.1612L0.329062 21.2297L0.287813 21.2981L0.246563 21.3666L0.219375 21.435L0.178125 21.5044L0.150937 21.5728L0.136875 21.6412L0.109687 21.7237L0.095625 21.7922L0.0825 21.8606L0.0684375 21.9431V22.0116L0.0553125 22.1625V22.3134L0.0684375 22.4644L0.0825 22.6153L0.109687 22.7522L0.150937 22.8891L0.192187 23.0259L0.233438 23.1497L0.274687 23.2734L0.329062 23.3831L0.384375 23.4928L0.43875 23.5884L0.494062 23.6709L0.52125 23.7122L0.548437 23.7394L0.575625 23.7666L0.60375 23.7947L0.630938 23.8219L0.645 23.835H0.658125L0.83625 23.9859L1.00125 24.1097L1.17937 24.2194L1.34438 24.315L1.65938 24.48L1.94719 24.6169L2.20781 24.7406L2.3175 24.8091L2.42719 24.8644L2.4825 24.9047L2.52375 24.9328L2.565 24.9741L2.60531 25.0153L2.64656 25.0556L2.66062 25.0697L2.67469 25.0969L2.68781 25.1109L2.70187 25.1381L2.715 25.1653L2.72906 25.1934L2.75625 25.2347L2.78438 25.2891L2.7975 25.3444L2.81156 25.3847L2.82469 25.4259V25.4812L2.83875 25.5225V25.5637V25.605L2.82469 25.6453V25.6866L2.81156 25.7147L2.7975 25.755L2.78438 25.7831L2.77031 25.8244L2.75625 25.8516L2.74312 25.8787L2.715 25.9059L2.68781 25.9341L2.67469 25.9612L2.64656 25.9753L2.61937 26.0025L2.59219 26.0156L2.57812 26.0297L2.55094 26.0437L2.52375 26.0569L2.49563 26.0709L2.46844 26.085H2.45531H2.44125H2.42719H2.41406H2.4H2.38594H2.37281H2.35875H2.30437H2.24906L2.19469 26.0709L2.15344 26.0569H2.12531L2.11219 26.0437L2.085 26.0297H2.07094L2.04375 26.0156L2.02969 26.0025H2.01562L2.0025 25.9884L1.98844 25.9753L1.97531 25.9612L1.96125 25.9472L1.94719 25.9341L1.93406 25.92L1.92 25.9059L1.90594 25.8928V25.8787L1.89281 25.8647L1.87875 25.8516V25.8375L1.86469 25.8244V25.7962L1.85156 25.7831L1.8375 25.755V25.7147L1.82437 25.6734V25.6322L1.81031 25.5909V25.5084V25.4128L1.82437 25.0284H0V25.8928V25.9341V25.9753L0.0140625 26.0156V26.0569L0.0271875 26.0981V26.1394L0.04125 26.1806L0.0553125 26.2219L0.0684375 26.2631L0.0825 26.3044L0.095625 26.3447L0.12375 26.3728L0.136875 26.4141L0.150937 26.4553L0.205313 26.5237L0.246563 26.5922L0.301875 26.6466L0.35625 26.715L0.424688 26.7703L0.494062 26.8247L0.5625 26.88L0.630938 26.9353L0.713437 26.9756L0.795 27.0169L0.8775 27.0581L0.96 27.0994L1.0425 27.1406L1.23469 27.2091L1.42594 27.2644L1.61812 27.3047L1.82437 27.3328L2.04375 27.3459L2.24906 27.36H2.45531L2.67469 27.3328L2.88 27.3047L3.07219 27.2775L3.2775 27.2231L3.37406 27.195L3.46969 27.1547L3.55219 27.1134L3.64781 27.0853L3.73031 27.0309L3.81281 26.9897L3.89531 26.9484L3.97687 26.8941L4.04531 26.8387L4.12781 26.7844L4.18313 26.715L4.25156 26.6466L4.30594 26.5781L4.36125 26.5097L4.41562 26.4412L4.45687 26.3587L4.49813 26.2762L4.53937 26.1947L4.56656 26.1122L4.59469 26.0156L4.60781 25.9341L4.62187 25.8375L4.635 25.5769L4.64906 25.3444V25.125L4.635 24.9328L4.62187 24.8362L4.60781 24.7547L4.58063 24.6722L4.56656 24.5897L4.53937 24.5072L4.52531 24.4387L4.49813 24.3703L4.45687 24.3019L4.42969 24.2334L4.4025 24.1781L4.36125 24.1097L4.32 24.0553L4.29281 24.0141L4.25156 23.9587L4.21031 23.9044L4.155 23.8631L4.11469 23.8219L4.07344 23.7806L4.01813 23.7394L3.97687 23.6981L3.86719 23.6297L3.7575 23.5753L3.64781 23.5059L3.53813 23.4516L3.30469 23.3419L2.81156 23.1225L2.70187 23.0672L2.57812 22.9987L2.46844 22.9303L2.34469 22.8478L2.235 22.7653L2.13937 22.6697L2.085 22.6153L2.02969 22.56L1.98844 22.5047L1.93406 22.4503L1.90594 22.395L1.89281 22.3547L1.87875 22.3134L1.86469 22.2581L1.85156 22.2169V22.1756V22.1625V22.1353V22.1212V22.0941V22.08V22.0659V22.0387V22.0247V22.0116L1.86469 21.9975V21.9844L1.87875 21.9562V21.9431V21.9291L1.89281 21.915V21.9019L1.90594 21.8878L1.92 21.8747V21.8606L1.93406 21.8466L1.94719 21.8334L1.97531 21.8053L1.98844 21.7781L2.01562 21.765L2.04375 21.7509L2.05687 21.7369L2.085 21.7097H2.11219L2.13937 21.6956L2.15344 21.6825L2.18062 21.6684H2.20781L2.235 21.6553H2.26312H2.27625H2.30437H2.35875H2.41406H2.46844L2.52375 21.6684L2.565 21.6825H2.57812L2.60531 21.6956H2.61937L2.63344 21.7097L2.66062 21.7237H2.67469L2.68781 21.7369L2.70187 21.7509H2.715L2.72906 21.765L2.74312 21.7781L2.75625 21.7922V21.8053L2.77031 21.8194H2.78438L2.7975 21.8334V21.8466L2.81156 21.8606V21.8878L2.82469 21.9019V21.915L2.83875 21.9291V21.9562L2.85281 21.9975V22.0247L2.86594 22.0659V22.1484V22.2309L2.85281 22.6153H4.51219V21.7097V21.6684V21.6141L4.49813 21.5728V21.5175L4.485 21.4762L4.47094 21.435L4.45687 21.3947V21.3534L4.42969 21.3122L4.41562 21.2709L4.4025 21.2437L4.37531 21.2025L4.36125 21.1612L4.33406 21.1341L4.30594 21.0928L4.29281 21.0647L4.26469 21.0375L4.2375 21.0103L4.19625 20.9691L4.16906 20.9419L4.11469 20.8866L4.04531 20.8322L3.96375 20.7909L3.89531 20.7497L3.81281 20.7084L3.73031 20.6672L3.64781 20.6259L3.55219 20.5987L3.37406 20.5444L3.18187 20.5031L3.00375 20.4619L2.7975 20.4347L2.60531 20.4206L2.235 20.3934Z" fill="black"/>
<path d="M45.9292 27.5934L46.1355 27.6065L46.3408 27.5934L46.5189 27.5793L46.6839 27.5653L46.8348 27.5381L46.9717 27.4968L47.0402 27.4837L47.1086 27.4556L47.1639 27.4425L47.2183 27.4153L47.2736 27.3871L47.328 27.36L47.3833 27.3328L47.4245 27.3046L47.4789 27.2775L47.5202 27.2362L47.5614 27.209L47.5886 27.1678L47.6298 27.1406L47.657 27.0993L47.6983 27.0581L47.7255 27.0168L47.7536 26.9896L47.7808 26.9484L47.808 26.9071L47.822 26.8659L47.8492 26.8246L47.8633 26.7843L47.8905 26.6878L47.9177 26.6053L47.9448 26.5237L47.9589 26.4271L47.973 26.3446L47.9861 26.249L48.0002 26.1665V25.9884V25.8243V25.5356V23.7665H45.8467V24.7134H46.2855V25.8243V25.8515V25.8787V25.8928L46.2723 25.92V25.9471V25.9612L46.2583 25.9884L46.2452 26.0025V26.0296L46.2311 26.0437L46.217 26.0709L46.2039 26.085L46.1898 26.1121L46.1758 26.1253L46.1627 26.1393L46.1486 26.1534L46.1355 26.1665L46.1214 26.1806L46.0942 26.1946L46.0802 26.2078L46.0661 26.2218L46.0389 26.235L46.0248 26.249L45.9977 26.2631H45.9845L45.9564 26.2762H45.9433L45.9152 26.2903H45.888H45.8608H45.8467H45.8195H45.7923H45.7652H45.7511H45.7239L45.6958 26.2762H45.6827L45.6555 26.2631H45.6414L45.6142 26.249L45.6002 26.235L45.573 26.2218L45.5589 26.2078L45.5448 26.1946L45.5177 26.1806L45.5045 26.1665L45.4905 26.1534L45.4764 26.1393L45.4633 26.1253L45.4492 26.1121L45.4352 26.085L45.422 26.0709L45.408 26.0437L45.3948 26.0296V26.0025L45.3808 25.9884L45.3667 25.9612V25.9471V25.92L45.3536 25.8928V25.8787V25.8515V25.8243V22.1896V22.1756V22.1484V22.1212L45.3667 22.094V22.08V22.0528L45.3808 22.0387L45.3948 22.0115V21.9975L45.408 21.9703L45.422 21.9562L45.4352 21.929L45.4492 21.915L45.4633 21.9018L45.4764 21.8746L45.4905 21.8606L45.5045 21.8465L45.5177 21.8334L45.5448 21.8193L45.5589 21.8053L45.573 21.7921L45.6002 21.7781H45.6142L45.6414 21.765L45.6555 21.7509H45.6827L45.6958 21.7368H45.7239H45.7511L45.7652 21.7237H45.7923H45.8195H45.8467H45.8608L45.888 21.7368H45.9152H45.9433L45.9564 21.7509H45.9845L45.9977 21.765L46.0248 21.7781H46.0389L46.0661 21.7921L46.0802 21.8053L46.0942 21.8193L46.1214 21.8334L46.1355 21.8465L46.1486 21.8606L46.1627 21.8746L46.1758 21.9018L46.1898 21.915L46.2039 21.929L46.217 21.9562L46.2311 21.9703L46.2452 21.9975V22.0115L46.2583 22.0387L46.2723 22.0528V22.08V22.094L46.2855 22.1212V22.1484V22.1756V22.1896V22.7934H48.0002V22.0528L47.9861 21.9562V21.915V21.8606L47.973 21.8193V21.7781L47.9589 21.7368L47.9448 21.6956L47.9317 21.6553L47.9177 21.614L47.9045 21.5728L47.8905 21.5315L47.8633 21.4903L47.8492 21.4631L47.808 21.3806L47.7536 21.3121L47.7123 21.2437L47.6439 21.1884L47.5886 21.12L47.5202 21.0646L47.4517 21.0103L47.3833 20.955L47.3148 20.9146L47.2323 20.8593L47.1498 20.8181L47.0673 20.7768L46.9717 20.7356L46.8892 20.7084L46.7936 20.6812L46.6014 20.6259L46.4092 20.5846L46.2039 20.5443L45.9977 20.5303H45.7923H45.5861L45.3948 20.5443L45.1886 20.5715L44.9964 20.6128L44.8052 20.6671L44.7086 20.6953L44.6261 20.7356L44.5305 20.7637L44.448 20.805L44.3655 20.8453L44.2839 20.9006L44.2155 20.9418L44.1461 20.9962L44.0777 21.0515L44.0092 21.1059L43.9408 21.1753L43.8855 21.2296L43.8452 21.2981L43.7898 21.3665L43.7486 21.435L43.7355 21.4762L43.7073 21.5175L43.6942 21.5446L43.6802 21.5859L43.6661 21.6271L43.653 21.6684L43.6389 21.7096L43.6248 21.7509V21.7921L43.6117 21.8465V21.8878V21.929L43.5977 22.0246V26.1121V26.1665L43.6117 26.235V26.2903V26.3446L43.6248 26.4L43.6389 26.4553L43.653 26.5096L43.6661 26.565L43.6802 26.6053L43.6942 26.6606L43.7214 26.7018L43.7355 26.7431L43.7627 26.7843L43.7898 26.8246L43.8039 26.8659L43.8311 26.9071L43.8723 26.9484L43.8995 26.9896L43.9267 27.0168L43.9548 27.0581L43.9952 27.0853L44.0233 27.1134L44.1048 27.1818L44.1742 27.2362L44.2558 27.2775L44.3383 27.3187L44.4348 27.36L44.5164 27.4012L44.613 27.4425L44.7086 27.4696L44.8052 27.4968L44.9964 27.5381L45.1886 27.5653L45.3948 27.5934H45.5861L45.7652 27.6065L45.9292 27.5934Z" fill="black"/>
</svg>
