<svg width="48" height="48" viewBox="0 0 48 48" fill="none" xmlns="http://www.w3.org/2000/svg">
<path d="M24 44C35.0457 44 44 35.0457 44 24C44 12.9543 35.0457 4 24 4C12.9543 4 4 12.9543 4 24C4 35.0457 12.9543 44 24 44Z" fill="#FFFC00"/>
<path d="M35.9719 30.4222C35.8717 30.0851 35.3919 29.8474 35.3919 29.8474C35.3465 29.8232 35.3059 29.8014 35.2725 29.7844C34.4728 29.3915 33.7638 28.9186 33.167 28.3826C32.6872 27.951 32.2766 27.4757 31.9472 26.9712C31.5437 26.3552 31.3551 25.8411 31.274 25.5622C31.2286 25.3803 31.2358 25.3075 31.274 25.213C31.305 25.1329 31.3981 25.0578 31.4411 25.0214C31.7109 24.8274 32.1453 24.5412 32.4127 24.3666C32.6442 24.2138 32.8424 24.0829 32.9593 24.0004C33.3341 23.7337 33.5919 23.462 33.7423 23.1686C33.9381 22.7903 33.9619 22.3731 33.8092 21.9633C33.6038 21.4104 33.0954 21.0806 32.4485 21.0806C32.3052 21.0806 32.1572 21.0975 32.0092 21.129C31.6392 21.2115 31.2883 21.3449 30.9947 21.4613C30.9898 21.4636 30.9844 21.4645 30.979 21.4639C30.9737 21.4634 30.9685 21.4614 30.9642 21.4582C30.9598 21.455 30.9563 21.4507 30.9542 21.4457C30.952 21.4407 30.9511 21.4352 30.9517 21.4297C30.9828 20.6901 31.0186 19.6958 30.9374 18.7524C30.8658 17.8988 30.6915 17.1785 30.4098 16.5504C30.1258 15.9199 29.7557 15.4542 29.4669 15.1171C29.1923 14.797 28.7077 14.3241 27.9773 13.8997C26.9508 13.3032 25.7811 13 24.5015 13C23.2244 13 22.0571 13.3032 21.0282 13.8997C20.2547 14.3484 19.7606 14.8552 19.5362 15.1171C19.2474 15.4542 18.8774 15.9199 18.5933 16.5504C18.3092 17.1785 18.1373 17.8964 18.0657 18.7524C17.9846 19.7007 18.018 20.615 18.0514 21.4298C18.0514 21.454 18.0299 21.471 18.006 21.4613C17.7124 21.3449 17.3615 21.2115 16.9915 21.129C16.8459 21.0975 16.6979 21.0806 16.5522 21.0806C15.9077 21.0806 15.3992 21.4104 15.1915 21.9633C15.0388 22.3731 15.0626 22.7903 15.2584 23.1686C15.4111 23.462 15.6666 23.7336 16.0414 24.0004C16.156 24.0829 16.3565 24.2139 16.5881 24.3666C16.8482 24.5388 17.2708 24.8177 17.5429 25.0092C17.5763 25.0335 17.6909 25.1208 17.7267 25.213C17.7649 25.31 17.7721 25.3828 17.722 25.5768C17.6384 25.8581 17.4498 26.3674 17.0535 26.9712C16.7241 27.4781 16.3135 27.951 15.8337 28.3827C15.2369 28.9186 14.5279 29.3915 13.7282 29.7844C13.69 29.8038 13.6447 29.8256 13.5969 29.8547C13.5969 29.8547 13.1195 30.1021 13.0288 30.4222C12.8951 30.8951 13.2508 31.3389 13.6113 31.5766C14.2033 31.9646 14.9242 32.1731 15.3419 32.2871C15.4589 32.3187 15.5639 32.3477 15.6594 32.3768C15.7191 32.3963 15.8695 32.4544 15.934 32.5393C16.0151 32.646 16.0247 32.777 16.0533 32.9249C16.0987 33.1747 16.2013 33.4827 16.5045 33.6961C16.8387 33.9289 17.2612 33.9459 17.7984 33.9677C18.3593 33.9895 19.0564 34.0162 19.8561 34.2854C20.2261 34.4091 20.5627 34.6201 20.9495 34.8626C21.7611 35.3694 22.7708 36 24.4944 36C26.2203 36 27.2373 35.367 28.0537 34.8578C28.4404 34.6177 28.7722 34.4091 29.1351 34.2878C29.9348 34.0187 30.6318 33.992 31.1928 33.9702C31.7299 33.9483 32.1524 33.9338 32.4867 33.6985C32.8113 33.4706 32.9044 33.1311 32.9474 32.8764C32.9713 32.7503 32.9856 32.6363 33.0572 32.5442C33.1193 32.4642 33.2577 32.4084 33.3222 32.3865C33.42 32.355 33.5298 32.3259 33.6516 32.292C34.0694 32.178 34.5945 32.0446 35.2319 31.6784C36.0006 31.2346 36.0531 30.6914 35.9719 30.4222Z" fill="white"/>
<path d="M35.9138 29.5584C35.7474 29.0966 35.4286 28.8514 35.0676 28.6467C34.9997 28.6063 34.9364 28.5729 34.8848 28.5491C34.777 28.492 34.6669 28.4372 34.5567 28.3801C33.4293 27.7731 32.548 27.0066 31.9386 26.0996C31.7323 25.7925 31.5893 25.5164 31.4885 25.2902C31.437 25.1379 31.4393 25.0522 31.4768 24.9736C31.505 24.9141 31.5799 24.8522 31.6221 24.8213C31.7978 24.7032 31.9743 24.5865 32.1518 24.4714C32.3933 24.3119 32.5855 24.1857 32.7074 24.1C33.1714 23.7715 33.4949 23.4215 33.6965 23.0312C33.9824 22.4813 34.0176 21.8528 33.7973 21.2625C33.4926 20.4436 32.7285 19.9342 31.8049 19.9342C31.6128 19.9342 31.4182 19.9556 31.226 19.9984C31.1745 20.0103 31.1252 20.0222 31.076 20.0341C31.0854 19.4771 31.0713 18.882 31.0221 18.3011C30.8487 16.2539 30.1432 15.1803 29.4071 14.3257C29.1001 13.9687 28.5657 13.4473 27.7641 12.9808C26.6461 12.3285 25.3804 12 23.9998 12C22.624 12 21.3583 12.3285 20.2402 12.9784C19.4339 13.445 18.8995 13.9687 18.5948 14.3234C17.8588 15.178 17.1533 16.2515 16.9798 18.2988C16.9307 18.8796 16.9189 19.4747 16.926 20.0318C16.8768 20.0198 16.8252 20.008 16.776 19.996C16.5858 19.9536 16.3917 19.9321 16.197 19.9318C15.2735 19.9318 14.5094 20.4412 14.2047 21.2601C13.9844 21.8504 14.0196 22.4789 14.3055 23.0288C14.5071 23.4192 14.8329 23.7691 15.2946 24.0976C15.4188 24.1857 15.6087 24.3119 15.8501 24.4689C15.9814 24.5547 16.1713 24.6808 16.3588 24.807C16.3869 24.826 16.4877 24.9022 16.5228 24.9736C16.5627 25.0545 16.5627 25.1426 16.5041 25.3045C16.4056 25.5259 16.2626 25.7973 16.0611 26.0972C15.4634 26.9851 14.6079 27.7374 13.5179 28.3372C12.939 28.6491 12.339 28.8562 12.0859 29.556C11.8937 30.0845 12.0202 30.6868 12.5054 31.1938C12.6648 31.3676 12.8664 31.5223 13.1195 31.6652C13.7149 31.9984 14.2211 32.1627 14.6196 32.2746C14.6899 32.296 14.8517 32.3483 14.9219 32.4126C15.1001 32.5697 15.0743 32.8078 15.311 33.1553C15.454 33.372 15.6181 33.5195 15.754 33.6148C16.2486 33.9623 16.8064 33.9837 17.3971 34.0076C17.9292 34.029 18.5339 34.0527 19.223 34.2837C19.5089 34.3789 19.8066 34.5646 20.1488 34.7788C20.9739 35.2954 22.1059 36 23.9975 36C25.8914 36 27.0281 35.2906 27.8602 34.774C28.2024 34.5622 28.4977 34.3765 28.7743 34.2837C29.4634 34.0528 30.0682 34.0289 30.6002 34.0076C31.1909 33.9837 31.7464 33.9623 32.2433 33.6148C32.4502 33.4681 32.6231 33.2772 32.7495 33.0554C32.9183 32.7626 32.916 32.5554 33.0753 32.415C33.141 32.3579 33.284 32.3079 33.3613 32.2841C33.7621 32.1722 34.2754 32.0079 34.8825 31.6675C35.152 31.5175 35.3606 31.3533 35.5271 31.1652L35.5341 31.1581C35.9865 30.6582 36.1013 30.075 35.9138 29.5584ZM34.2332 30.4749C33.2066 31.051 32.5245 30.9891 31.9948 31.3342C31.5448 31.6294 31.8096 32.265 31.4839 32.4936C31.0807 32.7769 29.8924 32.4745 28.3571 32.9887C27.0914 33.4148 26.2828 34.636 24.0021 34.636C21.7169 34.636 20.9317 33.4195 19.6472 32.9887C18.112 32.4745 16.9213 32.7769 16.5205 32.4936C16.1947 32.265 16.4596 31.6295 16.0095 31.3342C15.4798 30.9867 14.7977 31.0486 13.7711 30.4749C13.1172 30.1083 13.4875 29.8822 13.7055 29.775C17.4229 27.9492 18.0135 25.126 18.0417 24.9141C18.0745 24.6618 18.1097 24.4618 17.8354 24.2024C17.5705 23.9524 16.3916 23.212 16.0658 22.9812C15.5243 22.5979 15.2876 22.2146 15.4634 21.7433C15.5853 21.4172 15.8853 21.2958 16.2017 21.2958C16.3002 21.2958 16.401 21.3077 16.497 21.3291C17.09 21.46 17.6666 21.7624 17.9995 21.8433C18.0464 21.8552 18.0862 21.86 18.1213 21.86C18.2995 21.86 18.3604 21.7695 18.3487 21.5624C18.3112 20.903 18.2175 19.6176 18.3206 18.4154C18.4612 16.7633 18.9862 15.9445 19.6097 15.2184C19.9097 14.8709 21.3161 13.3616 24.0045 13.3616C26.7 13.3616 28.0993 14.8709 28.3993 15.2184C29.0228 15.9421 29.5478 16.761 29.6884 18.4154C29.7916 19.6176 29.7025 20.903 29.6603 21.5624C29.6463 21.779 29.7119 21.86 29.8876 21.86C29.9228 21.86 29.965 21.8552 30.0095 21.8433C30.3424 21.7624 30.919 21.46 31.512 21.3291C31.609 21.3073 31.708 21.2962 31.8073 21.2958C32.1237 21.2958 32.4237 21.4196 32.5456 21.7433C32.7214 22.2146 32.4823 22.5979 31.9433 22.9812C31.6175 23.212 30.4384 23.9524 30.1736 24.2024C29.8994 24.4594 29.9345 24.6594 29.9673 24.9141C29.9931 25.126 30.5861 27.9492 34.3035 29.775C34.5145 29.8822 34.8872 30.1083 34.2332 30.4749Z" fill="black"/>
</svg>
