<svg width="48" height="48" viewBox="0 0 48 48" fill="none" xmlns="http://www.w3.org/2000/svg">
<path d="M24 4C12.9597 4 4 12.9597 4 24C4 35.0403 12.9597 44 24 44C35.0403 44 44 35.0403 44 24C44 12.9597 35.0403 4 24 4Z" fill="#1ED760"/>
<path d="M37.0951 21.9575C36.6682 21.9575 36.4054 21.8471 36.036 21.6263C30.19 18.017 19.7378 17.1507 12.9723 19.104C12.6767 19.189 12.3072 19.3248 11.9131 19.3248C10.8293 19.3248 10 18.4501 10 17.3206C10 16.1656 10.6897 15.5117 11.4287 15.2909C14.3188 14.4161 17.5538 14 21.0762 14C27.0699 14 33.3511 15.2909 37.9408 18.0594C38.5813 18.4416 39 18.9682 39 19.9788C39 21.1338 38.0968 21.9575 37.0951 21.9575ZM34.5498 28.4289C34.1229 28.4289 33.8355 28.2335 33.5399 28.0722C28.4083 24.9299 20.7559 23.6645 13.9493 25.5754C13.5552 25.6858 13.3417 25.7962 12.9723 25.7962C12.0937 25.7962 11.3794 25.0573 11.3794 24.1486C11.3794 23.2399 11.8063 22.6369 12.652 22.3907C14.9346 21.7282 17.2664 21.2357 20.6821 21.2357C26.0108 21.2357 31.1588 22.603 35.2149 25.0998C35.88 25.5074 36.1427 26.034 36.1427 26.7728C36.1345 27.69 35.4448 28.4289 34.5498 28.4289ZM32.3412 34C31.9963 34 31.7828 33.8896 31.4626 33.6943C26.3392 30.5011 20.3783 30.3652 14.4912 31.6136C14.171 31.6985 13.7523 31.8344 13.5142 31.8344C12.7177 31.8344 12.2169 31.1805 12.2169 30.4926C12.2169 29.6178 12.7177 29.2017 13.3335 29.0658C20.058 27.5287 26.9304 27.6645 32.7928 31.2909C33.2936 31.6221 33.5892 31.9193 33.5892 32.6921C33.5892 33.465 33.0062 34 32.3412 34Z" fill="black"/>
</svg>
