<svg preserveAspectRatio="xMidYMid meet" width="100%" height="100%" overflow="visible" style="display: block;" viewBox="0 0 207.843 64.935" fill="none" xmlns="http://www.w3.org/2000/svg">
<path id="Surf-Conext-logo" fill-rule="evenodd" clip-rule="evenodd" d="M80.0456 0C86.6382 0 91.9826 5.42783 91.9826 12.1222V27.1109C91.9826 33.8062 97.3269 39.2331 103.921 39.2331H115.894C121.191 39.2331 125.487 43.594 125.487 48.9739V55.1965C125.487 60.5757 121.191 64.935 115.894 64.935H101.575C96.2771 64.935 91.9826 60.5757 91.9826 55.1965V51.3536C91.9826 44.6596 86.6382 39.2331 80.0456 39.2331H11.937C5.34534 39.2331 0 33.8062 0 27.1109V12.1222C0 5.42783 5.34534 0 11.937 0H80.0456ZM111.81 10.2433C114.013 10.2433 117.199 11.2186 117.199 13.0032C117.199 14.1689 116.567 15.1918 115.442 15.1918C114.95 15.1918 114.552 15.0254 114.083 14.8586C113.45 14.597 112.701 14.2877 111.576 14.2877C109.069 14.2877 106.679 16.1435 106.679 19.4739C106.679 22.805 109.069 24.6844 111.576 24.6844C112.701 24.6844 113.45 24.3752 114.083 24.1136C114.552 23.9231 114.95 23.7803 115.442 23.7803C116.567 23.7803 117.199 24.8033 117.199 25.969C117.199 27.7536 114.013 28.7289 111.81 28.7289C106.656 28.7289 102.509 25.2317 102.509 19.4739C102.509 13.7168 106.656 10.2433 111.81 10.2433ZM128.163 10.2433C133.318 10.2433 137.277 14.2877 137.277 19.4982C137.277 24.6132 133.224 28.7289 128.163 28.7289C123.009 28.7289 119.072 24.7084 119.072 19.4982C119.072 14.3829 123.126 10.2433 128.163 10.2433ZM190.015 10.2432C190.951 10.2432 192.099 11.2901 192.099 12.2179C192.099 12.6699 191.912 13.0744 191.537 13.5504L186.57 19.3551L191.654 25.2793C192.053 25.7313 192.264 26.2309 192.264 26.659C192.264 27.6347 191.069 28.7288 190.084 28.7288C189.569 28.7288 189.124 28.4908 188.632 27.9439L183.805 22.3529C182.189 24.2324 180.596 26.1357 178.955 27.9915C178.463 28.5151 178.065 28.7288 177.55 28.7288C176.612 28.7288 175.464 27.682 175.464 26.7542C175.464 26.3022 175.628 25.8741 176.027 25.4221L181.228 19.3551L176.378 13.6928C175.98 13.2172 175.792 12.7411 175.792 12.3131C175.792 11.3374 176.987 10.2432 177.948 10.2432C178.463 10.2432 178.932 10.4809 179.424 11.0282L183.969 16.3575C185.539 14.5733 187.039 12.7648 188.609 10.9806C189.054 10.5049 189.522 10.2432 190.015 10.2432ZM42.2254 10.6606C40.9689 10.6606 40.2817 11.3065 40.2511 12.5758L40.25 12.6654V20.3623C40.25 23.092 38.6185 24.7246 36.3446 24.7246C34.1268 24.7246 32.5106 23.1397 32.4636 20.482L32.4625 20.3623V12.6654C32.4625 11.3369 31.7729 10.6606 30.4645 10.6606C29.2077 10.6606 28.5199 11.3065 28.4893 12.5758L28.4882 12.6654V20.3623C28.4882 25.4238 31.8188 28.6899 36.3446 28.6899C40.8473 28.6899 44.1576 25.4888 44.2233 20.5136L44.2243 20.3623V12.6654C44.2243 11.3369 43.5341 10.6606 42.2254 10.6606ZM17.7162 10.5663C13.9492 10.5663 11.1694 12.7119 11.1694 15.8611C11.1694 18.4312 12.9482 19.9182 14.9965 20.5652L18.3778 21.6023L18.6547 21.6913L18.8324 21.7511L19.0041 21.8115L19.1693 21.8729C19.1963 21.8832 19.223 21.8936 19.2493 21.9041L19.404 21.9676C19.4543 21.9891 19.5033 22.0109 19.551 22.0331L19.6899 22.1007C20.229 22.3762 20.5636 22.7128 20.5636 23.2088C20.5636 24.3052 19.0715 24.9112 17.7621 24.9112C16.6624 24.9112 15.821 24.7327 15.1119 24.5204L14.903 24.4558C14.8688 24.4449 14.8349 24.434 14.8013 24.423L14.6029 24.3571L14.3163 24.2586C13.6963 24.0475 13.1448 23.885 12.5477 23.885C11.3988 23.885 10.7331 24.6079 10.7331 25.7736C10.7331 26.7297 11.7031 27.4648 13.081 27.9577L13.2758 28.0249L13.4756 28.089C13.543 28.1098 13.6112 28.1301 13.6801 28.1499L13.8888 28.2076L14.1014 28.2621L14.3176 28.3134C14.3903 28.33 14.4635 28.346 14.5371 28.3615L14.7595 28.4064L14.9845 28.448C15.0222 28.4547 15.06 28.4612 15.0979 28.4676L15.3261 28.5043L15.5561 28.5378L15.7874 28.5679L15.9035 28.5818L16.1363 28.607L16.3696 28.6289C16.4475 28.6356 16.5253 28.6418 16.6032 28.6474L16.8366 28.6626L17.0695 28.6745L17.3017 28.683L17.5326 28.6881C17.6094 28.6892 17.6859 28.6898 17.7621 28.6898C21.6209 28.6898 24.6304 26.5907 24.6304 23.3256C24.6304 20.5387 22.9686 19.1875 21.0215 18.4584L20.8322 18.3898C20.8005 18.3787 20.7688 18.3677 20.737 18.3569L20.5455 18.2938L17.2106 17.26C17.1373 17.2373 17.0662 17.2148 16.9972 17.1923L16.7966 17.125L16.6087 17.0577L16.4333 16.9898C15.6159 16.6597 15.235 16.296 15.235 15.6744C15.235 14.7883 16.6129 14.3451 17.7162 14.3451C18.7462 14.3451 19.5636 14.5471 20.2498 14.7773L20.4622 14.8508L20.7657 14.9618C20.7984 14.9741 20.8309 14.9863 20.8631 14.9984L21.2352 15.1252C21.6402 15.2609 22.0233 15.371 22.447 15.371C23.5038 15.371 24.0786 14.6481 24.0786 13.4824C24.0786 12.3819 22.9106 11.5743 21.3589 11.0916L21.1543 11.0305C21.0855 11.0108 21.016 10.9916 20.9459 10.9731L20.7338 10.9194L20.5186 10.8694C20.3741 10.8374 20.2277 10.8078 20.08 10.7808L19.8575 10.7421L19.6333 10.7072C19.5959 10.7017 19.5583 10.6964 19.5208 10.6912L19.2949 10.6621L19.0683 10.6367C18.9927 10.6289 18.917 10.6218 18.8414 10.6153L18.6146 10.5977C18.5769 10.5951 18.5391 10.5926 18.5014 10.5903L18.2755 10.5786L18.0506 10.5707L17.8272 10.5668C17.7901 10.5663 17.7531 10.5663 17.7162 10.5663ZM154.052 10.3384C155.387 10.3384 156.09 11.0284 156.09 12.3842V26.5877C156.09 27.9439 155.387 28.6339 154.052 28.6339C153.372 28.6339 152.67 28.3007 152.201 27.7059L144.141 17.666V26.5877C144.141 27.9439 143.438 28.6339 142.103 28.6339C140.791 28.6339 140.088 27.9439 140.088 26.5877V12.3842C140.088 11.0284 140.791 10.3384 142.103 10.3384C142.805 10.3384 143.438 10.624 144.094 11.4329L152.037 21.3536V12.3842C152.037 11.0284 152.74 10.3384 154.052 10.3384ZM205.922 10.5049C207.211 10.5049 207.843 11.1713 207.843 12.4558C207.843 13.764 207.211 14.4305 205.922 14.4305H202.548V26.5878C202.548 27.9439 201.845 28.6339 200.533 28.6339C199.198 28.6339 198.495 27.9439 198.495 26.5878V14.4305H195.144C193.832 14.4305 193.2 13.764 193.2 12.4558C193.2 11.1713 193.832 10.5049 195.144 10.5049H205.922ZM56.5583 10.8224H50.862C49.6051 10.8224 48.9176 11.4689 48.887 12.7395L48.886 12.8292V26.5908C48.886 27.9203 49.5759 28.5966 50.862 28.5966C52.1413 28.5966 52.829 27.95 52.8589 26.6784L52.86 26.5908V23.022H56.4901L58.4655 27.3143C58.8336 28.1534 59.3608 28.5966 60.095 28.5966C61.0835 28.5966 62.3919 27.8501 62.3919 26.684C62.3919 26.365 62.3355 26.0473 62.1872 25.7122L62.1399 25.6112L60.3023 21.8793C62.0011 20.9699 63.0129 19.2658 63.0129 17.0269C63.0129 13.4042 60.4281 10.8766 56.6797 10.8232L56.5583 10.8224ZM78.8171 10.8224H69.3068C68.0491 10.8224 67.3637 11.4689 67.3332 12.7393L67.3322 12.8289V26.5908C67.3322 27.9204 68.0198 28.5966 69.3068 28.5966C70.5874 28.5966 71.2507 27.9508 71.2802 26.6805L71.2812 26.5908V22.2529H75.9914C77.2548 22.2529 77.8739 21.5996 77.8739 20.3394C77.8739 19.0865 77.2826 18.4341 76.0765 18.4051L75.9914 18.4041H71.2812V14.6712H78.8171C80.0805 14.6712 80.6999 14.0179 80.6999 12.7357C80.6999 11.5057 80.109 10.8532 78.9042 10.8235L78.8171 10.8224ZM171.787 10.505C173.076 10.505 173.708 11.171 173.708 12.4556C173.708 13.7641 173.076 14.4306 171.787 14.4306H163.891V17.4757H168.811C170.1 17.4757 170.733 18.1182 170.733 19.4267C170.733 20.7352 170.1 21.3773 168.811 21.3773H163.891V24.518H171.787C173.076 24.518 173.708 25.1841 173.708 26.4927C173.708 27.7772 173.076 28.4436 171.787 28.4436H161.853C160.541 28.4436 159.838 27.7536 159.838 26.3974V12.5508C159.838 11.195 160.541 10.505 161.853 10.505H171.787ZM128.163 14.2877C125.445 14.2877 123.243 16.6432 123.243 19.4982C123.243 22.353 125.445 24.6844 128.163 24.6844C130.881 24.6844 133.13 22.353 133.13 19.4982C133.13 16.6432 130.881 14.2877 128.163 14.2877ZM56.2139 14.6712C57.7302 14.6712 58.9234 15.3711 58.9234 17.0269C58.9234 18.629 57.7748 19.3323 56.2994 19.3583L56.2139 19.359H52.86V14.6712H56.2139Z" fill="var(--fill-0, black)"/>
</svg>
