<svg width="48" height="48" viewBox="0 0 48 48" fill="none" xmlns="http://www.w3.org/2000/svg">
<path d="M24 44C35.0457 44 44 35.0457 44 24C44 12.9543 35.0457 4 24 4C12.9543 4 4 12.9543 4 24C4 35.0457 12.9543 44 24 44Z" fill="black" stroke="white" stroke-miterlimit="10"/>
<path d="M21.0028 21.144V20.148C20.6502 20.0933 20.294 20.0635 19.9371 20.0586C16.4814 20.0518 13.4229 22.2463 12.3849 25.4763C11.3469 28.7064 12.5719 32.2239 15.4076 34.158C12.4322 31.0366 12.602 26.1418 15.7863 23.2253C17.2052 21.9269 19.0621 21.186 21.0028 21.144Z" fill="#25F4EE"/>
<path d="M21.1943 32.4209C23.1259 32.4186 24.7135 30.9269 24.7989 29.0346V12.1522H27.9452C27.8808 11.7997 27.8503 11.442 27.854 11.0839H23.5508V27.9493C23.4792 29.8506 21.887 31.357 19.9462 31.3604C19.3666 31.3559 18.795 31.2155 18.2812 30.953C18.6144 31.4054 19.052 31.7742 19.5582 32.0293C20.0645 32.2844 20.6251 32.4186 21.1943 32.4209ZM33.8209 17.8801V16.9418C32.6629 16.9418 31.5302 16.6068 30.5661 15.9787C31.4112 16.9426 32.5539 17.6101 33.8209 17.8801Z" fill="#25F4EE"/>
<path d="M30.5684 15.9798C29.618 14.9194 29.0942 13.5558 29.0951 12.1443H27.9463C28.0942 12.9248 28.4031 13.6675 28.8539 14.327C29.3048 14.9865 29.8882 15.5489 30.5684 15.9798ZM19.938 24.2778C17.9429 24.288 16.3334 25.8815 16.3438 27.8372C16.3471 28.4792 16.5284 29.1082 16.8682 29.657C17.208 30.2058 17.6936 30.6538 18.2731 30.9529C17.1058 29.373 17.4661 27.1638 19.0779 26.0185C19.6937 25.5812 20.435 25.3463 21.1954 25.3474C21.5568 25.3519 21.9159 25.4073 22.2611 25.5115V21.2187C21.9089 21.1666 21.5522 21.1395 21.1954 21.1372H21.0037V24.4012C20.6562 24.3084 20.2971 24.2677 19.938 24.2778Z" fill="#FE2C55"/>
<path d="M33.8205 17.8801V21.1441C31.6768 21.1401 29.5888 20.4749 27.8524 19.2428V27.8181C27.8432 32.0972 24.302 35.5615 19.9365 35.5615C18.3153 35.5646 16.733 35.0742 15.4082 34.1582C18.379 37.2897 23.3772 37.4686 26.5731 34.5565C27.3681 33.8321 28.0023 32.9549 28.4359 31.9795C28.8696 31.0041 29.0935 29.9516 29.0936 28.8876V20.336C30.8361 21.5595 32.9264 22.2158 35.0698 22.2125V18.0114C34.6495 18.0091 34.2315 17.9661 33.8205 17.8801Z" fill="#FE2C55"/>
<path d="M27.8535 27.8191V19.2438C29.5954 20.4682 31.6861 21.1246 33.8296 21.1202V17.8563C32.5633 17.5938 31.4182 16.9353 30.5668 15.9798C29.8869 15.5486 29.3037 14.9861 28.8529 14.3266C28.4021 13.6672 28.0931 12.9247 27.9447 12.1443H24.7984V29.0346C24.7164 30.9892 23.0354 32.508 21.0414 32.4287C20.4959 32.4071 19.9625 32.2644 19.4813 32.0115C19.0002 31.7587 18.5838 31.4021 18.2634 30.9688C16.4981 30.0577 15.8203 27.9164 16.7498 26.186C17.0548 25.6178 17.5117 25.1417 18.0716 24.8085C18.6315 24.4754 19.2734 24.2978 19.9283 24.2948C20.2897 24.2982 20.6488 24.3525 20.994 24.4578V21.1451C16.6366 21.2176 13.1636 24.7883 13.2375 29.0595C13.2709 30.9938 14.0425 32.8456 15.4 34.2497C16.7379 35.1356 18.3223 35.5945 19.9364 35.5637C24.3031 35.5626 27.8442 32.0983 27.8535 27.8191Z" fill="white"/>
</svg>
