<svg width="48" height="48" viewBox="0 0 48 48" fill="none" xmlns="http://www.w3.org/2000/svg">
<rect x="0.5" y="0.5" width="47" height="47" rx="9.5" fill="black" stroke="white"/>
<path d="M20.0731 20.1521V18.7919C19.5915 18.7173 19.1052 18.6765 18.6177 18.6698C13.8982 18.6605 9.72122 21.6575 8.30366 26.0688C6.88609 30.4801 8.5591 35.2839 12.4318 37.9254C8.36831 33.6625 8.6001 26.9776 12.949 22.9945C14.8868 21.2213 17.4228 20.2095 20.0731 20.1521Z" fill="#25F4EE"/>
<path d="M20.3358 35.5529C22.9738 35.5498 25.1419 33.5127 25.2586 30.9284V7.87205H29.5555C29.4676 7.39056 29.4259 6.90207 29.4309 6.41296H23.5541V29.4461C23.4563 32.0428 21.2819 34.1 18.6312 34.1046C17.8396 34.0985 17.0591 33.9068 16.3574 33.5482C16.8124 34.1661 17.41 34.6697 18.1014 35.0181C18.7928 35.3665 19.5584 35.5498 20.3358 35.5529ZM37.5799 15.6945V14.4132C35.9984 14.4132 34.4515 13.9557 33.1349 13.0979C34.289 14.4142 35.8496 15.3259 37.5799 15.6945Z" fill="#25F4EE"/>
<path d="M33.1356 13.0994C31.8376 11.6511 31.1223 9.78896 31.1235 7.86121H29.5546C29.7566 8.92717 30.1784 9.94152 30.7941 10.8422C31.4099 11.7429 32.2066 12.5109 33.1356 13.0994ZM18.6177 24.432C15.893 24.4459 13.6949 26.6222 13.7091 29.2931C13.7136 30.1698 13.9611 31.0289 14.4252 31.7784C14.8893 32.5279 15.5525 33.1396 16.3439 33.5482C14.7498 31.3905 15.2417 28.3734 17.443 26.8092C18.2841 26.2121 19.2964 25.8912 20.3349 25.8926C20.8284 25.8988 21.3188 25.9746 21.7903 26.1168V20.2541C21.3094 20.183 20.8221 20.146 20.3349 20.1429H20.0731V24.6005C19.5985 24.4737 19.1081 24.4181 18.6177 24.432Z" fill="#FE2C55"/>
<path d="M37.5793 15.6946V20.1522C34.6517 20.1467 31.8001 19.2382 29.4286 17.5555V29.2668C29.416 35.1109 24.5799 39.8421 18.6179 39.8421C16.4038 39.8462 14.2429 39.1766 12.4336 37.9255C16.4908 42.2023 23.3169 42.4465 27.6815 38.4696C28.7673 37.4803 29.6333 36.2822 30.2256 34.9501C30.8178 33.618 31.1236 32.1806 31.1237 30.7275V19.0486C33.5034 20.7195 36.3582 21.6158 39.2854 21.6113V15.8739C38.7114 15.8708 38.1406 15.812 37.5793 15.6946Z" fill="#FE2C55"/>
<path d="M29.4294 29.2683V17.557C31.8084 19.2292 34.6637 20.1257 37.5911 20.1197V15.6621C35.8617 15.3037 34.2978 14.4043 33.135 13.0994C32.2064 12.5104 31.41 11.7423 30.7944 10.8417C30.1787 9.94106 29.7566 8.92696 29.554 7.86121H25.2572V30.9283C25.1452 33.5977 22.8493 35.6719 20.1262 35.5637C19.3812 35.5341 18.6527 35.3393 17.9956 34.9939C17.3385 34.6486 16.7698 34.1617 16.3323 33.5698C13.9213 32.3256 12.9957 29.4012 14.2651 27.038C14.6816 26.262 15.3057 25.6117 16.0704 25.1568C16.835 24.7018 17.7116 24.4593 18.6061 24.4552C19.0996 24.4598 19.59 24.534 20.0615 24.6778V20.1537C14.1106 20.2526 9.36746 25.1291 9.46838 30.9623C9.51403 33.604 10.5678 36.133 12.4218 38.0506C14.2489 39.2604 16.4127 39.8872 18.6171 39.8451C24.5807 39.8436 29.4168 35.1124 29.4294 29.2683Z" fill="white"/>
</svg>
