<svg width="48" height="48" viewBox="0 0 48 48" fill="none" xmlns="http://www.w3.org/2000/svg">
<path d="M24 44C35.0457 44 44 35.0457 44 24C44 12.9543 35.0457 4 24 4C12.9543 4 4 12.9543 4 24C4 35.0457 12.9543 44 24 44Z" fill="url(#paint0_linear_7238_2427)"/>
<path fill-rule="evenodd" clip-rule="evenodd" d="M36.0214 23.6924C36.0214 30.1601 30.7366 35.4053 24.2182 35.4053C22.1474 35.4053 20.2022 34.8766 18.5126 33.9469L11.9766 36.0243L14.1068 29.7416C13.0318 27.977 12.4127 25.9063 12.4127 23.6946C12.4127 17.2246 17.6975 11.9817 24.216 11.9817C30.7388 11.9773 36.0214 17.2224 36.0214 23.6924ZM24.2182 13.8432C18.7439 13.8432 14.294 18.26 14.294 23.6902C14.294 25.8446 14.9946 27.8405 16.1841 29.464L14.9439 33.1209L18.7571 31.9093C20.3234 32.938 22.2003 33.5372 24.2182 33.5372C29.6902 33.5372 34.1423 29.1204 34.1423 23.6902C34.1423 18.26 29.6902 13.8432 24.2182 13.8432ZM30.1792 26.3887C30.1065 26.2698 29.9127 26.1971 29.6241 26.0539C29.3355 25.9107 27.9102 25.2146 27.6459 25.1199C27.3815 25.0251 27.1877 24.9767 26.996 25.2631C26.8022 25.5494 26.2492 26.1971 26.0796 26.3887C25.9122 26.5804 25.7426 26.6046 25.454 26.4614C25.1632 26.3183 24.2314 26.0143 23.1277 25.0362C22.2686 24.274 21.687 23.3355 21.5174 23.0469C21.35 22.7605 21.4998 22.6041 21.6429 22.461C21.7729 22.331 21.9337 22.1261 22.0769 21.9587C22.2223 21.7913 22.2708 21.6701 22.3655 21.4785C22.4624 21.2868 22.414 21.1194 22.3413 20.9762C22.2686 20.833 21.6914 19.4209 21.4491 18.8438C21.209 18.271 20.9689 18.2908 20.7992 18.2908C20.6318 18.2908 20.319 18.3415 20.319 18.3415C20.319 18.3415 19.7396 18.4142 19.4731 18.7006C19.2087 18.987 18.4597 19.6831 18.4597 21.0951C18.4597 22.5072 19.4951 23.873 19.6405 24.0647C19.7859 24.2563 21.6407 27.2501 24.5838 28.4C27.5247 29.5499 27.5247 29.1666 28.0556 29.1182C28.5843 29.0719 29.7673 28.4242 30.0096 27.7546C30.2519 27.0827 30.2519 26.5077 30.1792 26.3887Z" fill="white"/>
<defs>
<linearGradient id="paint0_linear_7238_2427" x1="24.001" y1="43.9995" x2="24.001" y2="4" gradientUnits="userSpaceOnUse">
<stop stop-color="#20B038"/>
<stop offset="1" stop-color="#60D66A"/>
</linearGradient>
</defs>
</svg>
