<svg width="48" height="48" viewBox="0 0 48 48" fill="none" xmlns="http://www.w3.org/2000/svg">
<path fill-rule="evenodd" clip-rule="evenodd" d="M40.021 48H7.97601C3.58921 48 0 44.4108 0 40.024V7.97601C0 3.58921 3.58921 0 7.97601 0H40.021C44.4078 0 47.997 3.58921 47.997 7.97601V40.021C48 44.4108 44.4108 48 40.021 48Z" fill="url(#paint0_linear_7238_2430)"/>
<path fill-rule="evenodd" clip-rule="evenodd" d="M40.3634 23.5802C40.3634 32.3838 33.17 39.5232 24.2974 39.5232C21.4788 39.5232 18.8312 38.8036 16.5313 37.5382L7.63477 40.3658L10.5343 31.8141C9.07105 29.4123 8.22847 26.5937 8.22847 23.5832C8.22847 14.7766 15.4219 7.64014 24.2944 7.64014C33.173 7.63414 40.3634 14.7736 40.3634 23.5802ZM24.2974 10.1739C16.8462 10.1739 10.7892 16.1859 10.7892 23.5772C10.7892 26.5097 11.7427 29.2263 13.3619 31.4362L11.6737 36.4138L16.8642 34.7646C18.9961 36.1649 21.5508 36.9805 24.2974 36.9805C31.7457 36.9805 37.8057 30.9685 37.8057 23.5772C37.8057 16.1859 31.7457 10.1739 24.2974 10.1739ZM32.4114 27.2503C32.3124 27.0884 32.0486 26.9895 31.6558 26.7946C31.2629 26.5997 29.3229 25.6521 28.9631 25.5232C28.6033 25.3943 28.3394 25.3283 28.0785 25.7181C27.8147 26.1079 27.0621 26.9895 26.8312 27.2503C26.6033 27.5112 26.3724 27.5442 25.9796 27.3493C25.5838 27.1544 24.3154 26.7406 22.8132 25.4093C21.6438 24.3718 20.8522 23.0944 20.6213 22.7016C20.3934 22.3118 20.5973 22.0989 20.7922 21.904C20.9691 21.7271 21.188 21.4482 21.3829 21.2203C21.5808 20.9925 21.6468 20.8275 21.7757 20.5667C21.9076 20.3058 21.8417 20.0779 21.7427 19.883C21.6438 19.6881 20.8582 17.7661 20.5283 16.9805C20.2015 16.2009 19.8746 16.2278 19.6438 16.2278C19.4159 16.2278 18.9901 16.2968 18.9901 16.2968C18.9901 16.2968 18.2015 16.3958 17.8387 16.7856C17.4788 17.1754 16.4594 18.1229 16.4594 20.0449C16.4594 21.967 17.8686 23.826 18.0665 24.0869C18.2645 24.3478 20.7892 28.4228 24.7952 29.988C28.7982 31.5532 28.7982 31.0314 29.5208 30.9655C30.2405 30.9025 31.8507 30.021 32.1805 29.1094C32.5103 28.1949 32.5103 27.4123 32.4114 27.2503Z" fill="white"/>
<defs>
<linearGradient id="paint0_linear_7238_2430" x1="23.9997" y1="47.9994" x2="23.9997" y2="0" gradientUnits="userSpaceOnUse">
<stop stop-color="#20B038"/>
<stop offset="1" stop-color="#60D66A"/>
</linearGradient>
</defs>
</svg>
