<svg width="360" height="360" viewBox="0 0 360 360" fill="none" xmlns="http://www.w3.org/2000/svg">
<circle r="180" transform="matrix(-1 0 0 1 180 180)" fill="#FAFAFA"/>
<path d="M180 57C167.935 57 156.142 60.5776 146.11 67.2804C136.079 73.9831 128.26 83.51 123.643 94.6563C119.026 105.803 117.818 118.068 120.172 129.9C122.526 141.733 128.335 152.602 136.866 161.133C145.397 169.664 156.267 175.474 168.099 177.828C179.932 180.182 192.197 178.974 203.344 174.357C214.49 169.74 224.017 161.921 230.72 151.89C237.422 141.858 241 130.065 241 118C241 101.822 234.573 86.3062 223.134 74.8665C211.694 63.4268 196.178 57 180 57ZM180 153.192C173.04 153.192 166.236 151.128 160.448 147.261C154.661 143.394 150.15 137.898 147.487 131.467C144.823 125.037 144.126 117.961 145.484 111.134C146.842 104.308 150.194 98.037 155.115 93.1153C160.037 88.1935 166.308 84.8418 173.134 83.4839C179.961 82.126 187.037 82.8229 193.468 85.4865C199.898 88.1502 205.394 92.6608 209.261 98.4482C213.128 104.236 215.192 111.04 215.192 118C215.192 127.334 211.485 136.285 204.885 142.885C198.285 149.485 189.334 153.192 180 153.192Z" fill="#F2BD3F"/>
<g filter="url(#filter0_d)">
<path d="M270.715 118H89.2855C86.3664 118 84 119.386 84 121.095V270.905C84 272.614 86.3664 274 89.2855 274H270.715C273.634 274 276 272.614 276 270.905V121.095C276 119.386 273.634 118 270.715 118Z" fill="#FFCF60"/>
</g>
<path d="M140.062 198.744V207.244C140.062 207.994 140.656 208.588 141.406 208.588H148.688C149.562 208.588 150.094 207.994 150.094 207.244V198.744H155.281C156.156 198.744 156.688 198.15 156.688 197.4V192.025C156.688 191.244 156.125 190.682 155.281 190.682H150.094V165.119C150.094 164.369 149.531 163.775 148.688 163.775H141.156C140.469 163.775 139.875 164.088 139.406 164.682L120.906 189.963C120.562 190.432 120.406 190.963 120.406 191.619V197.4C120.406 198.307 120.844 198.744 121.75 198.744H140.062ZM140.062 177.807V190.682H129.938L140.062 177.807Z" fill="#DBA21F"/>
<path d="M179.094 209.213C190.344 209.213 196.062 203.088 196.062 189.963V182.4C196.062 169.369 190.438 163.15 179.094 163.15C167.781 163.15 162.125 169.557 162.125 182.4V189.963C162.125 202.807 167.781 209.213 179.094 209.213ZM179.094 173.057C181.875 173.057 183.719 173.682 184.688 174.9C185.656 176.15 186.125 178.65 186.125 182.4V189.963C186.125 193.588 185.656 196.057 184.719 197.338C183.781 198.65 181.906 199.307 179.094 199.307C176.438 199.307 174.625 198.619 173.625 197.275C172.625 195.932 172.125 193.494 172.125 189.963V182.4C172.125 178.744 172.625 176.244 173.594 174.963C174.562 173.682 176.406 173.057 179.094 173.057Z" fill="#DBA21F"/>
<path d="M215.938 209.213C220.906 209.213 224.719 208.057 227.438 205.713C230.156 203.369 231.5 200.213 231.5 196.182C231.5 193.213 230.781 190.838 229.313 189.057C227.844 187.275 226.063 186.119 223.938 185.557C225.688 185.119 227.375 183.963 229.031 182.119C230.688 180.275 231.5 178.088 231.5 175.619C231.5 171.775 230.188 168.744 227.594 166.494C225 164.275 221.094 163.15 215.938 163.15C210.094 163.15 205.844 164.4 203.188 166.869C202.531 167.494 202.531 168.119 203.188 168.775L207.375 172.932C207.781 173.338 208.406 173.369 209.219 172.994C209.25 172.963 209.469 172.838 209.875 172.619C210.719 172.15 210.563 172.244 211.531 171.807C212.656 171.307 213.625 171.244 215.5 171.15C217.656 171.15 219.125 171.557 219.906 172.4C220.688 173.244 221.063 174.588 221.063 176.463C221.063 179.713 219.313 182.025 215.563 182.025H211.969C211.219 182.025 210.563 182.619 210.563 183.369V187.775C210.563 188.557 211.313 189.182 211.969 189.182H215.563C217.563 189.182 218.969 189.619 219.813 190.494C220.656 191.369 221.063 192.994 221.063 195.4C221.063 199.682 219.531 201.213 215.438 201.213C213.344 201.213 211.188 200.588 208.906 199.307C208.188 198.869 207.563 198.9 207.031 199.432L202.938 203.65C202.219 204.307 202.219 204.932 203 205.588C206.281 207.994 210.594 209.213 215.938 209.213Z" fill="#DBA21F"/>
<defs>
<filter id="filter0_d" x="64" y="103" width="232" height="196" filterUnits="userSpaceOnUse" color-interpolation-filters="sRGB">
<feFlood flood-opacity="0" result="BackgroundImageFix"/>
<feColorMatrix in="SourceAlpha" type="matrix" values="0 0 0 0 0 0 0 0 0 0 0 0 0 0 0 0 0 0 127 0" result="hardAlpha"/>
<feOffset dy="5"/>
<feGaussianBlur stdDeviation="10"/>
<feColorMatrix type="matrix" values="0 0 0 0 0 0 0 0 0 0 0 0 0 0 0 0 0 0 0.15 0"/>
<feBlend mode="normal" in2="BackgroundImageFix" result="effect1_dropShadow"/>
<feBlend mode="normal" in="SourceGraphic" in2="effect1_dropShadow" result="shape"/>
</filter>
</defs>
</svg>
