<svg width="360" height="360" viewBox="0 0 360 360" fill="none" xmlns="http://www.w3.org/2000/svg">
<circle r="180" transform="matrix(-1 0 0 1 180 180)" fill="#FAFAFA"/>
<g filter="url(#filter0_d)">
<path d="M270.715 66.5879H89.2855C86.3664 66.5879 84 68.5686 84 71.0119V285.164C84 287.607 86.3664 289.588 89.2855 289.588H270.715C273.634 289.588 276 287.607 276 285.164V71.0119C276 68.5686 273.634 66.5879 270.715 66.5879Z" fill="white"/>
</g>
<path d="M125.812 197.4C129.187 199.869 133.593 201.119 139.062 201.088C143.531 201.088 147.25 200.15 150.593 197.994C153.937 195.838 155.906 191.588 155.906 185.869C155.906 181.65 154.687 178.119 152.281 175.338C149.843 172.557 146.906 171.15 143.437 171.15C140.187 171.15 137.656 171.869 135.812 173.338V163.775H151.281C152.218 163.775 152.687 163.338 152.687 162.432V157.119C152.687 156.369 152.125 155.775 151.281 155.775H127.093C126.343 155.775 125.75 156.369 125.75 157.119V180.494C125.75 181.4 126.187 181.838 127.093 181.838H133.875C134.531 181.807 135.125 181.588 135.687 181.182L136.312 180.744C136.75 180.463 137 180.275 137.093 180.244C137.187 180.213 137.437 180.057 137.843 179.838C138.25 179.619 138.562 179.494 138.781 179.432C139.25 179.307 140.156 179.15 141 179.15C142.75 179.15 144.031 179.807 144.843 181.119C145.625 182.463 146.031 184.15 146.031 186.244C146.031 190.963 143.718 193.307 139.062 193.307C136.562 193.307 134.125 192.588 131.718 191.119C131 190.713 130.312 190.807 129.718 191.369L125.687 195.463C124.968 196.15 125 196.807 125.812 197.4Z" fill="#4272EF"/>
<path d="M180.5 201.213C191.75 201.213 197.469 195.088 197.469 181.963V174.4C197.469 161.369 191.844 155.15 180.5 155.15C169.188 155.15 163.531 161.557 163.531 174.4V181.963C163.531 194.807 169.188 201.213 180.5 201.213ZM180.5 165.057C183.281 165.057 185.125 165.682 186.094 166.9C187.062 168.15 187.531 170.65 187.531 174.4V181.963C187.531 185.588 187.062 188.057 186.125 189.338C185.188 190.65 183.312 191.307 180.5 191.307C177.844 191.307 176.031 190.619 175.031 189.275C174.031 187.932 173.531 185.494 173.531 181.963V174.4C173.531 170.744 174.031 168.244 175 166.963C175.969 165.682 177.812 165.057 180.5 165.057Z" fill="#FF5E5E"/>
<path d="M219.969 201.213C224.938 201.213 228.75 200.057 231.469 197.713C234.188 195.369 235.531 192.213 235.531 188.182C235.531 185.213 234.813 182.838 233.344 181.057C231.875 179.275 230.094 178.119 227.969 177.557C229.719 177.119 231.406 175.963 233.063 174.119C234.719 172.275 235.531 170.088 235.531 167.619C235.531 163.775 234.219 160.744 231.625 158.494C229.031 156.275 225.125 155.15 219.969 155.15C214.125 155.15 209.875 156.4 207.219 158.869C206.563 159.494 206.563 160.119 207.219 160.775L211.406 164.932C211.813 165.338 212.438 165.369 213.25 164.994C213.281 164.963 213.5 164.838 213.906 164.619C214.75 164.15 214.594 164.244 215.563 163.807C216.688 163.307 217.656 163.244 219.531 163.15C221.688 163.15 223.156 163.557 223.938 164.4C224.719 165.244 225.094 166.588 225.094 168.463C225.094 171.713 223.344 174.025 219.594 174.025H216C215.25 174.025 214.594 174.619 214.594 175.369V179.775C214.594 180.557 215.344 181.182 216 181.182H219.594C221.594 181.182 223 181.619 223.844 182.494C224.688 183.369 225.094 184.994 225.094 187.4C225.094 191.682 223.563 193.213 219.469 193.213C217.375 193.213 215.219 192.588 212.938 191.307C212.219 190.869 211.594 190.9 211.063 191.432L206.969 195.65C206.25 196.307 206.25 196.932 207.031 197.588C210.313 199.994 214.625 201.213 219.969 201.213Z" fill="#FFCF60"/>
<path d="M226.697 59.543H133.59V81.5871H226.697V59.543Z" fill="#F2BD3F"/>
<path d="M180.142 38C177.568 38 175.051 38.764 172.911 40.1953C170.771 41.6266 169.103 43.661 168.118 46.0412C167.133 48.4214 166.875 51.0405 167.377 53.5674C167.879 56.0942 169.119 58.4152 170.939 60.2369C172.759 62.0587 175.078 63.2993 177.603 63.8019C180.127 64.3045 182.744 64.0465 185.123 63.0606C187.501 62.0747 189.533 60.4051 190.963 58.263C192.394 56.1209 193.157 53.6024 193.157 51.0261C193.157 47.5714 191.786 44.2581 189.345 41.8153C186.904 39.3724 183.594 38 180.142 38ZM180.142 58.5411C178.657 58.5411 177.205 58.1004 175.97 57.2746C174.736 56.4489 173.773 55.2752 173.205 53.902C172.637 52.5288 172.488 51.0178 172.778 49.56C173.067 48.1022 173.782 46.7631 174.833 45.7121C175.883 44.6611 177.221 43.9454 178.677 43.6554C180.134 43.3655 181.643 43.5143 183.015 44.0831C184.387 44.6519 185.56 45.6151 186.385 46.8509C187.21 48.0868 187.651 49.5398 187.651 51.0261C187.651 53.0192 186.859 54.9307 185.451 56.34C184.043 57.7494 182.133 58.5411 180.142 58.5411Z" fill="#F2BD3F"/>
<defs>
<filter id="filter0_d" x="64" y="51.5879" width="232" height="263" filterUnits="userSpaceOnUse" color-interpolation-filters="sRGB">
<feFlood flood-opacity="0" result="BackgroundImageFix"/>
<feColorMatrix in="SourceAlpha" type="matrix" values="0 0 0 0 0 0 0 0 0 0 0 0 0 0 0 0 0 0 127 0" result="hardAlpha"/>
<feOffset dy="5"/>
<feGaussianBlur stdDeviation="10"/>
<feColorMatrix type="matrix" values="0 0 0 0 0 0 0 0 0 0 0 0 0 0 0 0 0 0 0.15 0"/>
<feBlend mode="normal" in2="BackgroundImageFix" result="effect1_dropShadow"/>
<feBlend mode="normal" in="SourceGraphic" in2="effect1_dropShadow" result="shape"/>
</filter>
</defs>
</svg>
