<svg width="327" height="152" viewBox="0 0 327 152" fill="none" xmlns="http://www.w3.org/2000/svg">
<rect x="53" width="221" height="56" rx="8" fill="#F6F6F6"/>
<rect opacity="0.4" x="69" y="16" width="66.3333" height="8" rx="4" fill="#CCCCCC"/>
<rect opacity="0.4" x="69" y="32" width="39.8333" height="8" rx="4" fill="#CCCCCC"/>
<rect x="158" y="20.5" width="36" height="15" rx="4" fill="#E3EAFD"/>
<g clip-path="url(#clip0)">
<path d="M258 28C258.004 30.7074 257.456 33.3871 256.389 35.8757L256.323 36.0284C254.52 40.1313 251.392 43.511 247.441 45.6269C243.491 47.7428 238.944 48.4727 234.53 47.7C234.409 47.6787 234.29 47.6566 234.17 47.6337C232.933 47.3939 231.721 47.0367 230.552 46.5669C230.362 46.4905 230.174 46.4114 229.986 46.3296C229.859 46.274 229.731 46.2166 229.604 46.1574C226.14 44.552 223.207 41.9897 221.151 38.7727C219.095 35.5556 218.002 31.8179 218 28C218 16.9544 226.954 8 238 8C249.046 8 258 16.9544 258 28Z" fill="#FFCF60"/>
<path d="M238.086 33.8621C242.609 33.8621 246.276 30.1955 246.276 25.6724C246.276 21.1494 242.609 17.4828 238.086 17.4828C233.563 17.4828 229.896 21.1494 229.896 25.6724C229.896 30.1955 233.563 33.8621 238.086 33.8621Z" fill="#DA9D00"/>
<path d="M235.098 32.8275C235.098 32.8275 235.098 34.5517 234.552 35.4137C234.417 35.767 236.779 39.937 236.779 39.937L239.813 40.4846L242.31 35.8448C242.31 35.8448 241.448 34.9827 241.362 32.9137L235.098 32.8275Z" fill="#DA9D00"/>
<path d="M252.703 43.1726L254.638 41.9152C250.844 37.3105 243.517 38.2588 241.879 35.1553L234.724 35.0691C233.172 38.1726 224.8 37.8961 221.793 41.9152C221.89 42.0153 223.246 43.3327 223.345 43.4312C233.419 53.4632 244.379 50.0691 252.703 43.1726Z" fill="#DA9D00"/>
</g>
<rect x="53" y="72" width="221" height="56" rx="8" fill="#F6F6F6"/>
<rect opacity="0.4" x="69" y="88" width="66.3333" height="8" rx="4" fill="#CCCCCC"/>
<rect opacity="0.4" x="69" y="104" width="39.8333" height="8" rx="4" fill="#CCCCCC"/>
<rect x="158" y="92.5" width="36" height="15" rx="4" fill="#E3EAFD"/>
<g clip-path="url(#clip1)">
<path d="M258 100C258.004 102.707 257.456 105.387 256.389 107.876L256.323 108.028C254.52 112.131 251.392 115.511 247.441 117.627C243.491 119.743 238.944 120.473 234.53 119.7C234.409 119.679 234.29 119.657 234.17 119.634C232.933 119.394 231.721 119.037 230.552 118.567C230.362 118.491 230.174 118.411 229.986 118.33C229.859 118.274 229.731 118.217 229.604 118.157C226.14 116.552 223.207 113.99 221.151 110.773C219.095 107.556 218.002 103.818 218 100C218 88.9544 226.954 80 238 80C249.046 80 258 88.9544 258 100Z" fill="#FFCF60"/>
<path d="M238.086 105.862C242.609 105.862 246.276 102.195 246.276 97.6724C246.276 93.1494 242.609 89.4828 238.086 89.4828C233.563 89.4828 229.896 93.1494 229.896 97.6724C229.896 102.195 233.563 105.862 238.086 105.862Z" fill="#DA9D00"/>
<path d="M235.098 104.828C235.098 104.828 235.098 106.552 234.552 107.414C234.417 107.767 236.779 111.937 236.779 111.937L239.813 112.485L242.31 107.845C242.31 107.845 241.448 106.983 241.362 104.914L235.098 104.828Z" fill="#DA9D00"/>
<path d="M252.703 115.173L254.638 113.915C250.844 109.311 243.517 110.259 241.879 107.155L234.724 107.069C233.172 110.173 224.8 109.896 221.793 113.915C221.89 114.015 223.246 115.333 223.345 115.431C233.419 125.463 244.379 122.069 252.703 115.173Z" fill="#DA9D00"/>
</g>
<defs>
<clipPath id="clip0">
<path d="M218 28C218 16.9543 226.954 8 238 8C249.046 8 258 16.9543 258 28C258 39.0457 249.046 48 238 48C226.954 48 218 39.0457 218 28Z" fill="white"/>
</clipPath>
<clipPath id="clip1">
<path d="M218 100C218 88.9543 226.954 80 238 80C249.046 80 258 88.9543 258 100C258 111.046 249.046 120 238 120C226.954 120 218 111.046 218 100Z" fill="white"/>
</clipPath>
</defs>
</svg>
