<svg width="416" height="200" viewBox="0 0 416 200" fill="none" xmlns="http://www.w3.org/2000/svg">
<rect x="0.5" width="415.5" height="56" rx="8" fill="#F6F6F6"/>
<rect opacity="0.4" x="16.5" y="16" width="178.333" height="8" rx="4" fill="#CCCCCC"/>
<rect opacity="0.4" x="16.5" y="32" width="103.833" height="8" rx="4" fill="#CCCCCC"/>
<rect x="300" y="20.5" width="36" height="15" rx="4" fill="#E3EAFD"/>
<g clip-path="url(#clip0)">
<path d="M400 28C400.004 30.7074 399.456 33.3871 398.389 35.8757L398.323 36.0284C396.52 40.1313 393.392 43.511 389.441 45.6269C385.491 47.7428 380.944 48.4727 376.53 47.7C376.409 47.6787 376.29 47.6566 376.17 47.6337C374.933 47.3939 373.721 47.0367 372.552 46.5669C372.362 46.4905 372.174 46.4114 371.986 46.3296C371.859 46.274 371.731 46.2166 371.604 46.1574C368.14 44.552 365.207 41.9897 363.151 38.7727C361.095 35.5556 360.002 31.8179 360 28C360 16.9544 368.954 8 380 8C391.046 8 400 16.9544 400 28Z" fill="#FFCF60"/>
<path d="M380.086 33.8621C384.609 33.8621 388.276 30.1955 388.276 25.6724C388.276 21.1494 384.609 17.4828 380.086 17.4828C375.563 17.4828 371.896 21.1494 371.896 25.6724C371.896 30.1955 375.563 33.8621 380.086 33.8621Z" fill="#DA9D00"/>
<path d="M377.098 32.8275C377.098 32.8275 377.098 34.5517 376.552 35.4137C376.417 35.767 378.779 39.937 378.779 39.937L381.813 40.4846L384.31 35.8448C384.31 35.8448 383.448 34.9827 383.362 32.9137L377.098 32.8275Z" fill="#DA9D00"/>
<path d="M394.703 43.1726L396.638 41.9152C392.844 37.3105 385.517 38.2588 383.879 35.1553L376.724 35.0691C375.172 38.1726 366.8 37.8961 363.793 41.9152C363.89 42.0153 365.246 43.3327 365.345 43.4312C375.419 53.4632 386.379 50.0691 394.703 43.1726Z" fill="#DA9D00"/>
</g>
<rect x="0.5" y="72" width="415.5" height="56" rx="8" fill="#F6F6F6"/>
<rect opacity="0.4" x="16.5" y="88" width="178.333" height="8" rx="4" fill="#CCCCCC"/>
<rect opacity="0.4" x="16.5" y="104" width="103.833" height="8" rx="4" fill="#CCCCCC"/>
<rect x="300" y="92.5" width="36" height="15" rx="4" fill="#E3EAFD"/>
<g clip-path="url(#clip1)">
<path d="M400 100C400.004 102.707 399.456 105.387 398.389 107.876L398.323 108.028C396.52 112.131 393.392 115.511 389.441 117.627C385.491 119.743 380.944 120.473 376.53 119.7C376.409 119.679 376.29 119.657 376.17 119.634C374.933 119.394 373.721 119.037 372.552 118.567C372.362 118.491 372.174 118.411 371.986 118.33C371.859 118.274 371.731 118.217 371.604 118.157C368.14 116.552 365.207 113.99 363.151 110.773C361.095 107.556 360.002 103.818 360 100C360 88.9544 368.954 80 380 80C391.046 80 400 88.9544 400 100Z" fill="#FFCF60"/>
<path d="M380.086 105.862C384.609 105.862 388.276 102.195 388.276 97.6724C388.276 93.1494 384.609 89.4828 380.086 89.4828C375.563 89.4828 371.896 93.1494 371.896 97.6724C371.896 102.195 375.563 105.862 380.086 105.862Z" fill="#DA9D00"/>
<path d="M377.098 104.827C377.098 104.827 377.098 106.552 376.552 107.414C376.417 107.767 378.779 111.937 378.779 111.937L381.813 112.484L384.31 107.845C384.31 107.845 383.448 106.983 383.362 104.914L377.098 104.827Z" fill="#DA9D00"/>
<path d="M394.703 115.173L396.638 113.915C392.844 109.311 385.517 110.259 383.879 107.155L376.724 107.069C375.172 110.173 366.8 109.896 363.793 113.915C363.89 114.015 365.246 115.333 365.345 115.431C375.419 125.463 386.379 122.069 394.703 115.173Z" fill="#DA9D00"/>
</g>
<rect x="0.5" y="144" width="415.5" height="56" rx="8" fill="#F6F6F6"/>
<rect opacity="0.4" x="16.5" y="160" width="178.333" height="8" rx="4" fill="#CCCCCC"/>
<rect opacity="0.4" x="16.5" y="176" width="103.833" height="8" rx="4" fill="#CCCCCC"/>
<rect x="300" y="164.5" width="36" height="15" rx="4" fill="#E3EAFD"/>
<g clip-path="url(#clip2)">
<path d="M400 172C400.004 174.707 399.456 177.387 398.389 179.876L398.323 180.028C396.52 184.131 393.392 187.511 389.441 189.627C385.491 191.743 380.944 192.473 376.53 191.7C376.409 191.679 376.29 191.657 376.17 191.634C374.933 191.394 373.721 191.037 372.552 190.567C372.362 190.491 372.174 190.411 371.986 190.33C371.859 190.274 371.731 190.217 371.604 190.157C368.14 188.552 365.207 185.99 363.151 182.773C361.095 179.556 360.002 175.818 360 172C360 160.954 368.954 152 380 152C391.046 152 400 160.954 400 172Z" fill="#FFCF60"/>
<path d="M380.086 177.862C384.609 177.862 388.276 174.195 388.276 169.672C388.276 165.149 384.609 161.483 380.086 161.483C375.563 161.483 371.896 165.149 371.896 169.672C371.896 174.195 375.563 177.862 380.086 177.862Z" fill="#DA9D00"/>
<path d="M377.098 176.827C377.098 176.827 377.098 178.552 376.552 179.414C376.417 179.767 378.779 183.937 378.779 183.937L381.813 184.484L384.31 179.845C384.31 179.845 383.448 178.983 383.362 176.914L377.098 176.827Z" fill="#DA9D00"/>
<path d="M394.703 187.173L396.638 185.915C392.844 181.311 385.517 182.259 383.879 179.155L376.724 179.069C375.172 182.173 366.8 181.896 363.793 185.915C363.89 186.015 365.246 187.333 365.345 187.431C375.419 197.463 386.379 194.069 394.703 187.173Z" fill="#DA9D00"/>
</g>
<defs>
<clipPath id="clip0">
<path d="M360 28C360 16.9543 368.954 8 380 8V8C391.046 8 400 16.9543 400 28V28C400 39.0457 391.046 48 380 48V48C368.954 48 360 39.0457 360 28V28Z" fill="white"/>
</clipPath>
<clipPath id="clip1">
<path d="M360 100C360 88.9543 368.954 80 380 80V80C391.046 80 400 88.9543 400 100V100C400 111.046 391.046 120 380 120V120C368.954 120 360 111.046 360 100V100Z" fill="white"/>
</clipPath>
<clipPath id="clip2">
<path d="M360 172C360 160.954 368.954 152 380 152V152C391.046 152 400 160.954 400 172V172C400 183.046 391.046 192 380 192V192C368.954 192 360 183.046 360 172V172Z" fill="white"/>
</clipPath>
</defs>
</svg>
