<svg width="126" height="48" viewBox="0 0 126 48" fill="none" xmlns="http://www.w3.org/2000/svg">
<g clip-path="url(#clip0_1_958)">
<circle cx="24" cy="24" r="24" fill="white"/>
<path fill-rule="evenodd" clip-rule="evenodd" d="M41.1896 20.3589C44.1006 25.1232 42.8231 35.5253 38.0923 40.8947C35.4941 43.0644 32.3871 44.6462 28.9765 45.435H28.9753C29.265 45.368 29.5526 45.2952 29.8377 45.2169C21.9684 46.0582 18.8955 39.4649 21.1248 34.5452C21.7729 33.1148 22.6745 32.1919 23.6725 31.4858L23.7173 31.4543L23.8021 31.3956L23.8447 31.3666L23.9302 31.3094L23.9946 31.2671L24.0592 31.2253L24.1553 31.1642L24.2518 31.1041L24.3002 31.0744L24.3973 31.0157L24.4947 30.9579L24.5925 30.901L24.6415 30.8728L24.7396 30.8169L24.7888 30.7892L24.8873 30.7344L24.9861 30.6801L25.1345 30.5997L25.2336 30.5467L25.3825 30.468L25.5335 30.389L25.7807 30.2608L26.1508 30.0696L26.3497 29.9661L26.4819 29.8967L26.6136 29.8268L26.7447 29.7563L26.8041 29.724L26.9227 29.6589L26.9817 29.6261L27.0993 29.5598L27.1471 29.5325L27.2424 29.4774L27.3372 29.4217C27.3529 29.4123 27.3687 29.4029 27.3844 29.3935L27.4784 29.3366L27.5718 29.279C27.5873 29.2693 27.6028 29.2596 27.6183 29.2498L27.7108 29.1908C29.0481 28.3284 30.1859 27.1676 30.7291 24.9769C33.0673 26.5317 40.2511 25.0093 41.1896 20.3589Z" fill="#FFCF60"/>
<path fill-rule="evenodd" clip-rule="evenodd" d="M46.0001 24C46.0001 30.7887 42.9253 36.8591 38.0924 40.8947C42.8232 35.5253 44.1007 25.1232 41.1896 20.3589C40.1819 25.3524 31.9734 26.7393 30.2949 24.5826C29.672 23.7104 28.7432 23.0038 27.7373 22.3897L27.6138 22.315C27.5518 22.2778 27.4896 22.241 27.4272 22.2045L27.3022 22.132L27.1767 22.0602L27.0508 21.9893L26.9247 21.9191L26.7984 21.8497L26.6721 21.7809L26.5457 21.7128L26.4195 21.6454L26.2359 21.5481L26.0529 21.452L25.7805 21.31L25.3343 21.0779L25.1594 20.9865L24.933 20.8672L24.7731 20.7818L24.6159 20.6969L24.5128 20.6404L24.4112 20.5841L24.311 20.5279L24.2124 20.4717L24.1155 20.4156L24.0203 20.3595C23.9888 20.3408 23.9577 20.3221 23.9268 20.3034L23.8353 20.2473C23.7749 20.2099 23.7157 20.1724 23.658 20.1349L23.5725 20.0786C23.1784 19.8154 22.8547 19.5485 22.6349 19.2672L21.0265 17.1408C22.1497 16.2983 22.1893 15.3724 21.862 14.453L21.8371 14.3849C21.8328 14.3735 21.8285 14.3622 21.8241 14.3508L21.7973 14.2828C21.7882 14.2601 21.7789 14.2375 21.7694 14.2148L21.7403 14.1469L21.7101 14.079L21.679 14.0112L21.6469 13.9434L21.614 13.8758L21.5803 13.8082L21.5271 13.7046L21.4724 13.6012L21.4278 13.5187L21.4052 13.4776L21.3596 13.3954L21.3135 13.3135L21.2436 13.191L21.0061 12.781L20.9183 12.6284L20.8541 12.5148L20.8121 12.4395L20.771 12.3647L20.7309 12.2902L20.6918 12.2161L20.654 12.1424L20.6174 12.0691L20.5888 12.0101L20.5611 11.9514L20.5345 11.893L20.5089 11.8349L20.4845 11.7771C20.4805 11.7675 20.4766 11.7579 20.4727 11.7483L20.4501 11.6911C20.1315 10.8627 20.216 10.1403 21.4775 9.62087C22.4094 9.23713 23.4974 9.10175 24.652 9.08318L24.7274 9.08214L24.8696 9.08104L25.0124 9.08103L25.0841 9.08141L25.1559 9.08205L25.2998 9.08406L25.4443 9.08699L25.5892 9.09079L25.7346 9.09541L25.8074 9.09801L25.9533 9.10376L26.0996 9.1102L26.2462 9.11726L26.3195 9.12101L26.54 9.13307L26.761 9.14617L26.9822 9.16015L27.3513 9.1849L28.0887 9.23678L28.3825 9.25723L28.7454 9.2814L28.9551 9.29454L29.1639 9.30681L29.3718 9.31806L29.5099 9.32491L29.6474 9.33119L29.7843 9.33684L29.9207 9.34183L30.0904 9.34704L30.259 9.35105L30.3597 9.35283L30.4599 9.35412L30.593 9.35505L30.7121 9.35506L30.8305 9.35427C30.8502 9.35407 30.8698 9.35383 30.8895 9.35356L31.0069 9.35149L31.1236 9.34852L31.2396 9.34463C31.2589 9.3439 31.2781 9.34313 31.2973 9.34232L31.4122 9.33696C32.6714 9.27251 33.7878 9.02347 34.62 8.38171C36.4489 6.97125 35.8491 5.72518 34.8399 4.8515L34.8416 4.85243C41.5047 8.63326 46.0001 15.7917 46.0001 24Z" fill="#4272EF"/>
<path fill-rule="evenodd" clip-rule="evenodd" d="M30.9572 23.7327C30.5286 27.1379 28.9371 28.5146 27.0995 29.5598L26.9819 29.6261C26.9623 29.6371 26.9426 29.648 26.9229 29.659L26.8044 29.7241C26.7846 29.7349 26.7647 29.7456 26.7449 29.7564L26.6138 29.8269L26.4821 29.8967L26.3499 29.9662L26.151 30.0697L25.7809 30.2608L25.5337 30.389L25.3827 30.468L25.2338 30.5468L25.1347 30.5998L24.9863 30.6801L24.8876 30.7344L24.789 30.7892L24.7398 30.8169L24.6417 30.8728L24.5927 30.901L24.4949 30.958L24.3975 31.0158L24.3004 31.0744L24.252 31.1041L24.1555 31.1642L24.0595 31.2253C24.0163 31.253 23.9733 31.2811 23.9305 31.3094L23.845 31.3667C23.8307 31.3763 23.8165 31.3859 23.8024 31.3956L23.7175 31.4543C22.7017 32.1645 21.7828 33.0935 21.125 34.5452C18.8957 39.4649 21.9686 46.0582 29.838 45.2169C27.9793 45.7275 26.0216 46.0001 24.0002 46.0001C13.9757 46.0001 5.5172 39.2954 2.86429 30.1257C4.47965 32.7193 9.03364 35.4239 12.2915 30.9757C14.1168 28.4833 13.6172 26.1351 12.8033 24.039L12.7509 23.9055L12.6978 23.7728C12.6889 23.7507 12.68 23.7287 12.671 23.7067L12.6441 23.6407L12.5687 23.4585L12.4926 23.2776L12.4315 23.1339L12.3703 22.9911L12.1237 22.4191L12.0396 22.2221L11.9778 22.0756L11.9172 21.9302L11.8777 21.8339L11.8389 21.7381L11.8009 21.6428L11.7638 21.548L11.7275 21.4537L11.7097 21.4068L11.6664 21.29L11.6247 21.174L11.6085 21.1278L11.577 21.0358L11.5468 20.9444L11.5178 20.8535C11.5046 20.8113 11.4919 20.7693 11.4796 20.7275L11.4556 20.6441C11.4362 20.5747 11.4181 20.5059 11.4014 20.4376L11.3822 20.3558C11.1965 19.5404 11.2267 18.7964 11.6833 18.135C12.3237 17.2075 13.0917 16.9963 13.9528 17.0795L14.0145 17.0859L14.0764 17.0933C14.0868 17.0946 14.0972 17.096 14.1075 17.0974L14.17 17.1062C14.1804 17.1077 14.1909 17.1093 14.2013 17.1109L14.2642 17.121L14.3275 17.1319L14.3592 17.1377L14.4438 17.154L14.4863 17.1626L14.5718 17.1808L14.6147 17.1903L14.7009 17.2102L14.7876 17.2312L14.8748 17.2531L14.9625 17.2759L15.0506 17.2996L15.1393 17.324L15.2731 17.3618L15.4531 17.414L15.8301 17.5256L16.0232 17.5827L16.1604 17.6226L16.2984 17.662L16.3909 17.6879L16.5304 17.7259L16.6237 17.7505L16.7175 17.7746L16.8116 17.798L16.906 17.8206L16.9533 17.8316L17.0483 17.853L17.1256 17.8696L17.2032 17.8856L17.2809 17.9009L17.3589 17.9154L17.4371 17.9292L17.5155 17.9421L17.594 17.9542C17.6071 17.9561 17.6202 17.958 17.6334 17.9598L17.7122 17.9705L17.7912 17.9802C17.8044 17.9818 17.8176 17.9833 17.8308 17.9847L17.9101 17.9929C17.9233 17.9942 17.9366 17.9954 17.9498 17.9966L18.0294 18.0032C18.9718 18.0743 19.9501 17.9084 20.9397 17.2044C22.1866 16.3174 22.1998 15.3344 21.8286 14.362L21.8014 14.2926C21.7829 14.2463 21.7635 14.2 21.7434 14.1538L21.7128 14.0845L21.6811 14.0153C21.6757 14.0038 21.6703 13.9923 21.6649 13.9808L21.6317 13.9117L21.5978 13.8427L21.5663 13.7803C26.5498 14.7393 31.7053 17.7895 30.9572 23.7327Z" fill="#FF5E5E"/>
<path fill-rule="evenodd" clip-rule="evenodd" d="M24 2C27.9412 2 31.6404 3.03638 34.8399 4.85147C35.8491 5.72515 36.4488 6.97122 34.6199 8.38168C33.6112 9.15957 32.1849 9.36047 30.5929 9.35502L30.4599 9.35409C30.3932 9.3534 30.3262 9.35237 30.2589 9.35102L30.1241 9.34791C30.1016 9.34733 30.079 9.34671 30.0565 9.34606L29.9207 9.3418L29.7843 9.33681L29.6473 9.33115L29.5098 9.32488L29.3718 9.31803L29.1639 9.30678L28.955 9.29451L28.7453 9.28137C28.722 9.27987 28.6986 9.27836 28.6752 9.27683L28.3824 9.2572L28.0886 9.23675L27.3512 9.18487L26.9822 9.16012L26.7609 9.14614L26.54 9.13304L26.3195 9.12098C26.295 9.11971 26.2705 9.11846 26.2461 9.11723L26.0995 9.11017L25.9533 9.10373L25.8073 9.09798C25.783 9.09709 25.7588 9.09622 25.7345 9.09538L25.5892 9.09076C25.4924 9.08795 25.3959 9.08568 25.2998 9.08403L25.1558 9.08202C25.1079 9.08151 25.0601 9.08117 25.0124 9.081L24.8695 9.08101L24.7273 9.08211C23.5447 9.09595 22.4296 9.22876 21.4774 9.62084C20.0274 10.2179 20.1325 11.0831 20.6173 12.0691L20.6539 12.1424L20.6918 12.216L20.7308 12.2901L20.771 12.3646L20.8121 12.4395L20.854 12.5148L20.9183 12.6283L21.006 12.7809L21.2436 13.191L21.3134 13.3134L21.3595 13.3954L21.4052 13.4775C21.4127 13.4913 21.4202 13.505 21.4277 13.5187L21.4724 13.6012L21.5162 13.6838C21.5235 13.6976 21.5307 13.7114 21.5378 13.7252L21.5803 13.8082C22.1598 14.9564 22.4238 16.1484 20.9395 17.2043C19.6014 18.1562 18.2841 18.1244 17.048 17.8529L16.9531 17.8316C16.9373 17.8279 16.9216 17.8243 16.9058 17.8206L16.8114 17.7979L16.7173 17.7745L16.6235 17.7505L16.5301 17.7258L16.3907 17.6878L16.2982 17.662L16.1602 17.6225L16.023 17.5826L15.8299 17.5256L15.4529 17.4139L15.2729 17.3617L15.139 17.3239L15.0504 17.2995L14.9622 17.2759L14.8746 17.253L14.7874 17.2311L14.7007 17.2101L14.6145 17.1902C14.6002 17.187 14.5858 17.1838 14.5716 17.1807L14.4861 17.1625C14.4719 17.1596 14.4578 17.1567 14.4436 17.1539L14.359 17.1376C13.3322 16.948 12.4226 17.0639 11.6831 18.1349C11.1351 18.9286 11.2013 19.8413 11.5176 20.8534L11.5466 20.9443L11.5768 21.0358L11.6083 21.1277C11.6136 21.1431 11.619 21.1585 11.6245 21.1739L11.6577 21.2666C11.6633 21.2821 11.669 21.2977 11.6747 21.3132L11.7095 21.4067C11.7154 21.4224 11.7213 21.438 11.7273 21.4537L11.7635 21.548L11.8007 21.6428L11.8387 21.7381L11.8775 21.8339L11.917 21.9302L11.9775 22.0756L12.0394 22.222L12.1235 22.4191L12.37 22.991L12.4312 23.1338L12.4924 23.2775L12.5533 23.4221C12.5634 23.4463 12.5735 23.4705 12.5836 23.4947L12.6439 23.6407C13.5437 25.8359 14.2331 28.3241 12.2912 30.9756C9.033 35.4245 4.47824 32.7185 2.8641 30.1244C2.3014 28.1804 2 26.1254 2 24C2 11.8497 11.8497 2 24 2Z" fill="#222222"/>
</g>
<path d="M115.613 34.3051C114.397 34.3051 113.319 34.0811 112.381 33.6331C111.463 33.1851 110.738 32.5771 110.205 31.8091C109.693 31.0198 109.437 30.1238 109.437 29.1211C109.437 27.9691 109.735 27.0625 110.333 26.4011C110.93 25.7398 111.89 25.2705 113.213 24.9931C114.535 24.6945 116.295 24.5451 118.493 24.5451H120.253V27.2331H118.493C117.661 27.2331 116.967 27.2971 116.413 27.4251C115.879 27.5318 115.485 27.7131 115.229 27.9691C114.973 28.2038 114.845 28.5131 114.845 28.8971C114.845 29.3878 115.015 29.7931 115.357 30.1131C115.719 30.4331 116.231 30.5931 116.893 30.5931C117.426 30.5931 117.895 30.4758 118.301 30.2411C118.727 30.0065 119.069 29.6865 119.325 29.2811C119.581 28.8544 119.709 28.3638 119.709 27.8091V24.0971C119.709 23.3291 119.506 22.7851 119.101 22.4651C118.717 22.1451 118.045 21.9851 117.085 21.9851C116.573 21.9851 115.997 22.0491 115.357 22.1771C114.717 22.2838 114.002 22.4865 113.213 22.7851C112.637 22.9985 112.146 23.0305 111.741 22.8811C111.335 22.7318 111.015 22.4758 110.781 22.1131C110.567 21.7505 110.461 21.3558 110.461 20.9291C110.482 20.5025 110.621 20.0971 110.877 19.7131C111.154 19.3291 111.57 19.0304 112.125 18.8171C113.149 18.4331 114.087 18.1771 114.941 18.0491C115.815 17.9211 116.615 17.8571 117.341 17.8571C119.09 17.8571 120.53 18.1131 121.661 18.6251C122.813 19.1158 123.666 19.8838 124.221 20.9291C124.797 21.9531 125.085 23.2758 125.085 24.8971V31.3611C125.085 32.2998 124.861 33.0144 124.413 33.5051C123.965 33.9958 123.314 34.2411 122.461 34.2411C121.586 34.2411 120.914 33.9958 120.445 33.5051C119.997 33.0144 119.773 32.2998 119.773 31.3611V30.5291L119.965 30.9771C119.858 31.6598 119.613 32.2465 119.229 32.7371C118.845 33.2278 118.343 33.6118 117.725 33.8891C117.106 34.1665 116.402 34.3051 115.613 34.3051Z" fill="black"/>
<path d="M99.3338 34.2411C98.3951 34.2411 97.6698 33.9958 97.1578 33.5051C96.6671 33.0144 96.4218 32.2998 96.4218 31.3611V20.7691C96.4218 19.8518 96.6565 19.1478 97.1258 18.6571C97.6165 18.1664 98.3098 17.9211 99.2058 17.9211C100.102 17.9211 100.784 18.1664 101.254 18.6571C101.723 19.1478 101.958 19.8518 101.958 20.7691V22.0811H101.638C101.851 20.8011 102.395 19.7878 103.27 19.0411C104.166 18.2944 105.275 17.8998 106.598 17.8571C107.216 17.8358 107.675 17.9958 107.974 18.3371C108.294 18.6571 108.464 19.2651 108.486 20.1611C108.486 20.9291 108.326 21.5371 108.006 21.9851C107.686 22.4331 107.078 22.6998 106.182 22.7851L105.446 22.8491C104.315 22.9558 103.494 23.2758 102.982 23.8091C102.47 24.3211 102.214 25.0891 102.214 26.1131V31.3611C102.214 32.2998 101.968 33.0144 101.478 33.5051C100.987 33.9958 100.272 34.2411 99.3338 34.2411Z" fill="black"/>
<path d="M83.6853 40.0011C83.024 40.0011 82.4906 39.8305 82.0853 39.4891C81.68 39.1478 81.424 38.6998 81.3173 38.1451C81.232 37.5905 81.328 37.0038 81.6053 36.3851L83.7493 31.7451V34.0491L78.2773 21.5371C78 20.8971 77.904 20.2998 77.9893 19.7451C78.096 19.1905 78.384 18.7531 78.8533 18.4331C79.3226 18.0918 79.9626 17.9211 80.7733 17.9211C81.456 17.9211 82 18.0811 82.4053 18.4011C82.832 18.6998 83.216 19.2971 83.5573 20.1931L86.7573 28.5131H85.6693L89.0613 20.1611C89.4026 19.2865 89.7867 18.6998 90.2133 18.4011C90.6613 18.0811 91.2587 17.9211 92.0053 17.9211C92.6453 17.9211 93.1573 18.0918 93.5413 18.4331C93.9253 18.7531 94.16 19.1905 94.2453 19.7451C94.3307 20.2998 94.2346 20.8971 93.9573 21.5371L86.6933 37.8571C86.3093 38.7105 85.8826 39.2758 85.4133 39.5531C84.9653 39.8518 84.3893 40.0011 83.6853 40.0011Z" fill="black"/>
<path d="M63.0966 33.9531C62.0939 33.9531 61.3259 33.6971 60.7926 33.1851C60.2806 32.6518 60.0246 31.8945 60.0246 30.9131V14.4331C60.0246 13.4518 60.2806 12.7051 60.7926 12.1931C61.3259 11.6598 62.0939 11.3931 63.0966 11.3931H73.9446C74.7126 11.3931 75.2886 11.5851 75.6726 11.9691C76.0566 12.3531 76.2486 12.9078 76.2486 13.6331C76.2486 14.3798 76.0566 14.9558 75.6726 15.3611C75.2886 15.7451 74.7126 15.9371 73.9446 15.9371H65.6566V20.2251H73.2406C73.9872 20.2251 74.5526 20.4171 74.9366 20.8011C75.3419 21.1851 75.5446 21.7505 75.5446 22.4971C75.5446 23.2438 75.3419 23.8091 74.9366 24.1931C74.5526 24.5771 73.9872 24.7691 73.2406 24.7691H65.6566V29.4091H73.9446C74.7126 29.4091 75.2886 29.6118 75.6726 30.0171C76.0566 30.4011 76.2486 30.9558 76.2486 31.6811C76.2486 32.4278 76.0566 32.9931 75.6726 33.3771C75.2886 33.7611 74.7126 33.9531 73.9446 33.9531H63.0966Z" fill="black"/>
<defs>
<clipPath id="clip0_1_958">
<rect width="48" height="48" fill="white"/>
</clipPath>
</defs>
</svg>
