<svg width="132" height="48" viewBox="0 0 132 48" fill="none" xmlns="http://www.w3.org/2000/svg">
<path fill-rule="evenodd" clip-rule="evenodd" d="M15.9961 41.7298C15.3795 41.372 15 40.7129 15 40V27.4464L3.99228 33.7365C3.37327 34.0902 2.61278 34.0877 1.99615 33.7298C1.37952 33.372 1 32.7129 1 32V16C1 15.2871 1.37952 14.628 1.99615 14.2702C2.61278 13.9123 3.37327 13.9098 3.99228 14.2635L15 20.5536V8C15 7.28706 15.3795 6.62802 15.9961 6.27018C16.6128 5.91234 17.3733 5.9098 17.9923 6.26351L45.9923 22.2635C46.6154 22.6196 47 23.2823 47 24C47 24.7177 46.6154 25.3804 45.9923 25.7365L17.9923 41.7365C17.3733 42.0902 16.6128 42.0877 15.9961 41.7298ZM17 24L3 16V32L17 24L17 40L45 24L17 8L17 24Z" fill="white"/>
<path d="M45 24L31 32L31 16L45 24Z" fill="#FFCF60"/>
<path d="M31 16L17 24L17 8L31 16Z" fill="#4272EF"/>
<path d="M31 32L17 40L17 24L31 32Z" fill="#FF5E5E"/>
<path d="M17 24L31 32L31 16L17 24Z" fill="white"/>
<path d="M17 24L3 32L3 16L17 24Z" fill="#222222"/>
<path d="M128.178 34.3051C126.578 34.3051 125.255 34.0598 124.21 33.5691C123.186 33.0784 122.418 32.3424 121.906 31.3611C121.394 30.3584 121.138 29.1104 121.138 27.6171V22.4011H120.05C119.367 22.4011 118.834 22.2198 118.45 21.8571C118.087 21.4944 117.906 20.9718 117.906 20.2891C117.906 19.6064 118.087 19.0944 118.45 18.7531C118.834 18.3904 119.367 18.2091 120.05 18.2091H121.138V16.2251C121.138 15.2864 121.383 14.5718 121.874 14.0811C122.364 13.5904 123.068 13.3451 123.986 13.3451C124.903 13.3451 125.607 13.5904 126.098 14.0811C126.588 14.5718 126.834 15.2864 126.834 16.2251V18.2091H129.458C130.162 18.2091 130.695 18.3904 131.058 18.7531C131.442 19.0944 131.634 19.6064 131.634 20.2891C131.634 20.9718 131.442 21.4944 131.058 21.8571C130.695 22.2198 130.162 22.4011 129.458 22.4011H126.834V27.4251C126.834 28.2144 127.015 28.8011 127.378 29.1851C127.762 29.5478 128.359 29.7291 129.17 29.7291C129.468 29.7291 129.756 29.6971 130.034 29.6331C130.311 29.5691 130.567 29.5371 130.802 29.5371C131.143 29.5158 131.42 29.6224 131.634 29.8571C131.847 30.0704 131.954 30.5718 131.954 31.3611C131.954 32.0011 131.858 32.5451 131.666 32.9931C131.474 33.4198 131.132 33.7291 130.642 33.9211C130.343 34.0278 129.938 34.1131 129.426 34.1771C128.914 34.2624 128.498 34.3051 128.178 34.3051Z" fill="black"/>
<path d="M103.817 34.2091C103.113 34.2091 102.548 34.0171 102.121 33.6331C101.695 33.2491 101.471 32.7585 101.449 32.1611C101.449 31.5638 101.695 30.9558 102.185 30.3371L106.921 24.5771V27.1051L102.569 21.7931C102.079 21.1531 101.833 20.5451 101.833 19.9691C101.855 19.3718 102.079 18.8811 102.505 18.4971C102.932 18.1131 103.497 17.9211 104.201 17.9211C104.884 17.9211 105.439 18.0385 105.865 18.2731C106.313 18.4865 106.74 18.8491 107.145 19.3611L110.121 23.2011H108.137L111.113 19.3611C111.519 18.8491 111.945 18.4865 112.393 18.2731C112.841 18.0385 113.396 17.9211 114.057 17.9211C114.783 17.9211 115.348 18.1131 115.753 18.4971C116.18 18.8811 116.393 19.3718 116.393 19.9691C116.415 20.5665 116.169 21.1745 115.657 21.7931L111.305 27.1051V24.5771L116.073 30.3371C116.585 30.9345 116.831 31.5318 116.809 32.1291C116.788 32.7265 116.564 33.2278 116.137 33.6331C115.711 34.0171 115.135 34.2091 114.409 34.2091C113.748 34.2091 113.193 34.1025 112.745 33.8891C112.297 33.6545 111.871 33.2811 111.465 32.7691L108.137 28.5131H110.089L106.729 32.7691C106.345 33.2598 105.929 33.6225 105.481 33.8571C105.055 34.0918 104.5 34.2091 103.817 34.2091Z" fill="black"/>
<path d="M92.4666 34.3051C90.5466 34.3051 88.8826 33.9745 87.4746 33.3131C86.0879 32.6305 85.0212 31.6705 84.2746 30.4331C83.5279 29.1958 83.1546 27.7345 83.1546 26.0491C83.1546 24.4278 83.5066 23.0091 84.2106 21.7931C84.9359 20.5558 85.9172 19.5958 87.1546 18.9131C88.4132 18.2091 89.8426 17.8571 91.4426 17.8571C92.6159 17.8571 93.6826 18.0491 94.6426 18.4331C95.6026 18.7958 96.4239 19.3398 97.1066 20.0651C97.7892 20.7691 98.3012 21.6225 98.6426 22.6251C99.0052 23.6278 99.1866 24.7478 99.1866 25.9851C99.1866 26.4118 99.0692 26.7318 98.8346 26.9451C98.5999 27.1371 98.2266 27.2331 97.7146 27.2331H87.9226V24.5451H95.0266L94.5146 24.9611C94.5146 24.1718 94.4079 23.5318 94.1946 23.0411C93.9812 22.5504 93.6612 22.1771 93.2346 21.9211C92.8292 21.6651 92.3172 21.5371 91.6986 21.5371C91.0372 21.5371 90.4612 21.6971 89.9706 22.0171C89.5012 22.3158 89.1386 22.7638 88.8826 23.3611C88.6266 23.9585 88.4986 24.7051 88.4986 25.6011V25.8891C88.4986 27.4038 88.8292 28.4918 89.4906 29.1531C90.1732 29.7931 91.2186 30.1131 92.6266 30.1131C93.0959 30.1131 93.6292 30.0598 94.2266 29.9531C94.8452 29.8251 95.4319 29.6544 95.9866 29.4411C96.5412 29.2278 97.0212 29.1958 97.4266 29.3451C97.8319 29.4731 98.1412 29.7078 98.3546 30.0491C98.5892 30.3691 98.7172 30.7425 98.7386 31.1691C98.7599 31.5745 98.6639 31.9798 98.4506 32.3851C98.2372 32.7691 97.8852 33.0678 97.3946 33.2811C96.6479 33.6224 95.8479 33.8785 94.9946 34.0491C94.1626 34.2198 93.3199 34.3051 92.4666 34.3051Z" fill="black"/>
<path d="M62.7766 34.2411C61.8806 34.2411 61.1979 34.0064 60.7286 33.5371C60.2592 33.0678 60.0246 32.3744 60.0246 31.4571V14.0171C60.0246 13.0784 60.2592 12.3638 60.7286 11.8731C61.1979 11.3611 61.8166 11.1051 62.5846 11.1051C63.2672 11.1051 63.8006 11.2331 64.1846 11.4891C64.5686 11.7451 64.9952 12.1718 65.4646 12.7691L75.6086 25.4411H74.7126V13.8571C74.7126 12.9611 74.9366 12.2784 75.3846 11.8091C75.8539 11.3398 76.5366 11.1051 77.4326 11.1051C78.3286 11.1051 79.0006 11.3398 79.4486 11.8091C79.9179 12.2784 80.1526 12.9611 80.1526 13.8571V31.5851C80.1526 32.3958 79.9392 33.0464 79.5126 33.5371C79.0859 34.0064 78.5099 34.2411 77.7846 34.2411C77.0592 34.2411 76.4832 34.1131 76.0566 33.8571C75.6512 33.5798 75.2139 33.1531 74.7446 32.5771L64.6006 19.8731H65.4966V31.4571C65.4966 32.3744 65.2619 33.0678 64.7926 33.5371C64.3446 34.0064 63.6726 34.2411 62.7766 34.2411Z" fill="black"/>
</svg>
