<svg width="120" height="120" viewBox="0 0 120 120" fill="none" xmlns="http://www.w3.org/2000/svg">
<path fill-rule="evenodd" clip-rule="evenodd" d="M71.7859 25.538C73.0203 24.9568 74.3498 24.5405 75.7453 24.318C76.5146 24.1953 77.304 24.1316 78.1085 24.1316C86.2202 24.1316 92.796 30.614 92.796 38.6105C92.796 46.607 86.2202 53.0895 78.1085 53.0895C77.304 53.0895 76.5146 53.0257 75.7453 52.9031C74.3498 52.6806 73.0203 52.2642 71.7859 51.683C72.3755 52.8999 72.7978 54.2106 73.0235 55.5862C73.148 56.3446 73.2126 57.1228 73.2126 57.9158C73.2126 65.9123 66.6368 72.3948 58.5251 72.3948C50.4134 72.3948 43.8375 65.9123 43.8375 57.9158C43.8375 57.1228 43.9022 56.3446 44.0267 55.5862C44.2524 54.2106 44.6747 52.8999 45.2643 51.683C44.0299 52.2642 42.7003 52.6806 41.3049 52.9031C40.5355 53.0257 39.7462 53.0895 38.9417 53.0895C30.83 53.0895 24.2541 46.607 24.2541 38.6105C24.2541 30.614 30.83 24.1316 38.9417 24.1316C39.7462 24.1316 40.5355 24.1953 41.3049 24.318C42.7003 24.5405 44.0299 24.9568 45.2643 25.538C44.6747 24.3212 44.2524 23.0105 44.0267 21.6349C43.9022 20.8765 43.8375 20.0983 43.8375 19.3053C43.8375 11.3088 50.4134 4.82631 58.5251 4.82631C66.6368 4.82631 73.2126 11.3088 73.2126 19.3053C73.2126 20.0983 73.148 20.8765 73.0235 21.6349C72.7978 23.0105 72.3755 24.3212 71.7859 25.538ZM76.3957 20.9938C76.9598 20.941 77.5311 20.914 78.1085 20.914C88.0228 20.914 96.0599 28.837 96.0599 38.6105C96.0599 48.3841 88.0228 56.307 78.1085 56.307C77.5311 56.307 76.9597 56.2801 76.3957 56.2273C76.4492 56.7834 76.4765 57.3467 76.4765 57.9158C76.4765 67.6893 68.4394 75.6123 58.5251 75.6123C48.6108 75.6123 40.5736 67.6893 40.5736 57.9158C40.5736 57.3467 40.601 56.7834 40.6545 56.2273C40.0904 56.2801 39.519 56.307 38.9417 56.307C29.0274 56.307 20.9902 48.384 20.9902 38.6105C20.9902 28.837 29.0274 20.914 38.9417 20.914C39.519 20.914 40.0904 20.941 40.6545 20.9938C40.601 20.4377 40.5736 19.8744 40.5736 19.3053C40.5736 9.53176 48.6108 1.60876 58.5251 1.60876C68.4394 1.60876 76.4765 9.53176 76.4765 19.3053C76.4765 19.8744 76.4492 20.4377 76.3957 20.9938ZM56.8123 36.922C56.8658 37.4781 56.8931 38.0414 56.8931 38.6105C56.8931 39.1797 56.8658 39.743 56.8123 40.299C57.3764 40.2463 57.9477 40.2193 58.5251 40.2193C59.1025 40.2193 59.6738 40.2463 60.2379 40.299C60.1844 39.743 60.157 39.1797 60.157 38.6105C60.157 38.0414 60.1844 37.4781 60.2379 36.922C59.6738 36.9748 59.1025 37.0018 58.5251 37.0018C57.9477 37.0018 57.3764 36.9748 56.8123 36.922ZM53.4401 36.2809C53.5646 37.0393 53.6292 37.8175 53.6292 38.6105C53.6292 39.4036 53.5646 40.1818 53.4401 40.9402C53.2144 42.3158 52.7921 43.6265 52.2025 44.8433C53.4369 44.2621 54.7664 43.8458 56.1619 43.6233C56.9312 43.5006 57.7206 43.4369 58.5251 43.4369C59.3296 43.4369 60.1189 43.5006 60.8883 43.6233C62.2837 43.8458 63.6133 44.2621 64.8477 44.8433C64.2581 43.6265 63.8358 42.3158 63.6101 40.9402C63.4856 40.1818 63.4209 39.4036 63.4209 38.6105C63.4209 37.8175 63.4856 37.0393 63.6101 36.2809C63.8358 34.9053 64.2581 33.5946 64.8477 32.3778C63.6133 32.959 62.2837 33.3753 60.8883 33.5978C60.1189 33.7205 59.3296 33.7842 58.5251 33.7842C57.7206 33.7842 56.9312 33.7205 56.1619 33.5978C54.7664 33.3753 53.4369 32.959 52.2025 32.3778C52.7921 33.5946 53.2144 34.9053 53.4401 36.2809Z" fill="white"/>
<ellipse cx="58.5254" cy="57.9158" rx="14.6876" ry="14.479" fill="#FF5E5E"/>
<ellipse cx="78.1084" cy="38.6105" rx="14.6875" ry="14.479" fill="#FFCF60"/>
<ellipse cx="58.5254" cy="19.3052" rx="14.6876" ry="14.479" fill="#4272EF"/>
<ellipse cx="38.9419" cy="38.6105" rx="14.6875" ry="14.479" fill="black"/>
<path d="M59.3981 72.3948C50.8044 72.3948 43.8379 65.9124 43.8379 57.9158C43.8379 49.9193 50.8044 43.4369 59.3981 43.4369C59.3981 43.4369 79.466 72.3948 59.3981 72.3948Z" fill="#FF5E5E"/>
<ellipse cx="58.5253" cy="38.6106" rx="12.2396" ry="12.0658" fill="white"/>
<path d="M20.353 116.091C20.353 116.501 20.7889 116.931 21.205 116.931H25.5836C25.9996 116.931 26.4355 116.501 26.4355 116.091V107.126C27.6639 108.357 29.2093 108.962 31.0717 108.962C33.5284 108.962 35.5295 108.044 37.0749 106.208C38.6005 104.372 39.3732 101.872 39.3732 98.7277C39.3732 95.5831 38.6005 93.1027 37.0749 91.2667C35.5295 89.4503 33.5284 88.5323 31.0717 88.5323C28.9517 88.5323 27.3073 89.1183 26.1185 90.2902L25.4251 89.2941C25.2071 89.0402 24.8901 88.923 24.4542 88.923H21.205C20.7493 88.923 20.353 89.3527 20.353 89.7628V116.091ZM26.4355 97.8878C26.4355 96.2081 26.7525 95.0363 27.3667 94.3917C27.9809 93.7472 28.8328 93.4152 29.9225 93.4152C30.9726 93.4152 31.7651 93.9034 32.3 94.8995C32.835 95.8956 33.0926 97.1847 33.0926 98.7277C33.0926 100.271 32.835 101.56 32.3 102.575C31.7651 103.591 30.9726 104.099 29.9225 104.099C27.6045 104.079 26.4355 102.614 26.4355 99.6847V97.8878Z" fill="#222222"/>
<path d="M49.6955 108.962C52.5287 108.962 54.3911 108.376 55.2629 107.204L55.996 108.22C56.1545 108.454 56.4715 108.571 56.9271 108.571H60.1764C60.6519 108.571 61.068 108.142 61.068 107.732V97.2042C61.068 94.4894 60.3745 92.3605 59.0075 90.8175C57.6206 89.2941 55.2431 88.5323 51.8551 88.5323C48.586 88.5323 46.0104 89.1573 44.148 90.4073C43.6131 90.7589 43.5734 91.1691 44.0687 91.6183L46.5453 94.0206C46.8623 94.3331 47.2784 94.3917 47.7935 94.1769C49.1012 93.5323 50.4484 93.2198 51.8551 93.2198C53.9156 93.2198 54.9459 94.3722 54.9459 96.6573V97.6144C53.9156 96.6964 52.1919 96.2472 49.7946 96.2472C47.7143 96.2472 45.9708 96.7941 44.5641 97.8683C43.1574 98.9425 42.4441 100.485 42.4441 102.497C42.4441 104.509 43.1376 106.091 44.5443 107.243C45.9509 108.396 47.6548 108.962 49.6955 108.962ZM51.3994 104.489C49.3983 104.489 48.7247 103.923 48.7247 102.653C48.7247 101.325 49.4182 100.778 51.7362 100.778C53.0835 100.778 53.9553 100.896 54.3515 101.15C54.7478 101.403 54.9459 101.892 54.9459 102.575C54.9261 103.845 53.7571 104.489 51.3994 104.489Z" fill="#222222"/>
<path d="M70.8356 108.571C71.2517 108.571 71.6876 108.142 71.6876 107.732V96.7355C71.6876 94.7628 72.7773 93.2589 74.9368 93.2589C77.0964 93.2589 78.1861 94.7628 78.1861 96.7355V107.732C78.1861 108.142 78.6022 108.571 79.0777 108.571H83.4563C83.8723 108.571 84.3082 108.142 84.3082 107.732V96.7355C84.3082 94.3722 83.6346 92.3995 82.3071 90.8566C80.9599 89.3136 79.1569 88.5323 76.9181 88.5323C74.6 88.5323 72.7376 89.1183 71.3706 90.2902L70.6771 89.2941C70.4592 89.0402 70.1422 88.923 69.7063 88.923H66.457C66.0013 88.923 65.6051 89.3527 65.6051 89.7628V107.732C65.6051 108.142 66.041 108.571 66.457 108.571H70.8356Z" fill="#222222"/>
<path d="M97.8997 104.802C97.8997 104.235 97.6025 103.962 97.0081 103.962H96.6119C95.5222 103.982 94.9872 103.239 94.9872 101.735V81.4034C94.9872 80.9933 94.5513 80.5636 94.1353 80.5636H89.7567C89.301 80.5636 88.9047 80.9933 88.9047 81.4034V101.735C88.9047 104.255 89.4991 106.091 90.6681 107.243C91.837 108.396 93.8183 108.962 96.6119 108.962H97.0081C97.5034 108.962 97.8997 108.532 97.8997 108.122V104.802Z" fill="#222222"/>
</svg>
