<svg width="124" height="48" viewBox="0 0 124 48" fill="none" xmlns="http://www.w3.org/2000/svg">
<path d="M24 21L23.2021 21.6035L24 22.6582L24.7979 21.6035L24 21ZM24 21C24.7528 21.5692 24.7954 21.6009 24.7979 21.6025L24.7998 21.6006C24.8007 21.5994 24.8013 21.5976 24.8027 21.5957C24.806 21.5914 24.8113 21.5852 24.8174 21.5771C24.8295 21.561 24.8474 21.5375 24.8701 21.5068C24.9157 21.4454 24.9816 21.3552 25.0654 21.2402C25.2332 21.0102 25.4719 20.678 25.7578 20.2676C26.3288 19.4478 27.092 18.3101 27.8564 17.04C28.6192 15.7728 29.3951 14.3559 29.9824 12.9824C30.5596 11.6327 31 10.2229 31 9C31 5.13401 27.866 2 24 2C20.134 2 17 5.13401 17 9C17 10.2229 17.4404 11.6327 18.0176 12.9824C18.6049 14.3559 19.3808 15.7728 20.1436 17.04C20.908 18.3101 21.6712 19.4478 22.2422 20.2676C22.5281 20.678 22.7668 21.0102 22.9346 21.2402C23.0184 21.3552 23.0843 21.4454 23.1299 21.5068C23.1526 21.5375 23.1705 21.561 23.1826 21.5771C23.1887 21.5852 23.194 21.5914 23.1973 21.5957C23.1987 21.5976 23.1993 21.5994 23.2002 21.6006L23.2021 21.6025L24 21Z" fill="#222222" stroke="white" stroke-width="2"/>
<path d="M27 24L26.3965 23.2021L25.3418 24L26.3965 24.7979L27 24ZM27 24C26.4308 24.7528 26.3991 24.7954 26.3975 24.7979L26.3994 24.7998C26.4006 24.8007 26.4024 24.8013 26.4043 24.8027C26.4086 24.806 26.4148 24.8113 26.4229 24.8174C26.439 24.8295 26.4625 24.8474 26.4932 24.8701C26.5546 24.9157 26.6448 24.9816 26.7598 25.0654C26.9898 25.2332 27.322 25.4719 27.7324 25.7578C28.5522 26.3288 29.6899 27.092 30.96 27.8564C32.2272 28.6192 33.6441 29.3951 35.0176 29.9824C36.3673 30.5596 37.7771 31 39 31C42.866 31 46 27.866 46 24C46 20.134 42.866 17 39 17C37.7771 17 36.3673 17.4404 35.0176 18.0176C33.6441 18.6049 32.2272 19.3808 30.96 20.1436C29.6899 20.908 28.5522 21.6712 27.7324 22.2422C27.322 22.5281 26.9898 22.7668 26.7598 22.9346C26.6448 23.0184 26.5546 23.0842 26.4932 23.1299C26.4625 23.1526 26.439 23.1705 26.4229 23.1826C26.4148 23.1887 26.4086 23.194 26.4043 23.1973C26.4024 23.1987 26.4006 23.1993 26.3994 23.2002L26.3975 23.2021L27 24Z" fill="#4272EF" stroke="white" stroke-width="2"/>
<path d="M24 27L24.7979 26.3965L24 25.3418L23.2022 26.3965L24 27ZM24 27C23.2472 26.4308 23.2046 26.3991 23.2022 26.3975L23.2002 26.3994C23.1993 26.4006 23.1987 26.4024 23.1973 26.4043C23.194 26.4086 23.1887 26.4148 23.1826 26.4229C23.1705 26.439 23.1526 26.4625 23.1299 26.4932C23.0843 26.5546 23.0184 26.6448 22.9346 26.7598C22.7668 26.9898 22.5281 27.322 22.2422 27.7324C21.6712 28.5522 20.908 29.6899 20.1436 30.96C19.3808 32.2272 18.6049 33.6441 18.0176 35.0176C17.4404 36.3673 17 37.7771 17 39C17 42.866 20.134 46 24 46C27.866 46 31 42.866 31 39C31 37.7771 30.5596 36.3673 29.9824 35.0176C29.3951 33.6441 28.6192 32.2272 27.8564 30.96C27.092 29.6899 26.3288 28.5522 25.7578 27.7324C25.4719 27.322 25.2332 26.9898 25.0654 26.7598C24.9816 26.6448 24.9158 26.5546 24.8701 26.4932C24.8474 26.4625 24.8295 26.439 24.8174 26.4229C24.8113 26.4148 24.806 26.4086 24.8027 26.4043C24.8013 26.4024 24.8007 26.4006 24.7998 26.3994L24.7979 26.3975L24 27Z" fill="#FFCF60" stroke="white" stroke-width="2"/>
<path d="M21 24L21.6035 24.7979L22.6582 24L21.6035 23.2022L21 24ZM21 24C21.5692 23.2472 21.6009 23.2046 21.6025 23.2022L21.6006 23.2002C21.5994 23.1993 21.5976 23.1987 21.5957 23.1973C21.5914 23.194 21.5852 23.1887 21.5771 23.1826C21.561 23.1705 21.5375 23.1527 21.5068 23.1299C21.4454 23.0843 21.3552 23.0185 21.2402 22.9346C21.0102 22.7668 20.678 22.5281 20.2676 22.2422C19.4478 21.6712 18.3101 20.908 17.04 20.1436C15.7728 19.3808 14.3559 18.6049 12.9824 18.0176C11.6327 17.4404 10.2229 17 9 17C5.13401 17 2 20.134 2 24C2 27.866 5.13401 31 9 31C10.2229 31 11.6327 30.5596 12.9824 29.9824C14.3559 29.3951 15.7728 28.6192 17.04 27.8564C18.3101 27.092 19.4478 26.3288 20.2676 25.7578C20.678 25.4719 21.0102 25.2332 21.2402 25.0654C21.3552 24.9816 21.4454 24.9158 21.5068 24.8701C21.5375 24.8474 21.561 24.8295 21.5771 24.8174C21.5852 24.8113 21.5914 24.806 21.5957 24.8027C21.5976 24.8013 21.5994 24.8007 21.6006 24.7998L21.6025 24.7979L21 24Z" fill="#FF5E5E" stroke="white" stroke-width="2"/>
<path d="M70.432 35.352C69.5787 35.352 68.6827 35.288 67.744 35.16C66.8267 35.0533 65.952 34.8827 65.12 34.648C64.288 34.4133 63.5413 34.136 62.88 33.816C62.304 33.5387 61.8987 33.176 61.664 32.728C61.4293 32.2587 61.344 31.768 61.408 31.256C61.472 30.744 61.6533 30.296 61.952 29.912C62.2507 29.5067 62.6453 29.24 63.136 29.112C63.6267 28.9627 64.1813 29.0267 64.8 29.304C65.6107 29.688 66.528 29.9867 67.552 30.2C68.576 30.4133 69.536 30.52 70.432 30.52C71.84 30.52 72.8213 30.3387 73.376 29.976C73.952 29.592 74.24 29.1227 74.24 28.568C74.24 28.0773 74.0373 27.6827 73.632 27.384C73.248 27.0853 72.5547 26.8293 71.552 26.616L67.808 25.816C65.76 25.3893 64.2347 24.6427 63.232 23.576C62.2293 22.5093 61.728 21.1333 61.728 19.448C61.728 18.3387 61.952 17.336 62.4 16.44C62.8693 15.5227 63.52 14.744 64.352 14.104C65.2053 13.464 66.208 12.9733 67.36 12.632C68.5333 12.2693 69.8347 12.088 71.264 12.088C72.3733 12.088 73.4933 12.216 74.624 12.472C75.776 12.7067 76.768 13.0693 77.6 13.56C78.0907 13.816 78.4427 14.168 78.656 14.616C78.8693 15.064 78.9547 15.5333 78.912 16.024C78.8693 16.4933 78.6987 16.9093 78.4 17.272C78.1227 17.6347 77.7387 17.88 77.248 18.008C76.7787 18.1147 76.2133 18.0293 75.552 17.752C74.9333 17.4747 74.2293 17.272 73.44 17.144C72.672 16.9947 71.9253 16.92 71.2 16.92C70.4107 16.92 69.7387 17.016 69.184 17.208C68.6293 17.3787 68.2027 17.6347 67.904 17.976C67.6267 18.3173 67.488 18.712 67.488 19.16C67.488 19.608 67.6693 19.992 68.032 20.312C68.416 20.6107 69.1093 20.8667 70.112 21.08L73.824 21.88C75.8933 22.328 77.44 23.064 78.464 24.088C79.488 25.112 80 26.4453 80 28.088C80 29.1973 79.776 30.2 79.328 31.096C78.88 31.992 78.24 32.76 77.408 33.4C76.576 34.0187 75.5733 34.4987 74.4 34.84C73.2267 35.1813 71.904 35.352 70.432 35.352ZM91.0838 35.352C89.1638 35.352 87.4998 35.0213 86.0918 34.36C84.7051 33.6773 83.6384 32.7173 82.8918 31.48C82.1451 30.2427 81.7718 28.7813 81.7718 27.096C81.7718 25.4747 82.1238 24.056 82.8278 22.84C83.5531 21.6027 84.5344 20.6427 85.7718 19.96C87.0304 19.256 88.4598 18.904 90.0598 18.904C91.2331 18.904 92.2998 19.096 93.2598 19.48C94.2198 19.8427 95.0411 20.3867 95.7238 21.112C96.4064 21.816 96.9184 22.6693 97.2598 23.672C97.6224 24.6747 97.8038 25.7947 97.8038 27.032C97.8038 27.4587 97.6864 27.7787 97.4518 27.992C97.2171 28.184 96.8438 28.28 96.3318 28.28H86.5398V25.592H93.6438L93.1318 26.008C93.1318 25.2187 93.0251 24.5787 92.8118 24.088C92.5984 23.5973 92.2784 23.224 91.8518 22.968C91.4464 22.712 90.9344 22.584 90.3158 22.584C89.6544 22.584 89.0784 22.744 88.5878 23.064C88.1184 23.3627 87.7558 23.8107 87.4998 24.408C87.2438 25.0053 87.1158 25.752 87.1158 26.648V26.936C87.1158 28.4507 87.4464 29.5387 88.1078 30.2C88.7904 30.84 89.8358 31.16 91.2438 31.16C91.7131 31.16 92.2464 31.1067 92.8438 31C93.4624 30.872 94.0491 30.7013 94.6038 30.488C95.1584 30.2747 95.6384 30.2427 96.0438 30.392C96.4491 30.52 96.7584 30.7547 96.9718 31.096C97.2064 31.416 97.3344 31.7893 97.3558 32.216C97.3771 32.6213 97.2811 33.0267 97.0678 33.432C96.8544 33.816 96.5024 34.1147 96.0118 34.328C95.2651 34.6693 94.4651 34.9253 93.6118 35.096C92.7798 35.2667 91.9371 35.352 91.0838 35.352ZM106.242 35.352C104.194 35.352 102.679 34.808 101.698 33.72C100.738 32.6107 100.258 30.9467 100.258 28.728V15.032C100.258 14.0933 100.503 13.3787 100.994 12.888C101.484 12.3973 102.178 12.152 103.074 12.152C103.991 12.152 104.695 12.3973 105.186 12.888C105.698 13.3787 105.954 14.0933 105.954 15.032V28.536C105.954 29.3253 106.103 29.9013 106.402 30.264C106.722 30.6267 107.127 30.808 107.618 30.808C107.767 30.808 107.916 30.7973 108.066 30.776C108.236 30.7333 108.418 30.7013 108.61 30.68C108.972 30.68 109.239 30.8187 109.41 31.096C109.602 31.3733 109.698 31.9387 109.698 32.792C109.698 33.5387 109.548 34.104 109.25 34.488C108.951 34.8507 108.492 35.0853 107.874 35.192C107.703 35.2133 107.458 35.2453 107.138 35.288C106.818 35.3307 106.519 35.352 106.242 35.352ZM115.169 35.288C114.251 35.288 113.547 35.0427 113.057 34.552C112.566 34.0613 112.321 33.3467 112.321 32.408V23.448H111.489C110.806 23.448 110.273 23.2667 109.889 22.904C109.526 22.5413 109.345 22.0187 109.345 21.336C109.345 20.6533 109.526 20.1413 109.889 19.8C110.273 19.4373 110.806 19.256 111.489 19.256H113.953L112.321 20.76V19.864C112.321 17.496 112.907 15.7253 114.081 14.552C115.275 13.3573 117.046 12.6427 119.393 12.408L120.321 12.312C121.003 12.2267 121.547 12.312 121.953 12.568C122.358 12.8027 122.635 13.1227 122.785 13.528C122.934 13.912 122.966 14.3173 122.881 14.744C122.817 15.1707 122.657 15.5333 122.401 15.832C122.145 16.1307 121.803 16.3013 121.377 16.344L120.929 16.376C119.841 16.4613 119.083 16.696 118.657 17.08C118.23 17.464 118.017 18.0293 118.017 18.776V19.832L117.312 19.256H119.841C120.545 19.256 121.078 19.4373 121.441 19.8C121.803 20.1413 121.985 20.6533 121.985 21.336C121.985 22.0187 121.803 22.5413 121.441 22.904C121.078 23.2667 120.545 23.448 119.841 23.448H118.017V32.408C118.017 34.328 117.067 35.288 115.169 35.288Z" fill="black"/>
</svg>
