<svg width="48" height="48" viewBox="0 0 48 48" fill="none" xmlns="http://www.w3.org/2000/svg">
<path d="M24 21L23.2023 21.6031L24 22.6582L24.7977 21.6031L24 21ZM24 21C24.7977 21.6031 24.7978 21.6029 24.7979 21.6028L24.7983 21.6023L24.7994 21.6008L24.8032 21.5957L24.8173 21.577L24.8699 21.5065C24.9156 21.445 24.9818 21.3554 25.0658 21.2403C25.2335 21.0103 25.4722 20.6784 25.758 20.268C26.3291 19.4482 27.0921 18.3099 27.8568 17.0396C28.6195 15.7723 29.3947 14.3561 29.982 12.9825C30.5592 11.6327 31 10.223 31 9C31 5.13401 27.866 2 24 2C20.134 2 17 5.13401 17 9C17 10.223 17.4408 11.6327 18.018 12.9825C18.6053 14.3561 19.3805 15.7723 20.1432 17.0396C20.9079 18.3099 21.6709 19.4482 22.242 20.268C22.5278 20.6784 22.7665 21.0103 22.9342 21.2403C23.0182 21.3554 23.0844 21.445 23.1301 21.5065L23.1827 21.577L23.1968 21.5957L23.2006 21.6008L23.2017 21.6023L23.2021 21.6028C23.2022 21.6029 23.2023 21.6031 24 21Z" fill="#222222" stroke="white" stroke-width="2"/>
<path d="M27 24L26.3969 23.2023L25.3418 24L26.3969 24.7977L27 24ZM27 24C26.3969 24.7977 26.3971 24.7978 26.3972 24.7979L26.3977 24.7983L26.3992 24.7994L26.4043 24.8032L26.423 24.8173L26.4935 24.8699C26.555 24.9156 26.6446 24.9818 26.7597 25.0658C26.9897 25.2335 27.3216 25.4722 27.732 25.758C28.5518 26.3291 29.6901 27.0921 30.9604 27.8568C32.2277 28.6195 33.6439 29.3947 35.0175 29.982C36.3673 30.5592 37.777 31 39 31C42.866 31 46 27.866 46 24C46 20.134 42.866 17 39 17C37.777 17 36.3673 17.4408 35.0175 18.018C33.6439 18.6053 32.2277 19.3805 30.9604 20.1432C29.6901 20.9079 28.5518 21.6709 27.732 22.2419C27.3216 22.5278 26.9897 22.7665 26.7597 22.9342C26.6446 23.0182 26.555 23.0844 26.4935 23.1301L26.423 23.1827L26.4043 23.1968L26.3992 23.2006L26.3977 23.2017L26.3972 23.2021C26.3971 23.2022 26.3969 23.2023 27 24Z" fill="#4272EF" stroke="white" stroke-width="2"/>
<path d="M24 27L24.7977 26.3969L24 25.3418L23.2023 26.3969L24 27ZM24 27C23.2023 26.3969 23.2022 26.3971 23.2021 26.3972L23.2017 26.3977L23.2006 26.3992L23.1968 26.4043L23.1827 26.423L23.1301 26.4935C23.0844 26.555 23.0182 26.6446 22.9343 26.7597C22.7665 26.9897 22.5278 27.3215 22.242 27.732C21.6709 28.5518 20.9079 29.6901 20.1432 30.9604C19.3805 32.2277 18.6053 33.6439 18.018 35.0175C17.4408 36.3673 17 37.777 17 39C17 42.866 20.134 46 24 46C27.866 46 31 42.866 31 39C31 37.777 30.5592 36.3673 29.982 35.0175C29.3947 33.6439 28.6195 32.2277 27.8568 30.9604C27.0921 29.6901 26.3291 28.5518 25.7581 27.732C25.4722 27.3215 25.2335 26.9897 25.0658 26.7597C24.9818 26.6446 24.9156 26.555 24.8699 26.4935L24.8173 26.423L24.8032 26.4043L24.7994 26.3992L24.7983 26.3977L24.7979 26.3972C24.7978 26.3971 24.7977 26.3969 24 27Z" fill="#FFCF60" stroke="white" stroke-width="2"/>
<path d="M21 24L21.6031 24.7977L22.6582 24L21.6031 23.2023L21 24ZM21 24C21.6031 23.2023 21.6029 23.2022 21.6028 23.2021L21.6023 23.2017L21.6009 23.2006L21.5957 23.1968L21.577 23.1827L21.5065 23.1301C21.445 23.0844 21.3554 23.0182 21.2403 22.9343C21.0103 22.7665 20.6785 22.5278 20.268 22.242C19.4482 21.6709 18.3099 20.9079 17.0396 20.1432C15.7723 19.3805 14.3561 18.6053 12.9825 18.018C11.6327 17.4408 10.223 17 9 17C5.13401 17 2 20.134 2 24C2 27.866 5.13401 31 9 31C10.223 31 11.6327 30.5592 12.9825 29.982C14.3561 29.3947 15.7723 28.6196 17.0396 27.8568C18.3099 27.0921 19.4482 26.3291 20.268 25.7581C20.6785 25.4722 21.0103 25.2335 21.2403 25.0658C21.3554 24.9818 21.445 24.9156 21.5065 24.8699L21.577 24.8173L21.5957 24.8032L21.6008 24.7994L21.6023 24.7983L21.6028 24.7979C21.6029 24.7978 21.6031 24.7977 21 24Z" fill="#FF5E5E" stroke="white" stroke-width="2"/>
</svg>
