<svg width="49" height="48" viewBox="0 0 49 48" fill="none" xmlns="http://www.w3.org/2000/svg">
<g clip-path="url(#clip0_655_4875)">
<path d="M48.627 24C48.627 10.7452 37.8818 0 24.627 0C11.3721 0 0.626953 10.7452 0.626953 24C0.626953 37.2548 11.3721 48 24.627 48C37.8818 48 48.627 37.2548 48.627 24Z" fill="white"/>
<path d="M21.6466 13.667L15.941 3.78955C14.3206 4.48585 12.8136 5.38655 11.4229 6.43364L15.6137 13.667" fill="#FFD400"/>
<path d="M21.9763 16.6223H19.7344L24.6127 25.5054L29.4897 16.6223H27.2109V2.16484C26.3611 2.06594 25.5021 2 24.6259 2C23.7273 2 22.8458 2.07121 21.9763 2.17539" fill="#FFD400"/>
<path d="M33.5909 13.6669L37.7751 6.39272C36.3817 5.35091 34.8735 4.45152 33.2517 3.7605L27.5342 13.6669" fill="#FFD400"/>
<path d="M22.0312 37.9253L22.0444 45.8351C22.8929 45.9354 23.7519 46 24.6268 46C25.5267 46 26.4082 45.9301 27.2791 45.8246L27.2659 37.9253" fill="#FFD400"/>
<path d="M46.627 24.0007C46.627 23.1013 46.557 22.2204 46.4515 21.35L34.3909 21.3684L44.839 15.3141C44.141 13.6947 43.241 12.1886 42.1933 10.7974L37.1567 13.7144V16.1291L35.2117 16.6223L28.1191 28.3947V35.0834L31.7373 35.5305V37.9253H29.6696L33.3128 44.2118C34.9319 43.5155 36.4388 42.6148 37.8296 41.5677L31.7875 31.1404L42.2342 37.1499C43.278 35.7547 44.1753 34.2473 44.868 32.6253L34.3988 26.6025L46.462 26.5841C46.561 25.7348 46.627 24.8763 46.627 24.0007Z" fill="#FFD400"/>
<path d="M17.4876 37.9253V35.5305L21.1058 35.0834V28.3947L14.0132 16.6223L12.0682 16.1291V13.7566L7.0197 10.8514C5.97594 12.2454 5.07734 13.754 4.3859 15.3761L14.8551 21.3988L2.7919 21.4172C2.69293 22.2652 2.62695 23.125 2.62695 24.0007C2.62695 24.8987 2.69689 25.781 2.80245 26.6514L14.863 26.6329L4.41493 32.6859C5.11164 34.3067 6.01289 35.8127 7.0606 37.204L17.4876 31.1628L11.4784 41.6086C12.8718 42.6504 14.3801 43.5498 16.0018 44.2408L19.6358 37.9253" fill="#FFD400"/>
</g>
<defs>
<clipPath id="clip0_655_4875">
<rect width="48" height="48" fill="white" transform="translate(0.626953)"/>
</clipPath>
</defs>
</svg>
