<?xml version="1.0" encoding="UTF-8"?>
<svg width="156px" height="48px" viewBox="0 0 156 48" version="1.1" xmlns="http://www.w3.org/2000/svg" xmlns:xlink="http://www.w3.org/1999/xlink">
    <title>icon_with_text</title>
    <g id="Page-1" stroke="none" stroke-width="1" fill="none" fill-rule="evenodd">
        <g id="Artboard" transform="translate(-418.000000, -466.000000)">
            <g id="icon_with_text" transform="translate(418.000000, 466.000000)">
                <rect id="Rectangle" fill="#FFFFFF" x="0" y="0" width="156" height="48"></rect>
                <g id="Group" transform="translate(2.000000, 2.000000)" fill="#FFD400" fill-rule="nonzero">
                    <path d="M19.0198233,11.6669566 L13.3141402,1.78953994 C11.6937474,2.48583845 10.1868346,3.38654287 8.79604157,4.43362797 L12.9868948,11.6669566" id="Path"></path>
                    <path d="M19.3497076,14.6222689 L17.1078122,14.6222689 L21.9861451,23.50535 L26.8631581,14.6222689 L24.5843156,14.6222689 L24.5843156,0.164843399 C23.734533,0.0659372751 22.8755136,0 21.9993403,0 C21.1007349,0 20.2192834,0.0712122639 19.3497076,0.175393376" id="Path"></path>
                    <path d="M30.9642827,11.6669566 L35.148538,4.39274706 C33.7551057,3.35093661 32.2468738,2.4515512 30.6251612,1.76052767 L24.9076024,11.6669566" id="Path"></path>
                    <path d="M19.4038086,35.9253109 L19.4170042,43.8351567 C20.2654673,43.9353815 21.1244864,44 21.9993403,44 C22.8992655,44 23.780717,43.9301065 24.6516122,43.8246067 L24.6384166,35.9253109" id="Path"></path>
                    <path d="M44,22.0006595 C44,21.1012738 43.9300646,20.2203507 43.8245015,19.3499775 L31.7639227,19.3684402 L42.212026,13.3140717 C41.5139901,11.6946502 40.6140652,10.1886407 39.5663518,8.79736267 L34.5296747,11.7144315 L34.5296747,14.1290573 L32.5846756,14.6222689 L25.4921579,26.3947252 L25.4921579,33.0834109 L29.1103314,33.530466 L29.1103314,35.9253109 L27.0426153,35.9253109 L30.6858601,42.2117788 C32.3049335,41.5154803 33.8118459,40.6147759 35.2026393,39.5676908 L29.160474,29.1403567 L39.6072575,35.1498875 C40.6510123,33.7546532 41.5482983,32.247325 42.2410557,30.6252662 L31.7718401,24.6025477 L43.8350578,24.584085 C43.9340233,23.7348118 44,22.8763077 44,22.0006595" id="Path"></path>
                    <path d="M14.860639,35.9253109 L14.860639,33.530466 L18.4788125,33.0834109 L18.4788125,26.3947252 L11.3862947,14.6222689 L9.44129565,14.1290573 L9.44129565,11.7566314 L4.39274246,8.85143122 C3.34898803,10.2453469 2.45038229,11.7539937 1.75894429,13.3760529 L12.2281603,19.3987711 L0.164942186,19.4172337 C0.0659770771,20.2651882 0,21.1250114 0,22.0006595 C0,22.8987263 0.0699354383,23.7809681 0.175498491,24.6513412 L12.2360773,24.6328789 L1.7879743,30.6859284 C2.48469045,32.3066686 3.3859351,33.812678 4.43364823,35.2039564 L14.860639,29.1627753 L8.85146201,39.608572 C10.2448943,40.6503821 11.7531265,41.5497679 13.3748388,42.2407914 L17.0088471,35.9253109" id="Path"></path>
                </g>
                <g id="text" transform="translate(58.000000, 7.000000)" fill="#000F47" fill-rule="nonzero">
                    <polyline id="Path" points="6.41795046 32 6.41795046 29.3889253 10.7057732 28.8565946 10.7057732 20.6061042 2.30304421 6.14466979 0 5.55417483 0 3 11.7244755 3 11.7244755 5.55417483 9.08061081 6.14466979 14.0475683 15.9757141 14.859523 18.4527577 15.8794783 16.0718118 20.560748 6.14466979 17.4457491 5.55417483 17.4457491 3 27 3 27 5.55417483 24.2997493 6.14466979 17.067338 20.568171 17.067338 28.8565946 21.5619083 29.3889253 21.5619083 32"></polyline>
                    <path d="M34.5526379,29.4513543 C35.1842929,29.4513543 35.7301252,29.3005685 36.190135,28.998997 C36.6490002,28.6961999 37.0311974,28.2230024 37.336726,27.5757272 C37.6411106,26.9296779 37.865394,26.1009695 38.0095759,25.0920541 C38.152614,24.0819126 38.2247048,22.8744009 38.2247048,21.4707456 C38.2247048,20.0303131 38.1583354,18.7529255 38.0267405,17.6373564 C37.8951457,16.5242393 37.6811613,15.5913295 37.3882199,14.8398529 C37.0952784,14.0883763 36.7107927,13.5183326 36.2324741,13.1309483 C35.7564442,12.7435639 35.1728501,12.548646 34.4839798,12.548646 C33.8500363,12.548646 33.3019153,12.6994315 32.8361841,13.001003 C32.3704528,13.3038004 31.9825345,13.7782234 31.6724284,14.423047 C31.3611781,15.0703221 31.1311734,15.8990305 30.9824139,16.9079462 C30.8336547,17.9180877 30.7592748,19.1243733 30.7592748,20.5292544 C30.7592748,21.9696869 30.827933,23.2470745 30.9652493,24.3614178 C31.1037101,25.4769865 31.3245604,26.4098963 31.6289448,27.1601471 C31.9333294,27.911624 32.3246807,28.4816674 32.8018551,28.8690517 C33.2790292,29.2576619 33.8626234,29.4513543 34.5526379,29.4513543 M25,21.1201384 C25,19.2481891 25.2700554,17.6165162 25.8101662,16.2251197 C26.350277,14.8324974 27.0688991,13.6752478 27.9660323,12.7521453 C28.8620213,11.8290427 29.8987593,11.138861 31.0785353,10.6828262 C32.2548783,10.2280172 33.4838595,10 34.7586124,10 C36.2530717,10 37.574741,10.2488578 38.7247653,10.7477988 C39.8736451,11.2467402 40.8394364,11.9638915 41.6209949,12.9004791 C42.4036978,13.8358408 42.9953025,14.9759279 43.398097,16.3170623 C43.799747,17.6594228 44,19.1807645 44,20.879862 C44,22.8008469 43.7310888,24.4643934 43.190978,25.8680487 C42.649723,27.271704 41.9322452,28.4252758 41.0351119,29.3312159 C40.1391232,30.2371561 39.1035292,30.9077234 37.9317634,31.3441438 C36.7588533,31.78179 35.5355939,32 34.2585522,32 C32.7652374,32 31.4424237,31.7511425 30.2935439,31.2522012 C29.1435196,30.7532598 28.1754397,30.0361085 27.3870153,29.0995209 C26.5997352,28.1641592 26.0046978,27.0252982 25.6030475,25.6829377 C25.2013973,24.3405772 25,22.8192355 25,21.1201384" id="Shape"></path>
                    <path d="M57.7174998,28.5806478 C58.4824998,28.5806478 59.1637498,28.4359925 59.7612499,28.1479288 C60.3562499,27.8598652 60.8124998,27.5343908 61.1262499,27.1715054 L61.1262499,13.002767 C60.9137498,12.7770549 60.5612499,12.5775303 60.0724998,12.401699 C59.5812499,12.2258681 58.9974998,12.1385762 58.32,12.1385762 C57.6412499,12.1385762 57.0012499,12.2832316 56.3987498,12.570048 C55.7962499,12.8593586 55.2687498,13.3344764 54.8162499,13.9991429 C54.3637498,14.663809 54.0024998,15.5429641 53.7337498,16.6391023 C53.4624998,17.7352405 53.3162499,19.0845252 53.2912499,20.6882041 C53.2662499,22.0911112 53.3524998,23.2907525 53.5537498,24.2871284 C53.755,25.2822573 54.0474998,26.1003081 54.43,26.7387867 C54.8124998,27.3785123 55.285,27.8449008 55.8437498,28.1391996 C56.4024998,28.4334983 57.0262499,28.5806478 57.7174998,28.5806478 M55.325,31.9812948 C54.1574998,31.9812948 53.0687498,31.771794 52.0574998,31.3515451 C51.0462499,30.9325435 50.1637498,30.2840887 49.41,29.4074278 C48.6574998,28.5307667 48.0662499,27.4246523 47.6412499,26.0903319 C47.2137498,24.7572581 47,23.181014 47,21.3653404 C47,19.6481821 47.2537498,18.073185 47.7624998,16.6391023 C48.2712499,15.2050192 49.0062499,13.9679669 49.9662499,12.9279452 C50.9274998,11.8879233 52.0974998,11.0761079 53.4787498,10.4949924 C54.8612499,9.91138306 56.4237498,9.62082548 58.1687498,9.62082548 C58.6974998,9.62082548 59.2074998,9.64576605 59.705,9.69564719 C60.2,9.74677529 60.6737498,9.821597 61.1262499,9.92135929 L61.1262499,3.53283185 L57.68,2.95046975 L57.68,0.808074512 L65.6474998,0 L65.7412499,0 L66.91,0.882896226 L66.91,28.9560033 L69,28.9560033 L69,31.3241107 C68.3724998,31.4625309 67.6562499,31.6084332 66.8524998,31.7655586 C66.0487498,31.9214374 65.17,32 64.2162499,32 C63.4487498,32 62.8524998,31.8316514 62.4262499,31.4924596 C61.9987498,31.1545148 61.7862499,30.5409767 61.7862499,29.6518454 L61.7862499,28.9185926 C61.4724998,29.3201357 61.0987498,29.7042205 60.665,30.0745879 C60.2312499,30.4437083 59.7412499,30.769183 59.1962499,31.0510113 C58.6487498,31.33284 58.0537498,31.558552 57.4062499,31.7281479 C56.76,31.8964969 56.0662499,31.9812948 55.325,31.9812948" id="Shape"></path>
                    <path d="M80.4267831,28.4261214 C80.6398958,28.4261214 80.8824441,28.395397 81.1532502,28.333948 C81.4252339,28.2724988 81.7089916,28.185241 82.0057011,28.0746328 C82.3012332,27.9627954 82.5908779,27.8312943 82.874636,27.6764428 C83.1583937,27.521591 83.4068291,27.3458468 83.6199417,27.1479805 L83.6199417,21.0190494 C82.4719587,21.0190494 81.5111854,21.1296576 80.7364442,21.3521032 C79.9628801,21.5745491 79.3447356,21.8707336 78.8831876,22.240657 C78.4216396,22.6118096 78.0931398,23.0370371 77.8988658,23.5187979 C77.7034145,24.0005587 77.6056887,24.5130439 77.6056887,25.056254 C77.6056887,26.1549634 77.8447047,26.9906709 78.3239138,27.5646054 C78.8031231,28.1385399 79.5036871,28.4261214 80.4267831,28.4261214 M72,25.9448078 C72,25.0316743 72.1554192,24.2217754 72.4697897,23.5187979 C72.7829831,22.8145915 73.2139181,22.1976426 73.7637726,21.6667225 C74.3148043,21.1358024 74.9623846,20.6859953 75.7076903,20.3148427 C76.4529961,19.9449193 77.2559956,19.638903 78.1190431,19.3980226 C78.9832681,19.1571422 79.8828157,18.9813977 80.8165087,18.8707895 C81.7513787,18.7589521 82.6850714,18.6913581 83.6199417,18.6667784 L83.6199417,17.7782246 C83.6199417,16.3710407 83.3444257,15.3681917 82.7945715,14.7684487 C82.2447171,14.1699346 81.3428145,13.8700631 80.0900413,13.8700631 C79.4507034,13.8700631 78.8090101,13.9229093 78.1649625,14.0273727 C77.5197373,14.1330653 76.9027701,14.2621083 76.3105285,14.4157309 C75.718287,14.5705827 75.1719649,14.7438691 74.6692072,14.9355902 C74.1664498,15.1273113 73.7378695,15.3092006 73.3834663,15.481258 L73.3658053,15.481258 L72.3179028,12.9999441 C72.5675155,12.7897884 72.9866764,12.5157255 73.5777406,12.1765265 C74.1688045,11.8360987 74.8787878,11.5067316 75.7076903,11.1847383 C76.5354155,10.8639742 77.4514469,10.5862242 78.4581396,10.3514889 C79.4624774,10.1179822 80.4974282,10 81.5618144,10 C82.874636,10 83.9896509,10.1487067 84.9056826,10.4448915 C85.8217139,10.741076 86.5681973,11.1970283 87.1416001,11.8152058 C87.7161803,12.4321547 88.1353412,13.2125581 88.4014376,14.1576449 C88.6675343,15.1015028 88.8005825,16.2161892 88.8005825,17.5004749 L88.8005825,29.0565892 L91,29.0565892 L91,31.3338921 C90.7762904,31.3830514 90.4972423,31.4481873 90.1663878,31.5280711 C89.8355333,31.6079551 89.4681788,31.681694 89.0678565,31.750517 C88.6651793,31.8181107 88.2330667,31.8771018 87.7715187,31.9262611 C87.3099707,31.9754204 86.8366487,32 86.3515523,32 C85.9253267,32 85.5626819,31.9815655 85.2612628,31.9446959 C84.9598437,31.9078266 84.7161183,31.8217977 84.5336184,31.6853807 C84.3499411,31.5501929 84.2168929,31.3560136 84.1356508,31.1016147 C84.0520543,30.8484443 84.0096673,30.5067876 84.0096673,30.074186 L84.0096673,29.0000559 C83.809506,29.2839508 83.5304579,29.5985701 83.1772324,29.9451427 C82.8216519,30.2904868 82.3918943,30.6173957 81.8903142,30.9258702 C81.3875565,31.2355736 80.8165087,31.4912018 80.1783478,31.6952126 C79.5401872,31.8979948 78.8349135,32 78.0672367,32 C77.2265599,32 76.4400444,31.8820178 75.7076903,31.6485114 C74.9741586,31.4137758 74.3324657,31.0499973 73.7826112,30.5559468 C73.2327568,30.0618961 72.7971122,29.4326575 72.4780317,28.6670018 C72.1589513,27.9013465 72,26.9943579 72,25.9448078" id="Shape"></path>
                </g>
            </g>
        </g>
    </g>
</svg>