<svg width="128" height="48" viewBox="0 0 128 48" fill="none" xmlns="http://www.w3.org/2000/svg">
<circle cx="24" cy="24" r="24" fill="white"/>
<path fill-rule="evenodd" clip-rule="evenodd" d="M41.1895 20.3589C44.1006 25.1231 42.8231 35.5253 38.0923 40.8947C35.494 43.0644 32.3871 44.6461 28.9765 45.4349H28.9753C29.265 45.3679 29.5525 45.2952 29.8377 45.2168C21.9684 46.0581 18.8955 39.4648 21.1247 34.5451C21.7729 33.1148 22.6745 32.1919 23.6725 31.4857L23.7172 31.4542L23.8021 31.3956L23.8447 31.3666L23.9302 31.3093L23.9946 31.267L24.0592 31.2252L24.1553 31.1641L24.2518 31.104L24.3002 31.0744L24.3973 31.0157L24.4947 30.9579L24.5924 30.9009L24.6414 30.8727L24.7396 30.8168L24.7888 30.7892L24.8873 30.7343L24.986 30.68L25.1345 30.5997L25.2336 30.5467L25.3824 30.468L25.5335 30.3889L25.7807 30.2607L26.1507 30.0696L26.3497 29.9661L26.4818 29.8967L26.6135 29.8268L26.7446 29.7563L26.8041 29.724L26.9226 29.6589L26.9817 29.626L27.0993 29.5598L27.1471 29.5325L27.2424 29.4774L27.3371 29.4216C27.3529 29.4123 27.3686 29.4029 27.3843 29.3935L27.4783 29.3366L27.5717 29.2789C27.5873 29.2692 27.6028 29.2595 27.6182 29.2497L27.7108 29.1907C29.048 28.3283 30.1858 27.1675 30.729 24.9769C33.0673 26.5317 40.2511 25.0093 41.1895 20.3589Z" fill="#FFCF60"/>
<path fill-rule="evenodd" clip-rule="evenodd" d="M46 24.0001C46 30.7887 42.9252 36.8592 38.0923 40.8948C42.8231 35.5254 44.1006 25.1233 41.1896 20.359C40.1819 25.3525 31.9734 26.7394 30.2948 24.5827C29.6719 23.7104 28.7432 23.0039 27.7373 22.3898L27.6137 22.315C27.5518 22.2779 27.4896 22.2411 27.4272 22.2046L27.3021 22.132L27.1766 22.0603L27.0507 21.9894L26.9246 21.9192L26.7983 21.8497L26.672 21.781L26.5457 21.7129L26.4194 21.6454L26.2358 21.5481L26.0529 21.4521L25.7805 21.31L25.3342 21.078L25.1593 20.9866L24.933 20.8672L24.773 20.7819L24.6158 20.697L24.5127 20.6405L24.4111 20.5842L24.3109 20.5279L24.2123 20.4718L24.1154 20.4157L24.0202 20.3596C23.9887 20.3409 23.9576 20.3222 23.9267 20.3035L23.8352 20.2473C23.7748 20.2099 23.7157 20.1725 23.658 20.1349L23.5724 20.0786C23.1783 19.8155 22.8546 19.5486 22.6348 19.2672L21.0264 17.1409C22.1497 16.2984 22.1893 15.3725 21.8619 14.453L21.837 14.3849C21.8327 14.3736 21.8284 14.3623 21.8241 14.3509L21.7973 14.2829C21.7881 14.2602 21.7788 14.2375 21.7693 14.2149L21.7402 14.1469L21.71 14.079L21.6789 14.0112L21.6468 13.9435L21.6139 13.8758L21.5802 13.8083L21.527 13.7046L21.4724 13.6013L21.4277 13.5188L21.4051 13.4776L21.3595 13.3955L21.3134 13.3135L21.2435 13.1911L21.006 12.781L20.9183 12.6284L20.854 12.5149L20.812 12.4396L20.7709 12.3647L20.7308 12.2902L20.6918 12.2161L20.6539 12.1424L20.6173 12.0692L20.5887 12.0102L20.561 11.9515L20.5344 11.8931L20.5088 11.835L20.4844 11.7772C20.4804 11.7676 20.4765 11.758 20.4727 11.7484L20.4501 11.6911C20.1314 10.8628 20.2159 10.1404 21.4774 9.62093C22.4093 9.23719 23.4973 9.10181 24.6519 9.08324L24.7273 9.0822L24.8695 9.0811L25.0124 9.08109L25.084 9.08147L25.1558 9.08211L25.2998 9.08412L25.4442 9.08705L25.5891 9.09085L25.7345 9.09547L25.8073 9.09808L25.9532 9.10383L26.0995 9.11026L26.2461 9.11732L26.3195 9.12108L26.54 9.13313L26.7609 9.14624L26.9821 9.16022L27.3512 9.18496L28.0886 9.23684L28.3824 9.25729L28.7453 9.28147L28.955 9.2946L29.1639 9.30687L29.3718 9.31812L29.5098 9.32497L29.6473 9.33125L29.7843 9.3369L29.9207 9.34189L30.0903 9.3471L30.2589 9.35111L30.3596 9.35289L30.4599 9.35418L30.5929 9.35511L30.712 9.35512L30.8304 9.35433C30.8501 9.35413 30.8698 9.35389 30.8894 9.35362L31.0068 9.35155L31.1235 9.34858L31.2395 9.34469C31.2588 9.34396 31.2781 9.34319 31.2973 9.34238L31.4121 9.33702C32.6713 9.27257 33.7877 9.02353 34.6199 8.38177C36.4488 6.97131 35.8491 5.72524 34.8398 4.85156L34.8415 4.85249C41.5046 8.63332 46 15.7917 46 24.0001Z" fill="#4272EF"/>
<path fill-rule="evenodd" clip-rule="evenodd" d="M30.9572 23.7327C30.5285 27.1379 28.9371 28.5146 27.0995 29.5598L26.9819 29.6261C26.9622 29.6371 26.9426 29.648 26.9229 29.659L26.8043 29.7241C26.7845 29.7349 26.7647 29.7456 26.7449 29.7564L26.6137 29.8269L26.4821 29.8967L26.3499 29.9662L26.151 30.0697L25.7809 30.2608L25.5337 30.389L25.3827 30.468L25.2338 30.5468L25.1347 30.5998L24.9863 30.6801L24.8875 30.7344L24.789 30.7892L24.7398 30.8169L24.6416 30.8728L24.5927 30.901L24.4949 30.958L24.3975 31.0158L24.3004 31.0744L24.252 31.1041L24.1555 31.1642L24.0594 31.2253C24.0163 31.253 23.9733 31.2811 23.9304 31.3094L23.8449 31.3667C23.8307 31.3763 23.8165 31.3859 23.8023 31.3956L23.7175 31.4543C22.7016 32.1645 21.7828 33.0935 21.1249 34.5452C18.8957 39.4649 21.9686 46.0582 29.8379 45.2169C27.9792 45.7275 26.0216 46.0001 24.0002 46.0001C13.9757 46.0001 5.51717 39.2954 2.86426 30.1257C4.47962 32.7193 9.03361 35.4239 12.2914 30.9757C14.1168 28.4833 13.6172 26.1351 12.8032 24.039L12.7509 23.9055L12.6978 23.7728C12.6889 23.7507 12.68 23.7287 12.671 23.7067L12.6441 23.6407L12.5686 23.4585L12.4926 23.2776L12.4314 23.1339L12.3702 22.9911L12.1237 22.4191L12.0396 22.2221L11.9777 22.0756L11.9172 21.9302L11.8777 21.8339L11.8389 21.7381L11.8009 21.6428L11.7637 21.548L11.7275 21.4537L11.7097 21.4068L11.6664 21.29L11.6247 21.174L11.6085 21.1278L11.577 21.0358L11.5467 20.9444L11.5178 20.8535C11.5046 20.8113 11.4918 20.7693 11.4795 20.7275L11.4556 20.6441C11.4362 20.5747 11.4181 20.5059 11.4014 20.4376L11.3821 20.3558C11.1965 19.5404 11.2266 18.7964 11.6833 18.135C12.3237 17.2075 13.0916 16.9963 13.9528 17.0795L14.0144 17.0859L14.0764 17.0933C14.0868 17.0946 14.0971 17.096 14.1075 17.0974L14.17 17.1062C14.1804 17.1077 14.1908 17.1093 14.2013 17.1109L14.2642 17.121L14.3274 17.1319L14.3591 17.1377L14.4438 17.154L14.4863 17.1626L14.5718 17.1808L14.6147 17.1903L14.7009 17.2102L14.7876 17.2312L14.8748 17.2531L14.9624 17.2759L15.0506 17.2996L15.1392 17.324L15.2731 17.3618L15.4531 17.414L15.83 17.5256L16.0231 17.5827L16.1603 17.6226L16.2984 17.662L16.3909 17.6879L16.5303 17.7259L16.6237 17.7505L16.7175 17.7746L16.8115 17.798L16.906 17.8206L16.9533 17.8316L17.0482 17.853L17.1256 17.8696L17.2031 17.8856L17.2809 17.9009L17.3589 17.9154L17.4371 17.9292L17.5154 17.9421L17.594 17.9542C17.6071 17.9561 17.6202 17.958 17.6333 17.9598L17.7122 17.9705L17.7912 17.9802C17.8044 17.9818 17.8176 17.9833 17.8308 17.9847L17.9101 17.9929C17.9233 17.9942 17.9365 17.9954 17.9498 17.9966L18.0293 18.0032C18.9718 18.0743 19.9501 17.9084 20.9396 17.2044C22.1865 16.3174 22.1997 15.3344 21.8285 14.362L21.8014 14.2926C21.7829 14.2463 21.7635 14.2 21.7434 14.1538L21.7127 14.0845L21.681 14.0153C21.6757 14.0038 21.6703 13.9923 21.6648 13.9808L21.6317 13.9117L21.5977 13.8427L21.5663 13.7803C26.5497 14.7393 31.7053 17.7895 30.9572 23.7327Z" fill="#FF5E5E"/>
<path fill-rule="evenodd" clip-rule="evenodd" d="M24 2C27.9412 2 31.6404 3.03638 34.8399 4.85147C35.8491 5.72515 36.4488 6.97122 34.6199 8.38168C33.6112 9.15957 32.1849 9.36047 30.5929 9.35502L30.4599 9.35409C30.3932 9.3534 30.3262 9.35237 30.2589 9.35102L30.1241 9.34791C30.1016 9.34733 30.079 9.34671 30.0565 9.34606L29.9207 9.3418L29.7843 9.33681L29.6473 9.33115L29.5098 9.32488L29.3718 9.31803L29.1639 9.30678L28.955 9.29451L28.7453 9.28137C28.722 9.27987 28.6986 9.27836 28.6752 9.27683L28.3824 9.2572L28.0886 9.23675L27.3512 9.18487L26.9822 9.16012L26.7609 9.14614L26.54 9.13304L26.3195 9.12098C26.295 9.11971 26.2705 9.11846 26.2461 9.11723L26.0995 9.11017L25.9533 9.10373L25.8073 9.09798C25.783 9.09709 25.7588 9.09622 25.7345 9.09538L25.5892 9.09076C25.4924 9.08795 25.3959 9.08568 25.2998 9.08403L25.1558 9.08202C25.1079 9.08151 25.0601 9.08117 25.0124 9.081L24.8696 9.08101L24.7273 9.08211C23.5447 9.09595 22.4296 9.22876 21.4774 9.62084C20.0274 10.2179 20.1325 11.0831 20.6173 12.0691L20.6539 12.1424L20.6918 12.216L20.7308 12.2901L20.771 12.3646L20.8121 12.4395L20.854 12.5148L20.9183 12.6283L21.006 12.7809L21.2436 13.191L21.3134 13.3134L21.3595 13.3954L21.4052 13.4775C21.4127 13.4913 21.4202 13.505 21.4277 13.5187L21.4724 13.6012L21.5162 13.6838C21.5235 13.6976 21.5307 13.7114 21.5378 13.7252L21.5803 13.8082C22.1598 14.9564 22.4238 16.1484 20.9395 17.2043C19.6014 18.1562 18.2841 18.1244 17.048 17.8529L16.9531 17.8316C16.9373 17.8279 16.9216 17.8243 16.9058 17.8206L16.8114 17.7979L16.7173 17.7745L16.6235 17.7505L16.5301 17.7258L16.3907 17.6878L16.2982 17.662L16.1602 17.6225L16.023 17.5826L15.8299 17.5256L15.4529 17.4139L15.2729 17.3617L15.139 17.3239L15.0504 17.2995L14.9622 17.2759L14.8746 17.253L14.7874 17.2311L14.7007 17.2101L14.6145 17.1902C14.6002 17.187 14.5858 17.1838 14.5716 17.1807L14.4861 17.1625C14.4719 17.1596 14.4578 17.1567 14.4436 17.1539L14.359 17.1376C13.3322 16.948 12.4226 17.0639 11.6831 18.1349C11.1351 18.9286 11.2013 19.8413 11.5176 20.8534L11.5466 20.9443L11.5768 21.0358L11.6083 21.1277C11.6136 21.1431 11.619 21.1585 11.6245 21.1739L11.6577 21.2666C11.6633 21.2821 11.669 21.2977 11.6747 21.3132L11.7095 21.4067C11.7154 21.4224 11.7213 21.438 11.7273 21.4537L11.7635 21.548L11.8007 21.6428L11.8387 21.7381L11.8775 21.8339L11.917 21.9302L11.9775 22.0756L12.0394 22.222L12.1235 22.4191L12.37 22.991L12.4312 23.1338L12.4924 23.2775L12.5533 23.4221C12.5634 23.4463 12.5735 23.4705 12.5836 23.4947L12.6439 23.6407C13.5437 25.8359 14.2331 28.3241 12.2912 30.9756C9.033 35.4245 4.47824 32.7185 2.8641 30.1244C2.3014 28.1804 2 26.1254 2 24C2 11.8497 11.8497 2 24 2Z" fill="#222222"/>
<path d="M78.0156 13.2656C78.0156 12.9375 77.6719 12.5938 77.3438 12.5938H64.6719C64.3438 12.5938 64 12.9375 64 13.2656V34.3281C64 34.6562 64.3438 35 64.6719 35H77.3125C77.6719 35 78.0156 34.5938 78.0156 34.2656V31.6406C78.0156 31.3125 77.6719 30.9688 77.3438 30.9688H69V25.6875H75.6875C76.0156 25.6875 76.3906 25.3594 76.3906 24.9844V22.5469C76.3906 22.2188 76.0156 21.875 75.6875 21.875H69V16.625H77.3438C77.7031 16.625 78.0156 16.2812 78.0156 15.9531V13.2656Z" fill="white"/>
<path d="M93.7969 19.2812C93.4062 19.2812 93.1406 19.4688 92.9688 19.8281L88.875 31.3125L84.7656 19.8281C84.6406 19.4688 84.3906 19.2812 84 19.2812H80.3281C79.8125 19.2812 79.5781 19.5781 79.7812 20.0625L84.9062 34.4531C85.0781 34.8125 85.3281 35 85.6719 35H87.5625L87.2344 35.9219C87.1094 36.3281 86.9688 36.6562 86.8281 36.8906C86.5156 37.3594 85.7344 37.875 84.5469 37.875H84.1719C83.8125 37.875 83.4531 38.25 83.4531 38.5781V41.0469C83.4531 41.375 83.8438 41.7188 84.1719 41.7188H84.5469C86.8125 41.7188 88.4219 41.4375 89.3906 40.8594C90.3438 40.2812 91.0938 39.2656 91.625 37.8125L98.0156 20.0625C98.2031 19.625 97.9688 19.2812 97.4844 19.2812H93.7969Z" fill="white"/>
<path d="M104.656 35C104.984 35 105.328 34.6562 105.328 34.3281V25.375C105.328 23.9531 106.016 23.0938 107.031 23.0938C107.5 23.0938 108.016 23.3125 108.594 23.7344C108.844 23.9531 109.109 23.9219 109.391 23.6406L111.672 21.375C111.922 21.1094 111.891 20.625 111.594 20.375C110.391 19.4375 109.25 18.9688 108.141 18.9688C107.438 18.9688 106.812 19.1094 106.266 19.4062C105.719 19.7031 105.312 20.0312 105.078 20.375L104.531 19.5781C104.359 19.375 104.109 19.2812 103.766 19.2812H101.203C100.844 19.2812 100.531 19.625 100.531 19.9531V34.3281C100.531 34.6562 100.875 35 101.203 35H104.656Z" fill="white"/>
<path d="M118.578 35.3125C120.812 35.3125 122.281 34.8438 122.969 33.9062L123.547 34.7188C123.672 34.9062 123.922 35 124.281 35H126.844C127.219 35 127.547 34.6562 127.547 34.3281V25.9062C127.547 23.7344 127 22.0312 125.922 20.7969C124.828 19.5781 122.953 18.9688 120.281 18.9688C117.703 18.9688 115.672 19.4688 114.203 20.4688C113.781 20.75 113.75 21.0781 114.141 21.4375L116.094 23.3594C116.344 23.6094 116.672 23.6562 117.078 23.4844C118.109 22.9688 119.172 22.7188 120.281 22.7188C121.906 22.7188 122.719 23.6406 122.719 25.4688V26.2344C121.906 25.5 120.547 25.1406 118.656 25.1406C117.016 25.1406 115.641 25.5781 114.531 26.4375C113.422 27.2969 112.859 28.5312 112.859 30.1406C112.859 31.75 113.406 33.0156 114.516 33.9375C115.625 34.8594 116.969 35.3125 118.578 35.3125ZM119.922 31.7344C118.344 31.7344 117.812 31.2812 117.812 30.2656C117.812 29.2031 118.359 28.7656 120.188 28.7656C121.25 28.7656 121.938 28.8594 122.25 29.0625C122.562 29.2656 122.719 29.6562 122.719 30.2031C122.703 31.2188 121.781 31.7344 119.922 31.7344Z" fill="white"/>
</svg>
