<?xml version="1.0" encoding="UTF-8"?>
<svg width="500px" height="500px" viewBox="0 0 500 500" version="1.1" xmlns="http://www.w3.org/2000/svg" xmlns:xlink="http://www.w3.org/1999/xlink">
    <title>uva</title>
    <defs>
        <polygon id="path-1" points="0.507221542 0.612913283 479.265182 0.612913283 479.265182 465.812376 0.507221542 465.812376"></polygon>
    </defs>
    <g id="uva" stroke="none" stroke-width="1" fill="none" fill-rule="evenodd">
        <rect fill="#1A1919" x="0" y="0" width="500" height="500"></rect>
        <g id="Group" transform="translate(10.000000, 17.000000)">
            <g id="Group-3">
                <mask id="mask-2" fill="white">
                    <use xlink:href="#path-1"></use>
                </mask>
                <g id="Clip-2"></g>
                <polygon id="Fill-1" fill="#1A1919" mask="url(#mask-2)" points="0.507221542 465.812376 479.265182 465.812376 479.265182 0.612913283 0.507221542 0.612913283"></polygon>
            </g>
            <g id="Group-11" transform="translate(128.000000, 132.000000)" fill="#FFFFFE">
                <path d="M218.488836,0.103865727 L177.226745,1.95446519 C177.226745,1.95446519 183.115346,44.5510069 180.619182,87.5733503 C178.223535,128.646832 171.606188,135.869083 171.606188,135.869083 C162.27489,152.974846 133.418231,157.142789 118.659034,158.248235 C103.857954,159.386436 97.2489835,158.60034 97.2489835,158.60034 C97.2489835,158.60034 54.6634224,157.003584 45.1143391,137.621421 C39.6780627,126.575143 38.5304974,104.900202 38.5304974,104.900202 C38.5304974,104.900202 38.2708293,3.31375507 37.8938918,1.02097697 C37.659353,-0.207297015 29.2829641,1.91352273 19.5831057,1.85620328 C11.684171,1.8316378 0.124754348,1.33213971 0.124754348,1.33213971 L3.5506974,75.9538784 L3.08999601,120.057103 C3.08999601,120.057103 3.08999601,143.721848 9.29690018,153.154992 C19.7757627,169.171685 31.435696,174.90363 38.0614196,177.933373 C44.6703905,181.004058 55.1743821,184.058366 66.8510682,186.334767 C78.519378,188.635734 97.9944821,189.806688 123.659738,183.378721 C149.341746,176.909811 160.691753,165.527806 160.691753,165.527806 L180.150104,147.652325 L180.09147,189.913139 L220.968247,178.146274 C220.968247,178.146274 215.573853,144.655337 215.632488,87.5979158 C215.691122,30.5159295 218.488836,0.103865727 218.488836,0.103865727" id="Fill-7"></path>
            </g>
            <g id="uvalogo_tag_p" transform="translate(186.000000, 22.000000)" fill="#FFFFFE">
                <polyline id="Fill-4" points="20.1345763 107.089494 56.5042478 72.616692 92.8824149 107.089494 113 88.0175492 76.6388241 53.5366965 113 19.0799956 92.8824149 0 56.5042478 34.4647515 20.1345763 0 0 19.0799956 36.3866627 53.5366965 0 88.0175492 20.1345763 107.089494"></polyline>
                <polyline id="Fill-5" points="20.1345763 238.51751 56.5042478 204.050167 92.8824149 238.51751 113 219.452182 76.6388241 184.968737 113 150.509446 92.8824149 131.428016 56.5042478 165.895358 20.1345763 131.428016 0 150.509446 36.3866627 184.968737 0 219.452182 20.1345763 238.51751"></polyline>
                <polyline id="Fill-6" points="20.1345763 417 56.5042478 382.532657 92.8824149 417 113 397.926621 76.6388241 363.451227 113 328.983885 92.8824149 309.910506 56.5042478 344.369797 20.1345763 309.910506 0 328.983885 36.3866627 363.451227 0 397.926621 20.1345763 417"></polyline>
            </g>
        </g>
    </g>
</svg>