<?xml version="1.0" encoding="UTF-8"?>
<svg width="17px" height="17px" viewBox="0 0 17 17" version="1.1" xmlns="http://www.w3.org/2000/svg" xmlns:xlink="http://www.w3.org/1999/xlink">
    <title>Path</title>
    <g id="logo" stroke="none" stroke-width="1" fill="none" fill-rule="evenodd">
        <g id="google" fill="#FFFFFF">
            <path d="M8.67347,7.28571 L8.67347,10.2 L13.5926,10.2 C13.3943,11.4507 12.1057,13.8671 8.67347,13.8671 C5.7121,13.8671 3.29592,11.4629 3.29592,8.5 C3.29592,5.53714 5.7121,3.13286 8.67347,3.13286 C10.3586,3.13286 11.4862,3.83714 12.1305,4.44429 L14.4847,2.22214 C12.973,0.837857 11.0153,0 8.67347,0 C3.87828,0 0,3.80071 0,8.5 C0,13.1993 3.87828,17 8.67347,17 C13.6793,17 17,13.5514 17,8.69429 C17,8.13571 16.938,7.71071 16.8637,7.28571 L8.67347,7.28571 Z" id="Path"></path>
        </g>
    </g>
</svg>
