<svg width="120" height="120" viewBox="0 0 120 120" fill="none" xmlns="http://www.w3.org/2000/svg">
<g clip-path="url(#clip0_429_19175)">
<path d="M120 60C120.011 68.1222 118.367 76.1614 115.168 83.6272L114.969 84.0852C109.559 96.3939 100.177 106.533 88.3243 112.881C76.4717 119.228 62.8328 121.418 49.5888 119.1C49.2284 119.036 48.8686 118.97 48.5095 118.901C44.7982 118.182 41.164 117.11 37.6562 115.701C37.0864 115.472 36.5207 115.234 35.9592 114.989C35.5757 114.822 35.1923 114.65 34.8124 114.472C24.4206 109.656 15.6222 101.969 9.45431 92.318C3.28642 82.6669 0.00610057 71.4537 0 60C0 26.8633 26.8633 0 60 0C93.1367 0 120 26.8633 120 60Z" fill="#FAFAFA"/>
<path d="M73.9655 67.7586H46.0344L55.6034 56.6379L60.5172 61.8103L67.2413 53.7931L73.9655 67.7586Z" fill="#CCCCCC"/>
<circle cx="50.1725" cy="55.0862" r="2.84483" fill="#CCCCCC"/>
</g>
<defs>
<clipPath id="clip0_429_19175">
<rect width="120" height="120" rx="60" fill="white"/>
</clipPath>
</defs>
</svg>
