<svg width="207" height="80" viewBox="0 0 207 80" fill="none" xmlns="http://www.w3.org/2000/svg">
<path fill-rule="evenodd" clip-rule="evenodd" d="M53.7903 26.457C55.0509 25.8549 56.4088 25.4236 57.8339 25.1931C58.6196 25.066 59.4258 25 60.2474 25C68.5317 25 75.2474 31.7157 75.2474 40C75.2474 48.2842 68.5317 55 60.2474 55C59.4258 55 58.6196 54.9339 57.8339 54.8068C56.4088 54.5763 55.0509 54.145 53.7903 53.5429C54.3924 54.8035 54.8237 56.1614 55.0543 57.5865C55.1813 58.3722 55.2474 59.1784 55.2474 60C55.2474 68.2842 48.5317 75 40.2474 75C31.9631 75 25.2474 68.2842 25.2474 60C25.2474 59.1784 25.3134 58.3722 25.4405 57.5865C25.671 56.1614 26.1023 54.8035 26.7045 53.5429C25.4439 54.145 24.086 54.5763 22.6609 54.8068C21.8752 54.9339 21.069 55 20.2474 55C11.9631 55 5.2474 48.2842 5.2474 40C5.2474 31.7157 11.9631 25 20.2474 25C21.069 25 21.8752 25.066 22.6609 25.1931C24.086 25.4236 25.4439 25.8549 26.7045 26.457C26.1023 25.1964 25.671 23.8386 25.4405 22.4134C25.3134 21.6277 25.2474 20.8216 25.2474 20C25.2474 11.7157 31.9631 4.99996 40.2474 4.99996C48.5317 4.99996 55.2474 11.7157 55.2474 20C55.2474 20.8216 55.1813 21.6277 55.0543 22.4134C54.8237 23.8386 54.3924 25.1964 53.7903 26.457ZM58.4981 21.7492C59.0742 21.6946 59.6578 21.6666 60.2474 21.6666C70.3726 21.6666 78.5807 29.8747 78.5807 40C78.5807 50.1252 70.3726 58.3333 60.2474 58.3333C59.6578 58.3333 59.0742 58.3054 58.4981 58.2507C58.5528 58.8268 58.5807 59.4103 58.5807 60C58.5807 70.1252 50.3726 78.3333 40.2474 78.3333C30.1222 78.3333 21.9141 70.1252 21.9141 60C21.9141 59.4103 21.942 58.8268 21.9967 58.2507C21.4206 58.3053 20.837 58.3333 20.2474 58.3333C10.1222 58.3333 1.91406 50.1252 1.91406 40C1.91406 29.8747 10.1222 21.6666 20.2474 21.6666C20.837 21.6666 21.4206 21.6946 21.9967 21.7492C21.942 21.1731 21.9141 20.5896 21.9141 20C21.9141 9.87474 30.1222 1.66663 40.2474 1.66663C50.3726 1.66663 58.5807 9.87474 58.5807 20C58.5807 20.5896 58.5528 21.1731 58.4981 21.7492ZM38.4981 38.2507C38.5528 38.8268 38.5807 39.4103 38.5807 40C38.5807 40.5896 38.5528 41.1731 38.4981 41.7492C39.0742 41.6946 39.6577 41.6666 40.2474 41.6666C40.837 41.6666 41.4206 41.6946 41.9967 41.7492C41.942 41.1731 41.9141 40.5896 41.9141 40C41.9141 39.4103 41.942 38.8268 41.9967 38.2507C41.4206 38.3053 40.837 38.3333 40.2474 38.3333C39.6577 38.3333 39.0742 38.3053 38.4981 38.2507ZM35.0543 37.5865C35.1813 38.3722 35.2474 39.1784 35.2474 40C35.2474 40.8216 35.1813 41.6277 35.0543 42.4134C34.8237 43.8386 34.3924 45.1964 33.7903 46.457C35.0509 45.8549 36.4088 45.4236 37.8339 45.1931C38.6196 45.066 39.4258 45 40.2474 45C41.069 45 41.8752 45.066 42.6609 45.1931C44.086 45.4236 45.4439 45.8549 46.7045 46.457C46.1023 45.1964 45.671 43.8386 45.4405 42.4134C45.3135 41.6277 45.2474 40.8216 45.2474 40C45.2474 39.1784 45.3135 38.3722 45.4405 37.5865C45.671 36.1614 46.1023 34.8035 46.7045 33.5429C45.4439 34.145 44.086 34.5763 42.6609 34.8068C41.8752 34.9339 41.069 35 40.2474 35C39.4258 35 38.6196 34.9339 37.8339 34.8068C36.4088 34.5763 35.0509 34.145 33.7903 33.5429C34.3925 34.8035 34.8237 36.1614 35.0543 37.5865Z" fill="white"/>
<circle cx="40.2474" cy="60" r="15" fill="#FF5E5E"/>
<circle cx="60.2474" cy="40" r="15" fill="#FFCF60"/>
<circle cx="40.2474" cy="20" r="15" fill="#4272EF"/>
<circle cx="20.2474" cy="40" r="15" fill="black"/>
<path d="M41.1386 75C32.3621 75 25.2474 68.2843 25.2474 60C25.2474 51.7157 32.3621 45 41.1386 45C41.1386 45 61.6334 75 41.1386 75Z" fill="#FF5E5E"/>
<circle cx="40.2474" cy="40" r="12.5" fill="white"/>
<path d="M100.878 61.6927C100.878 62.2395 101.451 62.8125 101.998 62.8125H107.753C108.3 62.8125 108.873 62.2395 108.873 61.6927V49.7395C110.488 51.3802 112.519 52.1875 114.967 52.1875C118.196 52.1875 120.826 50.9635 122.857 48.5156C124.863 46.0677 125.878 42.7343 125.878 38.5416C125.878 34.3489 124.863 31.0416 122.857 28.5937C120.826 26.1718 118.196 24.9479 114.967 24.9479C112.18 24.9479 110.019 25.7291 108.456 27.2916L107.545 25.9635C107.259 25.625 106.842 25.4687 106.269 25.4687H101.998C101.399 25.4687 100.878 26.0416 100.878 26.5885V61.6927ZM108.873 37.4218C108.873 35.1823 109.29 33.6198 110.097 32.7604C110.904 31.901 112.024 31.4583 113.456 31.4583C114.837 31.4583 115.878 32.1093 116.581 33.4375C117.285 34.7656 117.623 36.4843 117.623 38.5416C117.623 40.5989 117.285 42.3177 116.581 43.6718C115.878 45.026 114.837 45.7031 113.456 45.7031C110.41 45.677 108.873 43.7239 108.873 39.8177V37.4218Z" fill="white"/>
<path d="M139.446 52.1875C143.17 52.1875 145.618 51.4062 146.764 49.8437L147.727 51.1979C147.936 51.5104 148.352 51.6666 148.951 51.6666H153.222C153.847 51.6666 154.394 51.0937 154.394 50.5468V36.5104C154.394 32.8906 153.482 30.052 151.686 27.9948C149.863 25.9635 146.738 24.9479 142.285 24.9479C137.988 24.9479 134.602 25.7812 132.154 27.4479C131.451 27.9166 131.399 28.4635 132.05 29.0625L135.305 32.2656C135.722 32.6823 136.269 32.7604 136.946 32.4739C138.665 31.6145 140.436 31.1979 142.285 31.1979C144.993 31.1979 146.347 32.7343 146.347 35.7812V37.0573C144.993 35.8333 142.727 35.2343 139.576 35.2343C136.842 35.2343 134.55 35.9635 132.701 37.3958C130.852 38.8281 129.915 40.8854 129.915 43.5677C129.915 46.25 130.826 48.3593 132.675 49.8958C134.524 51.4323 136.764 52.1875 139.446 52.1875ZM141.686 46.2239C139.055 46.2239 138.17 45.4687 138.17 43.776C138.17 42.0052 139.081 41.276 142.128 41.276C143.899 41.276 145.045 41.4323 145.566 41.7708C146.087 42.1093 146.347 42.7604 146.347 43.6718C146.321 45.3645 144.785 46.2239 141.686 46.2239Z" fill="white"/>
<path d="M167.232 51.6666C167.779 51.6666 168.352 51.0937 168.352 50.5468V35.8854C168.352 33.2552 169.785 31.25 172.623 31.25C175.462 31.25 176.894 33.2552 176.894 35.8854V50.5468C176.894 51.0937 177.441 51.6666 178.066 51.6666H183.821C184.368 51.6666 184.941 51.0937 184.941 50.5468V35.8854C184.941 32.7343 184.055 30.1041 182.311 28.0468C180.54 25.9895 178.17 24.9479 175.227 24.9479C172.18 24.9479 169.732 25.7291 167.936 27.2916L167.024 25.9635C166.738 25.625 166.321 25.4687 165.748 25.4687H161.477C160.878 25.4687 160.357 26.0416 160.357 26.5885V50.5468C160.357 51.0937 160.93 51.6666 161.477 51.6666H167.232Z" fill="white"/>
<path d="M202.805 46.6406C202.805 45.8854 202.415 45.5208 201.633 45.5208H201.113C199.68 45.5468 198.977 44.5573 198.977 42.552V15.4427C198.977 14.8958 198.404 14.3229 197.857 14.3229H192.102C191.503 14.3229 190.982 14.8958 190.982 15.4427V42.552C190.982 45.9114 191.764 48.3593 193.3 49.8958C194.837 51.4323 197.441 52.1875 201.113 52.1875H201.633C202.285 52.1875 202.805 51.6145 202.805 51.0677V46.6406Z" fill="white"/>
</svg>
