<svg width="124" height="48" viewBox="0 0 124 48" fill="none" xmlns="http://www.w3.org/2000/svg">
<path fill-rule="evenodd" clip-rule="evenodd" d="M32.2976 15.8742C33.054 15.513 33.8687 15.2542 34.7238 15.1159C35.1952 15.0396 35.6789 15 36.1719 15C41.1424 15 45.1719 19.0294 45.1719 24C45.1719 28.9706 41.1424 33 36.1719 33C35.6789 33 35.1952 32.9604 34.7238 32.8841C33.8687 32.7458 33.054 32.487 32.2976 32.1258C32.6589 32.8821 32.9177 33.6968 33.056 34.5519C33.1322 35.0233 33.1719 35.507 33.1719 36C33.1719 40.9706 29.1424 45 24.1719 45C19.2013 45 15.1719 40.9706 15.1719 36C15.1719 35.507 15.2115 35.0233 15.2878 34.5519C15.4261 33.6968 15.6848 32.8821 16.0461 32.1258C15.2897 32.487 14.475 32.7458 13.62 32.8841C13.1485 32.9604 12.6648 33 12.1719 33C7.20131 33 3.17188 28.9706 3.17188 24C3.17188 19.0294 7.20131 15 12.1719 15C12.6648 15 13.1485 15.0396 13.62 15.1159C14.475 15.2542 15.2897 15.513 16.0461 15.8742C15.6848 15.1179 15.4261 14.3032 15.2878 13.4481C15.2115 12.9767 15.1719 12.493 15.1719 12C15.1719 7.02944 19.2013 3 24.1719 3C29.1424 3 33.1719 7.02944 33.1719 12C33.1719 12.493 33.1322 12.9767 33.056 13.4481C32.9177 14.3032 32.6589 15.1179 32.2976 15.8742ZM35.1223 13.0496C35.468 13.0168 35.8181 13 36.1719 13C42.247 13 47.1719 17.9249 47.1719 24C47.1719 30.0751 42.247 35 36.1719 35C35.8181 35 35.468 34.9832 35.1223 34.9504C35.1551 35.2961 35.1719 35.6462 35.1719 36C35.1719 42.0751 30.247 47 24.1719 47C18.0967 47 13.1719 42.0751 13.1719 36C13.1719 35.6462 13.1886 35.2961 13.2214 34.9504C12.8758 34.9832 12.5257 35 12.1719 35C6.09674 35 1.17188 30.0751 1.17188 24C1.17188 17.9249 6.09674 13 12.1719 13C12.5257 13 12.8758 13.0168 13.2214 13.0496C13.1886 12.7039 13.1719 12.3538 13.1719 12C13.1719 5.92487 18.0967 1 24.1719 1C30.247 1 35.1719 5.92487 35.1719 12C35.1719 12.3538 35.1551 12.7039 35.1223 13.0496ZM23.1223 22.9504C23.1551 23.2961 23.1719 23.6462 23.1719 24C23.1719 24.3538 23.1551 24.7039 23.1223 25.0496C23.468 25.0168 23.8181 25 24.1719 25C24.5257 25 24.8758 25.0168 25.2214 25.0496C25.1886 24.7039 25.1719 24.3538 25.1719 24C25.1719 23.6462 25.1886 23.2961 25.2214 22.9504C24.8758 22.9832 24.5257 23 24.1719 23C23.8181 23 23.468 22.9832 23.1223 22.9504ZM21.056 22.5519C21.1322 23.0233 21.1719 23.507 21.1719 24C21.1719 24.493 21.1322 24.9767 21.056 25.4481C20.9177 26.3032 20.6589 27.1179 20.2976 27.8742C21.054 27.513 21.8687 27.2542 22.7238 27.1159C23.1952 27.0396 23.6789 27 24.1719 27C24.6648 27 25.1485 27.0396 25.62 27.1159C26.475 27.2542 27.2897 27.513 28.0461 27.8742C27.6848 27.1179 27.4261 26.3032 27.2878 25.4481C27.2115 24.9767 27.1719 24.493 27.1719 24C27.1719 23.507 27.2115 23.0233 27.2878 22.5519C27.4261 21.6968 27.6848 20.8821 28.0461 20.1258C27.2897 20.487 26.475 20.7458 25.62 20.8841C25.1485 20.9604 24.6648 21 24.1719 21C23.6789 21 23.1952 20.9604 22.7238 20.8841C21.8687 20.7458 21.054 20.487 20.2976 20.1258C20.6589 20.8821 20.9177 21.6968 21.056 22.5519Z" fill="white"/>
<circle cx="24.1719" cy="36" r="9" fill="#FF5E5E"/>
<circle cx="36.1719" cy="24" r="9" fill="#FFCF60"/>
<circle cx="24.1719" cy="12" r="9" fill="#4272EF"/>
<circle cx="12.1719" cy="24" r="9" fill="black"/>
<path d="M24.7066 45C19.4407 45 15.1719 40.9706 15.1719 36C15.1719 31.0294 19.4407 27 24.7066 27C24.7066 27 37.0035 45 24.7066 45Z" fill="#FF5E5E"/>
<circle cx="24.1719" cy="24" r="7.5" fill="white"/>
<path d="M60.4288 37.0156C60.4288 37.3438 60.7726 37.6875 61.1007 37.6875H64.5538C64.882 37.6875 65.2257 37.3438 65.2257 37.0156V29.8438C66.1945 30.8281 67.4132 31.3125 68.882 31.3125C70.8195 31.3125 72.3976 30.5781 73.6163 29.1094C74.8195 27.6406 75.4288 25.6406 75.4288 23.125C75.4288 20.6094 74.8195 18.625 73.6163 17.1562C72.3976 15.7031 70.8195 14.9688 68.882 14.9688C67.2101 14.9688 65.9132 15.4375 64.9757 16.375L64.4288 15.5781C64.257 15.375 64.007 15.2812 63.6632 15.2812H61.1007C60.7413 15.2812 60.4288 15.625 60.4288 15.9531V37.0156ZM65.2257 22.4531C65.2257 21.1094 65.4757 20.1719 65.9601 19.6562C66.4445 19.1406 67.1163 18.875 67.9757 18.875C68.8038 18.875 69.4288 19.2656 69.8507 20.0625C70.2726 20.8594 70.4757 21.8906 70.4757 23.125C70.4757 24.3594 70.2726 25.3906 69.8507 26.2031C69.4288 27.0156 68.8038 27.4219 67.9757 27.4219C66.1476 27.4062 65.2257 26.2344 65.2257 23.8906V22.4531Z" fill="black"/>
<path d="M83.5695 31.3125C85.8038 31.3125 87.2726 30.8438 87.9601 29.9062L88.5382 30.7188C88.6632 30.9062 88.9132 31 89.2726 31H91.8351C92.2101 31 92.5382 30.6562 92.5382 30.3281V21.9062C92.5382 19.7344 91.9913 18.0312 90.9132 16.7969C89.8195 15.5781 87.9445 14.9688 85.2726 14.9688C82.6945 14.9688 80.6632 15.4688 79.1945 16.4688C78.7726 16.75 78.7413 17.0781 79.132 17.4375L81.0851 19.3594C81.3351 19.6094 81.6632 19.6562 82.0695 19.4844C83.1007 18.9688 84.1632 18.7188 85.2726 18.7188C86.8976 18.7188 87.7101 19.6406 87.7101 21.4688V22.2344C86.8976 21.5 85.5382 21.1406 83.6476 21.1406C82.007 21.1406 80.632 21.5781 79.5226 22.4375C78.4132 23.2969 77.8507 24.5312 77.8507 26.1406C77.8507 27.75 78.3976 29.0156 79.507 29.9375C80.6163 30.8594 81.9601 31.3125 83.5695 31.3125ZM84.9132 27.7344C83.3351 27.7344 82.8038 27.2812 82.8038 26.2656C82.8038 25.2031 83.3507 24.7656 85.1788 24.7656C86.2413 24.7656 86.9288 24.8594 87.2413 25.0625C87.5538 25.2656 87.7101 25.6562 87.7101 26.2031C87.6945 27.2188 86.7726 27.7344 84.9132 27.7344Z" fill="black"/>
<path d="M100.241 31C100.569 31 100.913 30.6562 100.913 30.3281V21.5312C100.913 19.9531 101.773 18.75 103.476 18.75C105.179 18.75 106.038 19.9531 106.038 21.5312V30.3281C106.038 30.6562 106.366 31 106.741 31H110.194C110.523 31 110.866 30.6562 110.866 30.3281V21.5312C110.866 19.6406 110.335 18.0625 109.288 16.8281C108.226 15.5938 106.804 14.9688 105.038 14.9688C103.21 14.9688 101.741 15.4375 100.663 16.375L100.116 15.5781C99.9445 15.375 99.6945 15.2812 99.3507 15.2812H96.7882C96.4288 15.2812 96.1163 15.625 96.1163 15.9531V30.3281C96.1163 30.6562 96.4601 31 96.7882 31H100.241Z" fill="black"/>
<path d="M121.585 27.9844C121.585 27.5312 121.351 27.3125 120.882 27.3125H120.569C119.71 27.3281 119.288 26.7344 119.288 25.5312V9.26562C119.288 8.9375 118.944 8.59375 118.616 8.59375H115.163C114.804 8.59375 114.491 8.9375 114.491 9.26562V25.5312C114.491 27.5469 114.96 29.0156 115.882 29.9375C116.804 30.8594 118.366 31.3125 120.569 31.3125H120.882C121.273 31.3125 121.585 30.9688 121.585 30.6406V27.9844Z" fill="black"/>
</svg>
