<svg width="80" height="80" viewBox="0 0 80 80" fill="none" xmlns="http://www.w3.org/2000/svg">
<g clip-path="url(#clip0)">
<path d="M79.9996 40C80.0058 45.1385 79.0193 50.2298 77.0942 54.9941C77.0895 55.0047 77.086 55.0142 77.0812 55.0249V55.026C75.7873 58.2162 74.0851 61.2251 72.0173 63.9775C71.6185 64.5101 71.2071 65.0316 70.783 65.542C70.628 65.729 70.4706 65.9148 70.3132 66.0982C69.5025 67.0391 68.6497 67.9404 67.7546 68.8024C67.5463 69.0035 67.3357 69.2024 67.1226 69.3988C67.0729 69.445 67.0232 69.4899 66.9735 69.5361C65.931 70.4887 64.8388 71.3854 63.7013 72.2225C62.938 72.787 62.1546 73.3231 61.351 73.8308C61.1747 73.9432 60.9972 74.0536 60.8185 74.1621C60.5084 74.3515 60.1956 74.5365 59.88 74.7172C59.4682 74.9538 59.0512 75.183 58.6292 75.4047C58.4587 75.4959 58.2872 75.5834 58.1156 75.671C57.8647 75.8 57.6126 75.9243 57.3582 76.0462C57.3144 76.0675 57.2706 76.0888 57.2268 76.1089C57.0611 76.1893 56.8931 76.2675 56.725 76.3456C54.5364 77.355 52.2603 78.1627 49.925 78.7586C49.912 78.7621 49.9002 78.7645 49.8871 78.7681C49.7345 78.8071 49.5806 78.845 49.4268 78.8817C49.312 78.9101 49.196 78.9373 49.08 78.9633C49.0657 78.968 49.0511 78.9715 49.0363 78.974C48.7984 79.0296 48.5605 79.0828 48.3203 79.1314C48.1854 79.1598 48.0505 79.1882 47.9156 79.2154C47.8339 79.2331 47.7511 79.2485 47.6694 79.2639C47.5664 79.284 47.4647 79.303 47.3617 79.3231C47.3049 79.3349 47.2481 79.3444 47.1901 79.3538C47.0599 79.3775 46.9297 79.4012 46.8008 79.4237C46.5806 79.4615 46.3582 79.4982 46.1368 79.5314C45.9759 79.5562 45.8161 79.5799 45.6552 79.6024C45.4658 79.6296 45.2765 79.6544 45.086 79.6781C45.0339 79.6864 44.9818 79.6923 44.9297 79.6982C44.8623 79.7065 44.7948 79.7148 44.7274 79.7231C44.5913 79.7396 44.4552 79.755 44.3179 79.7692C44.2469 79.7775 44.1771 79.7846 44.1061 79.7917C43.9712 79.8059 43.8363 79.8189 43.7014 79.8308C43.5274 79.8473 43.3534 79.8615 43.1783 79.8757C42.9653 79.8923 42.7534 79.9077 42.5392 79.9207C42.4019 79.929 42.2647 79.9373 42.1262 79.9444C41.7735 79.9633 41.4209 79.9763 41.0658 79.9858C40.8895 79.9905 40.712 79.9941 40.5345 79.9964H40.5309C40.3546 79.9988 40.1771 80 39.9996 80C38.2006 80.0008 36.4037 79.8806 34.6209 79.6402C33.3132 79.4651 32.0264 79.2276 30.7605 78.9278C30.7096 78.916 30.6587 78.9041 30.609 78.8911C30.4812 78.8615 30.3546 78.8296 30.228 78.7976C30.1155 78.7692 30.0043 78.7396 29.8919 78.7101C26.9944 77.9561 24.1916 76.8766 21.5368 75.4923C21.5238 75.4852 21.5096 75.4781 21.4966 75.471C21.4197 75.4308 21.3439 75.3917 21.2682 75.3503C21.1013 75.2627 20.9353 75.1736 20.77 75.0828C19.8292 74.5657 18.9124 74.0126 18.0197 73.4237C17.7901 73.2734 17.5629 73.1207 17.338 72.9657C17.2658 72.916 17.1948 72.8663 17.1238 72.8166C17.0493 72.7645 16.9747 72.7124 16.9013 72.6604C16.7061 72.5219 16.512 72.3819 16.3191 72.2402C15.5203 71.6533 14.7451 71.0375 13.9936 70.3929C11.33 68.1117 8.97634 65.4919 6.99246 62.6C6.30016 61.5917 5.654 60.5511 5.054 59.4781C1.72892 53.5254 -0.0114968 46.8184 -0.000435887 40C-0.000435887 17.9089 17.9084 0 39.9996 0C62.0907 0 79.9996 17.9089 79.9996 40Z" fill="#FFCF60"/>
<path opacity="0.2" d="M46.4321 78.8911C46.5599 78.8615 46.6866 78.8296 46.8132 78.7976C46.9256 78.7692 47.0369 78.7396 47.1493 78.71C47.1552 78.4745 47.1635 78.2154 47.1718 77.9349C47.2416 75.7384 47.4061 72.2023 47.7943 67.942C47.8156 67.7136 47.8369 67.4836 47.8582 67.252C47.9966 65.8083 48.1588 64.2899 48.3528 62.7159C48.3588 62.6639 48.3659 62.613 48.3718 62.5609C48.5292 61.2852 48.7079 59.9751 48.9091 58.6402C49.0499 57.7065 49.2021 56.7625 49.3659 55.8083C49.3777 55.742 49.3895 55.6745 49.4014 55.6083C49.4487 55.3325 49.4972 55.058 49.5469 54.781C49.6854 54.0106 49.8333 53.2355 49.9883 52.4603C50.5339 49.7337 51.1836 46.9905 51.9588 44.3219C52.7462 41.5543 53.7159 38.8418 54.8617 36.2023C55.7504 34.1519 56.8089 32.1793 58.0262 30.3053C58.044 30.2781 58.0617 30.252 58.0795 30.2248C59.6357 27.8804 61.4144 25.8911 63.4451 24.4035L63.0238 23.8284C61.0783 25.2544 59.2937 27.1518 57.67 29.5207C57.6617 29.5325 57.6546 29.5432 57.6463 29.555C56.4254 31.3656 55.3596 33.2761 54.4605 35.2662C53.2566 37.9282 52.2411 40.6715 51.4215 43.4757C50.6452 46.0816 49.9489 48.9049 49.3327 51.9455C49.1162 53.0165 48.9095 54.114 48.7126 55.2378C48.6795 55.4296 48.6463 55.6213 48.6132 55.8142C48.6132 55.8165 48.612 55.8201 48.612 55.8225C48.5611 56.1183 48.5126 56.4142 48.4629 56.7136C48.3398 57.4674 48.2238 58.2154 48.115 58.9574C47.9469 60.1006 47.795 61.224 47.6593 62.3278C47.6144 62.6923 47.571 63.054 47.5292 63.413C47.47 63.9195 47.414 64.4193 47.3611 64.9124C47.2866 65.5988 47.2183 66.2706 47.1564 66.9278L47.1386 67.1088C47.1292 67.213 47.1197 67.3171 47.1102 67.4201C46.6298 72.6023 46.4795 76.7881 46.4321 78.8911Z" fill="black"/>
<path opacity="0.2" d="M55.5044 75.4922C55.5174 75.4851 55.5316 75.478 55.5446 75.4709C55.7884 75.3443 56.0298 75.2153 56.2713 75.0827C56.3505 74.1383 56.4571 73.1005 56.5967 72.0093C56.6263 71.7845 56.6559 71.5561 56.689 71.3265C56.7056 71.2034 56.7233 71.0792 56.7411 70.9537C56.8807 69.9928 57.0464 69.0011 57.2452 68.0046C58.0535 63.9383 59.3955 59.7821 61.6239 57.2165C61.7434 57.078 61.8653 56.9454 61.992 56.8165C62.3058 56.4904 62.6466 56.1915 63.0109 55.923L62.5896 55.349C62.0811 55.7251 61.6131 56.153 61.1932 56.6259C61.0452 56.7904 60.9008 56.9616 60.76 57.1395C58.7091 59.7206 57.4287 63.5419 56.631 67.3253C56.4227 68.3123 56.2476 69.2981 56.0985 70.2579C56.0606 70.5088 56.0243 70.7573 55.9896 71.0034C55.7588 72.6295 55.6062 74.1656 55.5044 75.4922Z" fill="black"/>
<path opacity="0.2" d="M67.4247 24.3871C69.3912 24.3871 70.9854 22.7928 70.9854 20.8263C70.9854 18.8597 69.3912 17.2655 67.4247 17.2655C65.4581 17.2655 63.8639 18.8597 63.8639 20.8263C63.8639 22.7928 65.4581 24.3871 67.4247 24.3871Z" fill="black"/>
<path opacity="0.2" d="M66.2779 55.039C68.2445 55.039 69.8387 53.4448 69.8387 51.4783C69.8387 49.5117 68.2445 47.9175 66.2779 47.9175C64.3114 47.9175 62.7172 49.5117 62.7172 51.4783C62.7172 53.4448 64.3114 55.039 66.2779 55.039Z" fill="black"/>
<path opacity="0.2" d="M65.1219 36.9198C61.0586 38.4056 56.9756 37.4521 56.9756 37.4521C56.9756 37.4521 59.4805 34.0896 63.5438 32.6038C67.6071 31.118 71.6901 32.0715 71.6901 32.0715C71.6901 32.0715 69.1853 35.434 65.1219 36.9198Z" fill="black"/>
<path opacity="0.2" d="M65.8112 64.063C62.9631 65.1045 60.0972 64.4251 60.0972 64.4251C60.0972 64.4251 61.8488 62.0572 64.6969 61.0158C67.5449 59.9744 70.4109 60.6538 70.4109 60.6538C70.4109 60.6538 68.6592 63.0216 65.8112 64.063Z" fill="black"/>
<path d="M17.142 56.8091C21.0725 55.1655 20.6925 49.3404 19.4129 42.6633C32.1886 42.6996 57.6314 38.1456 56.6548 43.1718C55.6781 48.198 57.6222 53.1682 55.1839 56.366C47.3017 55.4873 39.3424 59.0925 30.412 59.1558C22.8587 59.2094 16.2626 56.7111 17.142 56.8091Z" fill="#2F2E41"/>
<path d="M35.989 57.2694C46.6554 58.4585 56.2663 50.7756 57.4554 40.1091C58.6445 29.4426 50.9616 19.8318 40.2951 18.6427C29.6286 17.4536 20.0177 25.1365 18.8286 35.803C17.6395 46.4695 25.3225 56.0803 35.989 57.2694Z" fill="#2F2E41"/>
<path d="M37.6666 56.6595C44.1262 57.3796 49.9465 52.7268 50.6666 46.2673C51.3867 39.8077 46.7339 33.9874 40.2744 33.2673C33.8148 32.5471 27.9945 37.1999 27.2744 43.6595C26.5543 50.1191 31.207 55.9394 37.6666 56.6595Z" fill="#DA9D00"/>
<path d="M63.178 70.3577L63.1635 70.3596L60.3703 70.7091L54.5544 71.4373L53.761 71.537L44.9165 72.6432L44.1653 72.738L22.7073 75.4233C21.3547 74.7254 20.0437 73.9499 18.7807 73.1006C18.7685 73.0921 18.7552 73.0835 18.7431 73.075C18.6711 73.0265 18.6001 72.9793 18.5294 72.9297C18.3733 72.8242 18.2181 72.7172 18.0639 72.6087C17.1862 71.9905 16.3363 71.3392 15.5144 70.655C15.3028 70.4802 15.0939 70.3033 14.8877 70.1243C14.8214 70.0669 14.7564 70.0097 14.6913 69.9524C14.623 69.8924 14.5546 69.8324 14.4875 69.7725C14.3088 69.6133 14.1314 69.4526 13.9554 69.2905C16.3967 65.8272 21.504 63.9138 26.4876 63.1107C30.249 62.5036 31.4226 59.261 31.6838 56.2882C31.7415 55.6099 31.7594 54.9288 31.7373 54.2485C31.7087 53.1663 31.5916 52.0883 31.3869 51.0253L43.0402 52.7197L43.9369 55.6347C43.8699 55.9364 43.825 56.2426 43.8026 56.5509C43.6402 58.8416 44.8836 60.4735 46.5147 61.6186C46.7267 61.7673 46.9456 61.9084 47.1689 62.0417C49.8731 63.6542 53.2165 64.1162 53.2165 64.1162C54.2502 64.1171 55.2794 64.2515 56.2786 64.5159C56.5214 64.5811 56.7563 64.6529 56.9834 64.7314C58.3091 65.1868 59.5295 65.9048 60.5716 66.8425C60.9698 67.1985 61.3412 67.5833 61.6828 67.994C62.2918 68.7062 62.7954 69.5023 63.178 70.3577Z" fill="#DA9D00"/>
<path d="M62.8188 70.3597L62.8333 70.3577C62.4507 69.5023 62.3333 68.6433 61.7243 67.9311C61.3828 67.5204 60.9157 67.0802 60.5174 66.7242C59.4754 65.7866 58.2225 65.1107 56.8967 64.6553C56.6697 64.5768 56.105 64.3756 55.8622 64.3104C54.863 64.046 53.7933 64.138 52.7588 63.9656C52.7588 63.9656 49.8733 63.6542 47.169 62.0417C46.9457 61.9084 46.7269 61.7674 46.5148 61.6187C45.5843 60.9654 44.78 60.1537 44.2909 59.1517L30.8335 58.8944C30.1695 60.9331 28.8037 62.6813 26.1429 63.1108C21.1594 63.9139 15.3725 66.3644 12.9312 69.8277C15.3914 72.0936 19.063 74.6558 22.0691 76.207L43.8206 72.7381L44.5718 72.6432L53.4163 71.537L54.2097 71.4373L60.0256 70.7092L62.8188 70.3597Z" fill="#2F2E41"/>
<path d="M64.6874 72.006C64.6634 72.0781 64.6333 72.1481 64.5974 72.2151C63.4558 73.0464 62.5687 75.0831 61.3456 75.789C58.9997 76.3505 58.748 75.8094 56.9736 76.5784C56.5381 76.768 56.0983 76.9496 55.6542 77.1231C55.4748 77.1948 55.2945 77.2628 55.1143 77.3309C54.8507 77.4313 54.5864 77.5268 54.32 77.6198C54.2741 77.6361 54.2282 77.6524 54.1825 77.6676C54.0089 77.7292 53.8332 77.7882 53.6576 77.8472C51.3706 78.6079 49.0191 81.9171 46.6321 82.2506C46.6188 82.2527 46.6067 82.2537 46.5934 82.2558C46.4374 82.2777 46.2803 82.2983 46.1233 82.3177C46.0061 82.3332 45.8878 82.3474 45.7696 82.3605C45.7549 82.3635 45.74 82.3654 45.7249 82.3662C45.4824 82.3951 45.2401 82.4217 44.9959 82.4433C44.8587 82.4566 44.7215 82.4698 44.5844 82.482C44.5013 82.4905 44.4172 82.4967 44.3344 82.5029C44.2298 82.5115 44.1266 82.519 44.022 82.5276C43.9643 82.5331 43.9067 82.5362 43.8481 82.5392C43.7161 82.5483 43.5841 82.5574 43.4534 82.5654C43.2304 82.5787 43.0052 82.5905 42.7816 82.5989C42.6189 82.6058 42.4575 82.6116 42.2951 82.6161C42.1039 82.6222 41.9129 82.6259 41.721 82.6283C41.6683 82.6308 41.6159 82.6309 41.5635 82.631C41.4955 82.6318 41.4276 82.6325 41.3596 82.6333C41.2225 82.6347 41.0855 82.6349 40.9475 82.6338C40.8761 82.6342 40.8059 82.6335 40.7345 82.6327C40.5989 82.6318 40.4633 82.6298 40.328 82.6266C40.1532 82.6238 39.9788 82.6187 39.8031 82.6134C39.5896 82.6062 39.3773 82.5981 39.163 82.5873C39.0257 82.5803 38.8883 82.5733 38.7499 82.565C38.3973 82.5448 38.0454 82.5186 37.6915 82.4887C37.5157 82.4739 37.3389 82.4577 37.1622 82.4404L37.1587 82.44C36.9832 82.4229 36.8066 82.4044 36.6302 82.3847C34.8423 82.1861 33.0697 81.8676 31.3245 81.4312C30.0443 81.1123 28.7917 80.7337 27.5668 80.2955C27.5176 80.2781 27.4683 80.2607 27.4204 80.2422C27.2966 80.1987 27.1743 80.1529 27.052 80.1071C26.9434 80.0664 26.8361 80.0247 26.7277 79.9828C23.9316 78.9124 21.2656 77.5291 18.7806 75.8592C18.7684 75.8507 18.7551 75.8421 18.743 75.8336C18.671 75.7851 18.6 75.7379 18.5293 75.6883C25.1529 74.9037 35.6193 70.9101 44.6987 69.8646C44.9531 69.8358 45.206 69.8069 45.4573 69.7777C48.8107 69.3919 51.9513 69.0347 54.6075 68.739C54.8823 68.7089 55.1515 68.6793 55.4152 68.6504C58.2688 68.335 60.4836 68.1009 61.6827 67.994C62.0068 67.957 61.4482 68.0082 61.7744 68.0042L64.6835 71.9985L64.6874 72.006Z" fill="#2F2E41"/>
<path d="M36.8856 29.3226C30.035 29.3226 24.4816 32.5622 24.4816 36.5583C24.4816 38.3464 25.5979 39.9805 27.4405 41.243L29.8284 39.5128L29.179 42.2234C29.4485 42.3482 29.7236 42.4691 30.0106 42.5808L33.5779 38.4189V43.5318C34.6717 43.707 35.7778 43.7947 36.8856 43.794C43.7362 43.794 49.2897 40.5545 49.2897 36.5583C49.2897 32.5622 43.7362 29.3226 36.8856 29.3226Z" fill="#2F2E41"/>
<path d="M27.5472 49.9116C28.0688 49.7656 28.2075 48.6324 27.8571 47.3806C27.5066 46.1288 26.7997 45.2324 26.2781 45.3784C25.7566 45.5245 25.6178 46.6576 25.9683 47.9094C26.3187 49.1612 27.0256 50.0576 27.5472 49.9116Z" fill="#DA9D00"/>
<path d="M51.4288 45.7441C51.5087 44.4466 51.1352 43.3678 50.5946 43.3345C50.054 43.3012 49.551 44.3261 49.4711 45.6235C49.3912 46.921 49.7647 47.9998 50.3053 48.0331C50.8459 48.0664 51.3489 47.0416 51.4288 45.7441Z" fill="#DA9D00"/>
</g>
<defs>
<clipPath id="clip0">
<path d="M0 40C0 17.9086 17.9086 0 40 0V0C62.0914 0 80 17.9086 80 40V40C80 62.0914 62.0914 80 40 80V80C17.9086 80 0 62.0914 0 40V40Z" fill="white"/>
</clipPath>
</defs>
</svg>
