<svg width="48" height="48" viewBox="0 0 48 48" fill="none" xmlns="http://www.w3.org/2000/svg">
<path d="M39.3329 34.6118C38.76 35.9448 38.0727 37.1627 37.2919 38.2879C36.2195 39.8183 35.334 40.8804 34.6572 41.4741C33.6055 42.4427 32.4811 42.9318 31.2728 42.9629C30.4089 42.9629 29.3676 42.7128 28.1489 42.2133C26.9302 41.7138 25.8058 41.4741 24.7853 41.4741C23.7129 41.4741 22.5573 41.7242 21.3282 42.2133C20.0887 42.7128 19.1002 42.9733 18.3394 42.9941C17.1838 43.0461 16.0275 42.5362 14.8823 41.4637C14.1431 40.818 13.2265 39.7248 12.1332 38.1736C10.9569 36.5074 9.97793 34.5918 9.21793 32.3942C8.40598 30.0199 8 27.7295 8 25.5007C8 22.9498 8.55219 20.7522 9.65582 18.9198C10.5197 17.4413 11.6761 16.2746 13.1129 15.4211C14.5602 14.5676 16.1121 14.1297 17.788 14.0985C18.7046 14.0985 19.9121 14.3798 21.4113 14.9416C22.9002 15.5042 23.8583 15.7848 24.2851 15.7848C24.5975 15.7848 25.6596 15.4515 27.4713 14.785C29.1791 14.1705 30.6159 13.9211 31.8027 14.0146C34.9993 14.2752 37.4047 15.5346 38.9982 17.805C36.1348 19.5336 34.7291 21.9598 34.7499 25.0732C34.7707 27.4995 35.6561 29.5197 37.3847 31.1228C38.1655 31.862 39.0405 32.4454 40.0195 32.8514C39.7909 33.4666 39.5727 34.0493 39.3329 34.6118ZM32.0023 5.75781C32.0023 7.66301 31.3047 9.43387 29.9198 11.0786C28.2536 13.0364 26.2333 14.1609 24.0364 13.9835C24.0053 13.7541 23.9949 13.5152 23.9949 13.265C23.9949 11.443 24.7861 9.48508 26.2021 7.89234C26.9102 7.08039 27.806 6.41391 28.8889 5.87211C29.9717 5.3407 31.0026 5.04977 31.9608 4.99707C31.9816 5.24719 32.0023 5.5077 32.0023 5.75781Z" fill="black"/>
</svg>
