<svg width="24" height="24" viewBox="0 0 24 24" fill="none" xmlns="http://www.w3.org/2000/svg">
<path d="M19.3536 6.76355L19.7071 6.41L19.3536 6.05645L17.9436 4.64645L17.59 4.29289L17.2364 4.64645L12 9.88289L6.76355 4.64645L6.41 4.29289L6.05645 4.64645L4.64645 6.05645L4.29289 6.41L4.64645 6.76355L9.88289 12L4.64645 17.2364L4.29289 17.59L4.64645 17.9436L6.05645 19.3536L6.41 19.7071L6.76355 19.3536L12 14.1171L17.2364 19.3536L17.59 19.7071L17.9436 19.3536L19.3536 17.9436L19.7071 17.59L19.3536 17.2364L14.1171 12L19.3536 6.76355Z" fill="white" stroke="black"/>
</svg>
