<svg width="24" height="24" viewBox="0 0 24 24" fill="none" xmlns="http://www.w3.org/2000/svg">
<path fill-rule="evenodd" clip-rule="evenodd" d="M16.5446 19.8753L12.3256 17.6573C12.0616 17.5183 11.7316 17.5183 11.4676 17.6573L7.24864 19.8753C6.98264 20.0143 6.66564 19.9933 6.42264 19.8153C6.17964 19.6383 6.05964 19.3453 6.11064 19.0493L6.91664 14.3503C6.96764 14.0513 6.86864 13.7463 6.65064 13.5343L3.23764 10.2063C3.02164 9.99629 2.94564 9.68829 3.03964 9.40229C3.13064 9.11729 3.37364 8.91229 3.67264 8.86929L8.38964 8.18329C8.68964 8.13929 8.94964 7.95129 9.08364 7.67929L11.1936 3.40529C11.4606 2.86329 12.3346 2.86529 12.6006 3.40529L14.7096 7.67929C14.8436 7.95129 15.1036 8.13929 15.4036 8.18329L20.1216 8.86929C20.4176 8.91229 20.6606 9.11629 20.7536 9.40229C20.8486 9.68729 20.7726 9.99629 20.5566 10.2073L17.1426 13.5343C16.9246 13.7463 16.8256 14.0513 16.8766 14.3503L17.6836 19.0493C17.7336 19.3453 17.6146 19.6383 17.3716 19.8153C17.2336 19.9153 17.0726 19.9663 16.9106 19.9663C16.7856 19.9663 16.6606 19.9363 16.5446 19.8753Z" stroke="#4272EF" stroke-width="2"/>
</svg>
