<svg width="24" height="24" viewBox="0 0 24 24" fill="none" xmlns="http://www.w3.org/2000/svg">
<path fill-rule="evenodd" clip-rule="evenodd" d="M21 15H3V19H21V15ZM1 13V21H23V13H1Z" fill="#4272EF"/>
<path d="M12.6689 6.8649C11.8749 6.8649 11.4778 7.3468 11.4778 8.31059V8.39833H12.463C12.5572 8.39833 12.6043 8.44986 12.6043 8.55292V8.85794C12.6043 8.961 12.5572 9.01253 12.463 9.01253H11.4778V9.49304H12.463C12.5572 9.49304 12.6043 9.54178 12.6043 9.63928V9.94429C12.6043 10.0474 12.5572 10.0989 12.463 10.0989H11.5101C11.6151 10.7897 12.0014 11.1351 12.6689 11.1351H12.8425C12.9367 11.1351 12.9838 11.1838 12.9838 11.2813V11.8454C12.9838 11.9485 12.9367 12 12.8425 12H12.6689C12.0175 12 11.4967 11.8301 11.1064 11.4903C10.7161 11.1504 10.4819 10.6866 10.4039 10.0989H10.1374C10.0432 10.0989 9.99742 10.0474 10.0001 9.94429V9.63928C10.0001 9.54178 10.0459 9.49304 10.1374 9.49304H10.3796V9.01253H10.1374C10.0432 9.01253 9.99742 8.961 10.0001 8.85794V8.55292C10.0001 8.44986 10.0459 8.39833 10.1374 8.39833H10.3796V8.31059C10.3796 7.60864 10.5802 7.04875 10.9812 6.63092C11.385 6.21031 11.9475 6 12.6689 6H12.8506C12.9502 6 13 6.04875 13 6.14624V6.71031C13 6.81337 12.9502 6.8649 12.8506 6.8649H12.6689Z" fill="#4272EF"/>
<path fill-rule="evenodd" clip-rule="evenodd" d="M12 4C9.23858 4 7 6.23858 7 9C7 10.6333 7.7821 12.0854 8.99918 13H15.0008C16.2179 12.0854 17 10.6333 17 9C17 6.23858 14.7614 4 12 4ZM15.6076 15C17.6404 13.7751 19 11.5463 19 9C19 5.13401 15.866 2 12 2C8.13401 2 5 5.13401 5 9C5 11.5463 6.35958 13.7751 8.39241 15H15.6076Z" fill="#4272EF"/>
</svg>
