<svg width="24" height="24" viewBox="0 0 24 24" fill="none" xmlns="http://www.w3.org/2000/svg">
<path fill-rule="evenodd" clip-rule="evenodd" d="M10 16.8824C13.801 16.8824 16.8824 13.801 16.8824 10C16.8824 6.19898 13.801 3.11765 10 3.11765C6.19898 3.11765 3.11765 6.19898 3.11765 10C3.11765 13.801 6.19898 16.8824 10 16.8824ZM19 10C19 14.9706 14.9706 19 10 19C5.02944 19 1 14.9706 1 10C1 5.02944 5.02944 1 10 1C14.9706 1 19 5.02944 19 10Z" fill="#CCCCCC"/>
<path fill-rule="evenodd" clip-rule="evenodd" d="M15.2929 15.2929C15.6834 14.9024 16.3166 14.9024 16.7071 15.2929L21.7071 20.2929C22.0976 20.6834 22.0976 21.3166 21.7071 21.7071C21.3166 22.0976 20.6834 22.0976 20.2929 21.7071L15.2929 16.7071C14.9024 16.3166 14.9024 15.6834 15.2929 15.2929Z" fill="#CCCCCC"/>
<rect x="7" y="7" width="7" height="2" fill="#CCCCCC"/>
<rect x="7" y="11" width="4" height="2" fill="#CCCCCC"/>
</svg>
