<svg width="48" height="48" viewBox="0 0 48 48" fill="none" xmlns="http://www.w3.org/2000/svg">
<path fill-rule="evenodd" clip-rule="evenodd" d="M32.1258 15.8742C32.8821 15.513 33.6968 15.2542 34.5519 15.1159C35.0233 15.0396 35.507 15 36 15C40.9706 15 45 19.0294 45 24C45 28.9706 40.9706 33 36 33C35.507 33 35.0233 32.9604 34.5519 32.8841C33.6968 32.7458 32.8821 32.487 32.1258 32.1258C32.487 32.8821 32.7458 33.6968 32.8841 34.5519C32.9604 35.0233 33 35.507 33 36C33 40.9706 28.9706 45 24 45C19.0294 45 15 40.9706 15 36C15 35.507 15.0396 35.0233 15.1159 34.5519C15.2542 33.6968 15.513 32.8821 15.8742 32.1258C15.1179 32.487 14.3032 32.7458 13.4481 32.8841C12.9767 32.9604 12.493 33 12 33C7.02944 33 3 28.9706 3 24C3 19.0294 7.02944 15 12 15C12.493 15 12.9767 15.0396 13.4481 15.1159C14.3032 15.2542 15.1179 15.513 15.8742 15.8742C15.513 15.1179 15.2542 14.3032 15.1159 13.4481C15.0396 12.9767 15 12.493 15 12C15 7.02944 19.0294 3 24 3C28.9706 3 33 7.02944 33 12C33 12.493 32.9604 12.9767 32.8841 13.4481C32.7458 14.3032 32.487 15.1179 32.1258 15.8742ZM34.9504 13.0496C35.2961 13.0168 35.6462 13 36 13C42.0751 13 47 17.9249 47 24C47 30.0751 42.0751 35 36 35C35.6462 35 35.2961 34.9832 34.9504 34.9504C34.9832 35.2961 35 35.6462 35 36C35 42.0751 30.0751 47 24 47C17.9249 47 13 42.0751 13 36C13 35.6462 13.0168 35.2961 13.0496 34.9504C12.7039 34.9832 12.3538 35 12 35C5.92487 35 1 30.0751 1 24C1 17.9249 5.92487 13 12 13C12.3538 13 12.7039 13.0168 13.0496 13.0496C13.0168 12.7039 13 12.3538 13 12C13 5.92487 17.9249 1 24 1C30.0751 1 35 5.92487 35 12C35 12.3538 34.9832 12.7039 34.9504 13.0496ZM22.9504 22.9504C22.9832 23.2961 23 23.6462 23 24C23 24.3538 22.9832 24.7039 22.9504 25.0496C23.2961 25.0168 23.6462 25 24 25C24.3538 25 24.7039 25.0168 25.0496 25.0496C25.0168 24.7039 25 24.3538 25 24C25 23.6462 25.0168 23.2961 25.0496 22.9504C24.7039 22.9832 24.3538 23 24 23C23.6462 23 23.2961 22.9832 22.9504 22.9504ZM20.8841 22.5519C20.9604 23.0233 21 23.507 21 24C21 24.493 20.9604 24.9767 20.8841 25.4481C20.7458 26.3032 20.487 27.1179 20.1258 27.8742C20.8821 27.513 21.6968 27.2542 22.5519 27.1159C23.0233 27.0396 23.507 27 24 27C24.493 27 24.9767 27.0396 25.4481 27.1159C26.3032 27.2542 27.1179 27.513 27.8742 27.8742C27.513 27.1179 27.2542 26.3032 27.1159 25.4481C27.0396 24.9767 27 24.493 27 24C27 23.507 27.0396 23.0233 27.1159 22.5519C27.2542 21.6968 27.513 20.8821 27.8742 20.1258C27.1179 20.487 26.3032 20.7458 25.4481 20.8841C24.9767 20.9604 24.493 21 24 21C23.507 21 23.0233 20.9604 22.5519 20.8841C21.6968 20.7458 20.8821 20.487 20.1258 20.1258C20.487 20.8821 20.7458 21.6968 20.8841 22.5519Z" fill="white"/>
<circle cx="24" cy="36" r="9" fill="#FF5E5E"/>
<circle cx="36" cy="24" r="9" fill="#FFCF60"/>
<circle cx="24" cy="12" r="9" fill="#4272EF"/>
<circle cx="12" cy="24" r="9" fill="black"/>
<path d="M24.5347 45C19.2688 45 15 40.9706 15 36C15 31.0294 19.2688 27 24.5347 27C24.5347 27 36.8316 45 24.5347 45Z" fill="#FF5E5E"/>
<circle cx="24" cy="24" r="7.5" fill="white"/>
</svg>
