<svg width="131" height="48" viewBox="0 0 131 48" fill="none" xmlns="http://www.w3.org/2000/svg">
<path fill-rule="evenodd" clip-rule="evenodd" d="M16.4885 41.7298C15.8529 41.372 15.4617 40.7129 15.4617 40V27.4464L4.11514 33.7365C3.47708 34.0902 2.69318 34.0877 2.05757 33.7298C1.42196 33.372 1.03076 32.7129 1.03076 32V16C1.03076 15.2871 1.42196 14.628 2.05757 14.2702C2.69318 13.9123 3.47708 13.9098 4.11514 14.2635L15.4617 20.5536V8C15.4617 7.28706 15.8529 6.62802 16.4885 6.27018C17.1241 5.91234 17.908 5.9098 18.546 6.26351L47.4079 22.2635C48.0502 22.6196 48.4466 23.2823 48.4466 24C48.4466 24.7177 48.0502 25.3804 47.4079 25.7365L18.546 41.7365C17.908 42.0902 17.1241 42.0877 16.4885 41.7298ZM17.5232 24L3.09232 16V32L17.5232 24L17.5232 40L46.385 24L17.5232 8L17.5232 24Z" fill="white"/>
<path d="M46.385 24L31.9541 32L31.9541 16L46.385 24Z" fill="#FFCF60"/>
<path d="M31.9541 16L17.5232 24L17.5232 8L31.9541 16Z" fill="#4272EF"/>
<path d="M31.9541 32L17.5232 40L17.5232 24L31.9541 32Z" fill="#FF5E5E"/>
<path d="M17.5232 24L31.9541 32L31.9541 16L17.5232 24Z" fill="white"/>
<path d="M17.5232 24L3.09229 32L3.09229 16L17.5232 24Z" fill="#222222"/>
<path d="M66.5174 34H62.7486C62.2816 34 62.0561 33.7812 62.0561 33.3281V12.2656C62.0561 11.8125 62.2816 11.5938 62.7486 11.5938H66.7107C67.1133 11.5938 67.3872 11.75 67.5643 12.0469L75.5851 24.6562V12.2656C75.5851 11.8906 75.8911 11.5938 76.2776 11.5938H80.0303C80.4652 11.5938 80.7712 11.8906 80.7712 12.2656V33.3281C80.7712 33.7031 80.4813 34 80.0303 34H76.1166C75.7139 34 75.4401 33.8438 75.2629 33.5469L67.21 20.8438V33.3281C67.21 33.7812 66.9845 34 66.5174 34Z" fill="black"/>
<path d="M96.2812 29.3906C96.6999 29.1875 97.0543 29.2188 97.3442 29.5156L99.454 31.5312C99.8245 31.8906 99.8245 32.2188 99.454 32.5C98.5682 33.2031 97.6019 33.6875 96.5228 33.9375C95.4437 34.1875 94.0102 34.3125 92.2547 34.3125C86.6337 34.3125 83.783 31.7188 83.783 25.9688V25.5156C83.783 23.1719 84.4916 21.3281 85.9251 19.9844C87.3585 18.6406 89.3556 17.9688 91.9326 17.9688C94.4129 17.9688 96.3939 18.5625 97.8757 19.75C99.3413 20.9531 100.082 22.6719 100.082 24.9062V26.9219C100.082 27.375 99.8406 27.5938 99.3574 27.5938H88.8724V27.7969C88.8724 28.4375 89.1462 29.0312 89.6777 29.5781C90.2092 30.1406 91.079 30.4219 92.2547 30.4219C93.1083 30.4219 93.817 30.3594 94.3485 30.2188C94.88 30.0938 95.5242 29.8125 96.2812 29.3906ZM88.8724 24.5312H94.9605C94.9605 22.7031 93.9458 21.7812 91.9326 21.7812C89.8871 21.7812 88.8724 22.7031 88.8724 24.5312Z" fill="black"/>
<path d="M117.911 19.125L112.725 26.1562L117.911 33.1719C118.217 33.6562 118.072 34 117.444 34H112.902C112.532 34 112.242 33.8594 112.065 33.5781L109.665 30.3125L107.249 33.5781C107.04 33.8594 106.766 34 106.428 34H101.886C101.258 34 101.113 33.625 101.451 33.1719L106.589 26.1562L101.419 19.125C101.081 18.6406 101.242 18.2812 101.838 18.2812H106.396C106.766 18.2812 107.04 18.4219 107.217 18.7031L109.665 22L112.097 18.7031C112.274 18.4219 112.548 18.2812 112.935 18.2812H117.477C118.105 18.2812 118.25 18.6406 117.911 19.125Z" fill="black"/>
<path d="M129.862 22.3125H127.156V28.2969C127.156 29.5625 127.994 30.1875 129.089 30.1875H129.862C130.329 30.1875 130.555 30.4062 130.555 30.8594V33.3281C130.555 33.7031 130.249 34 129.862 34H129.024C127.027 34 125.385 33.5156 124.112 32.5625C122.84 31.6094 122.196 30.1875 122.196 28.2969V22.3125H120.054C119.667 22.3125 119.361 22.0312 119.361 21.6406V18.9531C119.361 18.5781 119.667 18.2812 120.054 18.2812H122.196V14.1875C122.196 13.8594 122.55 13.5156 122.888 13.5156H126.464C126.802 13.5156 127.156 13.8594 127.156 14.1875V18.2812H129.862C130.329 18.2812 130.555 18.5 130.555 18.9531V21.6406C130.555 22.0938 130.329 22.3125 129.862 22.3125Z" fill="black"/>
</svg>
