<svg width="24" height="25" viewBox="0 0 24 25" fill="none" xmlns="http://www.w3.org/2000/svg">
<path d="M12 2.90381C6.48 2.90381 2 7.38381 2 12.9038C2 18.4238 6.48 22.9038 12 22.9038C17.52 22.9038 22 18.4238 22 12.9038C22 7.38381 17.52 2.90381 12 2.90381ZM12 20.9038C7.59 20.9038 4 17.3138 4 12.9038C4 8.49381 7.59 4.90381 12 4.90381C16.41 4.90381 20 8.49381 20 12.9038C20 17.3138 16.41 20.9038 12 20.9038Z" fill="#CCCCCC"/>
<path d="M13.354 8.90234C11.9135 8.90234 11.1933 9.74707 11.1933 11.4365V11.5903H12.9804C13.1513 11.5903 13.2368 11.6807 13.2368 11.8613V12.396C13.2368 12.5767 13.1513 12.667 12.9804 12.667H11.1933V13.5093H12.9804C13.1513 13.5093 13.2368 13.5947 13.2368 13.7656V14.3003C13.2368 14.481 13.1513 14.5713 12.9804 14.5713H11.2519C11.4423 15.7822 12.143 16.3877 13.354 16.3877H13.6689C13.8398 16.3877 13.9253 16.4731 13.9253 16.644V17.6328C13.9253 17.8135 13.8398 17.9038 13.6689 17.9038H13.354C12.1723 17.9038 11.2275 17.606 10.5195 17.0103C9.81148 16.4146 9.38668 15.6016 9.24508 14.5713H8.76168C8.59078 14.5713 8.50777 14.481 8.51265 14.3003V13.7656C8.51265 13.5947 8.59566 13.5093 8.76168 13.5093H9.20113V12.667H8.76168C8.59078 12.667 8.50777 12.5767 8.51265 12.396V11.8613C8.51265 11.6807 8.59566 11.5903 8.76168 11.5903H9.20113V11.4365C9.20113 10.2061 9.5649 9.22461 10.2924 8.49219C11.0249 7.75488 12.0454 7.38623 13.354 7.38623H13.6836C13.8642 7.38623 13.9545 7.47168 13.9545 7.64258V8.63135C13.9545 8.81201 13.8642 8.90234 13.6836 8.90234H13.354Z" fill="#CCCCCC"/>
</svg>
