<svg width="24" height="24" viewBox="0 0 24 24" fill="none" xmlns="http://www.w3.org/2000/svg">
<circle cx="12" cy="12" r="9" stroke="#6FCA37" stroke-width="2"/>
<path d="M12 3C14.4529 5.21827 16 8.4638 16 12.0796C16 15.6098 14.5252 18.7871 12.1725 21" stroke="#6FCA37" stroke-width="2"/>
<path d="M21 12L3 12" stroke="#6FCA37" stroke-width="2"/>
<path d="M12 3C9.54708 5.21827 8 8.4638 8 12.0796C8 15.6098 9.47476 18.7871 11.8275 21" stroke="#6FCA37" stroke-width="2"/>
<path fill-rule="evenodd" clip-rule="evenodd" d="M12 20C16.4183 20 20 16.4183 20 12C20 7.58172 16.4183 4 12 4C7.58172 4 4 7.58172 4 12C4 16.4183 7.58172 20 12 20ZM12 22C17.5228 22 22 17.5228 22 12C22 6.47715 17.5228 2 12 2C6.47715 2 2 6.47715 2 12C2 17.5228 6.47715 22 12 22Z" fill="#6FCA37"/>
<path fill-rule="evenodd" clip-rule="evenodd" d="M15.0008 12.0796C15.0008 8.75386 13.5789 5.7754 11.3301 3.74168L12.6716 2.2583C15.3286 4.66113 17.0008 8.17372 17.0008 12.0796C17.0008 15.8929 15.4067 19.3316 12.8585 21.7284L11.4882 20.2716C13.6454 18.2426 15.0008 15.3266 15.0008 12.0796Z" fill="#6FCA37"/>
<path fill-rule="evenodd" clip-rule="evenodd" d="M3 11L21 11L21 13L3 13L3 11Z" fill="#6FCA37"/>
<path fill-rule="evenodd" clip-rule="evenodd" d="M8.99918 12.0796C8.99918 8.75386 10.4211 5.7754 12.6699 3.74168L11.3284 2.2583C8.67144 4.66113 6.99918 8.17372 6.99918 12.0796C6.99918 15.8929 8.59327 19.3316 11.1415 21.7284L12.5118 20.2716C10.3546 18.2426 8.99918 15.3266 8.99918 12.0796Z" fill="#6FCA37"/>
</svg>
