<svg width="128" height="48" viewBox="0 0 128 48" fill="none" xmlns="http://www.w3.org/2000/svg">
<path d="M24 21L23.2023 21.6031L24 22.6582L24.7977 21.6031L24 21ZM24 21C24.7977 21.6031 24.7978 21.6029 24.7979 21.6028L24.7983 21.6023L24.7994 21.6008L24.8032 21.5957L24.8173 21.577L24.8699 21.5065C24.9156 21.445 24.9818 21.3554 25.0658 21.2403C25.2335 21.0103 25.4722 20.6784 25.758 20.268C26.3291 19.4482 27.0921 18.3099 27.8568 17.0396C28.6195 15.7723 29.3947 14.3561 29.982 12.9825C30.5592 11.6327 31 10.223 31 9C31 5.13401 27.866 2 24 2C20.134 2 17 5.13401 17 9C17 10.223 17.4408 11.6327 18.018 12.9825C18.6053 14.3561 19.3805 15.7723 20.1432 17.0396C20.9079 18.3099 21.6709 19.4482 22.242 20.268C22.5278 20.6784 22.7665 21.0103 22.9342 21.2403C23.0182 21.3554 23.0844 21.445 23.1301 21.5065L23.1827 21.577L23.1968 21.5957L23.2006 21.6008L23.2017 21.6023L23.2021 21.6028C23.2022 21.6029 23.2023 21.6031 24 21Z" fill="#222222" stroke="white" stroke-width="2"/>
<path d="M27 24L26.3969 23.2023L25.3418 24L26.3969 24.7977L27 24ZM27 24C26.3969 24.7977 26.3971 24.7978 26.3972 24.7979L26.3977 24.7983L26.3992 24.7994L26.4043 24.8032L26.423 24.8173L26.4935 24.8699C26.555 24.9156 26.6446 24.9818 26.7597 25.0658C26.9897 25.2335 27.3216 25.4722 27.732 25.758C28.5518 26.3291 29.6901 27.0921 30.9604 27.8568C32.2277 28.6195 33.6439 29.3947 35.0175 29.982C36.3673 30.5592 37.777 31 39 31C42.866 31 46 27.866 46 24C46 20.134 42.866 17 39 17C37.777 17 36.3673 17.4408 35.0175 18.018C33.6439 18.6053 32.2277 19.3805 30.9604 20.1432C29.6901 20.9079 28.5518 21.6709 27.732 22.2419C27.3216 22.5278 26.9897 22.7665 26.7597 22.9342C26.6446 23.0182 26.555 23.0844 26.4935 23.1301L26.423 23.1827L26.4043 23.1968L26.3992 23.2006L26.3977 23.2017L26.3972 23.2021C26.3971 23.2022 26.3969 23.2023 27 24Z" fill="#4272EF" stroke="white" stroke-width="2"/>
<path d="M24 27L24.7977 26.3969L24 25.3418L23.2023 26.3969L24 27ZM24 27C23.2023 26.3969 23.2022 26.3971 23.2021 26.3972L23.2017 26.3977L23.2006 26.3992L23.1968 26.4043L23.1827 26.423L23.1301 26.4935C23.0844 26.555 23.0182 26.6446 22.9343 26.7597C22.7665 26.9897 22.5278 27.3215 22.242 27.732C21.6709 28.5518 20.9079 29.6901 20.1432 30.9604C19.3805 32.2277 18.6053 33.6439 18.018 35.0175C17.4408 36.3673 17 37.777 17 39C17 42.866 20.134 46 24 46C27.866 46 31 42.866 31 39C31 37.777 30.5592 36.3673 29.982 35.0175C29.3947 33.6439 28.6195 32.2277 27.8568 30.9604C27.0921 29.6901 26.3291 28.5518 25.7581 27.732C25.4722 27.3215 25.2335 26.9897 25.0658 26.7597C24.9818 26.6446 24.9156 26.555 24.8699 26.4935L24.8173 26.423L24.8032 26.4043L24.7994 26.3992L24.7983 26.3977L24.7979 26.3972C24.7978 26.3971 24.7977 26.3969 24 27Z" fill="#FFCF60" stroke="white" stroke-width="2"/>
<path d="M21 24L21.6031 24.7977L22.6582 24L21.6031 23.2023L21 24ZM21 24C21.6031 23.2023 21.6029 23.2022 21.6028 23.2021L21.6023 23.2017L21.6009 23.2006L21.5957 23.1968L21.577 23.1827L21.5065 23.1301C21.445 23.0844 21.3554 23.0182 21.2403 22.9343C21.0103 22.7665 20.6785 22.5278 20.268 22.242C19.4482 21.6709 18.3099 20.9079 17.0396 20.1432C15.7723 19.3805 14.3561 18.6053 12.9825 18.018C11.6327 17.4408 10.223 17 9 17C5.13401 17 2 20.134 2 24C2 27.866 5.13401 31 9 31C10.223 31 11.6327 30.5592 12.9825 29.982C14.3561 29.3947 15.7723 28.6196 17.0396 27.8568C18.3099 27.0921 19.4482 26.3291 20.268 25.7581C20.6785 25.4722 21.0103 25.2335 21.2403 25.0658C21.3554 24.9818 21.445 24.9156 21.5065 24.8699L21.577 24.8173L21.5957 24.8032L21.6008 24.7994L21.6023 24.7983L21.6028 24.7979C21.6029 24.7978 21.6031 24.7977 21 24Z" fill="#FF5E5E" stroke="white" stroke-width="2"/>
<path d="M62.2969 18.3906C62.2969 16.5 63.0156 15 64.4375 13.9062C65.8594 12.8281 67.8906 12.2812 70.5625 12.2812C73.7188 12.2812 76.25 12.9688 78.1719 14.3594C78.5938 14.6406 78.6094 14.9531 78.2031 15.3125L76.4219 17.1406C76.1406 17.4219 75.8125 17.4688 75.4219 17.2656C74.0312 16.5 72.4219 16.1094 70.5625 16.125C68.4375 16.125 67.2969 16.8906 67.2969 18.1406C67.2969 18.7188 67.5781 19.1875 68.1406 19.5469C68.7031 19.9062 69.8125 20.375 71.4531 20.9219C74.5938 21.9375 76.7344 22.9844 77.875 24.0625C79.0156 25.1406 79.5781 26.7188 79.5781 28.7969C79.5781 30.7812 78.8281 32.3438 77.3125 33.5156C75.7969 34.6875 73.4062 35.2812 70.1406 35.2812C66.8125 35.2812 64.125 34.5312 62.0469 33.0469C61.6406 32.7656 61.625 32.4531 61.9844 32.0938L63.875 30.2031C64.1562 29.875 64.4688 29.8438 64.8281 30.0781C66.4688 31.0156 68.25 31.4844 70.1406 31.4844C73.0781 31.4844 74.625 30.5 74.625 28.9531C74.625 28.1875 74.3438 27.5625 73.7656 27.1094C73.1875 26.6562 72.0156 26.1562 70.2656 25.625C67.125 24.7031 65.0156 23.7344 63.9375 22.6875C62.8438 21.6562 62.2969 20.2188 62.2969 18.3906ZM94.3438 30.3906C94.75 30.1875 95.0938 30.2188 95.375 30.5156L97.4219 32.5312C97.7812 32.8906 97.7812 33.2188 97.4219 33.5C96.5625 34.2031 95.625 34.6875 94.5781 34.9375C93.5312 35.1875 92.1406 35.3125 90.4375 35.3125C84.9844 35.3125 82.2188 32.7188 82.2188 26.9688V26.5156C82.2188 24.1719 82.9062 22.3281 84.2969 20.9844C85.6875 19.6406 87.625 18.9688 90.125 18.9688C92.5312 18.9688 94.4531 19.5625 95.8906 20.75C97.3125 21.9531 98.0312 23.6719 98.0312 25.9062V27.9219C98.0312 28.375 97.7969 28.5938 97.3281 28.5938H87.1562V28.7969C87.1562 29.4375 87.4219 30.0312 87.9375 30.5781C88.4531 31.1406 89.2969 31.4219 90.4375 31.4219C91.2656 31.4219 91.9531 31.3594 92.4688 31.2188C92.9844 31.0938 93.6094 30.8125 94.3438 30.3906ZM87.1562 25.5312H93.0625C93.0625 23.7031 92.0781 22.7812 90.125 22.7812C88.1406 22.7812 87.1562 23.7031 87.1562 25.5312ZM108.391 31.9844V34.6406C108.391 34.9688 108.078 35.3125 107.688 35.3125H107.375C105.172 35.3125 103.609 34.8594 102.688 33.9375C101.766 33.0156 101.297 31.5469 101.297 29.5312V13.2656C101.297 12.9375 101.609 12.5938 101.969 12.5938H105.422C105.75 12.5938 106.094 12.9375 106.094 13.2656V29.5312C106.094 30.7344 106.516 31.3281 107.375 31.3125H107.688C108.156 31.3125 108.391 31.5312 108.391 31.9844ZM121.453 13.7188C121.75 14.0156 121.75 14.3281 121.422 14.6406L119.469 16.6562C119.203 16.9219 118.906 16.9375 118.578 16.7031C118.25 16.5 117.906 16.3906 117.547 16.375C116.734 16.375 116.328 17.3281 116.328 19.25V19.2812H118.281C118.703 19.2812 118.984 19.5781 118.984 19.9531V22.6406C118.984 23.0156 118.719 23.3125 118.281 23.3125H116.297L116.234 34.3281C116.234 34.7812 116.016 35 115.562 35H112.016C111.547 35 111.312 34.7812 111.312 34.3281V23.3125H110.031C109.656 23.3125 109.359 23.0312 109.359 22.6406V19.9531C109.359 19.5781 109.641 19.2812 110.031 19.2812H111.312V19.25C111.312 16.8594 111.891 15.1094 113.047 13.9688C114.188 12.8438 115.625 12.2812 117.359 12.2812C119.125 12.2812 120.5 12.7656 121.453 13.7188Z" fill="black"/>
</svg>
