<svg width="24" height="25" viewBox="0 0 24 25" fill="none" xmlns="http://www.w3.org/2000/svg">
<path d="M19.4301 13.8838C19.4701 13.5638 19.5001 13.2438 19.5001 12.9038C19.5001 12.5638 19.4701 12.2438 19.4301 11.9238L21.5401 10.2738C21.7301 10.1238 21.7801 9.85381 21.6601 9.63381L19.6601 6.17381C19.5701 6.01381 19.4001 5.92381 19.2201 5.92381C19.1601 5.92381 19.1001 5.93381 19.0501 5.95381L16.5601 6.95381C16.0401 6.55381 15.4801 6.22381 14.8701 5.97381L14.4901 3.32381C14.4601 3.08381 14.2501 2.90381 14.0001 2.90381H10.0001C9.75008 2.90381 9.54008 3.08381 9.51008 3.32381L9.13008 5.97381C8.52008 6.22381 7.96008 6.56381 7.44008 6.95381L4.95008 5.95381C4.89008 5.93381 4.83008 5.92381 4.77008 5.92381C4.60008 5.92381 4.43008 6.01381 4.34008 6.17381L2.34008 9.63381C2.21008 9.85381 2.27008 10.1238 2.46008 10.2738L4.57008 11.9238C4.53008 12.2438 4.50008 12.5738 4.50008 12.9038C4.50008 13.2338 4.53008 13.5638 4.57008 13.8838L2.46008 15.5338C2.27008 15.6838 2.22008 15.9538 2.34008 16.1738L4.34008 19.6338C4.43008 19.7938 4.60008 19.8838 4.78008 19.8838C4.84008 19.8838 4.90008 19.8738 4.95008 19.8538L7.44008 18.8538C7.96008 19.2538 8.52008 19.5838 9.13008 19.8338L9.51008 22.4838C9.54008 22.7238 9.75008 22.9038 10.0001 22.9038H14.0001C14.2501 22.9038 14.4601 22.7238 14.4901 22.4838L14.8701 19.8338C15.4801 19.5838 16.0401 19.2438 16.5601 18.8538L19.0501 19.8538C19.1101 19.8738 19.1701 19.8838 19.2301 19.8838C19.4001 19.8838 19.5701 19.7938 19.6601 19.6338L21.6601 16.1738C21.7801 15.9538 21.7301 15.6838 21.5401 15.5338L19.4301 13.8838ZM17.4501 12.1738C17.4901 12.4838 17.5001 12.6938 17.5001 12.9038C17.5001 13.1138 17.4801 13.3338 17.4501 13.6338L17.3101 14.7638L18.2001 15.4638L19.2801 16.3038L18.5801 17.5138L17.3101 17.0038L16.2701 16.5838L15.3701 17.2638C14.9401 17.5838 14.5301 17.8238 14.1201 17.9938L13.0601 18.4238L12.9001 19.5538L12.7001 20.9038H11.3001L11.1101 19.5538L10.9501 18.4238L9.89008 17.9938C9.46008 17.8138 9.06008 17.5838 8.66008 17.2838L7.75008 16.5838L6.69008 17.0138L5.42008 17.5238L4.72008 16.3138L5.80008 15.4738L6.69008 14.7738L6.55008 13.6438C6.52008 13.3338 6.50008 13.1038 6.50008 12.9038C6.50008 12.7038 6.52008 12.4738 6.55008 12.1738L6.69008 11.0438L5.80008 10.3438L4.72008 9.50381L5.42008 8.29381L6.69008 8.80381L7.73008 9.22381L8.63008 8.54381C9.06008 8.22381 9.47008 7.98381 9.88008 7.81381L10.9401 7.38381L11.1001 6.25381L11.3001 4.90381H12.6901L12.8801 6.25381L13.0401 7.38381L14.1001 7.81381C14.5301 7.99381 14.9301 8.22381 15.3301 8.52381L16.2401 9.22381L17.3001 8.79381L18.5701 8.28381L19.2701 9.49381L18.2001 10.3438L17.3101 11.0438L17.4501 12.1738ZM12.0001 8.90381C9.79008 8.90381 8.00008 10.6938 8.00008 12.9038C8.00008 15.1138 9.79008 16.9038 12.0001 16.9038C14.2101 16.9038 16.0001 15.1138 16.0001 12.9038C16.0001 10.6938 14.2101 8.90381 12.0001 8.90381ZM12.0001 14.9038C10.9001 14.9038 10.0001 14.0038 10.0001 12.9038C10.0001 11.8038 10.9001 10.9038 12.0001 10.9038C13.1001 10.9038 14.0001 11.8038 14.0001 12.9038C14.0001 14.0038 13.1001 14.9038 12.0001 14.9038Z" fill="#CCCCCC"/>
</svg>
