<svg width="48" height="48" viewBox="0 0 48 48" fill="none" xmlns="http://www.w3.org/2000/svg">
<path fill-rule="evenodd" clip-rule="evenodd" d="M40.021 48H7.97601C3.58921 48 0 44.4108 0 40.024V7.97601C0 3.58921 3.58921 0 7.97601 0H40.021C44.4078 0 47.997 3.58921 47.997 7.97601V40.021C48 44.4108 44.4108 48 40.021 48Z" fill="#FFFC00"/>
<g clip-path="url(#clip0_783_8004)">
<path d="M0.0186462 35.7912V35.7934C0.0473736 36.8589 0.0562345 37.9306 0.235967 38.9896C0.426426 40.11 0.698683 41.2024 1.21811 42.2193C1.92034 43.5956 2.88476 44.7578 4.10213 45.7072C4.97617 46.3889 5.93098 46.9301 6.98793 47.2715C8.52913 47.7686 10.1191 47.9591 11.7323 47.9685C12.7388 47.9748 13.7446 48 14.7515 47.9958C22.0635 47.965 29.3756 48.0486 36.6878 47.9507C37.658 47.9375 38.6125 47.8191 39.5648 47.645C41.39 47.3109 43.0031 46.5321 44.3832 45.3008C45.9917 43.8662 47.0769 42.1105 47.5668 39.9915C47.8873 38.6064 47.9675 37.2012 47.9813 35.7911V35.5097C47.9813 35.4006 47.9397 11.5492 47.9359 11.234C47.9252 10.368 47.8614 9.50848 47.699 8.65636C47.5016 7.61798 47.2226 6.60618 46.7254 5.66676C46.2003 4.67426 45.5427 3.78185 44.7293 3.00201C43.4833 1.80721 42.0454 0.962274 40.3715 0.515321C38.8596 0.111738 37.3171 0.0223851 35.7634 0.0237841C35.7609 0.023411 35.755 0.0076482 35.7547 0H12.2378C12.2373 0.00802128 12.237 0.0160427 12.2365 0.0237841C11.3547 0.03992 10.4716 0.0332975 9.59429 0.142051C8.63322 0.261531 7.6814 0.44145 6.77173 0.777411C5.3389 1.30738 4.09402 2.13282 3.03064 3.23482C1.82586 4.48334 0.97663 5.92726 0.526039 7.60865C0.124042 9.10882 0.0365548 10.6388 0.0344096 12.1797" fill="#FFFC00"/>
<path d="M40.4273 32.5571C40.2858 32.0824 39.6088 31.7477 39.6088 31.7477C39.5449 31.7136 39.4876 31.6829 39.4404 31.6589C38.3121 31.1057 37.3118 30.4399 36.4698 29.6851C35.7928 29.0772 35.2135 28.408 34.7487 27.6977C34.1795 26.8303 33.9134 26.1063 33.7989 25.7136C33.7349 25.4575 33.745 25.355 33.7989 25.2219C33.8427 25.1091 33.974 25.0033 34.0346 24.9521C34.4152 24.6789 35.0282 24.2759 35.4054 24.0301C35.7322 23.8149 36.0117 23.6305 36.1768 23.5144C36.7055 23.1388 37.0692 22.7563 37.2815 22.3431C37.5577 21.8104 37.5913 21.223 37.3758 20.6459C37.0861 19.8673 36.3687 19.4029 35.456 19.4029C35.2538 19.4029 35.045 19.4268 34.8362 19.4712C34.3142 19.5873 33.8191 19.7751 33.4048 19.939C33.3979 19.9422 33.3902 19.9435 33.3827 19.9427C33.3751 19.942 33.3679 19.9392 33.3617 19.9347C33.3556 19.9302 33.3507 19.9241 33.3476 19.917C33.3445 19.91 33.3433 19.9022 33.3442 19.8946C33.388 18.8531 33.4385 17.453 33.3239 16.1246C33.2229 14.9225 32.9771 13.9083 32.5796 13.0239C32.1788 12.136 31.6567 11.4803 31.2492 11.0057C30.8618 10.5549 30.1781 9.88903 29.1475 9.29142C27.6992 8.45136 26.0488 8.02448 24.2435 8.02448C22.4416 8.02448 20.7946 8.45136 19.3429 9.29142C18.2516 9.92316 17.5544 10.6369 17.2379 11.0057C16.8303 11.4803 16.3083 12.136 15.9074 13.0239C15.5066 13.9084 15.2641 14.9192 15.1631 16.1246C15.0486 17.4598 15.0958 18.7473 15.1429 19.8947C15.1429 19.9288 15.1126 19.9527 15.0789 19.939C14.6646 19.7751 14.1695 19.5873 13.6475 19.4712C13.442 19.4268 13.2332 19.4029 13.0277 19.4029C12.1183 19.4029 11.4009 19.8673 11.1079 20.6459C10.8924 21.223 10.926 21.8104 11.2022 22.3431C11.4177 22.7563 11.7781 23.1387 12.3069 23.5144C12.4686 23.6305 12.7515 23.815 13.0782 24.0301C13.4453 24.2725 14.0415 24.6652 14.4255 24.935C14.4726 24.9692 14.6343 25.0921 14.6848 25.2219C14.7387 25.3584 14.7488 25.4609 14.6781 25.7341C14.5602 26.1302 14.2941 26.8473 13.735 27.6977C13.2702 28.4114 12.6909 29.0772 12.0139 29.6852C11.1719 30.4398 10.1716 31.1057 9.04323 31.6589C8.98935 31.6862 8.92537 31.7169 8.85798 31.758C8.85798 31.758 8.18436 32.1063 8.05639 32.5571C7.86779 33.2229 8.36961 33.8479 8.87825 34.1825C9.7135 34.7289 10.7307 35.0226 11.3201 35.1831C11.4851 35.2275 11.6333 35.2685 11.768 35.3094C11.8522 35.3368 12.0644 35.4187 12.1554 35.5382C12.2698 35.6885 12.2834 35.8729 12.3238 36.0812C12.3878 36.4329 12.5326 36.8666 12.9603 37.1671C13.4319 37.495 14.0281 37.5188 14.7859 37.5496C15.5774 37.5803 16.5609 37.6179 17.6892 37.997C18.2113 38.1711 18.6861 38.4682 19.2318 38.8097C20.3769 39.5234 21.8016 40.4113 24.2334 40.4113C26.6685 40.4113 28.1034 39.52 29.2553 38.8029C29.8009 38.4648 30.2691 38.1711 30.7811 38.0004C31.9093 37.6214 32.8928 37.5837 33.6843 37.553C34.4422 37.5223 35.0383 37.5018 35.5098 37.1705C35.9679 36.8496 36.0993 36.3715 36.1599 36.0129C36.1936 35.8353 36.2138 35.6748 36.3148 35.545C36.4024 35.4324 36.5977 35.3538 36.6887 35.3231C36.8268 35.2787 36.9817 35.2377 37.1535 35.1899C37.7429 35.0295 38.4839 34.8416 39.3832 34.3259C40.4677 33.701 40.5418 32.9361 40.4273 32.5571Z" fill="white"/>
<path d="M41.3636 32.1883C41.1244 31.5258 40.6664 31.174 40.1477 30.8803C40.05 30.8223 39.9591 30.7745 39.885 30.7404C39.7301 30.6584 39.5718 30.5799 39.4134 30.4979C37.7934 29.6271 36.5269 28.5275 35.6513 27.2264C35.3549 26.7859 35.1494 26.3897 35.0046 26.0654C34.9305 25.8468 34.9339 25.7239 34.9878 25.6112C35.0282 25.5258 35.1359 25.437 35.1966 25.3927C35.4489 25.2232 35.7027 25.0559 35.9577 24.8907C36.3047 24.6618 36.5809 24.4808 36.756 24.3579C37.4229 23.8867 37.8877 23.3847 38.1774 22.8246C38.5883 22.0358 38.6388 21.1343 38.3222 20.2874C37.8843 19.1126 36.7863 18.3819 35.4593 18.3819C35.1831 18.3819 34.9036 18.4126 34.6274 18.474C34.5533 18.4911 34.4825 18.5082 34.4118 18.5253C34.4252 17.7262 34.4051 16.8725 34.3343 16.0392C34.0851 13.1024 33.0713 11.5623 32.0137 10.3364C31.5725 9.82411 30.8046 9.07627 29.6527 8.40693C28.0461 7.47126 26.2273 7 24.2435 7C22.2664 7 20.4476 7.47126 18.841 8.4036C17.6824 9.07287 16.9144 9.82411 16.4766 10.333C15.419 11.5589 14.4052 13.099 14.1559 16.0358C14.0853 16.8691 14.0684 17.7227 14.0785 18.5219C14.0078 18.5048 13.9337 18.4877 13.863 18.4706C13.5897 18.4098 13.3108 18.3789 13.031 18.3784C11.704 18.3784 10.606 19.1092 10.1682 20.284C9.85159 21.1308 9.90206 22.0324 10.313 22.8212C10.6026 23.3813 11.0708 23.8833 11.7343 24.3545C11.9128 24.4809 12.1857 24.6618 12.5325 24.8872C12.7211 25.0102 12.994 25.1911 13.2635 25.3721C13.3039 25.3995 13.4487 25.5087 13.4992 25.6112C13.5565 25.7273 13.5565 25.8536 13.4723 26.0858C13.3308 26.4035 13.1253 26.7927 12.8357 27.223C11.9768 28.4968 10.7475 29.5759 9.18126 30.4364C8.34935 30.8837 7.48713 31.1809 7.12339 32.1848C6.84718 32.943 7.02902 33.8069 7.72626 34.5343C7.95529 34.7836 8.24495 35.0055 8.6087 35.2105C9.46422 35.6885 10.1917 35.9242 10.7643 36.0847C10.8653 36.1154 11.0978 36.1905 11.1988 36.2827C11.4548 36.5081 11.4177 36.8496 11.7579 37.3481C11.9633 37.6589 12.1991 37.8706 12.3945 38.0072C13.1051 38.5058 13.9067 38.5365 14.7555 38.5707C15.5201 38.6014 16.3891 38.6355 17.3793 38.9668C17.7902 39.1034 18.2179 39.3698 18.7097 39.6771C19.8952 40.4182 21.522 41.429 24.2401 41.429C26.9616 41.429 28.595 40.4113 29.7908 39.6702C30.2825 39.3663 30.7069 39.1 31.1043 38.9668C32.0945 38.6356 32.9636 38.6014 33.7281 38.5707C34.5768 38.5365 35.3751 38.5058 36.0891 38.0072C36.3865 37.7969 36.6349 37.5229 36.8166 37.2048C37.0591 36.7847 37.0558 36.4876 37.2848 36.2861C37.3791 36.2041 37.5846 36.1324 37.6957 36.0983C38.2717 35.9378 39.0093 35.7022 39.8816 35.2138C40.269 34.9987 40.5687 34.7631 40.8078 34.4933L40.818 34.483C41.468 33.7659 41.6331 32.9293 41.3636 32.1883ZM38.9486 33.503C37.4734 34.3294 36.4933 34.2406 35.7321 34.7357C35.0854 35.1592 35.466 36.071 34.9979 36.3988C34.4185 36.8052 32.7109 36.3715 30.5048 37.1091C28.686 37.7204 27.524 39.4722 24.2468 39.4722C20.9629 39.4722 19.8346 37.7272 17.9889 37.1091C15.7828 36.3715 14.0718 36.8052 13.4958 36.3988C13.0277 36.071 13.4083 35.1592 12.7616 34.7357C12.0004 34.2372 11.0203 34.326 9.54506 33.503C8.60535 32.9771 9.13748 32.6527 9.4507 32.499C14.7925 29.8798 15.6413 25.8297 15.6817 25.5258C15.7289 25.1639 15.7794 24.877 15.3854 24.5048C15.0048 24.1461 13.3106 23.0841 12.8424 22.7529C12.0644 22.2031 11.7242 21.6533 11.9768 20.9771C12.1519 20.5093 12.5831 20.3352 13.0378 20.3352C13.1793 20.3352 13.3241 20.3522 13.4621 20.383C14.3143 20.5708 15.1428 21.0045 15.6211 21.1206C15.6885 21.1377 15.7457 21.1445 15.7962 21.1445C16.0522 21.1445 16.1398 21.0147 16.123 20.7176C16.0691 19.7717 15.9344 17.9277 16.0825 16.2032C16.2847 13.8332 17.0391 12.6585 17.935 11.6169C18.3661 11.1184 20.387 8.95331 24.2502 8.95331C28.1235 8.95331 30.1343 11.1184 30.5654 11.6169C31.4613 12.6551 32.2158 13.8298 32.4179 16.2032C32.5661 17.9277 32.4381 19.7717 32.3775 20.7176C32.3573 21.0284 32.4516 21.1445 32.7042 21.1445C32.7547 21.1445 32.8153 21.1377 32.8793 21.1206C33.3576 21.0045 34.1861 20.5708 35.0383 20.383C35.1776 20.3517 35.3199 20.3357 35.4626 20.3352C35.9174 20.3352 36.3484 20.5128 36.5236 20.9771C36.7762 21.6533 36.4326 22.2031 35.658 22.7529C35.1899 23.0841 33.4956 24.1462 33.1151 24.5048C32.721 24.8736 32.7715 25.1604 32.8187 25.5258C32.8557 25.8297 33.7079 29.8798 39.0497 32.499C39.3529 32.6527 39.8883 32.9771 38.9486 33.503Z" fill="black"/>
</g>
<defs>
<clipPath id="clip0_783_8004">
<rect width="48" height="48" fill="white"/>
</clipPath>
</defs>
</svg>
