<svg width="24" height="24" viewBox="0 0 24 24" fill="none" xmlns="http://www.w3.org/2000/svg">
<path d="M8.29688 8.40625C8.29688 7.55208 8.58854 6.8776 9.17188 6.38281C9.76042 5.88802 10.599 5.64062 11.6875 5.64062C13 5.64062 14.0234 5.9349 14.7578 6.52344C14.8516 6.60677 14.8568 6.69531 14.7734 6.78906L14.2812 7.28906C14.1979 7.3724 14.1016 7.3776 13.9922 7.30469C13.3932 6.8776 12.625 6.66406 11.6875 6.66406C10.9844 6.66406 10.4505 6.82292 10.0859 7.14062C9.72656 7.45312 9.54688 7.875 9.54688 8.40625C9.54688 8.90625 9.67969 9.29167 9.94531 9.5625C10.2109 9.82812 10.776 10.0781 11.6406 10.3125C12.7396 10.6094 13.5573 10.9167 14.0938 11.2344C14.6354 11.5469 14.9974 11.9089 15.1797 12.3203C15.3672 12.7318 15.4609 13.2995 15.4609 14.0234C15.4609 15.0286 15.138 15.8021 14.4922 16.3438C13.8516 16.8854 12.8646 17.1562 11.5312 17.1562C10.0677 17.1562 8.91927 16.8281 8.08594 16.1719C7.98177 16.0885 7.98177 15.9974 8.08594 15.8984L8.57031 15.3828C8.65365 15.3099 8.75 15.3047 8.85938 15.3672C9.58333 15.8776 10.474 16.1328 11.5312 16.1328C12.5 16.1328 13.1901 15.9505 13.6016 15.5859C14.013 15.2161 14.2188 14.6953 14.2188 14.0234C14.2188 13.3516 14.0547 12.8542 13.7266 12.5312C13.4036 12.2031 12.7083 11.8958 11.6406 11.6094C10.9271 11.4167 10.3516 11.2188 9.91406 11.0156C9.47656 10.8125 9.13802 10.5807 8.89844 10.3203C8.65885 10.0599 8.4974 9.78646 8.41406 9.5C8.33594 9.20833 8.29688 8.84375 8.29688 8.40625Z" fill="#4272EF"/>
<path d="M7 12.2969H16.4688V13.0938H7V12.2969Z" fill="#4272EF"/>
</svg>
